<svg width="28" height="28" viewBox="0 0 28 28" fill="none" xmlns="http://www.w3.org/2000/svg">
<path fill-rule="evenodd" clip-rule="evenodd" d="M14 4.83774L5.83333 9.43208V9.60124C5.83333 15.1312 8.827 20.2517 13.6477 22.9642L14 23.1626L14.3523 22.9642C19.173 20.2517 22.1667 15.1312 22.1667 9.60124V9.43208L14 4.83774ZM14 25.4924C13.6045 25.4924 13.209 25.3944 12.8578 25.1961L12.5043 24.9966C6.94983 21.8734 3.5 15.9736 3.5 9.60124V9.43207C3.5 8.59324 3.955 7.81391 4.68767 7.39974L12.8567 2.80541C13.5625 2.40874 14.4387 2.40757 15.1422 2.80424L23.31 7.39857C24.045 7.81391 24.5 8.59324 24.5 9.43207V9.60124C24.5 15.9736 21.0502 21.8734 15.4957 24.9966L15.1433 25.1949C14.791 25.3932 14.3955 25.4924 14 25.4924Z" fill="#231F20"/>
<mask id="mask0_226_16603" style="mask-type:alpha" maskUnits="userSpaceOnUse" x="3" y="2" width="22" height="24">
<path fill-rule="evenodd" clip-rule="evenodd" d="M14 4.83774L5.83333 9.43208V9.60124C5.83333 15.1312 8.827 20.2517 13.6477 22.9642L14 23.1626L14.3523 22.9642C19.173 20.2517 22.1667 15.1312 22.1667 9.60124V9.43208L14 4.83774ZM14 25.4924C13.6045 25.4924 13.209 25.3944 12.8578 25.1961L12.5043 24.9966C6.94983 21.8734 3.5 15.9736 3.5 9.60124V9.43207C3.5 8.59324 3.955 7.81391 4.68767 7.39974L12.8567 2.80541C13.5625 2.40874 14.4387 2.40757 15.1422 2.80424L23.31 7.39857C24.045 7.81391 24.5 8.59324 24.5 9.43207V9.60124C24.5 15.9736 21.0502 21.8734 15.4957 24.9966L15.1433 25.1949C14.791 25.3932 14.3955 25.4924 14 25.4924Z" fill="white"/>
</mask>
<g mask="url(#mask0_226_16603)">
<rect width="28" height="28" fill="white"/>
</g>
</svg>
