<svg width="24" height="22" viewBox="0 0 24 22" fill="none" xmlns="http://www.w3.org/2000/svg">
<path fill-rule="evenodd" clip-rule="evenodd" d="M1.95799 11.3714C0.704128 10.1223 0 8.43402 0 6.67378C0 4.90378 0.711538 3.20576 1.97899 1.9542C3.24644 0.702634 4.96602 0 6.75849 0C8.55095 0 10.2705 0.702634 11.538 1.9542L12 2.41042L12.462 1.9542C13.7295 0.702634 15.4478 0 17.2403 0C19.034 0 20.7523 0.702634 22.0198 1.9542C23.2872 3.20576 24 4.90378 24 6.67378C24 8.43402 23.2959 10.1223 22.0408 11.3714L12.8721 20.9582C12.6461 21.1949 12.3298 21.329 12 21.329C11.6702 21.329 11.3539 21.1949 11.1279 20.9582L1.95799 11.3714Z" fill="#2B67F6"/>
</svg>
