<svg width="16" height="16" viewBox="0 0 16 16" fill="none" xmlns="http://www.w3.org/2000/svg">
<path fill-rule="evenodd" clip-rule="evenodd" d="M12 6.66667C12 6.29933 11.7013 6 11.3333 6C10.9653 6 10.6666 6.29933 10.6666 6.66667C10.6666 7.034 10.9653 7.33333 11.3333 7.33333C11.7013 7.33333 12 7.034 12 6.66667ZM13.3333 6.66667C13.3333 7.76933 12.436 8.66667 11.3333 8.66667C10.2306 8.66667 9.33331 7.76933 9.33331 6.66667C9.33331 5.564 10.2306 4.66667 11.3333 4.66667C12.436 4.66667 13.3333 5.564 13.3333 6.66667ZM7.33331 4.66667C7.33331 3.93133 6.73531 3.33333 5.99998 3.33333C5.26465 3.33333 4.66665 3.93133 4.66665 4.66667C4.66665 5.402 5.26465 6 5.99998 6C6.73531 6 7.33331 5.402 7.33331 4.66667ZM8.66665 4.66667C8.66665 6.13733 7.47065 7.33333 5.99998 7.33333C4.52931 7.33333 3.33331 6.13733 3.33331 4.66667C3.33331 3.196 4.52931 2 5.99998 2C7.47065 2 8.66665 3.196 8.66665 4.66667ZM9.29331 10.0307C9.87265 9.58267 10.586 9.33333 11.3333 9.33333C13.1713 9.33333 14.6666 10.8287 14.6666 12.6667C14.6666 13.0347 14.3686 13.3333 14 13.3333C13.6313 13.3333 13.3333 13.0347 13.3333 12.6667C13.3333 11.564 12.436 10.6667 11.3333 10.6667C10.878 10.6667 10.4453 10.8227 10.096 11.0993C10.4586 11.7633 10.6666 12.5247 10.6666 13.3333C10.6666 13.7013 10.3686 14 9.99998 14C9.63131 14 9.33331 13.7013 9.33331 13.3333C9.33331 11.4953 7.83798 10 5.99998 10C4.16198 10 2.66665 11.4953 2.66665 13.3333C2.66665 13.7013 2.36865 14 1.99998 14C1.63131 14 1.33331 13.7013 1.33331 13.3333C1.33331 10.76 3.42731 8.66667 5.99998 8.66667C7.28465 8.66667 8.44865 9.18867 9.29331 10.0307Z" fill="#2B67F6"/>
<mask id="mask0_54_19407" style="mask-type:alpha" maskUnits="userSpaceOnUse" x="1" y="2" width="14" height="12">
<path fill-rule="evenodd" clip-rule="evenodd" d="M12 6.66667C12 6.29933 11.7013 6 11.3333 6C10.9653 6 10.6666 6.29933 10.6666 6.66667C10.6666 7.034 10.9653 7.33333 11.3333 7.33333C11.7013 7.33333 12 7.034 12 6.66667ZM13.3333 6.66667C13.3333 7.76933 12.436 8.66667 11.3333 8.66667C10.2306 8.66667 9.33331 7.76933 9.33331 6.66667C9.33331 5.564 10.2306 4.66667 11.3333 4.66667C12.436 4.66667 13.3333 5.564 13.3333 6.66667ZM7.33331 4.66667C7.33331 3.93133 6.73531 3.33333 5.99998 3.33333C5.26465 3.33333 4.66665 3.93133 4.66665 4.66667C4.66665 5.402 5.26465 6 5.99998 6C6.73531 6 7.33331 5.402 7.33331 4.66667ZM8.66665 4.66667C8.66665 6.13733 7.47065 7.33333 5.99998 7.33333C4.52931 7.33333 3.33331 6.13733 3.33331 4.66667C3.33331 3.196 4.52931 2 5.99998 2C7.47065 2 8.66665 3.196 8.66665 4.66667ZM9.29331 10.0307C9.87265 9.58267 10.586 9.33333 11.3333 9.33333C13.1713 9.33333 14.6666 10.8287 14.6666 12.6667C14.6666 13.0347 14.3686 13.3333 14 13.3333C13.6313 13.3333 13.3333 13.0347 13.3333 12.6667C13.3333 11.564 12.436 10.6667 11.3333 10.6667C10.878 10.6667 10.4453 10.8227 10.096 11.0993C10.4586 11.7633 10.6666 12.5247 10.6666 13.3333C10.6666 13.7013 10.3686 14 9.99998 14C9.63131 14 9.33331 13.7013 9.33331 13.3333C9.33331 11.4953 7.83798 10 5.99998 10C4.16198 10 2.66665 11.4953 2.66665 13.3333C2.66665 13.7013 2.36865 14 1.99998 14C1.63131 14 1.33331 13.7013 1.33331 13.3333C1.33331 10.76 3.42731 8.66667 5.99998 8.66667C7.28465 8.66667 8.44865 9.18867 9.29331 10.0307Z" fill="white"/>
</mask>
<g mask="url(#mask0_54_19407)">
<rect width="16" height="16" fill="#2B67F6"/>
</g>
</svg>
