<svg width="18" height="17" viewBox="0 0 18 17" fill="none" xmlns="http://www.w3.org/2000/svg">
<path d="M7.45488 15.704C8.93453 15.704 10.134 14.5045 10.134 13.0248C10.134 11.5452 8.93453 10.3457 7.45488 10.3457C5.97524 10.3457 4.77576 11.5452 4.77576 13.0248C4.77576 14.5045 5.97524 15.704 7.45488 15.704Z" stroke="#2B67F6" stroke-width="1.2" stroke-miterlimit="10" stroke-linecap="round" stroke-linejoin="round"/>
<path d="M4.7757 13.0254H1" stroke="#2B67F6" stroke-width="1.2" stroke-miterlimit="10" stroke-linecap="round" stroke-linejoin="round"/>
<path d="M16.9874 13.0254H10.3457" stroke="#2B67F6" stroke-width="1.2" stroke-miterlimit="10" stroke-linecap="round" stroke-linejoin="round"/>
<path d="M10.5327 6.35826C12.0123 6.35826 13.2118 5.15877 13.2118 3.67913C13.2118 2.19949 12.0123 1 10.5327 1C9.05306 1 7.85358 2.19949 7.85358 3.67913C7.85358 5.15877 9.05306 6.35826 10.5327 6.35826Z" stroke="#2B67F6" stroke-width="1.2" stroke-miterlimit="10" stroke-linecap="round" stroke-linejoin="round"/>
<path d="M13.2241 3.67871H16.9998" stroke="#2B67F6" stroke-width="1.2" stroke-miterlimit="10" stroke-linecap="round" stroke-linejoin="round"/>
<path d="M1 3.67871H7.64175" stroke="#2B67F6" stroke-width="1.2" stroke-miterlimit="10" stroke-linecap="round" stroke-linejoin="round"/>
</svg>
