<svg width="16" height="16" viewBox="0 0 16 16" fill="none" xmlns="http://www.w3.org/2000/svg">
<g clip-path="url(#clip0_54_19472)">
<path d="M5.33335 0C4.15514 0 3.20001 0.955127 3.20001 2.13333V3.2C3.20001 4.37821 4.15514 5.33333 5.33335 5.33333C6.51155 5.33333 7.46668 4.37821 7.46668 3.2V2.13333C7.46668 0.955127 6.51155 0 5.33335 0Z" fill="#2B67F6"/>
<path d="M10.6667 0C9.48845 0 8.53333 0.955127 8.53333 2.13333V3.2C8.53333 4.37821 9.48845 5.33333 10.6667 5.33333C11.8449 5.33333 12.8 4.37821 12.8 3.2V2.13333C12.8 0.955127 11.8449 0 10.6667 0Z" fill="#2B67F6"/>
<path d="M2.13333 5.3335C0.955127 5.3335 0 6.28862 0 7.46683V8.00016C0 9.17837 0.955127 10.1335 2.13333 10.1335C3.31154 10.1335 4.26667 9.17837 4.26667 8.00016V7.46683C4.26667 6.28862 3.31154 5.3335 2.13333 5.3335Z" fill="#2B67F6"/>
<path d="M13.8667 5.3335C12.6884 5.3335 11.7333 6.28862 11.7333 7.46683V8.00016C11.7333 9.17837 12.6884 10.1335 13.8667 10.1335C15.0449 10.1335 16 9.17837 16 8.00016V7.46683C16 6.28862 15.0449 5.3335 13.8667 5.3335Z" fill="#2B67F6"/>
<path d="M10.2536 8.29741C9.08577 6.87938 6.91418 6.87938 5.7464 8.29741L2.63404 12.0767C1.34547 13.6414 2.45849 15.9999 4.48548 15.9999C4.7751 15.9999 5.06074 15.9325 5.31978 15.803L5.70343 15.6111C7.14914 14.8882 8.85081 14.8882 10.2965 15.6111L10.6802 15.803C10.9392 15.9325 11.2248 15.9999 11.5144 15.9999C13.5414 15.9999 14.6545 13.6414 13.3659 12.0767L10.2536 8.29741Z" fill="#2B67F6"/>
</g>
<defs>
<clipPath id="clip0_54_19472">
<rect width="16" height="16" fill="white"/>
</clipPath>
</defs>
</svg>
