<svg width="16" height="16" viewBox="0 0 16 16" fill="none" xmlns="http://www.w3.org/2000/svg">
<path fill-rule="evenodd" clip-rule="evenodd" d="M12.6601 13.3331H10.6668V8.66647C10.6668 8.29781 10.3681 7.99981 10.0001 7.99981H6.00012C5.63146 7.99981 5.33346 8.29781 5.33346 8.66647V13.3331H3.33346L3.33746 7.72181L7.99879 2.95448L12.6668 7.74914L12.6601 13.3331ZM6.66679 13.3331H9.33346V9.33314H6.66679V13.3331ZM13.6161 6.78981L8.47679 1.53381C8.22546 1.27714 7.77479 1.27714 7.52346 1.53381L2.38346 6.79047C2.14012 7.04047 2.00012 7.38981 2.00012 7.74914V13.3331C2.00012 14.0685 2.56479 14.6665 3.25879 14.6665H6.00012H10.0001H12.7408C13.4348 14.6665 14.0001 14.0685 14.0001 13.3331V7.74914C14.0001 7.38981 13.8601 7.04048 13.6161 6.78981Z" fill="#2B67F6"/>
<mask id="mask0_54_18652" style="mask-type:alpha" maskUnits="userSpaceOnUse" x="2" y="1" width="13" height="14">
<path fill-rule="evenodd" clip-rule="evenodd" d="M12.6601 13.3331H10.6668V8.66647C10.6668 8.29781 10.3681 7.99981 10.0001 7.99981H6.00012C5.63146 7.99981 5.33346 8.29781 5.33346 8.66647V13.3331H3.33346L3.33746 7.72181L7.99879 2.95448L12.6668 7.74914L12.6601 13.3331ZM6.66679 13.3331H9.33346V9.33314H6.66679V13.3331ZM13.6161 6.78981L8.47679 1.53381C8.22546 1.27714 7.77479 1.27714 7.52346 1.53381L2.38346 6.79047C2.14012 7.04047 2.00012 7.38981 2.00012 7.74914V13.3331C2.00012 14.0685 2.56479 14.6665 3.25879 14.6665H6.00012H10.0001H12.7408C13.4348 14.6665 14.0001 14.0685 14.0001 13.3331V7.74914C14.0001 7.38981 13.8601 7.04048 13.6161 6.78981Z" fill="white"/>
</mask>
<g mask="url(#mask0_54_18652)">
<rect width="16" height="16" fill="#2B67F6"/>
</g>
</svg>
