<svg width="16" height="16" viewBox="0 0 16 16" fill="none" xmlns="http://www.w3.org/2000/svg">
<path fill-rule="evenodd" clip-rule="evenodd" d="M10 11.8921L8.76271 8.18078L12.4747 4.46812L10 11.8921ZM11.532 3.52545L7.82004 7.23745L4.10804 6.00012L11.532 3.52545ZM14.66 1.96545C14.6567 1.90345 14.6454 1.84345 14.6247 1.78545C14.618 1.76478 14.6107 1.74478 14.6014 1.72478C14.5694 1.65345 14.5287 1.58612 14.4714 1.52878C14.414 1.47145 14.3467 1.43078 14.2747 1.39878C14.2554 1.38945 14.236 1.38212 14.2154 1.37545C14.156 1.35478 14.0954 1.34278 14.032 1.33945C14.0174 1.33878 14.004 1.33545 13.9887 1.33545C13.922 1.33678 13.8547 1.34612 13.7894 1.36745L1.78937 5.36745C1.51671 5.45878 1.33337 5.71278 1.33337 6.00012C1.33337 6.28745 1.51671 6.54212 1.78937 6.63278L7.47271 8.52745L9.36804 14.2114C9.45871 14.4834 9.71271 14.6668 10 14.6668C10.2874 14.6668 10.5414 14.4834 10.632 14.2114L14.632 2.21145C14.6534 2.14545 14.6634 2.07878 14.664 2.01212C14.6647 1.99612 14.6607 1.98145 14.66 1.96545Z" fill="#2B67F6"/>
<mask id="mask0_54_18665" style="mask-type:alpha" maskUnits="userSpaceOnUse" x="1" y="1" width="14" height="14">
<path fill-rule="evenodd" clip-rule="evenodd" d="M10 11.8921L8.76271 8.18078L12.4747 4.46812L10 11.8921ZM11.532 3.52545L7.82004 7.23745L4.10804 6.00012L11.532 3.52545ZM14.66 1.96545C14.6567 1.90345 14.6454 1.84345 14.6247 1.78545C14.618 1.76478 14.6107 1.74478 14.6014 1.72478C14.5694 1.65345 14.5287 1.58612 14.4714 1.52878C14.414 1.47145 14.3467 1.43078 14.2747 1.39878C14.2554 1.38945 14.236 1.38212 14.2154 1.37545C14.156 1.35478 14.0954 1.34278 14.032 1.33945C14.0174 1.33878 14.004 1.33545 13.9887 1.33545C13.922 1.33678 13.8547 1.34612 13.7894 1.36745L1.78937 5.36745C1.51671 5.45878 1.33337 5.71278 1.33337 6.00012C1.33337 6.28745 1.51671 6.54212 1.78937 6.63278L7.47271 8.52745L9.36804 14.2114C9.45871 14.4834 9.71271 14.6668 10 14.6668C10.2874 14.6668 10.5414 14.4834 10.632 14.2114L14.632 2.21145C14.6534 2.14545 14.6634 2.07878 14.664 2.01212C14.6647 1.99612 14.6607 1.98145 14.66 1.96545Z" fill="white"/>
</mask>
<g mask="url(#mask0_54_18665)">
<rect width="16" height="16" fill="#2B67F6"/>
</g>
</svg>
