<svg width="16" height="16" viewBox="0 0 16 16" fill="none" xmlns="http://www.w3.org/2000/svg">
<path fill-rule="evenodd" clip-rule="evenodd" d="M6.46546 9.33346L6.95146 6.66679H9.53479L9.04879 9.33346H6.46546ZM13.3335 9.33345H10.4655L10.9515 6.66679H13.3335C13.7001 6.66679 14.0001 6.36679 14.0001 6.00012C14.0001 5.63345 13.7001 5.33345 13.3335 5.33345H11.1935L11.6561 2.79279C11.7228 2.42745 11.4681 2.07479 11.0901 2.01079C10.7121 1.94612 10.3488 2.19279 10.2821 2.55879L9.77679 5.33345H7.19346L7.65612 2.79279C7.72279 2.42745 7.46812 2.07479 7.09012 2.01079C6.71212 1.94612 6.34879 2.19279 6.28212 2.55879L5.77679 5.33345H2.66679C2.30012 5.33345 2.00012 5.63345 2.00012 6.00012C2.00012 6.36679 2.30012 6.66679 2.66679 6.66679H5.53479L5.04879 9.33345H2.66679C2.30012 9.33345 2.00012 9.63345 2.00012 10.0001C2.00012 10.3668 2.30012 10.6668 2.66679 10.6668H4.80612L4.34346 13.2075C4.27746 13.5728 4.53212 13.9255 4.91012 13.9895C5.28746 14.0541 5.65146 13.8075 5.71746 13.4415L6.22279 10.6668H8.80612L8.34346 13.2075C8.27746 13.5728 8.53212 13.9255 8.91012 13.9895C9.28746 14.0541 9.65146 13.8075 9.71746 13.4415L10.2228 10.6668H13.3335C13.7001 10.6668 14.0001 10.3668 14.0001 10.0001C14.0001 9.63345 13.7001 9.33345 13.3335 9.33345Z" fill="#2B67F6"/>
<mask id="mask0_54_19461" style="mask-type:alpha" maskUnits="userSpaceOnUse" x="2" y="2" width="13" height="12">
<path fill-rule="evenodd" clip-rule="evenodd" d="M6.46546 9.33346L6.95146 6.66679H9.53479L9.04879 9.33346H6.46546ZM13.3335 9.33345H10.4655L10.9515 6.66679H13.3335C13.7001 6.66679 14.0001 6.36679 14.0001 6.00012C14.0001 5.63345 13.7001 5.33345 13.3335 5.33345H11.1935L11.6561 2.79279C11.7228 2.42745 11.4681 2.07479 11.0901 2.01079C10.7121 1.94612 10.3488 2.19279 10.2821 2.55879L9.77679 5.33345H7.19346L7.65612 2.79279C7.72279 2.42745 7.46812 2.07479 7.09012 2.01079C6.71212 1.94612 6.34879 2.19279 6.28212 2.55879L5.77679 5.33345H2.66679C2.30012 5.33345 2.00012 5.63345 2.00012 6.00012C2.00012 6.36679 2.30012 6.66679 2.66679 6.66679H5.53479L5.04879 9.33345H2.66679C2.30012 9.33345 2.00012 9.63345 2.00012 10.0001C2.00012 10.3668 2.30012 10.6668 2.66679 10.6668H4.80612L4.34346 13.2075C4.27746 13.5728 4.53212 13.9255 4.91012 13.9895C5.28746 14.0541 5.65146 13.8075 5.71746 13.4415L6.22279 10.6668H8.80612L8.34346 13.2075C8.27746 13.5728 8.53212 13.9255 8.91012 13.9895C9.28746 14.0541 9.65146 13.8075 9.71746 13.4415L10.2228 10.6668H13.3335C13.7001 10.6668 14.0001 10.3668 14.0001 10.0001C14.0001 9.63345 13.7001 9.33345 13.3335 9.33345Z" fill="white"/>
</mask>
<g mask="url(#mask0_54_19461)">
<rect width="16" height="16" fill="#2B67F6"/>
</g>
</svg>
