<svg width="16" height="16" viewBox="0 0 16 16" fill="none" xmlns="http://www.w3.org/2000/svg">
<path fill-rule="evenodd" clip-rule="evenodd" d="M7.33301 12.6667C6.96501 12.6667 6.66634 12.368 6.66634 12C6.66634 11.632 6.96501 11.3333 7.33301 11.3333C7.70101 11.3333 7.99967 11.632 7.99967 12C7.99967 12.368 7.70101 12.6667 7.33301 12.6667ZM13.9997 11.3333H9.20967C8.93367 10.5593 8.20101 10 7.33301 10C6.46501 10 5.73234 10.5593 5.45634 11.3333H1.99967C1.63101 11.3333 1.33301 11.6313 1.33301 12C1.33301 12.3687 1.63101 12.6667 1.99967 12.6667H5.45634C5.73234 13.4407 6.46501 14 7.33301 14C8.20101 14 8.93367 13.4407 9.20967 12.6667H13.9997C14.3683 12.6667 14.6663 12.3687 14.6663 12C14.6663 11.6313 14.3683 11.3333 13.9997 11.3333ZM12.6663 8.66667C12.2983 8.66667 11.9997 8.368 11.9997 8C11.9997 7.632 12.2983 7.33333 12.6663 7.33333C13.0343 7.33333 13.333 7.632 13.333 8C13.333 8.368 13.0343 8.66667 12.6663 8.66667ZM12.6663 6C11.7983 6 11.0657 6.55933 10.7897 7.33333H1.99967C1.63101 7.33333 1.33301 7.63133 1.33301 8C1.33301 8.36867 1.63101 8.66667 1.99967 8.66667H10.7897C11.0657 9.44067 11.7983 10 12.6663 10C13.769 10 14.6663 9.10267 14.6663 8C14.6663 6.89733 13.769 6 12.6663 6ZM4.66634 3.33333C5.03434 3.33333 5.33301 3.632 5.33301 4C5.33301 4.368 5.03434 4.66667 4.66634 4.66667C4.29834 4.66667 3.99967 4.368 3.99967 4C3.99967 3.632 4.29834 3.33333 4.66634 3.33333ZM1.99967 4.66667H2.78967C3.06567 5.44067 3.79834 6 4.66634 6C5.53434 6 6.26701 5.44067 6.54301 4.66667H13.9997C14.3683 4.66667 14.6663 4.36867 14.6663 4C14.6663 3.63133 14.3683 3.33333 13.9997 3.33333H6.54301C6.26701 2.55933 5.53434 2 4.66634 2C3.79834 2 3.06567 2.55933 2.78967 3.33333H1.99967C1.63101 3.33333 1.33301 3.63133 1.33301 4C1.33301 4.36867 1.63101 4.66667 1.99967 4.66667Z" fill="#2B67F6"/>
<mask id="mask0_20_24542" style="mask-type:alpha" maskUnits="userSpaceOnUse" x="1" y="2" width="14" height="12">
<path fill-rule="evenodd" clip-rule="evenodd" d="M7.33301 12.6667C6.96501 12.6667 6.66634 12.368 6.66634 12C6.66634 11.632 6.96501 11.3333 7.33301 11.3333C7.70101 11.3333 7.99967 11.632 7.99967 12C7.99967 12.368 7.70101 12.6667 7.33301 12.6667ZM13.9997 11.3333H9.20967C8.93367 10.5593 8.20101 10 7.33301 10C6.46501 10 5.73234 10.5593 5.45634 11.3333H1.99967C1.63101 11.3333 1.33301 11.6313 1.33301 12C1.33301 12.3687 1.63101 12.6667 1.99967 12.6667H5.45634C5.73234 13.4407 6.46501 14 7.33301 14C8.20101 14 8.93367 13.4407 9.20967 12.6667H13.9997C14.3683 12.6667 14.6663 12.3687 14.6663 12C14.6663 11.6313 14.3683 11.3333 13.9997 11.3333ZM12.6663 8.66667C12.2983 8.66667 11.9997 8.368 11.9997 8C11.9997 7.632 12.2983 7.33333 12.6663 7.33333C13.0343 7.33333 13.333 7.632 13.333 8C13.333 8.368 13.0343 8.66667 12.6663 8.66667ZM12.6663 6C11.7983 6 11.0657 6.55933 10.7897 7.33333H1.99967C1.63101 7.33333 1.33301 7.63133 1.33301 8C1.33301 8.36867 1.63101 8.66667 1.99967 8.66667H10.7897C11.0657 9.44067 11.7983 10 12.6663 10C13.769 10 14.6663 9.10267 14.6663 8C14.6663 6.89733 13.769 6 12.6663 6ZM4.66634 3.33333C5.03434 3.33333 5.33301 3.632 5.33301 4C5.33301 4.368 5.03434 4.66667 4.66634 4.66667C4.29834 4.66667 3.99967 4.368 3.99967 4C3.99967 3.632 4.29834 3.33333 4.66634 3.33333ZM1.99967 4.66667H2.78967C3.06567 5.44067 3.79834 6 4.66634 6C5.53434 6 6.26701 5.44067 6.54301 4.66667H13.9997C14.3683 4.66667 14.6663 4.36867 14.6663 4C14.6663 3.63133 14.3683 3.33333 13.9997 3.33333H6.54301C6.26701 2.55933 5.53434 2 4.66634 2C3.79834 2 3.06567 2.55933 2.78967 3.33333H1.99967C1.63101 3.33333 1.33301 3.63133 1.33301 4C1.33301 4.36867 1.63101 4.66667 1.99967 4.66667Z" fill="white"/>
</mask>
<g mask="url(#mask0_20_24542)">
<rect width="16" height="16" fill="#2B67F6"/>
</g>
</svg>
