<svg width="11" height="14" viewBox="0 0 11 14" fill="none" xmlns="http://www.w3.org/2000/svg">
<path fill-rule="evenodd" clip-rule="evenodd" d="M7.40322 3.71373C7.40322 2.92587 6.7625 2.28516 5.97464 2.28516C5.18679 2.28516 4.54607 2.92587 4.54607 3.71373C4.54607 4.50159 5.18679 5.1423 5.97464 5.1423C6.7625 5.1423 7.40322 4.50159 7.40322 3.71373ZM8.83175 3.71359C8.83175 5.2893 7.55032 6.57073 5.97461 6.57073C4.3989 6.57073 3.11747 5.2893 3.11747 3.71359C3.11747 2.13787 4.3989 0.856445 5.97461 0.856445C7.55032 0.856445 8.83175 2.13787 8.83175 3.71359ZM0.974609 12.9993C0.974609 10.2422 3.21818 7.9993 5.97461 7.9993C8.73104 7.9993 10.9746 10.2422 10.9746 12.9993C10.9746 13.3936 10.6553 13.7136 10.2603 13.7136C9.86532 13.7136 9.54604 13.3936 9.54604 12.9993C9.54604 11.03 7.9439 9.42787 5.97461 9.42787C4.00532 9.42787 2.40318 11.03 2.40318 12.9993C2.40318 13.3936 2.0839 13.7136 1.6889 13.7136C1.2939 13.7136 0.974609 13.3936 0.974609 12.9993Z" fill="#231F20"/>
</svg>
