<svg width="194" height="42" viewBox="0 0 194 42" fill="none" xmlns="http://www.w3.org/2000/svg">
<rect x="113.829" y="0.785156" width="79.2667" height="6.83333" rx="3.41667" fill="#F2994A"/>
<path d="M6.888 11.9262C7.7736 10.483 8.9216 9.35139 10.332 8.53139C11.7752 7.71139 13.4152 7.30139 15.252 7.30139V14.5338H13.4316C11.2668 14.5338 9.6268 15.0422 8.5116 16.059C7.4292 17.0758 6.888 18.847 6.888 21.3726V34.9518H0V7.69499H6.888V11.9262Z" fill="black"/>
<path d="M45.2294 20.733C45.2294 21.717 45.1638 22.6026 45.0326 23.3898H25.1066C25.2706 25.3578 25.9594 26.8994 27.173 28.0146C28.3866 29.1298 29.879 29.6874 31.6502 29.6874C34.2086 29.6874 36.029 28.5886 37.1114 26.391H44.5406C43.7534 29.015 42.2446 31.1798 40.0142 32.8854C37.7838 34.5582 35.045 35.3946 31.7978 35.3946C29.1738 35.3946 26.8122 34.8206 24.713 33.6726C22.6466 32.4918 21.023 30.8354 19.8422 28.7034C18.6942 26.5714 18.1202 24.1114 18.1202 21.3234C18.1202 18.5026 18.6942 16.0262 19.8422 13.8942C20.9902 11.7622 22.5974 10.1222 24.6638 8.97419C26.7302 7.82619 29.1082 7.25219 31.7978 7.25219C34.389 7.25219 36.7014 7.80979 38.735 8.92499C40.8014 10.0402 42.3922 11.631 43.5074 13.6974C44.6554 15.731 45.2294 18.0762 45.2294 20.733ZM38.0954 18.765C38.0626 16.9938 37.423 15.5834 36.1766 14.5338C34.9302 13.4514 33.405 12.9102 31.601 12.9102C29.8954 12.9102 28.4522 13.435 27.2714 14.4846C26.1234 15.5014 25.4182 16.9282 25.1558 18.765H38.0954Z" fill="black"/>
<path d="M75.595 20.733C75.595 21.717 75.5294 22.6026 75.3982 23.3898H55.4722C55.6362 25.3578 56.325 26.8994 57.5386 28.0146C58.7522 29.1298 60.2446 29.6874 62.0158 29.6874C64.5742 29.6874 66.3946 28.5886 67.477 26.391H74.9062C74.119 29.015 72.6102 31.1798 70.3798 32.8854C68.1494 34.5582 65.4106 35.3946 62.1634 35.3946C59.5394 35.3946 57.1778 34.8206 55.0786 33.6726C53.0122 32.4918 51.3886 30.8354 50.2078 28.7034C49.0598 26.5714 48.4858 24.1114 48.4858 21.3234C48.4858 18.5026 49.0598 16.0262 50.2078 13.8942C51.3558 11.7622 52.963 10.1222 55.0294 8.97419C57.0958 7.82619 59.4738 7.25219 62.1634 7.25219C64.7546 7.25219 67.067 7.80979 69.1006 8.92499C71.167 10.0402 72.7578 11.631 73.873 13.6974C75.021 15.731 75.595 18.0762 75.595 20.733ZM68.461 18.765C68.4282 16.9938 67.7886 15.5834 66.5422 14.5338C65.2958 13.4514 63.7706 12.9102 61.9666 12.9102C60.261 12.9102 58.8178 13.435 57.637 14.4846C56.489 15.5014 55.7838 16.9282 55.5214 18.765H68.461Z" fill="black"/>
<path d="M95.7271 7.30139C98.9743 7.30139 101.598 8.33459 103.599 10.401C105.6 12.4346 106.6 15.2882 106.6 18.9618V34.9518H99.7123V19.8966C99.7123 17.7318 99.1711 16.0754 98.0887 14.9274C97.0063 13.7466 95.5303 13.1562 93.6607 13.1562C91.7583 13.1562 90.2495 13.7466 89.1343 14.9274C88.0519 16.0754 87.5107 17.7318 87.5107 19.8966V34.9518H80.6227V7.69499H87.5107V11.0898C88.4291 9.90899 89.5935 8.99059 91.0039 8.33459C92.4471 7.64579 94.0215 7.30139 95.7271 7.30139Z" fill="black"/>
<path d="M121.17 13.353V26.5386C121.17 27.457 121.383 28.1294 121.81 28.5558C122.269 28.9494 123.023 29.1462 124.073 29.1462H127.271V34.9518H122.941C117.136 34.9518 114.233 32.131 114.233 26.4894V13.353H110.986V7.69499H114.233V0.95459H121.17V7.69499H127.271V13.353H121.17Z" fill="black"/>
<path d="M130.454 21.225C130.454 18.4698 130.995 16.0262 132.077 13.8942C133.193 11.7622 134.685 10.1222 136.555 8.97419C138.457 7.82619 140.573 7.25219 142.901 7.25219C144.935 7.25219 146.706 7.66219 148.215 8.48219C149.757 9.30219 150.987 10.3354 151.905 11.5818V7.69499H158.842V34.9518H151.905V30.9666C151.019 32.2458 149.789 33.3118 148.215 34.1646C146.673 34.9846 144.886 35.3946 142.852 35.3946C140.556 35.3946 138.457 34.8042 136.555 33.6234C134.685 32.4426 133.193 30.7862 132.077 28.6542C130.995 26.4894 130.454 24.013 130.454 21.225ZM151.905 21.3234C151.905 19.6506 151.577 18.2238 150.921 17.043C150.265 15.8294 149.379 14.911 148.264 14.2878C147.149 13.6318 145.952 13.3038 144.673 13.3038C143.393 13.3038 142.213 13.6154 141.13 14.2386C140.048 14.8618 139.162 15.7802 138.473 16.9938C137.817 18.1746 137.489 19.585 137.489 21.225C137.489 22.865 137.817 24.3082 138.473 25.5546C139.162 26.7682 140.048 27.703 141.13 28.359C142.245 29.015 143.426 29.343 144.673 29.343C145.952 29.343 147.149 29.0314 148.264 28.4082C149.379 27.7522 150.265 26.8338 150.921 25.653C151.577 24.4394 151.905 22.9962 151.905 21.3234Z" fill="black"/>
<path d="M172.458 11.631C173.343 10.3846 174.557 9.35139 176.098 8.53139C177.673 7.67859 179.46 7.25219 181.461 7.25219C183.79 7.25219 185.889 7.82619 187.759 8.97419C189.661 10.1222 191.154 11.7622 192.236 13.8942C193.351 15.9934 193.909 18.437 193.909 21.225C193.909 24.013 193.351 26.4894 192.236 28.6542C191.154 30.7862 189.661 32.4426 187.759 33.6234C185.889 34.8042 183.79 35.3946 181.461 35.3946C179.46 35.3946 177.689 34.9846 176.148 34.1646C174.639 33.3446 173.409 32.3114 172.458 31.065V41.7851H165.57V7.69499H172.458V11.631ZM186.873 21.225C186.873 19.585 186.529 18.1746 185.84 16.9938C185.184 15.7802 184.298 14.8618 183.183 14.2386C182.101 13.6154 180.92 13.3038 179.641 13.3038C178.394 13.3038 177.214 13.6318 176.098 14.2878C175.016 14.911 174.13 15.8294 173.442 17.043C172.786 18.2566 172.458 19.6834 172.458 21.3234C172.458 22.9634 172.786 24.3902 173.442 25.6038C174.13 26.8174 175.016 27.7522 176.098 28.4082C177.214 29.0314 178.394 29.343 179.641 29.343C180.92 29.343 182.101 29.015 183.183 28.359C184.298 27.703 185.184 26.7682 185.84 25.5546C186.529 24.341 186.873 22.8978 186.873 21.225Z" fill="black"/>
<rect x="0.39563" y="34.9517" width="127.1" height="6.83333" rx="3.41667" fill="#2F80ED"/>
</svg>
