<svg width="28" height="28" viewBox="0 0 28 28" fill="none" xmlns="http://www.w3.org/2000/svg">
<path fill-rule="evenodd" clip-rule="evenodd" d="M12.6316 6.40904V4.0534C12.6316 3.42583 13.141 2.9165 13.7685 2.9165C14.395 2.9165 14.9054 3.42583 14.9054 4.0534V6.40904C16.5948 6.65234 18.174 7.43679 19.395 8.65781C20.8878 10.1505 21.7268 12.1754 21.7268 14.2854V18.5647L22.6465 20.4042C23.0865 21.2853 23.0399 22.3312 22.5215 23.1691C22.0042 24.007 21.089 24.5175 20.1044 24.5175H14.9054C14.9054 25.145 14.395 25.6543 13.7685 25.6543C13.141 25.6543 12.6316 25.145 12.6316 24.5175H7.43263C6.44694 24.5175 5.53176 24.007 5.01448 23.1691C4.49605 22.3312 4.44943 21.2853 4.89055 20.4042L5.81028 18.5647V14.2854C5.81028 12.1754 6.64819 10.1505 8.14093 8.65781C9.36309 7.43679 10.9411 6.65234 12.6316 6.40904ZM13.7685 8.60096C12.2599 8.60096 10.8149 9.20011 9.7485 10.2665C8.68209 11.3318 8.08407 12.7779 8.08407 14.2854V18.833C8.08407 19.0092 8.04201 19.1832 7.96357 19.3412C7.96357 19.3412 7.45764 20.353 6.9233 21.4206C6.83576 21.5968 6.84486 21.8071 6.94832 21.9742C7.05177 22.1414 7.23481 22.2437 7.43263 22.2437H20.1044C20.3011 22.2437 20.4842 22.1414 20.5876 21.9742C20.6911 21.8071 20.7002 21.5968 20.6126 21.4206C20.0783 20.353 19.5724 19.3412 19.5724 19.3412C19.4939 19.1832 19.453 19.0092 19.453 18.833V14.2854C19.453 12.7779 18.8539 11.3318 17.7874 10.2665C16.721 9.20011 15.276 8.60096 13.7685 8.60096Z" fill="#2B67F6"/>
</svg>
