<svg width="156" height="156" viewBox="0 0 156 156" fill="none" xmlns="http://www.w3.org/2000/svg">
<g clip-path="url(#clip0_226_10328)">
<path d="M36.8737 32.7988H5.22539C4.04704 32.7988 3.0918 33.7541 3.0918 34.9324V118.854C3.0918 120.032 4.04704 120.987 5.22539 120.987H36.8737C38.052 120.987 39.0073 120.032 39.0073 118.854V34.9324C39.0073 33.7541 38.052 32.7988 36.8737 32.7988Z" fill="#AECBD9"/>
<g style="mix-blend-mode:multiply" opacity="0.23">
<g style="mix-blend-mode:multiply">
<path d="M9.28096 90.4288H-1.71807C-1.85953 90.4288 -1.9952 90.3726 -2.09524 90.2726C-2.19527 90.1725 -2.25146 90.0369 -2.25146 89.8954V84.3957C-2.25146 84.2542 -2.19527 84.1186 -2.09524 84.0185C-1.9952 83.9185 -1.85953 83.8623 -1.71807 83.8623C-1.5766 83.8623 -1.44093 83.9185 -1.3409 84.0185C-1.24086 84.1186 -1.18467 84.2542 -1.18467 84.3957V89.362H9.28096C9.42243 89.362 9.5581 89.4182 9.65813 89.5182C9.75817 89.6183 9.81436 89.7539 9.81436 89.8954C9.81436 90.0369 9.75817 90.1725 9.65813 90.2726C9.5581 90.3726 9.42243 90.4288 9.28096 90.4288Z" fill="#474747"/>
</g>
<g style="mix-blend-mode:multiply">
<path d="M3.78212 95.9276H-7.21709C-7.35856 95.9276 -7.49423 95.8714 -7.59426 95.7714C-7.69429 95.6714 -7.75049 95.5357 -7.75049 95.3942V89.8947C-7.75049 89.7533 -7.69429 89.6176 -7.59426 89.5176C-7.49423 89.4175 -7.35856 89.3613 -7.21709 89.3613H3.78212C3.92358 89.3613 4.05926 89.4175 4.15929 89.5176C4.25932 89.6176 4.31552 89.7533 4.31552 89.8947V95.3942C4.31552 95.5357 4.25932 95.6714 4.15929 95.7714C4.05926 95.8714 3.92358 95.9276 3.78212 95.9276ZM-6.68351 94.8608H3.24872V90.4281H-6.68369L-6.68351 94.8608Z" fill="#474747"/>
</g>
<g style="mix-blend-mode:multiply">
<path d="M1.40729 101.427H-1.71807C-1.85953 101.427 -1.9952 101.371 -2.09524 101.271C-2.19527 101.171 -2.25146 101.036 -2.25146 100.894V95.3947C-2.25146 95.2533 -2.19527 95.1176 -2.09524 95.0176C-1.9952 94.9175 -1.85953 94.8613 -1.71807 94.8613H9.28096C9.42243 94.8613 9.5581 94.9175 9.65813 95.0176C9.75817 95.1176 9.81436 95.2533 9.81436 95.3947C9.81436 95.5362 9.75817 95.6719 9.65813 95.7719C9.5581 95.8719 9.42243 95.9281 9.28096 95.9281H-1.18467V100.361H1.40729C1.54876 100.361 1.68443 100.417 1.78446 100.517C1.88449 100.617 1.94069 100.753 1.94069 100.894C1.94069 101.036 1.88449 101.171 1.78446 101.271C1.68443 101.371 1.54876 101.427 1.40729 101.427Z" fill="#474747"/>
</g>
<g style="mix-blend-mode:multiply">
<path d="M11.7186 95.9276H3.78145C3.63998 95.9276 3.50431 95.8714 3.40428 95.7714C3.30424 95.6714 3.24805 95.5357 3.24805 95.3942V89.8947C3.24805 89.7533 3.30424 89.6176 3.40428 89.5176C3.50431 89.4175 3.63998 89.3613 3.78145 89.3613H7.59418C7.73564 89.3613 7.87132 89.4175 7.97135 89.5176C8.07138 89.6176 8.12758 89.7533 8.12758 89.8947C8.12758 90.0362 8.07138 90.1719 7.97135 90.2719C7.87132 90.3719 7.73564 90.4281 7.59418 90.4281H4.31484V94.8608H11.7188C11.8602 94.8608 11.9959 94.917 12.0959 95.0171C12.196 95.1171 12.2522 95.2528 12.2522 95.3942C12.2522 95.5357 12.196 95.6714 12.0959 95.7714C11.9959 95.8714 11.8602 95.9276 11.7188 95.9276H11.7186Z" fill="#474747"/>
</g>
</g>
<path d="M5.73118 118.678V34.7566C5.73118 33.5784 6.7546 32.623 8.01715 32.623H5.44563C4.18326 32.623 3.15967 33.5784 3.15967 34.7566V118.678C3.15967 119.856 4.18308 120.812 5.44563 120.812H8.01715C6.7546 120.812 5.73118 119.856 5.73118 118.678Z" fill="#C4E7F4"/>
<path opacity="0.89" d="M36.9404 32.623H32.9399C33.5058 32.623 34.0485 32.8478 34.4486 33.248C34.8487 33.6481 35.0735 34.1908 35.0735 34.7566V118.678C35.0735 119.244 34.8487 119.787 34.4486 120.187C34.0485 120.587 33.5058 120.812 32.9399 120.812H36.9404C37.5063 120.812 38.049 120.587 38.4491 120.187C38.8492 119.787 39.074 119.244 39.074 118.678V34.7566C39.074 34.1908 38.8492 33.6481 38.4491 33.248C38.049 32.8478 37.5063 32.623 36.9404 32.623Z" fill="#8CA2AE"/>
<path d="M36.9414 121.7H5.2931C4.49173 121.699 3.72344 121.38 3.15679 120.814C2.59014 120.247 2.2714 119.479 2.27051 118.677V34.756C2.2714 33.9546 2.59014 33.1863 3.15679 32.6197C3.72344 32.053 4.49173 31.7343 5.2931 31.7334H36.9414C37.7428 31.7343 38.5111 32.053 39.0777 32.6197C39.6444 33.1863 39.9631 33.9546 39.964 34.756V118.677C39.9631 119.479 39.6444 120.247 39.0777 120.814C38.5111 121.38 37.7428 121.699 36.9414 121.7ZM5.2931 33.5114C4.96313 33.5118 4.64678 33.643 4.41345 33.8763C4.18013 34.1097 4.04888 34.426 4.0485 34.756V118.677C4.04888 119.007 4.18013 119.324 4.41345 119.557C4.64678 119.79 4.96313 119.922 5.2931 119.922H36.9414C37.2714 119.922 37.5877 119.79 37.8211 119.557C38.0544 119.324 38.1856 119.007 38.186 118.677V34.756C38.1856 34.426 38.0544 34.1097 37.8211 33.8763C37.5877 33.643 37.2714 33.5118 36.9414 33.5114H5.2931Z" fill="#333333"/>
<path d="M39.075 60.5369H3.15951C2.92373 60.5369 2.69761 60.4433 2.53089 60.2765C2.36417 60.1098 2.27051 59.8837 2.27051 59.6479V34.756C2.2714 33.9546 2.59014 33.1863 3.15679 32.6197C3.72344 32.053 4.49173 31.7343 5.2931 31.7334H36.9414C37.7428 31.7343 38.5111 32.053 39.0777 32.6197C39.6444 33.1863 39.9631 33.9546 39.964 34.756V59.6479C39.964 59.8837 39.8703 60.1098 39.7036 60.2765C39.5369 60.4433 39.3108 60.5369 39.075 60.5369ZM4.0485 58.7589H38.186V34.756C38.1856 34.426 38.0544 34.1097 37.8211 33.8763C37.5877 33.643 37.2714 33.5118 36.9414 33.5114H5.2931C4.96313 33.5118 4.64678 33.643 4.41345 33.8763C4.18013 34.1097 4.04888 34.426 4.0485 34.756V58.7589Z" fill="#333333"/>
<path d="M8.01546 54.4916C7.77969 54.4916 7.55356 54.3979 7.38685 54.2312C7.22013 54.0645 7.12646 53.8383 7.12646 53.6026V45.3646C7.12646 45.1288 7.22013 44.9027 7.38685 44.736C7.55356 44.5692 7.77969 44.4756 8.01546 44.4756C8.25124 44.4756 8.47736 44.5692 8.64408 44.736C8.8108 44.9027 8.90446 45.1288 8.90446 45.3646V53.6026C8.90446 53.8383 8.8108 54.0645 8.64408 54.2312C8.47736 54.3979 8.25124 54.4916 8.01546 54.4916Z" fill="#333333"/>
<path d="M8.01546 89.3408C7.77969 89.3408 7.55356 89.2471 7.38685 89.0804C7.22013 88.9137 7.12646 88.6875 7.12646 88.4518V73.4954C7.12646 73.2597 7.22013 73.0335 7.38685 72.8668C7.55356 72.7001 7.77969 72.6064 8.01546 72.6064C8.25124 72.6064 8.47736 72.7001 8.64408 72.8668C8.8108 73.0335 8.90446 73.2597 8.90446 73.4954V88.4518C8.90446 88.6875 8.8108 88.9137 8.64408 89.0804C8.47736 89.2471 8.25124 89.3408 8.01546 89.3408Z" fill="#333333"/>
<path d="M39.0752 59.6475H3.15967V64.5073H39.0752V59.6475Z" fill="#64809B"/>
<g style="mix-blend-mode:multiply" opacity="0.71">
<path d="M39.0743 59.6475H34.9849V64.5073H39.0743V59.6475Z" fill="#8CA2AE"/>
</g>
<g style="mix-blend-mode:color-dodge" opacity="0.26">
<path d="M5.73118 59.6475H3.15967V64.5073H5.73118V59.6475Z" fill="#64809B"/>
</g>
<path d="M39.075 65.3976H3.15951C2.92373 65.3976 2.69761 65.3039 2.53089 65.1372C2.36417 64.9705 2.27051 64.7443 2.27051 64.5086V59.6488C2.27051 59.413 2.36417 59.1869 2.53089 59.0201C2.69761 58.8534 2.92373 58.7598 3.15951 58.7598H39.075C39.3108 58.7598 39.5369 58.8534 39.7036 59.0201C39.8703 59.1869 39.964 59.413 39.964 59.6488V64.5086C39.964 64.7443 39.8703 64.9705 39.7036 65.1372C39.5369 65.3039 39.3108 65.3976 39.075 65.3976ZM4.0485 63.6196H38.186V60.5378H4.0485V63.6196Z" fill="#333333"/>
<path d="M27.8734 62.6117H14.1828C14.0413 62.6117 13.9057 62.5555 13.8056 62.4555C13.7056 62.3555 13.6494 62.2198 13.6494 62.0783C13.6494 61.9369 13.7056 61.8012 13.8056 61.7012C13.9057 61.6011 14.0413 61.5449 14.1828 61.5449H27.8734C28.0148 61.5449 28.1505 61.6011 28.2505 61.7012C28.3506 61.8012 28.4068 61.9369 28.4068 62.0783C28.4068 62.2198 28.3506 62.3555 28.2505 62.4555C28.1505 62.5555 28.0148 62.6117 27.8734 62.6117Z" fill="#333333"/>
<path d="M59.8721 64.1444H48.8732C48.7318 64.1444 48.5961 64.0882 48.4961 63.9882C48.396 63.8882 48.3398 63.7525 48.3398 63.611C48.3398 63.4696 48.396 63.3339 48.4961 63.2339C48.5961 63.1338 48.7318 63.0776 48.8732 63.0776H59.3387V58.1115C59.3387 57.9701 59.3949 57.8344 59.4949 57.7344C59.595 57.6343 59.7306 57.5781 59.8721 57.5781C60.0136 57.5781 60.1492 57.6343 60.2493 57.7344C60.3493 57.8344 60.4055 57.9701 60.4055 58.1115V63.611C60.4055 63.6811 60.3917 63.7504 60.3649 63.8152C60.3381 63.8799 60.2988 63.9387 60.2493 63.9882C60.1997 64.0377 60.1409 64.077 60.0762 64.1038C60.0115 64.1306 59.9421 64.1444 59.8721 64.1444Z" fill="#8DC6BF"/>
<path d="M70.8729 64.1444H59.8737C59.7323 64.1444 59.5966 64.0882 59.4966 63.9882C59.3965 63.8882 59.3403 63.7525 59.3403 63.611V58.1115C59.3403 57.9701 59.3965 57.8344 59.4966 57.7344C59.5966 57.6343 59.7323 57.5781 59.8737 57.5781C60.0152 57.5781 60.1509 57.6343 60.2509 57.7344C60.3509 57.8344 60.4071 57.9701 60.4071 58.1115V63.0776H70.8729C71.0144 63.0776 71.1501 63.1338 71.2501 63.2339C71.3501 63.3339 71.4063 63.4696 71.4063 63.611C71.4063 63.7525 71.3501 63.8882 71.2501 63.9882C71.1501 64.0882 71.0144 64.1444 70.8729 64.1444Z" fill="#8DC6BF"/>
<path d="M65.3737 69.6435H54.3747C54.2332 69.6435 54.0976 69.5873 53.9975 69.4872C53.8975 69.3872 53.8413 69.2515 53.8413 69.1101V63.6105C53.8413 63.4691 53.8975 63.3334 53.9975 63.2334C54.0976 63.1333 54.2332 63.0771 54.3747 63.0771H65.3737C65.5152 63.0771 65.6509 63.1333 65.7509 63.2334C65.8509 63.3334 65.9071 63.4691 65.9071 63.6105V69.1101C65.9071 69.2515 65.8509 69.3872 65.7509 69.4872C65.6509 69.5873 65.5152 69.6435 65.3737 69.6435ZM54.9081 68.5767H64.8403V64.1439H54.9081V68.5767Z" fill="#8DC6BF"/>
<path d="M62.9989 75.1433H59.8737C59.7323 75.1433 59.5966 75.0871 59.4966 74.9871C59.3965 74.887 59.3403 74.7513 59.3403 74.6099V69.1105C59.3403 68.9691 59.3965 68.8334 59.4966 68.7334C59.5966 68.6333 59.7323 68.5771 59.8737 68.5771H70.8729C71.0144 68.5771 71.1501 68.6333 71.2501 68.7334C71.3501 68.8334 71.4063 68.9691 71.4063 69.1105C71.4063 69.252 71.3501 69.3877 71.2501 69.4877C71.1501 69.5877 71.0144 69.6439 70.8729 69.6439H60.4071V74.0765H62.9989C63.1404 74.0765 63.276 74.1327 63.3761 74.2327C63.4761 74.3327 63.5323 74.4684 63.5323 74.6099C63.5323 74.7513 63.4761 74.887 63.3761 74.9871C63.276 75.0871 63.1404 75.1433 62.9989 75.1433Z" fill="#8DC6BF"/>
<path d="M59.8721 75.1433H50.9533C50.8119 75.1433 50.6762 75.0871 50.5761 74.9871C50.4761 74.887 50.4199 74.7513 50.4199 74.6099C50.4199 74.4684 50.4761 74.3327 50.5761 74.2327C50.6762 74.1327 50.8119 74.0765 50.9533 74.0765H59.3387V69.6439H48.8732C48.7318 69.6439 48.5961 69.5877 48.4961 69.4877C48.396 69.3877 48.3398 69.252 48.3398 69.1105C48.3398 68.9691 48.396 68.8334 48.4961 68.7334C48.5961 68.6333 48.7318 68.5771 48.8732 68.5771H59.8721C60.0136 68.5771 60.1492 68.6333 60.2493 68.7334C60.3493 68.8334 60.4055 68.9691 60.4055 69.1105V74.6099C60.4055 74.7513 60.3493 74.887 60.2493 74.9871C60.1492 75.0871 60.0136 75.1433 59.8721 75.1433Z" fill="#8DC6BF"/>
<path d="M54.3741 69.6435H48.8746C48.7332 69.6435 48.5975 69.5873 48.4975 69.4872C48.3974 69.3872 48.3412 69.2515 48.3412 69.1101C48.3412 68.9686 48.3974 68.8329 48.4975 68.7329C48.5975 68.6329 48.7332 68.5767 48.8746 68.5767H53.8407V64.1439H45.1252C44.9837 64.1439 44.8481 64.0877 44.748 63.9877C44.648 63.8877 44.5918 63.752 44.5918 63.6105C44.5918 63.4691 44.648 63.3334 44.748 63.2334C44.8481 63.1333 44.9837 63.0771 45.1252 63.0771H54.3741C54.5156 63.0771 54.6513 63.1333 54.7513 63.2334C54.8513 63.3334 54.9075 63.4691 54.9075 63.6105V69.1101C54.9075 69.2515 54.8513 69.3872 54.7513 69.4872C54.6513 69.5873 54.5156 69.6435 54.3741 69.6435Z" fill="#8DC6BF"/>
<path d="M73.3104 69.6435H65.3732C65.2318 69.6435 65.0961 69.5873 64.9961 69.4872C64.896 69.3872 64.8398 69.2515 64.8398 69.1101V63.6105C64.8398 63.4691 64.896 63.3334 64.9961 63.2334C65.0961 63.1333 65.2318 63.0771 65.3732 63.0771H69.1858C69.3273 63.0771 69.4629 63.1333 69.563 63.2334C69.663 63.3334 69.7192 63.4691 69.7192 63.6105C69.7192 63.752 69.663 63.8877 69.563 63.9877C69.4629 64.0877 69.3273 64.1439 69.1858 64.1439H65.9066V68.5767H73.3104C73.4519 68.5767 73.5875 68.6329 73.6876 68.7329C73.7876 68.8329 73.8438 68.9686 73.8438 69.1101C73.8438 69.2515 73.7876 69.3872 73.6876 69.4872C73.5875 69.5873 73.4519 69.6435 73.3104 69.6435Z" fill="#8DC6BF"/>
<path d="M149.239 62.6708H138.24C138.098 62.6708 137.963 62.6146 137.863 62.5146C137.763 62.4145 137.707 62.2789 137.707 62.1374C137.707 61.9959 137.763 61.8603 137.863 61.7602C137.963 61.6602 138.098 61.604 138.24 61.604H148.705V56.6379C148.705 56.4964 148.762 56.3608 148.862 56.2607C148.962 56.1607 149.097 56.1045 149.239 56.1045C149.38 56.1045 149.516 56.1607 149.616 56.2607C149.716 56.3608 149.772 56.4964 149.772 56.6379V62.1374C149.772 62.2789 149.716 62.4145 149.616 62.5146C149.516 62.6146 149.38 62.6708 149.239 62.6708Z" fill="#8DC6BF"/>
<path d="M160.238 62.6708H149.238C149.097 62.6708 148.961 62.6146 148.861 62.5146C148.761 62.4145 148.705 62.2789 148.705 62.1374V56.6379C148.705 56.4964 148.761 56.3608 148.861 56.2607C148.961 56.1607 149.097 56.1045 149.238 56.1045C149.38 56.1045 149.516 56.1607 149.616 56.2607C149.716 56.3608 149.772 56.4964 149.772 56.6379V61.604H160.238C160.379 61.604 160.515 61.6602 160.615 61.7602C160.715 61.8603 160.771 61.9959 160.771 62.1374C160.771 62.2789 160.715 62.4145 160.615 62.5146C160.515 62.6146 160.379 62.6708 160.238 62.6708Z" fill="#8DC6BF"/>
<path d="M154.738 68.1698H143.739C143.597 68.1698 143.462 68.1136 143.362 68.0136C143.262 67.9136 143.206 67.7779 143.206 67.6364V62.1369C143.206 61.9954 143.262 61.8598 143.362 61.7597C143.462 61.6597 143.597 61.6035 143.739 61.6035H154.738C154.879 61.6035 155.015 61.6597 155.115 61.7597C155.215 61.8598 155.271 61.9954 155.271 62.1369V67.6364C155.271 67.7779 155.215 67.9136 155.115 68.0136C155.015 68.1136 154.879 68.1698 154.738 68.1698ZM144.272 67.103H154.205V62.6703H144.272V67.103Z" fill="#8DC6BF"/>
<path d="M142.445 45.9825H136.946C136.804 45.9825 136.669 45.9263 136.569 45.8263C136.469 45.7262 136.412 45.5906 136.412 45.4491C136.412 45.3076 136.469 45.172 136.569 45.0719C136.669 44.9719 136.804 44.9157 136.946 44.9157H141.912V40.4828H133.196C133.055 40.4828 132.919 40.4266 132.819 40.3266C132.719 40.2265 132.663 40.0909 132.663 39.9494C132.663 39.8079 132.719 39.6723 132.819 39.5722C132.919 39.4722 133.055 39.416 133.196 39.416H142.445C142.587 39.416 142.722 39.4722 142.822 39.5722C142.922 39.6723 142.978 39.8079 142.978 39.9494V45.4489C142.979 45.519 142.965 45.5884 142.938 45.6531C142.911 45.7178 142.872 45.7767 142.822 45.8262C142.773 45.8758 142.714 45.9151 142.649 45.9419C142.585 45.9687 142.515 45.9825 142.445 45.9825Z" fill="#8DC6BF"/>
<path d="M162.677 68.1698H154.739C154.598 68.1698 154.462 68.1136 154.362 68.0136C154.262 67.9136 154.206 67.7779 154.206 67.6364V62.1369C154.206 61.9954 154.262 61.8598 154.362 61.7597C154.462 61.6597 154.598 61.6035 154.739 61.6035H158.552C158.693 61.6035 158.829 61.6597 158.929 61.7597C159.029 61.8598 159.085 61.9954 159.085 62.1369C159.085 62.2784 159.029 62.414 158.929 62.5141C158.829 62.6141 158.693 62.6703 158.552 62.6703H155.273V67.103H162.677C162.818 67.103 162.954 67.1592 163.054 67.2593C163.154 67.3593 163.21 67.495 163.21 67.6364C163.21 67.7779 163.154 67.9136 163.054 68.0136C162.954 68.1136 162.818 68.1698 162.677 68.1698Z" fill="#8DC6BF"/>
<path d="M65.8492 81.874H56.248V85.7856H65.8492V81.874Z" fill="#6DA580"/>
<path d="M65.8491 86.674H56.2479C56.0121 86.674 55.786 86.5803 55.6193 86.4136C55.4525 86.2469 55.3589 86.0207 55.3589 85.785V81.8734C55.3589 81.6376 55.4525 81.4115 55.6193 81.2448C55.786 81.078 56.0121 80.9844 56.2479 80.9844H65.8491C66.0848 80.9844 66.311 81.078 66.4777 81.2448C66.6444 81.4115 66.7381 81.6376 66.7381 81.8734V85.785C66.7381 86.0207 66.6444 86.2469 66.4777 86.4136C66.311 86.5803 66.0848 86.674 65.8491 86.674ZM57.1369 84.896H64.9601V82.7624H57.1369V84.896Z" fill="#313031"/>
<path d="M82.7663 92.6302C86.6941 92.6302 89.8783 89.4461 89.8783 85.5182C89.8783 81.5904 86.6941 78.4062 82.7663 78.4062C78.8384 78.4062 75.6543 81.5904 75.6543 85.5182C75.6543 89.4461 78.8384 92.6302 82.7663 92.6302Z" fill="#0BC6D5"/>
<g style="mix-blend-mode:multiply" opacity="0.74">
<path d="M80.1577 85.5182C80.158 84.0262 80.6274 82.572 81.4996 81.3614C82.3717 80.1508 83.6025 79.2451 85.0177 78.7725C83.9485 78.4154 82.8098 78.3176 81.6953 78.4871C80.5809 78.6566 79.5227 79.0886 78.608 79.7475C77.6934 80.4063 76.9484 81.2732 76.4346 82.2765C75.9208 83.2799 75.6528 84.391 75.6528 85.5182C75.6528 86.6455 75.9208 87.7566 76.4346 88.7599C76.9484 89.7633 77.6934 90.6301 78.608 91.289C79.5227 91.9478 80.5809 92.3798 81.6953 92.5493C82.8098 92.7189 83.9485 92.621 85.0177 92.2639C83.6025 91.7913 82.3717 90.8857 81.4996 89.6751C80.6274 88.4645 80.158 87.0103 80.1577 85.5182Z" fill="#0BC6D5"/>
</g>
<path d="M82.7661 93.5195C81.1837 93.5195 79.6368 93.0503 78.321 92.1711C77.0053 91.292 75.9798 90.0424 75.3742 88.5804C74.7686 87.1184 74.6102 85.5097 74.9189 83.9576C75.2276 82.4056 75.9896 80.98 77.1086 79.861C78.2275 78.7421 79.6532 77.98 81.2052 77.6713C82.7572 77.3626 84.366 77.521 85.828 78.1266C87.2899 78.7322 88.5395 79.7577 89.4187 81.0735C90.2978 82.3892 90.7671 83.9361 90.7671 85.5186C90.7647 87.6398 89.921 89.6735 88.421 91.1734C86.9211 92.6734 84.8874 93.5171 82.7661 93.5195ZM82.7661 79.2956C81.5353 79.2956 80.3322 79.6605 79.3088 80.3443C78.2854 81.0281 77.4878 82 77.0168 83.1371C76.5458 84.2742 76.4226 85.5255 76.6627 86.7326C76.9028 87.9397 77.4955 89.0486 78.3658 89.9189C79.2361 90.7892 80.3449 91.3819 81.5521 91.622C82.7592 91.8621 84.0104 91.7388 85.1476 91.2678C86.2847 90.7968 87.2565 89.9992 87.9403 88.9759C88.6241 87.9525 88.9891 86.7493 88.9891 85.5186C88.9872 83.8687 88.331 82.287 87.1643 81.1203C85.9977 79.9537 84.416 79.2975 82.7661 79.2956Z" fill="#313031"/>
<path d="M82.7661 78.7022C82.436 78.7022 82.1194 78.5711 81.886 78.3377C81.6526 78.1043 81.5215 77.7877 81.5215 77.4576V62.1372C81.5215 61.8071 81.6526 61.4905 81.886 61.2571C82.1194 61.0237 82.436 60.8926 82.7661 60.8926C83.0962 60.8926 83.4127 61.0237 83.6461 61.2571C83.8795 61.4905 84.0107 61.8071 84.0107 62.1372V77.4576C84.0107 77.7877 83.8795 78.1043 83.6461 78.3377C83.4127 78.5711 83.0962 78.7022 82.7661 78.7022Z" fill="#313031"/>
<path d="M94.0656 67.2484H71.4646C71.3332 67.2483 71.2033 67.219 71.0845 67.1627C70.9657 67.1064 70.8609 67.0245 70.7775 66.9228C70.6942 66.8211 70.6345 66.7022 70.6026 66.5746C70.5708 66.4471 70.5676 66.314 70.5934 66.1851L73.8221 50.0409C73.8623 49.8395 73.9711 49.6582 74.13 49.5279C74.2888 49.3976 74.4879 49.3263 74.6933 49.3262H90.8375C91.0429 49.3263 91.242 49.3976 91.4008 49.5279C91.5596 49.6582 91.6684 49.8395 91.7087 50.0409L94.9374 66.1851C94.9631 66.314 94.96 66.4471 94.9281 66.5746C94.8963 66.7022 94.8366 66.8211 94.7532 66.9228C94.6699 67.0245 94.5651 67.1064 94.4463 67.1627C94.3274 67.219 94.1976 67.2483 94.0661 67.2484H94.0656ZM72.549 65.4704H92.9812L90.1082 51.1042H75.4219L72.549 65.4704Z" fill="#313031"/>
<path d="M94.0661 66.3613H71.4653L74.694 50.2178H90.8375L94.0661 66.3613Z" fill="#F0F4F7"/>
<path d="M74.694 50.2178L71.4653 66.3613H79.6791L81.468 50.2178H74.694Z" fill="#DBDBDB"/>
<path d="M94.0656 67.2484H71.4646C71.3332 67.2483 71.2033 67.219 71.0845 67.1627C70.9657 67.1064 70.8609 67.0245 70.7775 66.9228C70.6942 66.8211 70.6345 66.7022 70.6026 66.5746C70.5708 66.4471 70.5676 66.314 70.5934 66.1851L73.8221 50.0409C73.8623 49.8395 73.9711 49.6582 74.13 49.5279C74.2888 49.3976 74.4879 49.3263 74.6933 49.3262H90.8375C91.0429 49.3263 91.242 49.3976 91.4008 49.5279C91.5596 49.6582 91.6684 49.8395 91.7087 50.0409L94.9374 66.1851C94.9631 66.314 94.96 66.4471 94.9281 66.5746C94.8963 66.7022 94.8366 66.8211 94.7532 66.9228C94.6699 67.0245 94.5651 67.1064 94.4463 67.1627C94.3274 67.219 94.1976 67.2483 94.0661 67.2484H94.0656ZM72.549 65.4704H92.9812L90.1082 51.1042H75.4219L72.549 65.4704Z" fill="#313031"/>
<path d="M88.1388 71.1453C88.0445 71.1453 87.954 71.1079 87.8874 71.0412C87.8207 70.9745 87.7832 70.884 87.7832 70.7897V66.3595C87.7832 66.2652 87.8207 66.1747 87.8874 66.1081C87.954 66.0414 88.0445 66.0039 88.1388 66.0039C88.2331 66.0039 88.3236 66.0414 88.3902 66.1081C88.4569 66.1747 88.4944 66.2652 88.4944 66.3595V70.7897C88.4944 70.884 88.4569 70.9745 88.3902 71.0412C88.3236 71.1079 88.2331 71.1453 88.1388 71.1453Z" fill="#313031"/>
<path d="M88.1386 73.9461C87.7913 73.9461 87.4519 73.8431 87.1631 73.6502C86.8744 73.4573 86.6494 73.1831 86.5165 72.8622C86.3836 72.5414 86.3488 72.1884 86.4165 71.8478C86.4843 71.5072 86.6515 71.1944 86.8971 70.9488C87.1426 70.7033 87.4555 70.5361 87.7961 70.4683C88.1366 70.4006 88.4897 70.4353 88.8105 70.5682C89.1313 70.7011 89.4055 70.9262 89.5985 71.2149C89.7914 71.5036 89.8944 71.8431 89.8944 72.1903C89.8938 72.6558 89.7087 73.1021 89.3795 73.4313C89.0504 73.7604 88.6041 73.9456 88.1386 73.9461ZM88.1386 71.1458C87.932 71.1458 87.73 71.207 87.5583 71.3218C87.3865 71.4366 87.2526 71.5997 87.1735 71.7906C87.0945 71.9815 87.0738 72.1915 87.1141 72.3941C87.1544 72.5968 87.2539 72.7829 87.4 72.929C87.546 73.0751 87.7322 73.1745 87.9348 73.2148C88.1374 73.2551 88.3475 73.2345 88.5383 73.1554C88.7292 73.0763 88.8923 72.9425 89.0071 72.7707C89.1219 72.5989 89.1832 72.3969 89.1832 72.1903C89.1829 71.9134 89.0727 71.6479 88.8769 71.452C88.6811 71.2562 88.4155 71.146 88.1386 71.1458Z" fill="#313031"/>
<path d="M88.1394 73.5914C88.9127 73.5914 89.5396 72.9645 89.5396 72.1912C89.5396 71.4179 88.9127 70.791 88.1394 70.791C87.3661 70.791 86.7393 71.4179 86.7393 72.1912C86.7393 72.9645 87.3661 73.5914 88.1394 73.5914Z" fill="#313031"/>
<path d="M59.2182 118.679H53.5286C53.2929 118.679 53.0667 118.585 52.9 118.418C52.7333 118.252 52.6396 118.025 52.6396 117.79V114.234C52.6396 113.998 52.7333 113.772 52.9 113.605C53.0667 113.438 53.2929 113.345 53.5286 113.345H59.2182C59.454 113.345 59.6801 113.438 59.8468 113.605C60.0136 113.772 60.1072 113.998 60.1072 114.234V117.79C60.1072 118.025 60.0136 118.252 59.8468 118.418C59.6801 118.585 59.454 118.679 59.2182 118.679ZM54.4176 116.901H58.3292V115.123H54.4176V116.901Z" fill="#313031"/>
<path d="M59.2164 114.233H53.5269V117.789H59.2164V114.233Z" fill="#313031"/>
<path d="M88.1992 118.679H82.5096C82.2738 118.679 82.0477 118.585 81.881 118.418C81.7143 118.252 81.6206 118.025 81.6206 117.79V114.234C81.6206 113.998 81.7143 113.772 81.881 113.605C82.0477 113.438 82.2738 113.345 82.5096 113.345H88.1992C88.435 113.345 88.6611 113.438 88.8278 113.605C88.9945 113.772 89.0882 113.998 89.0882 114.234V117.79C89.0882 118.025 88.9945 118.252 88.8278 118.418C88.6611 118.585 88.435 118.679 88.1992 118.679ZM83.3986 116.901H87.3102V115.123H83.3986V116.901Z" fill="#313031"/>
<path d="M88.1993 114.233H82.5098V117.789H88.1993V114.233Z" fill="#313031"/>
<path d="M147.289 75.2944V98.5861H112.023V75.2944C112.023 72.8423 112.997 70.4907 114.731 68.7568C116.465 67.0229 118.816 66.0488 121.268 66.0488H138.043C140.495 66.0488 142.847 67.0229 144.581 68.7568C146.314 70.4907 147.289 72.8423 147.289 75.2944Z" fill="#FFC857"/>
<g style="mix-blend-mode:screen" opacity="0.6">
<path d="M138.044 66.2266H121.269C118.817 66.2266 116.465 67.2006 114.731 68.9345C112.998 70.6684 112.023 73.0201 112.023 75.4721V77.6354C112.023 75.1833 112.998 72.8317 114.731 71.0978C116.465 69.3639 118.817 68.3898 121.269 68.3898H138.044C140.496 68.3898 142.847 69.3639 144.581 71.0978C146.315 72.8317 147.289 75.1833 147.289 77.6354V75.4721C147.289 73.0201 146.315 70.6684 144.581 68.9345C142.847 67.2006 140.496 66.2266 138.044 66.2266Z" fill="#FFC857"/>
</g>
<path d="M147.289 99.4764H112.023C111.787 99.4764 111.561 99.3828 111.395 99.216C111.228 99.0493 111.134 98.8232 111.134 98.5874V75.2957C111.137 72.6088 112.206 70.0328 114.106 68.1328C116.006 66.2329 118.582 65.1641 121.269 65.1611H138.044C140.731 65.1642 143.307 66.2329 145.207 68.1329C147.106 70.0328 148.175 72.6088 148.178 75.2957V98.5874C148.178 98.8232 148.085 99.0493 147.918 99.216C147.751 99.3828 147.525 99.4764 147.289 99.4764ZM112.912 97.6984H146.4V75.2957C146.398 73.0802 145.517 70.9561 143.95 69.3895C142.383 67.8228 140.259 66.9416 138.044 66.9391H121.269C119.053 66.9416 116.929 67.8228 115.363 69.3895C113.796 70.9561 112.915 73.0802 112.912 75.2957V97.6984Z" fill="#313031"/>
<path d="M92.6438 100.009H49.2607V114.233H92.6438V100.009Z" fill="#7C4F49"/>
<g style="mix-blend-mode:multiply" opacity="0.24">
<g style="mix-blend-mode:multiply">
<path d="M75.6545 106.231H65.0858C64.5948 106.231 64.1968 106.629 64.1968 107.12V108.75C64.1968 109.241 64.5948 109.639 65.0858 109.639H75.6545C76.1455 109.639 76.5435 109.241 76.5435 108.75V107.12C76.5435 106.629 76.1455 106.231 75.6545 106.231Z" fill="#7C4F49"/>
</g>
</g>
<g style="mix-blend-mode:screen" opacity="0.54">
<path d="M92.6438 100.111H49.2607V101.83H92.6438V100.111Z" fill="#7C4F49"/>
</g>
<g style="mix-blend-mode:multiply" opacity="0.24">
<path d="M92.6438 112.484H49.2607V114.203H92.6438V112.484Z" fill="#7C4F49"/>
</g>
<path d="M92.6432 115.121H49.2601C49.0243 115.121 48.7982 115.027 48.6315 114.861C48.4648 114.694 48.3711 114.468 48.3711 114.232V100.008C48.3711 99.7724 48.4648 99.5462 48.6315 99.3795C48.7982 99.2128 49.0243 99.1191 49.2601 99.1191H92.6432C92.8789 99.1191 93.1051 99.2128 93.2718 99.3795C93.4385 99.5462 93.5322 99.7724 93.5322 100.008V114.232C93.5322 114.468 93.4385 114.694 93.2718 114.861C93.1051 115.027 92.8789 115.121 92.6432 115.121ZM50.1491 113.343H91.7542V100.897H50.1491V113.343Z" fill="#313031"/>
<path d="M92.6438 85.7852H49.2607V100.009H92.6438V85.7852Z" fill="#7C4F49"/>
<g style="mix-blend-mode:multiply" opacity="0.24">
<g style="mix-blend-mode:multiply">
<path d="M75.6545 92.0098H65.0858C64.5948 92.0098 64.1968 92.4078 64.1968 92.8988V94.5286C64.1968 95.0196 64.5948 95.4176 65.0858 95.4176H75.6545C76.1455 95.4176 76.5435 95.0196 76.5435 94.5286V92.8988C76.5435 92.4078 76.1455 92.0098 75.6545 92.0098Z" fill="#7C4F49"/>
</g>
</g>
<g style="mix-blend-mode:multiply" opacity="0.24">
<path d="M92.6438 98.2305H49.2607V99.9493H92.6438V98.2305Z" fill="#7C4F49"/>
</g>
<g style="mix-blend-mode:screen" opacity="0.54">
<path d="M92.6438 85.7852H49.2607V87.5039H92.6438V85.7852Z" fill="#7C4F49"/>
</g>
<path d="M92.6432 100.898H49.2601C49.0243 100.898 48.7982 100.805 48.6315 100.638C48.4648 100.471 48.3711 100.245 48.3711 100.009V85.7855C48.3711 85.5497 48.4648 85.3236 48.6315 85.1569C48.7982 84.9901 49.0243 84.8965 49.2601 84.8965H92.6432C92.8789 84.8965 93.1051 84.9901 93.2718 85.1569C93.4385 85.3236 93.5322 85.5497 93.5322 85.7855V100.009C93.5322 100.245 93.4385 100.471 93.2718 100.638C93.1051 100.805 92.8789 100.898 92.6432 100.898ZM50.1491 99.1204H91.7542V86.6745H50.1491V99.1204Z" fill="#313031"/>
<path d="M148.502 85.8887H152.413C153.168 85.8887 153.891 86.1884 154.425 86.7219C154.958 87.2554 155.258 87.979 155.258 88.7335V114.337H145.657V88.7335C145.657 87.979 145.956 87.2554 146.49 86.7219C147.023 86.1884 147.747 85.8887 148.502 85.8887Z" fill="#FFC857"/>
<g style="mix-blend-mode:screen" opacity="0.6">
<path d="M152.413 85.7852H148.502C147.747 85.7852 147.023 86.0849 146.49 86.6184C145.956 87.1519 145.657 87.8755 145.657 88.6299V90.4079C145.657 89.6535 145.956 88.9299 146.49 88.3964C147.023 87.8629 147.747 87.5632 148.502 87.5632H152.413C153.168 87.5632 153.891 87.8629 154.425 88.3964C154.958 88.9299 155.258 89.6535 155.258 90.4079V88.6299C155.258 87.8755 154.958 87.1519 154.425 86.6184C153.891 86.0849 153.168 85.7852 152.413 85.7852Z" fill="#FFC857"/>
</g>
<path d="M155.26 115.122H145.659C145.423 115.122 145.197 115.029 145.03 114.862C144.863 114.695 144.77 114.469 144.77 114.233V88.6303C144.771 87.6404 145.164 86.6913 145.864 85.9913C146.564 85.2914 147.513 84.8976 148.503 84.8965H152.415C153.405 84.8976 154.354 85.2914 155.054 85.9913C155.754 86.6913 156.148 87.6404 156.149 88.6303V114.233C156.149 114.469 156.055 114.695 155.888 114.862C155.722 115.029 155.495 115.122 155.26 115.122ZM146.548 113.344H154.371V88.6303C154.37 88.1118 154.164 87.6146 153.797 87.248C153.431 86.8813 152.933 86.6751 152.415 86.6745H148.503C147.985 86.675 147.488 86.8813 147.121 87.2479C146.754 87.6146 146.548 88.1117 146.548 88.6303V113.344Z" fill="#313031"/>
<path d="M143.399 56.1982V34.8623H114.24V56.1982H143.399Z" fill="white"/>
<path d="M143.4 57.0876H114.241C114.124 57.0876 114.009 57.0646 113.901 57.0199C113.793 56.9752 113.695 56.9097 113.612 56.8272C113.53 56.7446 113.464 56.6466 113.42 56.5388C113.375 56.4309 113.352 56.3153 113.352 56.1986V34.8626C113.352 34.6269 113.446 34.4007 113.612 34.234C113.779 34.0673 114.005 33.9736 114.241 33.9736H143.4C143.636 33.9736 143.862 34.0673 144.029 34.234C144.195 34.4007 144.289 34.6269 144.289 34.8626V56.1986C144.289 56.3153 144.266 56.4309 144.221 56.5388C144.177 56.6466 144.111 56.7446 144.029 56.8272C143.946 56.9097 143.848 56.9752 143.74 57.0199C143.633 57.0646 143.517 57.0876 143.4 57.0876ZM115.13 55.3096H142.511V35.7516H115.13V55.3096Z" fill="#313031"/>
<path d="M140.555 37.707H117.085V53.3534H140.555V37.707Z" fill="#C6C6C6"/>
<path d="M140.554 53.887H117.084C116.943 53.887 116.807 53.8308 116.707 53.7307C116.607 53.6307 116.551 53.495 116.551 53.3536V37.7072C116.551 37.5658 116.607 37.4301 116.707 37.3301C116.807 37.23 116.943 37.1738 117.084 37.1738H140.554C140.695 37.1738 140.831 37.23 140.931 37.3301C141.031 37.4301 141.087 37.5658 141.087 37.7072V53.3536C141.087 53.495 141.031 53.6307 140.931 53.7307C140.831 53.8308 140.695 53.887 140.554 53.887ZM117.618 52.8202H140.02V38.2406H117.618V52.8202Z" fill="#313031"/>
<path d="M121.304 50.2165L125.029 43.7646L128.754 50.2165H121.304Z" fill="#313031"/>
<path d="M128.755 50.5732H121.305C121.243 50.5732 121.182 50.5567 121.128 50.5255C121.073 50.4943 121.029 50.4494 120.997 50.3954C120.966 50.3413 120.95 50.28 120.95 50.2176C120.95 50.1551 120.966 50.0938 120.997 50.0398L124.722 43.588C124.754 43.5339 124.799 43.489 124.853 43.4578C124.907 43.4266 124.968 43.4102 125.03 43.4102C125.093 43.4101 125.154 43.4265 125.208 43.4578C125.262 43.489 125.307 43.5339 125.339 43.588L129.064 50.0398C129.095 50.0938 129.112 50.1552 129.112 50.2176C129.112 50.28 129.095 50.3414 129.064 50.3954C129.033 50.4495 128.988 50.4944 128.934 50.5256C128.88 50.5568 128.818 50.5732 128.756 50.5732H128.755ZM121.921 49.862H128.139L125.03 44.477L121.921 49.862Z" fill="#313031"/>
<path d="M125.029 50.2178L129.37 42.6992L133.711 50.2178H125.029Z" fill="#0BC6D5"/>
<path d="M133.711 50.5727H125.029C124.967 50.5727 124.906 50.5563 124.852 50.5251C124.798 50.4939 124.753 50.449 124.721 50.3949C124.69 50.3409 124.674 50.2795 124.674 50.2171C124.674 50.1547 124.69 50.0934 124.721 50.0393L129.063 42.5207C129.094 42.4666 129.139 42.4217 129.193 42.3905C129.247 42.3592 129.309 42.3428 129.371 42.3428C129.434 42.3428 129.495 42.3592 129.549 42.3905C129.603 42.4217 129.648 42.4666 129.679 42.5207L134.02 50.0393C134.051 50.0934 134.068 50.1547 134.068 50.2172C134.068 50.2796 134.051 50.3409 134.02 50.395C133.989 50.449 133.944 50.4939 133.89 50.5251C133.836 50.5563 133.774 50.5727 133.712 50.5727H133.711ZM125.645 49.8615H133.095L129.37 43.4097L125.645 49.8615Z" fill="#313031"/>
<path d="M135.371 43.7651C136.288 43.7651 137.031 43.0222 137.031 42.1057C137.031 41.1892 136.288 40.4463 135.371 40.4463C134.455 40.4463 133.712 41.1892 133.712 42.1057C133.712 43.0222 134.455 43.7651 135.371 43.7651Z" fill="#FFC857"/>
<path d="M135.371 44.1202C134.972 44.1202 134.583 44.0021 134.251 43.7807C133.92 43.5593 133.661 43.2445 133.509 42.8763C133.356 42.5081 133.316 42.1029 133.394 41.712C133.472 41.3211 133.664 40.962 133.946 40.6801C134.227 40.3983 134.587 40.2063 134.977 40.1286C135.368 40.0508 135.774 40.0907 136.142 40.2432C136.51 40.3957 136.825 40.654 137.046 40.9854C137.268 41.3168 137.386 41.7065 137.386 42.105C137.385 42.6393 137.173 43.1515 136.795 43.5293C136.417 43.9071 135.905 44.1196 135.371 44.1202ZM135.371 40.8012C135.113 40.8012 134.861 40.8776 134.646 41.0209C134.432 41.1642 134.265 41.3678 134.166 41.6061C134.067 41.8444 134.041 42.1066 134.092 42.3596C134.142 42.6125 134.266 42.8449 134.449 43.0273C134.631 43.2096 134.863 43.3338 135.116 43.3841C135.369 43.4344 135.631 43.4086 135.87 43.3099C136.108 43.2112 136.312 43.044 136.455 42.8295C136.598 42.6151 136.675 42.3629 136.675 42.105C136.674 41.7594 136.537 41.428 136.292 41.1836C136.048 40.9391 135.716 40.8016 135.371 40.8012Z" fill="#313031"/>
<path d="M119.371 35.3965C119.257 35.3968 119.146 35.3604 119.054 35.2929C118.962 35.2254 118.894 35.1302 118.86 35.0213C118.827 34.9124 118.829 34.7955 118.866 34.6878C118.904 34.5801 118.975 34.4873 119.069 34.4229L128.318 28.0932C128.407 28.0325 128.512 28 128.619 28C128.727 28 128.832 28.0325 128.92 28.0932L138.166 34.4188C138.283 34.4987 138.363 34.6217 138.389 34.7608C138.415 34.8998 138.385 35.0436 138.305 35.1603C138.225 35.2771 138.102 35.3573 137.963 35.3834C137.824 35.4094 137.68 35.3792 137.563 35.2993L128.62 29.1798L119.672 35.3028C119.583 35.3638 119.478 35.3964 119.371 35.3965Z" fill="#313031"/>
<path d="M75.6545 93.7868H65.0858C64.85 93.7868 64.6239 93.6931 64.4572 93.5264C64.2904 93.3597 64.1968 93.1336 64.1968 92.8978C64.1968 92.662 64.2904 92.4359 64.4572 92.2692C64.6239 92.1025 64.85 92.0088 65.0858 92.0088H75.6545C75.8903 92.0088 76.1164 92.1025 76.2831 92.2692C76.4499 92.4359 76.5435 92.662 76.5435 92.8978C76.5435 93.1336 76.4499 93.3597 76.2831 93.5264C76.1164 93.6931 75.8903 93.7868 75.6545 93.7868Z" fill="#313031"/>
<path d="M75.6545 108.009H65.0858C64.85 108.009 64.6239 107.916 64.4572 107.749C64.2904 107.582 64.1968 107.356 64.1968 107.12C64.1968 106.885 64.2904 106.659 64.4572 106.492C64.6239 106.325 64.85 106.231 65.0858 106.231H75.6545C75.8903 106.231 76.1164 106.325 76.2831 106.492C76.4499 106.659 76.5435 106.885 76.5435 107.12C76.5435 107.356 76.4499 107.582 76.2831 107.749C76.1164 107.916 75.8903 108.009 75.6545 108.009Z" fill="#313031"/>
<path d="M151.346 114.233H145.657V117.789H151.346V114.233Z" fill="#313031"/>
<path d="M151.348 118.679H145.659C145.423 118.679 145.197 118.585 145.03 118.418C144.863 118.252 144.77 118.025 144.77 117.79V114.234C144.77 113.998 144.863 113.772 145.03 113.605C145.197 113.438 145.423 113.345 145.659 113.345H151.348C151.584 113.345 151.81 113.438 151.977 113.605C152.143 113.772 152.237 113.998 152.237 114.234V117.79C152.237 118.025 152.143 118.252 151.977 118.418C151.81 118.585 151.584 118.679 151.348 118.679ZM146.548 116.901H150.459V115.123H146.548V116.901Z" fill="#313031"/>
<path d="M113.609 114.233H107.919V117.789H113.609V114.233Z" fill="#313031"/>
<path d="M113.61 118.679H107.92C107.684 118.679 107.458 118.585 107.292 118.418C107.125 118.252 107.031 118.025 107.031 117.79V114.234C107.031 113.998 107.125 113.772 107.292 113.605C107.458 113.438 107.684 113.345 107.92 113.345H113.61C113.846 113.345 114.072 113.438 114.238 113.605C114.405 113.772 114.499 113.998 114.499 114.234V117.79C114.499 118.025 114.405 118.252 114.238 118.418C114.072 118.585 113.846 118.679 113.61 118.679ZM108.809 116.901H112.721V115.123H108.809V116.901Z" fill="#313031"/>
<path d="M106.854 85.7852H110.765C111.52 85.7852 112.243 86.0849 112.777 86.6184C113.31 87.1519 113.61 87.8755 113.61 88.6299V114.233H104.009V88.6299C104.009 87.8755 104.309 87.1519 104.842 86.6184C105.376 86.0849 106.099 85.7852 106.854 85.7852Z" fill="#FFC857"/>
<g style="mix-blend-mode:screen" opacity="0.6">
<path d="M110.765 85.7852H106.854C106.099 85.7852 105.376 86.0849 104.842 86.6184C104.309 87.1519 104.009 87.8755 104.009 88.6299V90.4079C104.009 89.6535 104.309 88.9299 104.842 88.3964C105.376 87.8629 106.099 87.5632 106.854 87.5632H110.765C111.52 87.5632 112.243 87.8629 112.777 88.3964C113.31 88.9299 113.61 89.6535 113.61 90.4079V88.6299C113.61 87.8755 113.31 87.1519 112.777 86.6184C112.243 86.0849 111.52 85.7852 110.765 85.7852Z" fill="#FFC857"/>
</g>
<path d="M113.61 115.122H104.009C103.773 115.122 103.547 115.029 103.38 114.862C103.213 114.695 103.12 114.469 103.12 114.233V88.6303C103.121 87.6404 103.515 86.6913 104.214 85.9913C104.914 85.2914 105.864 84.8976 106.853 84.8965H110.765C111.755 84.8976 112.704 85.2914 113.404 85.9913C114.104 86.6913 114.498 87.6404 114.499 88.6303V114.233C114.499 114.469 114.405 114.695 114.238 114.862C114.072 115.029 113.846 115.122 113.61 115.122ZM104.898 113.344H112.721V88.6303C112.72 88.1118 112.514 87.6146 112.147 87.248C111.781 86.8813 111.284 86.6751 110.765 86.6745H106.853C106.335 86.675 105.838 86.8813 105.471 87.2479C105.104 87.6146 104.898 88.1117 104.898 88.6303V113.344Z" fill="#313031"/>
<path d="M145.657 97.9789V106.587H113.653V97.9789C113.653 97.1026 114.001 96.2622 114.621 95.6425C115.24 95.0229 116.081 94.6748 116.957 94.6748H142.353C143.229 94.6748 144.069 95.0229 144.689 95.6425C145.309 96.2622 145.657 97.1026 145.657 97.9789Z" fill="#FFC857"/>
<g style="mix-blend-mode:screen" opacity="0.6">
<path d="M142.353 94.6748H116.958C116.524 94.6748 116.094 94.7602 115.693 94.9263C115.292 95.0923 114.928 95.3357 114.621 95.6425C114.314 95.9493 114.071 96.3135 113.905 96.7144C113.739 97.1153 113.653 97.5449 113.653 97.9789V100.112C113.653 99.6785 113.739 99.2489 113.905 98.848C114.071 98.4471 114.314 98.0829 114.621 97.7761C114.928 97.4693 115.292 97.2259 115.693 97.0599C116.094 96.8938 116.524 96.8084 116.958 96.8084H142.353C143.229 96.8084 144.07 97.1565 144.689 97.7761C145.309 98.3958 145.657 99.2362 145.657 100.112V97.9789C145.657 97.1026 145.309 96.2622 144.689 95.6425C144.07 95.0229 143.229 94.6748 142.353 94.6748Z" fill="#FFC857"/>
</g>
<path d="M145.657 107.476H113.653C113.417 107.476 113.191 107.382 113.025 107.215C112.858 107.049 112.764 106.822 112.764 106.587V97.9784C112.765 96.8667 113.208 95.8008 113.994 95.0147C114.78 94.2286 115.846 93.7864 116.957 93.7852H142.353C143.465 93.7864 144.53 94.2286 145.316 95.0147C146.103 95.8008 146.545 96.8667 146.546 97.9784V106.587C146.546 106.822 146.452 107.049 146.286 107.215C146.119 107.382 145.893 107.476 145.657 107.476ZM114.542 105.698H144.768V97.9784C144.767 97.338 144.513 96.7242 144.06 96.2714C143.607 95.8186 142.993 95.5639 142.353 95.5632H116.957C116.317 95.564 115.703 95.8187 115.25 96.2715C114.798 96.7242 114.543 97.3381 114.542 97.9784V105.698Z" fill="#313031"/>
<path d="M145.657 113.343V106.587H113.653V113.343H145.657Z" fill="#FFC857"/>
<path d="M145.657 113.343V106.587H113.653V113.343H145.657Z" fill="#FFC857"/>
<path d="M145.657 108.721V106.587H113.653V108.721H145.657Z" fill="#D89E36"/>
<path d="M145.657 114.234H113.653C113.417 114.234 113.191 114.14 113.025 113.973C112.858 113.806 112.764 113.58 112.764 113.345V106.588C112.764 106.352 112.858 106.126 113.025 105.96C113.191 105.793 113.417 105.699 113.653 105.699H145.657C145.893 105.699 146.119 105.793 146.286 105.96C146.452 106.126 146.546 106.352 146.546 106.588V113.345C146.546 113.58 146.452 113.806 146.286 113.973C146.119 114.14 145.893 114.234 145.657 114.234ZM114.542 112.456H144.768V107.477H114.542V112.456Z" fill="#313031"/>
<g style="mix-blend-mode:screen" opacity="0.69">
<path d="M129.729 82.3178C130.809 82.3178 131.685 81.4422 131.685 80.362C131.685 79.2819 130.809 78.4062 129.729 78.4062C128.649 78.4062 127.773 79.2819 127.773 80.362C127.773 81.4422 128.649 82.3178 129.729 82.3178Z" fill="white"/>
</g>
<path d="M129.73 82.8505C129.238 82.8505 128.756 82.7045 128.347 82.431C127.938 82.1574 127.619 81.7687 127.43 81.3138C127.242 80.859 127.193 80.3585 127.289 79.8756C127.385 79.3928 127.622 78.9493 127.97 78.6011C128.318 78.253 128.761 78.0159 129.244 77.9199C129.727 77.8239 130.228 77.8731 130.682 78.0615C131.137 78.2499 131.526 78.569 131.8 78.9783C132.073 79.3877 132.219 79.8689 132.219 80.3613C132.218 81.0212 131.956 81.6539 131.489 82.1206C131.023 82.5873 130.39 82.8498 129.73 82.8505ZM129.73 78.9389C129.449 78.9389 129.174 79.0223 128.94 79.1786C128.706 79.3349 128.523 79.557 128.416 79.8169C128.308 80.0768 128.28 80.3628 128.335 80.6388C128.39 80.9147 128.525 81.1681 128.724 81.3671C128.923 81.566 129.177 81.7014 129.452 81.7563C129.728 81.8112 130.014 81.783 130.274 81.6754C130.534 81.5677 130.756 81.3854 130.913 81.1515C131.069 80.9176 131.152 80.6426 131.152 80.3613C131.152 79.9842 131.002 79.6226 130.735 79.3559C130.469 79.0893 130.107 78.9393 129.73 78.9389Z" fill="#313031"/>
<path d="M159.482 118.677H44.3416C44.1059 118.677 43.8797 118.584 43.713 118.417C43.5463 118.25 43.4526 118.024 43.4526 117.788C43.4526 117.553 43.5463 117.327 43.713 117.16C43.8797 116.993 44.1059 116.899 44.3416 116.899H159.482C159.717 116.899 159.943 116.993 160.11 117.16C160.277 117.327 160.371 117.553 160.371 117.788C160.371 118.024 160.277 118.25 160.11 118.417C159.943 118.584 159.717 118.677 159.482 118.677Z" fill="#313031"/>
<path d="M104.083 127.315H90.0023C89.7665 127.315 89.5404 127.221 89.3737 127.055C89.2069 126.888 89.1133 126.662 89.1133 126.426C89.1133 126.19 89.2069 125.964 89.3737 125.797C89.5404 125.631 89.7665 125.537 90.0023 125.537H104.083C104.319 125.537 104.545 125.631 104.712 125.797C104.878 125.964 104.972 126.19 104.972 126.426C104.972 126.662 104.878 126.888 104.712 127.055C104.545 127.221 104.319 127.315 104.083 127.315Z" fill="#313031"/>
<path d="M86.8917 127.315H83.8158C83.58 127.315 83.3539 127.221 83.1871 127.055C83.0204 126.888 82.9268 126.662 82.9268 126.426C82.9268 126.19 83.0204 125.964 83.1871 125.797C83.3539 125.631 83.58 125.537 83.8158 125.537H86.8917C87.1275 125.537 87.3536 125.631 87.5203 125.797C87.687 125.964 87.7807 126.19 87.7807 126.426C87.7807 126.662 87.687 126.888 87.5203 127.055C87.3536 127.221 87.1275 127.315 86.8917 127.315Z" fill="#313031"/>
<path d="M88.5027 71.7678C88.7032 71.7678 88.8658 71.6285 88.8658 71.4567C88.8658 71.2848 88.7032 71.1455 88.5027 71.1455C88.3022 71.1455 88.1396 71.2848 88.1396 71.4567C88.1396 71.6285 88.3022 71.7678 88.5027 71.7678Z" fill="#DBDBDB"/>
</g>
<defs>
<clipPath id="clip0_226_10328">
<rect width="156" height="156" fill="white"/>
</clipPath>
</defs>
</svg>
