<svg width="156" height="156" viewBox="0 0 156 156" fill="none" xmlns="http://www.w3.org/2000/svg">
<g clip-path="url(#clip0_226_9903)">
<path d="M86.6547 130.949H71.7662C71.5169 130.949 71.2778 130.849 71.1015 130.672C70.9252 130.495 70.8262 130.254 70.8262 130.004C70.8262 129.753 70.9252 129.513 71.1015 129.335C71.2778 129.158 71.5169 129.059 71.7662 129.059H86.6547C86.904 129.059 87.143 129.158 87.3193 129.335C87.4956 129.513 87.5947 129.753 87.5947 130.004C87.5947 130.254 87.4956 130.495 87.3193 130.672C87.143 130.849 86.904 130.949 86.6547 130.949Z" fill="#3B6B7D"/>
<path d="M67.6048 130.949H65.2256C64.9763 130.949 64.7373 130.849 64.561 130.672C64.3847 130.495 64.2856 130.254 64.2856 130.004C64.2856 129.753 64.3847 129.513 64.561 129.335C64.7373 129.158 64.9763 129.059 65.2256 129.059H67.6048C67.8541 129.059 68.0932 129.158 68.2695 129.335C68.4457 129.513 68.5448 129.753 68.5448 130.004C68.5448 130.254 68.4457 130.495 68.2695 130.672C68.0932 130.849 67.8541 130.949 67.6048 130.949Z" fill="#3B6B7D"/>
<g style="mix-blend-mode:multiply" opacity="0.23">
<g style="mix-blend-mode:multiply">
<path d="M100.863 64.5727H89.2325C89.0829 64.5727 88.9394 64.513 88.8336 64.4067C88.7279 64.3003 88.6685 64.1561 88.6685 64.0057C88.6685 63.8554 88.7279 63.7111 88.8336 63.6048C88.9394 63.4985 89.0829 63.4387 89.2325 63.4387H100.299V58.1598C100.299 58.0094 100.358 57.8652 100.464 57.7588C100.569 57.6525 100.713 57.5928 100.863 57.5928C101.012 57.5928 101.156 57.6525 101.261 57.7588C101.367 57.8652 101.427 58.0094 101.427 58.1598V64.0057C101.427 64.1561 101.367 64.3003 101.261 64.4067C101.156 64.513 101.012 64.5727 100.863 64.5727Z" fill="#474747"/>
</g>
<g style="mix-blend-mode:multiply">
<path d="M112.492 64.5727H100.862C100.713 64.5727 100.569 64.513 100.464 64.4067C100.358 64.3003 100.298 64.1561 100.298 64.0057V58.1598C100.298 58.0094 100.358 57.8652 100.464 57.7588C100.569 57.6525 100.713 57.5928 100.862 57.5928C101.012 57.5928 101.155 57.6525 101.261 57.7588C101.367 57.8652 101.426 58.0094 101.426 58.1598V63.4387H112.492C112.642 63.4387 112.785 63.4985 112.891 63.6048C112.997 63.7111 113.056 63.8554 113.056 64.0057C113.056 64.1561 112.997 64.3003 112.891 64.4067C112.785 64.513 112.642 64.5727 112.492 64.5727Z" fill="#474747"/>
</g>
<g style="mix-blend-mode:multiply">
<path d="M106.677 70.4184H95.0474C94.8978 70.4184 94.7544 70.3587 94.6486 70.2524C94.5428 70.146 94.4834 70.0018 94.4834 69.8514V64.0055C94.4834 63.8551 94.5428 63.7109 94.6486 63.6045C94.7544 63.4982 94.8978 63.4385 95.0474 63.4385H106.677C106.827 63.4385 106.97 63.4982 107.076 63.6045C107.182 63.7109 107.241 63.8551 107.241 64.0055V69.8514C107.241 69.9259 107.227 69.9996 107.199 70.0684C107.17 70.1372 107.129 70.1997 107.076 70.2524C107.024 70.305 106.962 70.3468 106.893 70.3753C106.825 70.4038 106.752 70.4184 106.677 70.4184ZM95.6114 69.2844H106.113V64.5725H95.6114V69.2844Z" fill="#474747"/>
</g>
<g style="mix-blend-mode:multiply">
<path d="M104.167 76.2651H100.862C100.713 76.2651 100.569 76.2054 100.464 76.099C100.358 75.9927 100.298 75.8485 100.298 75.6981V69.8522C100.298 69.7018 100.358 69.5576 100.464 69.4512C100.569 69.3449 100.713 69.2852 100.862 69.2852H112.492C112.642 69.2852 112.785 69.3449 112.891 69.4512C112.997 69.5576 113.056 69.7018 113.056 69.8522C113.056 70.0025 112.997 70.1468 112.891 70.2531C112.785 70.3594 112.642 70.4192 112.492 70.4192H101.426V75.1311H104.167C104.316 75.1311 104.46 75.1909 104.566 75.2972C104.671 75.4035 104.731 75.5477 104.731 75.6981C104.731 75.8485 104.671 75.9927 104.566 76.099C104.46 76.2054 104.316 76.2651 104.167 76.2651Z" fill="#474747"/>
</g>
<g style="mix-blend-mode:multiply">
<path d="M100.863 76.2651H91.4319C91.2823 76.2651 91.1388 76.2054 91.0331 76.099C90.9273 75.9927 90.8679 75.8485 90.8679 75.6981C90.8679 75.5477 90.9273 75.4035 91.0331 75.2972C91.1388 75.1909 91.2823 75.1311 91.4319 75.1311H100.299V70.4192H89.2325C89.0829 70.4192 88.9394 70.3594 88.8336 70.2531C88.7279 70.1468 88.6685 70.0025 88.6685 69.8522C88.6685 69.7018 88.7279 69.5576 88.8336 69.4512C88.9394 69.3449 89.0829 69.2852 89.2325 69.2852H100.863C101.012 69.2852 101.156 69.3449 101.261 69.4512C101.367 69.5576 101.427 69.7018 101.427 69.8522V75.6981C101.427 75.8485 101.367 75.9927 101.261 76.099C101.156 76.2054 101.012 76.2651 100.863 76.2651Z" fill="#474747"/>
</g>
<g style="mix-blend-mode:multiply">
<path d="M95.0475 70.4184H89.2325C89.0829 70.4184 88.9394 70.3587 88.8337 70.2524C88.7279 70.146 88.6685 70.0018 88.6685 69.8514C88.6685 69.7011 88.7279 69.5568 88.8337 69.4505C88.9394 69.3442 89.0829 69.2844 89.2325 69.2844H94.4835V64.5725H85.2681C85.1185 64.5725 84.9751 64.5127 84.8693 64.4064C84.7635 64.3001 84.7041 64.1559 84.7041 64.0055C84.7041 63.8551 84.7635 63.7109 84.8693 63.6045C84.9751 63.4982 85.1185 63.4385 85.2681 63.4385H95.0475C95.1971 63.4385 95.3405 63.4982 95.4463 63.6045C95.5521 63.7109 95.6115 63.8551 95.6115 64.0055V69.8514C95.6115 69.9259 95.5969 69.9996 95.5686 70.0684C95.5402 70.1372 95.4987 70.1997 95.4463 70.2524C95.3939 70.305 95.3318 70.3468 95.2633 70.3753C95.1949 70.4038 95.1216 70.4184 95.0475 70.4184Z" fill="#474747"/>
</g>
<g style="mix-blend-mode:multiply">
<path d="M115.07 70.4184H106.678C106.528 70.4184 106.385 70.3587 106.279 70.2524C106.173 70.146 106.114 70.0018 106.114 69.8514V64.0055C106.114 63.8551 106.173 63.7109 106.279 63.6045C106.385 63.4982 106.528 63.4385 106.678 63.4385H110.709C110.859 63.4385 111.002 63.4982 111.108 63.6045C111.214 63.7109 111.273 63.8551 111.273 64.0055C111.273 64.1559 111.214 64.3001 111.108 64.4064C111.002 64.5127 110.859 64.5725 110.709 64.5725H107.242V69.2844H115.07C115.22 69.2844 115.364 69.3442 115.469 69.4505C115.575 69.5568 115.634 69.7011 115.634 69.8514C115.634 70.0018 115.575 70.146 115.469 70.2524C115.364 70.3587 115.22 70.4184 115.07 70.4184Z" fill="#474747"/>
</g>
</g>
<g style="mix-blend-mode:multiply" opacity="0.23">
<g style="mix-blend-mode:multiply">
<path d="M148.466 97.2966H136.836C136.686 97.2966 136.543 97.2368 136.437 97.1305C136.331 97.0242 136.272 96.8799 136.272 96.7296C136.272 96.5792 136.331 96.435 136.437 96.3286C136.543 96.2223 136.686 96.1626 136.836 96.1626H147.902V90.8834C147.902 90.733 147.961 90.5888 148.067 90.4825C148.173 90.3762 148.316 90.3164 148.466 90.3164C148.616 90.3164 148.759 90.3762 148.865 90.4825C148.971 90.5888 149.03 90.733 149.03 90.8834V96.7296C149.03 96.8799 148.971 97.0242 148.865 97.1305C148.759 97.2368 148.616 97.2966 148.466 97.2966Z" fill="#474747"/>
</g>
<g style="mix-blend-mode:multiply">
<path d="M160.096 97.2966H148.466C148.316 97.2966 148.173 97.2368 148.067 97.1305C147.961 97.0242 147.902 96.8799 147.902 96.7296V90.8834C147.902 90.733 147.961 90.5888 148.067 90.4825C148.173 90.3762 148.316 90.3164 148.466 90.3164C148.615 90.3164 148.759 90.3762 148.865 90.4825C148.97 90.5888 149.03 90.733 149.03 90.8834V96.1626H160.096C160.245 96.1626 160.389 96.2223 160.495 96.3286C160.6 96.435 160.66 96.5792 160.66 96.7296C160.66 96.8799 160.6 97.0242 160.495 97.1305C160.389 97.2368 160.245 97.2966 160.096 97.2966Z" fill="#474747"/>
</g>
<g style="mix-blend-mode:multiply">
<path d="M154.281 103.142H142.651C142.501 103.142 142.358 103.082 142.252 102.976C142.146 102.869 142.087 102.725 142.087 102.575V96.7291C142.087 96.5787 142.146 96.4345 142.252 96.3282C142.358 96.2219 142.501 96.1621 142.651 96.1621H154.281C154.431 96.1621 154.574 96.2219 154.68 96.3282C154.786 96.4345 154.845 96.5787 154.845 96.7291V102.575C154.845 102.725 154.786 102.869 154.68 102.976C154.574 103.082 154.431 103.142 154.281 103.142ZM143.215 102.008H153.717V97.2961H143.215V102.008Z" fill="#474747"/>
</g>
<g style="mix-blend-mode:multiply">
<path d="M151.77 108.989H148.466C148.316 108.989 148.173 108.929 148.067 108.823C147.961 108.716 147.902 108.572 147.902 108.422V102.576C147.902 102.425 147.961 102.281 148.067 102.175C148.173 102.069 148.316 102.009 148.466 102.009H160.096C160.245 102.009 160.389 102.069 160.495 102.175C160.6 102.281 160.66 102.425 160.66 102.576C160.66 102.726 160.6 102.87 160.495 102.977C160.389 103.083 160.245 103.143 160.096 103.143H149.03V107.855H151.77C151.92 107.855 152.063 107.914 152.169 108.021C152.275 108.127 152.334 108.271 152.334 108.422C152.334 108.572 152.275 108.716 152.169 108.823C152.063 108.929 151.92 108.989 151.77 108.989Z" fill="#474747"/>
</g>
<g style="mix-blend-mode:multiply">
<path d="M148.466 108.989H139.035C138.886 108.989 138.742 108.929 138.637 108.823C138.531 108.716 138.471 108.572 138.471 108.422C138.471 108.271 138.531 108.127 138.637 108.021C138.742 107.914 138.886 107.855 139.035 107.855H147.902V103.143H136.836C136.686 103.143 136.543 103.083 136.437 102.977C136.331 102.87 136.272 102.726 136.272 102.576C136.272 102.425 136.331 102.281 136.437 102.175C136.543 102.069 136.686 102.009 136.836 102.009H148.466C148.616 102.009 148.759 102.069 148.865 102.175C148.971 102.281 149.03 102.425 149.03 102.576V108.422C149.03 108.572 148.971 108.716 148.865 108.823C148.759 108.929 148.616 108.989 148.466 108.989Z" fill="#474747"/>
</g>
<g style="mix-blend-mode:multiply">
<path d="M142.651 103.142H136.836C136.686 103.142 136.543 103.082 136.437 102.976C136.331 102.869 136.272 102.725 136.272 102.575C136.272 102.424 136.331 102.28 136.437 102.174C136.543 102.068 136.686 102.008 136.836 102.008H142.087V97.2961H132.872C132.722 97.2961 132.579 97.2364 132.473 97.13C132.367 97.0237 132.308 96.8795 132.308 96.7291C132.308 96.5787 132.367 96.4345 132.473 96.3282C132.579 96.2219 132.722 96.1621 132.872 96.1621H142.651C142.801 96.1621 142.944 96.2219 143.05 96.3282C143.156 96.4345 143.215 96.5787 143.215 96.7291V102.575C143.215 102.725 143.156 102.869 143.05 102.976C142.944 103.082 142.801 103.142 142.651 103.142Z" fill="#474747"/>
</g>
<g style="mix-blend-mode:multiply">
<path d="M162.674 103.142H154.281C154.132 103.142 153.988 103.082 153.882 102.976C153.777 102.869 153.717 102.725 153.717 102.575V96.7291C153.717 96.5787 153.777 96.4345 153.882 96.3282C153.988 96.2219 154.132 96.1621 154.281 96.1621H158.313C158.462 96.1621 158.606 96.2219 158.711 96.3282C158.817 96.4345 158.877 96.5787 158.877 96.7291C158.877 96.8795 158.817 97.0237 158.711 97.13C158.606 97.2364 158.462 97.2961 158.313 97.2961H154.845V102.008H162.674C162.824 102.008 162.967 102.068 163.073 102.174C163.179 102.28 163.238 102.424 163.238 102.575C163.238 102.725 163.179 102.869 163.073 102.976C162.967 103.082 162.824 103.142 162.674 103.142Z" fill="#474747"/>
</g>
</g>
<g style="mix-blend-mode:multiply" opacity="0.23">
<g style="mix-blend-mode:multiply">
<path d="M9.15836 88.794H-2.47189C-2.62147 88.794 -2.76493 88.7343 -2.8707 88.6279C-2.97647 88.5216 -3.03589 88.3774 -3.03589 88.227C-3.03589 88.0766 -2.97647 87.9324 -2.8707 87.8261C-2.76493 87.7197 -2.62147 87.66 -2.47189 87.66H8.59436V82.3805C8.59436 82.2301 8.65378 82.0859 8.75955 81.9796C8.86532 81.8732 9.00877 81.8135 9.15836 81.8135C9.30794 81.8135 9.45139 81.8732 9.55716 81.9796C9.66294 82.0859 9.72236 82.2301 9.72236 82.3805V88.2263C9.72245 88.3008 9.70794 88.3746 9.67964 88.4435C9.65134 88.5123 9.60981 88.5749 9.55743 88.6277C9.50505 88.6804 9.44284 88.7222 9.37436 88.7508C9.30589 88.7793 9.23248 88.794 9.15836 88.794Z" fill="#474747"/>
</g>
<g style="mix-blend-mode:multiply">
<path d="M20.7883 88.794H9.15824C9.00866 88.794 8.8652 88.7343 8.75943 88.6279C8.65366 88.5216 8.59424 88.3774 8.59424 88.227V82.3805C8.59424 82.2301 8.65366 82.0859 8.75943 81.9796C8.8652 81.8732 9.00866 81.8135 9.15824 81.8135C9.30782 81.8135 9.45128 81.8732 9.55705 81.9796C9.66282 82.0859 9.72224 82.2301 9.72224 82.3805V87.6593H20.7883C20.9379 87.6593 21.0813 87.719 21.1871 87.8253C21.2929 87.9317 21.3523 88.0759 21.3523 88.2263C21.3523 88.3766 21.2929 88.5208 21.1871 88.6272C21.0813 88.7335 20.9379 88.7933 20.7883 88.7933V88.794Z" fill="#474747"/>
</g>
<g style="mix-blend-mode:multiply">
<path d="M14.9732 94.6403H3.3433C3.19371 94.6403 3.05026 94.5806 2.94449 94.4742C2.83872 94.3679 2.7793 94.2237 2.7793 94.0733V88.2272C2.7793 88.0768 2.83872 87.9326 2.94449 87.8262C3.05026 87.7199 3.19371 87.6602 3.3433 87.6602H14.9732C15.1227 87.6602 15.2662 87.7199 15.372 87.8262C15.4777 87.9326 15.5372 88.0768 15.5372 88.2272V94.0733C15.5372 94.2237 15.4777 94.3679 15.372 94.4742C15.2662 94.5806 15.1227 94.6403 14.9732 94.6403ZM3.9073 93.5063H14.4092V88.7942H3.9073V93.5063Z" fill="#474747"/>
</g>
<g style="mix-blend-mode:multiply">
<path d="M12.4627 100.487H9.15824C9.00866 100.487 8.8652 100.427 8.75943 100.321C8.65366 100.214 8.59424 100.07 8.59424 99.9196V94.0738C8.59424 93.9235 8.65366 93.7792 8.75943 93.6729C8.8652 93.5666 9.00866 93.5068 9.15824 93.5068H20.7883C20.9379 93.5068 21.0813 93.5666 21.1871 93.6729C21.2929 93.7792 21.3523 93.9235 21.3523 94.0738C21.3523 94.2242 21.2929 94.3684 21.1871 94.4748C21.0813 94.5811 20.9379 94.6408 20.7883 94.6408H9.72224V99.3526H12.4627C12.6123 99.3526 12.7558 99.4124 12.8615 99.5187C12.9673 99.625 13.0267 99.7692 13.0267 99.9196C13.0267 100.07 12.9673 100.214 12.8615 100.321C12.7558 100.427 12.6123 100.487 12.4627 100.487Z" fill="#474747"/>
</g>
<g style="mix-blend-mode:multiply">
<path d="M9.15836 100.487H-0.272288C-0.42187 100.487 -0.565326 100.427 -0.671096 100.321C-0.776867 100.214 -0.836288 100.07 -0.836288 99.9196C-0.836288 99.7692 -0.776867 99.625 -0.671096 99.5187C-0.565326 99.4124 -0.42187 99.3526 -0.272288 99.3526H8.59436V94.6408H-2.47189C-2.62147 94.6408 -2.76493 94.5811 -2.8707 94.4748C-2.97647 94.3684 -3.03589 94.2242 -3.03589 94.0738C-3.03589 93.9235 -2.97647 93.7792 -2.8707 93.6729C-2.76493 93.5666 -2.62147 93.5068 -2.47189 93.5068H9.15836C9.30794 93.5068 9.45139 93.5666 9.55716 93.6729C9.66294 93.7792 9.72236 93.9235 9.72236 94.0738V99.9196C9.72236 100.07 9.66294 100.214 9.55716 100.321C9.45139 100.427 9.30794 100.487 9.15836 100.487Z" fill="#474747"/>
</g>
<g style="mix-blend-mode:multiply">
<path d="M3.34338 94.6403H-2.47183C-2.62141 94.6403 -2.76487 94.5806 -2.87064 94.4742C-2.97641 94.3679 -3.03583 94.2237 -3.03583 94.0733C-3.03583 93.9229 -2.97641 93.7787 -2.87064 93.6724C-2.76487 93.566 -2.62141 93.5063 -2.47183 93.5063H2.77938V88.7942H-6.436C-6.58558 88.7942 -6.72904 88.7344 -6.83481 88.6281C-6.94058 88.5218 -7 88.3775 -7 88.2272C-7 88.0768 -6.94058 87.9326 -6.83481 87.8262C-6.72904 87.7199 -6.58558 87.6602 -6.436 87.6602H3.34338C3.49297 87.6602 3.63642 87.7199 3.74219 87.8262C3.84796 87.9326 3.90738 88.0768 3.90738 88.2272V94.0733C3.90738 94.2237 3.84796 94.3679 3.74219 94.4742C3.63642 94.5806 3.49297 94.6403 3.34338 94.6403Z" fill="#474747"/>
</g>
<g style="mix-blend-mode:multiply">
<path d="M23.3659 94.6403H14.9732C14.8236 94.6403 14.6801 94.5806 14.5744 94.4742C14.4686 94.3679 14.4092 94.2237 14.4092 94.0733V88.2272C14.4092 88.0768 14.4686 87.9326 14.5744 87.8262C14.6801 87.7199 14.8236 87.6602 14.9732 87.6602H19.0047C19.1542 87.6602 19.2977 87.7199 19.4035 87.8262C19.5092 87.9326 19.5687 88.0768 19.5687 88.2272C19.5687 88.3775 19.5092 88.5218 19.4035 88.6281C19.2977 88.7344 19.1542 88.7942 19.0047 88.7942H15.5372V93.5063H23.3659C23.5155 93.5063 23.6589 93.566 23.7647 93.6724C23.8705 93.7787 23.9299 93.9229 23.9299 94.0733C23.9299 94.2237 23.8705 94.3679 23.7647 94.4742C23.6589 94.5806 23.5155 94.6403 23.3659 94.6403Z" fill="#474747"/>
</g>
</g>
<path d="M156.519 121.768H102.949C102.699 121.768 102.46 121.668 102.284 121.491C102.108 121.314 102.009 121.074 102.009 120.823C102.009 120.572 102.108 120.332 102.284 120.155C102.46 119.977 102.699 119.878 102.949 119.878H156.519C156.768 119.878 157.007 119.977 157.184 120.155C157.36 120.332 157.459 120.572 157.459 120.823C157.459 121.074 157.36 121.314 157.184 121.491C157.007 121.668 156.768 121.768 156.519 121.768Z" fill="#3B6B7D"/>
<path d="M89.7888 121.768H14.6514C14.4021 121.768 14.163 121.668 13.9867 121.491C13.8105 121.314 13.7114 121.074 13.7114 120.823C13.7114 120.572 13.8105 120.332 13.9867 120.155C14.163 119.977 14.4021 119.878 14.6514 119.878H89.7888C90.0381 119.878 90.2772 119.977 90.4535 120.155C90.6298 120.332 90.7288 120.572 90.7288 120.823C90.7288 121.074 90.6298 121.314 90.4535 121.491C90.2772 121.668 90.0381 121.768 89.7888 121.768Z" fill="#3B6B7D"/>
<path d="M10.3588 121.768H9.13678C8.88747 121.768 8.64838 121.668 8.4721 121.491C8.29581 121.314 8.19678 121.074 8.19678 120.823C8.19678 120.572 8.29581 120.332 8.4721 120.155C8.64838 119.977 8.88747 119.878 9.13678 119.878H10.3588C10.6081 119.878 10.8472 119.977 11.0235 120.155C11.1997 120.332 11.2988 120.572 11.2988 120.823C11.2988 121.074 11.1997 121.314 11.0235 121.491C10.8472 121.668 10.6081 121.768 10.3588 121.768Z" fill="#3B6B7D"/>
<path d="M5.56465 121.768H1.01129C0.761986 121.768 0.522894 121.668 0.346609 121.491C0.170325 121.314 0.0712891 121.074 0.0712891 120.823C0.0712891 120.572 0.170325 120.332 0.346609 120.155C0.522894 119.977 0.761986 119.878 1.01129 119.878H5.56465C5.81395 119.878 6.05305 119.977 6.22933 120.155C6.40561 120.332 6.50465 120.572 6.50465 120.823C6.50465 121.074 6.40561 121.314 6.22933 121.491C6.05305 121.668 5.81395 121.768 5.56465 121.768Z" fill="#3B6B7D"/>
<path d="M76.1037 89.5398C75.1856 89.5398 74.2866 89.8034 73.5125 90.2996C72.7384 90.7958 72.1214 91.504 71.7341 92.3408L70.6989 92.1104C71.5068 90.6815 71.7278 88.992 71.3148 87.4018C70.9018 85.8115 69.8875 84.4462 68.488 83.5967C67.0885 82.7472 65.4143 82.4807 63.8222 82.8538C62.23 83.2269 60.8457 84.2103 59.9641 85.5944C59.4971 84.8609 58.8839 84.2326 58.1633 83.7493C57.4427 83.2659 56.6303 82.9379 55.7772 82.7859C54.9242 82.634 54.0491 82.6614 53.2072 82.8665C52.3652 83.0715 51.5747 83.4498 50.8854 83.9773C50.4601 82.425 49.5514 81.0504 48.2923 80.0551C47.0333 79.0599 45.4902 78.4963 43.8894 78.4469C42.2885 78.3976 40.714 78.8651 39.3966 79.7809C38.0793 80.6968 37.0885 82.0128 36.5694 83.536C35.6127 82.9715 34.5247 82.6709 33.4154 82.6649C32.306 82.6588 31.2148 82.9474 30.2521 83.5015C29.2893 84.0556 28.4893 84.8555 27.9328 85.8202C27.3763 86.785 27.0832 87.8804 27.0831 88.9957C27.0831 89.0019 27.0831 89.0081 27.0831 89.0146C26.9408 89.0032 26.7973 88.9957 26.652 88.9957C25.948 88.9957 25.2509 89.1351 24.6004 89.4059C23.95 89.6768 23.359 90.0738 22.8612 90.5743C22.3633 91.0748 21.9684 91.6689 21.699 92.3228C21.4296 92.9768 21.291 93.6776 21.291 94.3854V103.857H80.9235V94.3854C80.9235 93.1003 80.4157 91.8678 79.5118 90.9591C78.608 90.0504 77.382 89.5399 76.1037 89.5398Z" fill="#F2CFB1"/>
<g style="mix-blend-mode:multiply" opacity="0.58">
<g style="mix-blend-mode:multiply">
<path d="M76.1035 89.54C75.1855 89.54 74.2865 89.8036 73.5123 90.2998C72.7382 90.796 72.1212 91.5042 71.7339 92.341L71.5006 92.289C71.4341 93.2237 71.1601 94.1315 70.6987 94.9456L71.7339 95.176C72.1969 94.1759 72.9855 93.3645 73.9694 92.876C74.9534 92.3875 76.0736 92.2512 77.145 92.4896C78.2165 92.728 79.1749 93.3268 79.8619 94.187C80.5489 95.0473 80.9233 96.1174 80.9233 97.2206V94.3856C80.9233 93.1005 80.4155 91.8681 79.5116 90.9593C78.6078 90.0506 77.3818 89.5401 76.1035 89.54Z" fill="#F2CFB1"/>
</g>
<g style="mix-blend-mode:multiply">
<path d="M26.6524 91.8304C26.7977 91.8304 26.9412 91.838 27.0835 91.8494C27.0835 91.8429 27.0835 91.8367 27.0835 91.8304C27.0836 90.7152 27.3767 89.6198 27.9332 88.655C28.4896 87.6902 29.2897 86.8904 30.2525 86.3363C31.2152 85.7822 32.3064 85.4936 33.4157 85.4996C34.525 85.5057 35.6131 85.8062 36.5698 86.3708C37.0889 84.8476 38.0797 83.5316 39.397 82.6157C40.7143 81.6999 42.2888 81.2323 43.8897 81.2817C45.4906 81.331 47.0337 81.8947 48.2927 82.8899C49.5517 83.8852 50.4605 85.2598 50.8858 86.8121C51.575 86.2846 52.3655 85.9063 53.2074 85.7013C54.0492 85.4962 54.9243 85.4687 55.7772 85.6206C56.6302 85.7724 57.4426 86.1003 58.1632 86.5836C58.8838 87.0669 59.497 87.695 59.9641 88.4284C60.6297 87.3834 61.5872 86.5591 62.7167 86.0587C63.8462 85.5583 65.0975 85.4041 66.3138 85.6155C67.5301 85.8268 68.6573 86.3943 69.5542 87.2468C70.4512 88.0992 71.0779 89.1989 71.356 90.4078C71.6877 88.9604 71.5004 87.4416 70.8271 86.1194C70.1537 84.7972 69.0375 83.7565 67.6755 83.1809C66.3134 82.6053 64.7928 82.5316 63.382 82.973C61.9712 83.4144 60.7607 84.3424 59.9641 85.5934C59.4971 84.8599 58.8839 84.2317 58.1633 83.7483C57.4427 83.2649 56.6302 82.9369 55.7772 82.785C54.9242 82.633 54.0491 82.6604 53.2072 82.8655C52.3652 83.0706 51.5747 83.4488 50.8854 83.9764C50.4601 82.424 49.5514 81.0494 48.2923 80.0542C47.0333 79.0589 45.4902 78.4953 43.8894 78.4459C42.2885 78.3966 40.714 78.8641 39.3966 79.7799C38.0793 80.6958 37.0885 82.0118 36.5694 83.535C35.6127 82.9704 34.5245 82.6699 33.4152 82.6639C32.3058 82.6579 31.2145 82.9465 30.2517 83.5007C29.289 84.0549 28.4889 84.8549 27.9325 85.8198C27.3761 86.7846 27.0831 87.8801 27.0831 88.9954C27.0831 89.0017 27.0831 89.0079 27.0831 89.0144C26.9408 89.003 26.7973 88.9954 26.652 88.9954C25.948 88.9954 25.2509 89.1349 24.6004 89.4057C23.95 89.6766 23.359 90.0736 22.8612 90.5741C22.3633 91.0746 21.9684 91.6687 21.699 92.3226C21.4296 92.9765 21.291 93.6774 21.291 94.3852V97.2202C21.291 96.5124 21.4297 95.8115 21.6991 95.1575C21.9685 94.5036 22.3634 93.9094 22.8613 93.4089C23.3591 92.9084 23.9502 92.5115 24.6007 92.2406C25.2512 91.9698 25.9483 91.8304 26.6524 91.8304Z" fill="#F2CFB1"/>
</g>
</g>
<path d="M80.924 104.802H21.2916C21.0423 104.802 20.8032 104.702 20.6269 104.525C20.4506 104.348 20.3516 104.107 20.3516 103.857V94.3847C20.3535 92.7836 20.9577 91.2425 22.0428 90.0706C23.1279 88.8987 24.6137 88.1827 26.2021 88.0662C26.3432 86.9633 26.7339 85.9076 27.3441 84.9801C27.9543 84.0527 28.7678 83.2782 29.7222 82.7161C30.6766 82.1539 31.7464 81.8192 32.8495 81.7376C33.9526 81.6559 35.0597 81.8295 36.0857 82.245C36.7925 80.795 37.8965 79.5781 39.2678 78.7373C40.6391 77.8965 42.2207 77.4668 43.8266 77.4987C45.4326 77.5306 46.996 78.0229 48.3332 78.9175C49.6703 79.8121 50.7256 81.072 51.3749 82.5489C52.7743 81.8241 54.3709 81.579 55.9216 81.8511C57.4723 82.1231 58.8921 82.8974 59.9645 84.0558C61.007 82.9285 62.3794 82.1639 63.8829 81.8729C65.3864 81.5819 66.9431 81.7794 68.3275 82.437C69.7119 83.0946 70.8522 84.178 71.5833 85.5305C72.3144 86.883 72.5984 88.4343 72.3941 89.9598C73.2325 89.2477 74.256 88.7914 75.3439 88.6447C76.4318 88.4981 77.5387 88.6673 78.5341 89.1323C79.5295 89.5974 80.3718 90.3388 80.9618 91.2693C81.5518 92.1998 81.8649 93.2805 81.864 94.3839V103.856C81.8641 103.98 81.8399 104.103 81.7927 104.218C81.7455 104.333 81.6763 104.437 81.589 104.525C81.5017 104.613 81.398 104.682 81.2839 104.73C81.1698 104.777 81.0475 104.802 80.924 104.802ZM22.2316 102.912H79.984V94.3847C79.9839 93.4966 79.6823 92.6352 79.1292 91.9428C78.576 91.2505 77.8044 90.7686 76.9419 90.5769C76.0793 90.3852 75.1776 90.4951 74.3856 90.8885C73.5937 91.2819 72.959 91.9352 72.5864 92.7404C72.496 92.9353 72.3422 93.0934 72.1504 93.1885C71.9586 93.2837 71.7402 93.3102 71.5314 93.2637L70.4961 93.0333C70.3523 93.0014 70.2181 92.9359 70.1041 92.8422C69.9901 92.7486 69.8996 92.6293 69.8399 92.494C69.7802 92.3588 69.7529 92.2113 69.7603 92.0635C69.7676 91.9157 69.8094 91.7717 69.8822 91.643C70.568 90.4283 70.7551 88.9923 70.4036 87.641C70.052 86.2896 69.1897 85.1296 68.0002 84.4079C66.8106 83.6861 65.3878 83.4596 64.0347 83.7767C62.6815 84.0937 61.5049 84.9293 60.7554 86.1054C60.6703 86.2386 60.5533 86.3482 60.4151 86.4241C60.2769 86.5 60.1219 86.5398 59.9644 86.5398C59.8069 86.5398 59.6519 86.5 59.5137 86.4241C59.3755 86.3482 59.2585 86.2386 59.1734 86.1054C58.7765 85.4816 58.2553 84.9474 57.6428 84.5363C57.0302 84.1252 56.3396 83.8462 55.6144 83.7169C54.8892 83.5876 54.1452 83.6108 53.4294 83.785C52.7136 83.9593 52.0414 84.2808 51.4554 84.7292C51.3331 84.8229 51.1897 84.885 51.038 84.91C50.8862 84.9351 50.7307 84.9223 50.585 84.8728C50.4393 84.8233 50.3079 84.7387 50.2023 84.6263C50.0967 84.5138 50.0202 84.3771 49.9794 84.228C49.6075 82.8703 48.8127 81.668 47.7115 80.7975C46.6103 79.927 45.2607 79.434 43.8605 79.3909C42.4603 79.3478 41.0832 79.7568 39.9311 80.5579C38.779 81.359 37.9125 82.5101 37.4586 83.8424C37.4134 83.975 37.3395 84.0959 37.2421 84.1962C37.1447 84.2965 37.0264 84.3737 36.8957 84.4224C36.7649 84.471 36.6251 84.4898 36.4862 84.4774C36.3473 84.465 36.213 84.4217 36.0928 84.3507C35.2792 83.8706 34.3539 83.6151 33.4105 83.6098C32.4672 83.6046 31.5391 83.8499 30.7203 84.3208C29.9014 84.7918 29.2208 85.4717 28.7471 86.2919C28.2735 87.1121 28.0237 88.0435 28.0229 88.992V89.0148C28.0229 89.1453 27.9961 89.2744 27.944 89.3939C27.892 89.5135 27.8159 89.6209 27.7205 89.7094C27.6251 89.7979 27.5126 89.8656 27.3899 89.9082C27.2672 89.9508 27.1371 89.9674 27.0077 89.957C26.8738 89.946 26.7573 89.9409 26.6516 89.9409C25.4795 89.9422 24.3557 90.4109 23.5269 91.2441C22.698 92.0773 22.2318 93.2071 22.2304 94.3854L22.2316 102.912Z" fill="#3B6B7D"/>
<path d="M83.5844 91.7168H13.6484V96.2528C14.147 96.2528 14.6252 96.4519 14.9778 96.8064C15.3304 97.1608 15.5284 97.6415 15.5284 98.1428V107.593C15.5215 108.88 15.7675 110.156 16.2525 111.348C16.7374 112.539 17.4517 113.623 18.3543 114.536C19.2569 115.449 20.33 116.174 21.5121 116.669C22.6942 117.164 23.9619 117.42 25.2424 117.421H71.8664C77.2432 117.421 81.7044 112.998 81.7044 107.593V98.1428C81.7044 97.6415 81.9025 97.1608 82.2551 96.8064C82.6076 96.4519 83.0858 96.2528 83.5844 96.2528V91.7168Z" fill="#EAEAEA"/>
<path d="M15.5284 98.1428V98.8043H81.7044V98.1428C81.7044 97.6415 81.9025 97.1608 82.2551 96.8064C82.6076 96.4519 83.0858 96.2528 83.5844 96.2528V91.7168H13.6484V96.2528C14.147 96.2528 14.6252 96.4519 14.9778 96.8064C15.3304 97.1608 15.5284 97.6415 15.5284 98.1428Z" fill="#C6C6C6"/>
<path d="M71.8665 118.366H25.2425C22.4096 118.355 19.697 117.214 17.6997 115.195C15.7024 113.175 14.5835 110.441 14.5885 107.593V98.1435C14.5882 97.8929 14.4891 97.6527 14.3128 97.4756C14.1366 97.2984 13.8977 97.1988 13.6485 97.1985C13.3992 97.1985 13.1601 97.0989 12.9838 96.9217C12.8075 96.7445 12.7085 96.5041 12.7085 96.2535V91.7175C12.7085 91.4668 12.8075 91.2265 12.9838 91.0492C13.1601 90.872 13.3992 90.7725 13.6485 90.7725H83.5845C83.8338 90.7725 84.0729 90.872 84.2492 91.0492C84.4255 91.2265 84.5245 91.4668 84.5245 91.7175V96.2535C84.5245 96.5041 84.4255 96.7445 84.2492 96.9217C84.0729 97.0989 83.8338 97.1985 83.5845 97.1985C83.3353 97.1988 83.0964 97.2984 82.9202 97.4756C82.7439 97.6527 82.6448 97.8929 82.6445 98.1435V107.593C82.633 110.458 81.4919 113.201 79.4713 115.22C77.4507 117.24 74.7158 118.371 71.8665 118.366ZM14.5885 95.4702C15.1379 95.6664 15.6136 96.0286 15.9502 96.5072C16.2867 96.9858 16.4678 97.5573 16.4685 98.1435V107.593C16.4629 109.94 17.3836 112.194 19.0284 113.859C20.6733 115.524 22.9081 116.466 25.2425 116.476H71.8665C74.2173 116.482 76.4744 115.55 78.1425 113.885C79.8107 112.219 80.7536 109.957 80.7645 107.593V98.1435C80.7652 97.5573 80.9463 96.9858 81.2828 96.5072C81.6194 96.0286 82.0951 95.6664 82.6445 95.4702V92.6625H14.5885V95.4702Z" fill="#3B6B7D"/>
<path d="M83.5844 91.7168H13.6484V96.2528H83.5844V91.7168Z" fill="#D8D8D8"/>
<path d="M71.1768 97.1976H67.6988C67.4495 97.1976 67.2104 97.0981 67.0341 96.9208C66.8578 96.7436 66.7588 96.5032 66.7588 96.2526C66.7588 96.002 66.8578 95.7616 67.0341 95.5844C67.2104 95.4072 67.4495 95.3076 67.6988 95.3076H71.1768C71.4261 95.3076 71.6652 95.4072 71.8415 95.5844C72.0178 95.7616 72.1168 96.002 72.1168 96.2526C72.1168 96.5032 72.0178 96.7436 71.8415 96.9208C71.6652 97.0981 71.4261 97.1976 71.1768 97.1976Z" fill="#3B6B7D"/>
<path d="M83.5845 97.1985H73.8085C73.5592 97.1985 73.3201 97.0989 73.1438 96.9217C72.9675 96.7445 72.8685 96.5041 72.8685 96.2535C72.8685 96.0028 72.9675 95.7625 73.1438 95.5852C73.3201 95.408 73.5592 95.3085 73.8085 95.3085H82.6445V92.6625H14.5885V95.3085H64.4217C64.671 95.3085 64.9101 95.408 65.0863 95.5852C65.2626 95.7625 65.3617 96.0028 65.3617 96.2535C65.3617 96.5041 65.2626 96.7445 65.0863 96.9217C64.9101 97.0989 64.671 97.1985 64.4217 97.1985H13.6485C13.3992 97.1985 13.1601 97.0989 12.9838 96.9217C12.8075 96.7445 12.7085 96.5041 12.7085 96.2535V91.7175C12.7085 91.4668 12.8075 91.2265 12.9838 91.0492C13.1601 90.872 13.3992 90.7725 13.6485 90.7725H83.5845C83.8338 90.7725 84.0729 90.872 84.2492 91.0492C84.4255 91.2265 84.5245 91.4668 84.5245 91.7175V96.2535C84.5245 96.5041 84.4255 96.7445 84.2492 96.9217C84.0729 97.0989 83.8338 97.1985 83.5845 97.1985Z" fill="#3B6B7D"/>
<path d="M72.6804 117.421H24.3644C23.4299 117.421 22.6724 118.182 22.6724 119.122C22.6724 120.061 23.4299 120.823 24.3644 120.823H72.6804C73.6148 120.823 74.3724 120.061 74.3724 119.122C74.3724 118.182 73.6148 117.421 72.6804 117.421Z" fill="#C6C6C6"/>
<path d="M72.6804 121.768H24.3644C23.6664 121.768 22.9969 121.489 22.5033 120.993C22.0097 120.496 21.7324 119.823 21.7324 119.122C21.7324 118.42 22.0097 117.747 22.5033 117.251C22.9969 116.754 23.6664 116.476 24.3644 116.476H72.6804C73.3785 116.476 74.0479 116.754 74.5415 117.251C75.0351 117.747 75.3124 118.42 75.3124 119.122C75.3124 119.823 75.0351 120.496 74.5415 120.993C74.0479 121.489 73.3785 121.768 72.6804 121.768ZM24.3644 118.366C24.165 118.366 23.9737 118.445 23.8327 118.587C23.6916 118.729 23.6124 118.921 23.6124 119.122C23.6124 119.322 23.6916 119.514 23.8327 119.656C23.9737 119.798 24.165 119.878 24.3644 119.878H72.6804C72.8799 119.878 73.0711 119.798 73.2122 119.656C73.3532 119.514 73.4324 119.322 73.4324 119.122C73.4324 118.921 73.3532 118.729 73.2122 118.587C73.0711 118.445 72.8799 118.366 72.6804 118.366H24.3644Z" fill="#3B6B7D"/>
<path d="M19.2886 92.2844C18.9895 92.2844 18.7026 92.1649 18.491 91.9523C18.2795 91.7396 18.1606 91.4512 18.1606 91.1504V40.8764C18.161 38.4726 18.9504 36.1362 20.4064 34.2295C21.8625 32.3227 23.9037 30.9524 26.2135 30.331C28.5233 29.7097 30.9725 29.872 33.1812 30.7929C35.3899 31.7137 37.2345 33.3416 38.4289 35.424C38.5761 35.6843 38.615 35.9926 38.5369 36.2816C38.4589 36.5706 38.2703 36.8168 38.0124 36.9665C37.7544 37.1162 37.448 37.1573 37.16 37.0808C36.872 37.0042 36.6259 36.8163 36.4752 36.558C35.5292 34.9078 34.0679 33.6176 32.318 32.8877C30.5681 32.1578 28.6275 32.029 26.7973 32.5211C24.9671 33.0133 23.3497 34.099 22.196 35.6097C21.0423 37.1205 20.4168 38.9718 20.4166 40.8764V91.1504C20.4166 91.4512 20.2978 91.7396 20.0863 91.9523C19.8747 92.1649 19.5878 92.2844 19.2886 92.2844Z" fill="#3B6B7D"/>
<path d="M46.5434 41.1437C46.3845 39.1766 45.3089 37.2021 43.0541 35.8466C42.5412 35.5393 41.9655 35.3531 41.3705 35.3023C35.5715 34.8041 32.5311 40.2637 34.6332 44.49C34.9929 45.2144 35.4879 45.8625 36.0911 46.3989L46.5434 41.1437Z" fill="#87D1E8"/>
<path d="M36.0914 47.3432C35.8619 47.3433 35.6403 47.2589 35.4684 47.106C34.1505 45.9331 33.3029 44.3177 33.084 42.5619C32.8652 40.8062 33.2901 39.0304 34.2793 37.5668C35.8289 35.2709 38.4423 34.1017 41.4505 34.3606C42.1879 34.4243 42.9013 34.655 43.5373 35.0356C45.8802 36.4438 47.281 38.5859 47.481 41.0673C47.4962 41.2552 47.4551 41.4434 47.3631 41.6076C47.2711 41.7719 47.1323 41.9047 46.9646 41.9891L36.5118 47.2433C36.3813 47.309 36.2373 47.3432 36.0914 47.3432ZM40.6487 36.2159C38.614 36.2159 36.8831 37.0752 35.835 38.6281C35.1629 39.6229 34.841 40.8151 34.9204 42.015C34.9998 43.2149 35.476 44.3537 36.2732 45.2502L45.5205 40.6008C45.2041 39.0047 44.175 37.6207 42.5717 36.6572C42.1812 36.4237 41.7432 36.2822 41.2905 36.2433C41.0734 36.225 40.8595 36.2159 40.6487 36.2159Z" fill="#3B6B7D"/>
<path d="M48.3995 71.1808C49.5675 71.1808 50.5143 70.229 50.5143 69.0548C50.5143 67.8806 49.5675 66.9287 48.3995 66.9287C47.2315 66.9287 46.2847 67.8806 46.2847 69.0548C46.2847 70.229 47.2315 71.1808 48.3995 71.1808Z" fill="#F2CFB1"/>
<path d="M48.3994 72.1259C47.7952 72.1259 47.2045 71.9458 46.7021 71.6084C46.1997 71.2709 45.8081 70.7913 45.5768 70.2301C45.3456 69.6688 45.2851 69.0513 45.4029 68.4555C45.5208 67.8597 45.8118 67.3125 46.239 66.8829C46.6663 66.4534 47.2107 66.1609 47.8033 66.0424C48.3959 65.9239 49.0102 65.9847 49.5684 66.2172C50.1267 66.4497 50.6038 66.8434 50.9395 67.3485C51.2751 67.8536 51.4543 68.4474 51.4542 69.0548C51.4533 69.8691 51.1312 70.6497 50.5585 71.2254C49.9858 71.8011 49.2093 72.125 48.3994 72.1259ZM48.3994 67.8734C48.167 67.8734 47.9398 67.9426 47.7466 68.0724C47.5533 68.2022 47.4027 68.3866 47.3137 68.6025C47.2248 68.8183 47.2015 69.0558 47.2468 69.285C47.2921 69.5141 47.404 69.7246 47.5683 69.8899C47.7326 70.0551 47.942 70.1676 48.1699 70.2132C48.3979 70.2588 48.6341 70.2354 48.8488 70.146C49.0636 70.0566 49.2471 69.9052 49.3762 69.7109C49.5053 69.5167 49.5742 69.2883 49.5742 69.0546C49.5738 68.7415 49.4499 68.4414 49.2297 68.22C49.0095 67.9985 48.7109 67.874 48.3994 67.8736V67.8734Z" fill="#3B6B7D"/>
<path d="M60.6174 75.1267C62.7185 75.1267 64.4217 73.4144 64.4217 71.3021C64.4217 69.1899 62.7185 67.4775 60.6174 67.4775C58.5163 67.4775 56.813 69.1899 56.813 71.3021C56.813 73.4144 58.5163 75.1267 60.6174 75.1267Z" fill="#F2CFB1"/>
<path d="M60.6171 76.0718C59.6787 76.0718 58.7614 75.7921 57.9812 75.268C57.2009 74.7438 56.5928 73.9989 56.2337 73.1273C55.8746 72.2558 55.7807 71.2967 55.9637 70.3715C56.1468 69.4462 56.5987 68.5963 57.2622 67.9293C57.9257 67.2622 58.7711 66.8079 59.6915 66.6239C60.6119 66.4398 61.5658 66.5343 62.4328 66.8953C63.2997 67.2563 64.0407 67.8677 64.5621 68.6521C65.0834 69.4365 65.3617 70.3586 65.3617 71.302C65.3603 72.5666 64.86 73.779 63.9705 74.6732C63.081 75.5674 61.875 76.0704 60.6171 76.0718ZM60.6171 68.4224C60.0506 68.4224 59.4967 68.5913 59.0256 68.9078C58.5546 69.2242 58.1874 69.674 57.9706 70.2002C57.7538 70.7264 57.6971 71.3055 57.8076 71.8641C57.9182 72.4227 58.191 72.9359 58.5916 73.3386C58.9923 73.7413 59.5027 74.0156 60.0584 74.1267C60.6141 74.2378 61.19 74.1807 61.7135 73.9627C62.2369 73.7447 62.6843 73.3756 62.999 72.902C63.3137 72.4284 63.4817 71.8716 63.4817 71.302C63.4808 70.5385 63.1787 69.8066 62.6417 69.2667C62.1047 68.7269 61.3766 68.4232 60.6171 68.4224Z" fill="#3B6B7D"/>
<path d="M23.4248 79.3379H19.6883C19.3642 79.3379 19.0534 79.2084 18.8242 78.978C18.5951 78.7477 18.4663 78.4352 18.4663 78.1094C18.4663 77.7835 18.5951 77.4711 18.8242 77.2407C19.0534 77.0103 19.3642 76.8809 19.6883 76.8809H23.4248C23.7489 76.8809 24.0597 77.0103 24.2889 77.2407C24.5181 77.4711 24.6468 77.7835 24.6468 78.1094C24.6468 78.4352 24.5181 78.7477 24.2889 78.978C24.0597 79.2084 23.7489 79.3379 23.4248 79.3379Z" fill="#3B6B7D"/>
<path d="M25.6182 80.5663H22.7198C22.4705 80.5663 22.2314 80.4668 22.0551 80.2896C21.8788 80.1123 21.7798 79.872 21.7798 79.6213V76.5973C21.7798 76.3467 21.8788 76.1064 22.0551 75.9291C22.2314 75.7519 22.4705 75.6523 22.7198 75.6523H25.6182C26.2664 75.6523 26.888 75.9112 27.3464 76.372C27.8047 76.8328 28.0622 77.4577 28.0622 78.1093C28.0622 78.761 27.8047 79.3859 27.3464 79.8467C26.888 80.3075 26.2664 80.5663 25.6182 80.5663ZM23.6598 78.6763H25.6182C25.7678 78.6763 25.9112 78.6166 26.017 78.5103C26.1228 78.4039 26.1822 78.2597 26.1822 78.1093C26.1822 77.959 26.1228 77.8147 26.017 77.7084C25.9112 77.6021 25.7678 77.5423 25.6182 77.5423H23.6598V78.6763Z" fill="#3B6B7D"/>
<path d="M22.7197 76.5967H25.6181C26.017 76.5967 26.3996 76.756 26.6816 77.0395C26.9637 77.3231 27.1221 77.7077 27.1221 78.1087C27.1221 78.5097 26.9637 78.8943 26.6816 79.1778C26.3996 79.4614 26.017 79.6207 25.6181 79.6207H22.7197V76.5967Z" fill="#3B6B7D"/>
<path d="M42.952 56.0352C42.8701 56.0352 42.7903 56.0082 42.725 55.9585C42.6597 55.9087 42.6123 55.8388 42.5901 55.7594L40.1418 47.0201C40.1277 46.9721 40.1233 46.9218 40.1287 46.872C40.1341 46.8223 40.1493 46.7741 40.1734 46.7304C40.1974 46.6866 40.2299 46.648 40.2689 46.6169C40.3079 46.5858 40.3527 46.5629 40.4006 46.5493C40.4485 46.5357 40.4986 46.5319 40.548 46.5379C40.5974 46.544 40.6451 46.5598 40.6884 46.5846C40.7316 46.6093 40.7696 46.6424 40.8 46.682C40.8304 46.7216 40.8527 46.7669 40.8656 46.8152L43.3141 55.5546C43.3299 55.6108 43.3325 55.6699 43.3217 55.7273C43.3109 55.7847 43.2871 55.8388 43.252 55.8854C43.2169 55.932 43.1716 55.9698 43.1195 55.9957C43.0675 56.0217 43.0102 56.0352 42.952 56.0352Z" fill="#3B6B7D"/>
<path d="M51.1078 51.035C51.0529 51.035 50.9986 51.0229 50.9488 50.9996C50.899 50.9763 50.8549 50.9423 50.8196 50.9L45.403 44.415C45.3712 44.377 45.3472 44.3331 45.3324 44.2857C45.3175 44.2384 45.3121 44.1886 45.3164 44.1391C45.3207 44.0896 45.3346 44.0415 45.3574 43.9975C45.3802 43.9534 45.4114 43.9144 45.4492 43.8824C45.487 43.8505 45.5307 43.8264 45.5778 43.8115C45.6249 43.7965 45.6745 43.7911 45.7237 43.7954C45.7729 43.7997 45.8207 43.8137 45.8646 43.8366C45.9084 43.8595 45.9472 43.8909 45.979 43.9289L51.3957 50.4139C51.4417 50.469 51.4711 50.5362 51.4805 50.6075C51.4898 50.6788 51.4787 50.7514 51.4485 50.8166C51.4183 50.8818 51.3702 50.937 51.3098 50.9757C51.2495 51.0144 51.1794 51.0349 51.1078 51.035Z" fill="#3B6B7D"/>
<path d="M49.355 56.7384C49.2881 56.7385 49.2225 56.7206 49.1648 56.6867C49.1071 56.6527 49.0594 56.6039 49.0267 56.5453L46.8943 52.7231C46.8455 52.6357 46.8332 52.5323 46.8602 52.4358C46.8872 52.3393 46.9513 52.2575 47.0383 52.2085C47.1253 52.1594 47.2281 52.1471 47.3241 52.1743C47.4201 52.2014 47.5014 52.2658 47.5502 52.3533L49.6825 56.1754C49.7146 56.2329 49.7312 56.2978 49.7306 56.3638C49.73 56.4297 49.7123 56.4943 49.6792 56.5512C49.6461 56.6082 49.5987 56.6554 49.5419 56.6882C49.485 56.7211 49.4206 56.7384 49.355 56.7384Z" fill="#3B6B7D"/>
<path d="M45.8735 50.4975C45.8066 50.4975 45.741 50.4796 45.6833 50.4457C45.6256 50.4117 45.5779 50.3629 45.5452 50.3043L43.0247 45.7872C42.9778 45.6999 42.9669 45.5976 42.9943 45.5023C43.0218 45.407 43.0854 45.3264 43.1715 45.2778C43.2576 45.2293 43.3592 45.2167 43.4544 45.2428C43.5496 45.2689 43.6308 45.3316 43.6805 45.4173L46.201 49.9344C46.2331 49.9919 46.2497 50.0569 46.2491 50.1228C46.2485 50.1887 46.2308 50.2534 46.1977 50.3103C46.1646 50.3672 46.1172 50.4144 46.0604 50.4473C46.0035 50.4801 45.9391 50.4974 45.8735 50.4975Z" fill="#3B6B7D"/>
<path d="M143.306 82.4561H116.986V92.8511H143.306V82.4561Z" fill="#EF9E9D"/>
<g style="mix-blend-mode:color-burn" opacity="0.39">
<path d="M143.306 82.4561H116.986V84.8186H143.306V82.4561Z" fill="#EF9E9D"/>
</g>
<path d="M143.306 92.8506H116.986V103.246H143.306V92.8506Z" fill="#EF9E9D"/>
<g style="mix-blend-mode:color-burn" opacity="0.39">
<path d="M143.306 92.8037H116.986V95.1662H143.306V92.8037Z" fill="#EF9E9D"/>
</g>
<path d="M143.306 103.246H116.986V113.641H143.306V103.246Z" fill="#EF9E9D"/>
<g style="mix-blend-mode:color-burn" opacity="0.39">
<path d="M143.306 103.388H116.986V105.75H143.306V103.388Z" fill="#EF9E9D"/>
</g>
<path d="M143.306 114.586H116.986C116.737 114.586 116.498 114.486 116.321 114.309C116.145 114.132 116.046 113.891 116.046 113.641V82.4557C116.046 82.2051 116.145 81.9648 116.321 81.7875C116.498 81.6103 116.737 81.5107 116.986 81.5107H143.306C143.555 81.5107 143.794 81.6103 143.971 81.7875C144.147 81.9648 144.246 82.2051 144.246 82.4557V113.641C144.246 113.891 144.147 114.132 143.971 114.309C143.794 114.486 143.555 114.586 143.306 114.586ZM117.926 112.696H142.366V83.4007H117.926V112.696Z" fill="#3B6B7D"/>
<path d="M143.306 93.7957H116.986C116.737 93.7957 116.498 93.6962 116.321 93.519C116.145 93.3417 116.046 93.1014 116.046 92.8507V82.4557C116.046 82.2051 116.145 81.9648 116.321 81.7875C116.498 81.6103 116.737 81.5107 116.986 81.5107H143.306C143.555 81.5107 143.794 81.6103 143.971 81.7875C144.147 81.9648 144.246 82.2051 144.246 82.4557V92.8507C144.246 93.1014 144.147 93.3417 143.971 93.519C143.794 93.6962 143.555 93.7957 143.306 93.7957ZM117.926 91.9057H142.366V83.4007H117.926V91.9057Z" fill="#3B6B7D"/>
<path d="M143.306 104.191H116.986C116.737 104.191 116.498 104.092 116.321 103.914C116.145 103.737 116.046 103.497 116.046 103.246V92.8512C116.046 92.6006 116.145 92.3603 116.321 92.183C116.498 92.0058 116.737 91.9062 116.986 91.9062H143.306C143.555 91.9062 143.794 92.0058 143.971 92.183C144.147 92.3603 144.246 92.6006 144.246 92.8512V103.246C144.246 103.497 144.147 103.737 143.971 103.914C143.794 104.092 143.555 104.191 143.306 104.191ZM117.926 102.301H142.366V93.7962H117.926V102.301Z" fill="#3B6B7D"/>
<path d="M143.306 114.586H116.986C116.737 114.586 116.498 114.486 116.321 114.309C116.145 114.132 116.046 113.891 116.046 113.641V103.246C116.046 102.995 116.145 102.755 116.321 102.578C116.498 102.4 116.737 102.301 116.986 102.301H143.306C143.555 102.301 143.794 102.4 143.971 102.578C144.147 102.755 144.246 102.995 144.246 103.246V113.641C144.246 113.891 144.147 114.132 143.971 114.309C143.794 114.486 143.555 114.586 143.306 114.586ZM117.926 112.696H142.366V104.191H117.926V112.696Z" fill="#3B6B7D"/>
<path d="M133.53 86.8031H126.762C126.512 86.8031 126.273 86.7035 126.097 86.5263C125.921 86.3491 125.822 86.1087 125.822 85.8581C125.822 85.6075 125.921 85.3671 126.097 85.1899C126.273 85.0127 126.512 84.9131 126.762 84.9131H133.53C133.779 84.9131 134.018 85.0127 134.194 85.1899C134.371 85.3671 134.47 85.6075 134.47 85.8581C134.47 86.1087 134.371 86.3491 134.194 86.5263C134.018 86.7035 133.779 86.8031 133.53 86.8031Z" fill="#3B6B7D"/>
<path d="M133.53 97.1976H126.762C126.512 97.1976 126.273 97.0981 126.097 96.9208C125.921 96.7436 125.822 96.5032 125.822 96.2526C125.822 96.002 125.921 95.7616 126.097 95.5844C126.273 95.4072 126.512 95.3076 126.762 95.3076H133.53C133.779 95.3076 134.018 95.4072 134.194 95.5844C134.371 95.7616 134.47 96.002 134.47 96.2526C134.47 96.5032 134.371 96.7436 134.194 96.9208C134.018 97.0981 133.779 97.1976 133.53 97.1976Z" fill="#3B6B7D"/>
<path d="M133.53 107.593H126.762C126.512 107.593 126.273 107.494 126.097 107.316C125.921 107.139 125.822 106.899 125.822 106.648C125.822 106.397 125.921 106.157 126.097 105.98C126.273 105.803 126.512 105.703 126.762 105.703H133.53C133.779 105.703 134.018 105.803 134.194 105.98C134.371 106.157 134.47 106.397 134.47 106.648C134.47 106.899 134.371 107.139 134.194 107.316C134.018 107.494 133.779 107.593 133.53 107.593Z" fill="#3B6B7D"/>
<path d="M121.157 120.823H118.681L121.533 113.641H126.421L121.157 120.823Z" fill="#3B6B7D"/>
<path d="M121.156 121.768H118.681C118.528 121.768 118.376 121.73 118.241 121.658C118.105 121.586 117.989 121.481 117.903 121.353C117.817 121.226 117.763 121.078 117.747 120.925C117.73 120.771 117.751 120.616 117.808 120.473L120.659 113.291C120.729 113.115 120.85 112.965 121.005 112.859C121.161 112.753 121.345 112.696 121.532 112.696H126.42C126.594 112.696 126.765 112.745 126.913 112.836C127.061 112.928 127.181 113.059 127.259 113.215C127.338 113.371 127.372 113.546 127.357 113.72C127.343 113.894 127.28 114.061 127.177 114.202L121.913 121.384C121.826 121.503 121.712 121.6 121.58 121.667C121.449 121.733 121.304 121.768 121.156 121.768ZM120.068 119.878H120.681L124.56 114.586H122.169L120.068 119.878Z" fill="#3B6B7D"/>
<path d="M142.253 121.768H139.778C139.63 121.768 139.485 121.733 139.354 121.667C139.222 121.6 139.108 121.503 139.021 121.384L133.757 114.202C133.654 114.061 133.592 113.894 133.577 113.72C133.562 113.546 133.596 113.371 133.675 113.215C133.753 113.059 133.873 112.928 134.021 112.836C134.169 112.745 134.34 112.696 134.514 112.696H139.402C139.59 112.696 139.773 112.753 139.929 112.859C140.085 112.965 140.205 113.115 140.275 113.291L143.126 120.473C143.183 120.616 143.204 120.771 143.188 120.925C143.171 121.078 143.117 121.226 143.031 121.353C142.945 121.481 142.829 121.586 142.693 121.658C142.558 121.73 142.406 121.768 142.253 121.768ZM140.253 119.878H140.866L138.765 114.586H136.375L140.253 119.878Z" fill="#3B6B7D"/>
<path d="M139.778 120.823H142.253L139.402 113.641H134.514L139.778 120.823Z" fill="#3B6B7D"/>
<path d="M131.462 68.2812H128.83V76.3453H131.462V68.2812Z" fill="#87D1E8"/>
<path d="M131.462 77.29H128.83C128.581 77.29 128.342 77.1904 128.165 77.0132C127.989 76.836 127.89 76.5956 127.89 76.345V68.2809C127.89 68.0303 127.989 67.7899 128.165 67.6127C128.342 67.4355 128.581 67.3359 128.83 67.3359H131.462C131.711 67.3359 131.951 67.4355 132.127 67.6127C132.303 67.7899 132.402 68.0303 132.402 68.2809V76.345C132.402 76.5956 132.303 76.836 132.127 77.0132C131.951 77.1904 131.711 77.29 131.462 77.29ZM129.77 75.4H130.522V69.2259H129.77V75.4Z" fill="#3B6B7D"/>
<path d="M130.146 82.0784C132.015 82.0784 133.53 80.5553 133.53 78.6764C133.53 76.7975 132.015 75.2744 130.146 75.2744C128.277 75.2744 126.762 76.7975 126.762 78.6764C126.762 80.5553 128.277 82.0784 130.146 82.0784Z" fill="#87D1E8"/>
<path d="M130.146 83.0231C129.291 83.0231 128.455 82.7682 127.743 82.2905C127.032 81.8128 126.478 81.1339 126.151 80.3396C125.824 79.5453 125.738 78.6713 125.905 77.828C126.072 76.9848 126.484 76.2103 127.088 75.6023C127.693 74.9944 128.463 74.5804 129.302 74.4126C130.141 74.2449 131.01 74.331 131.8 74.66C132.591 74.989 133.266 75.5462 133.741 76.261C134.216 76.9759 134.47 77.8164 134.47 78.6761C134.469 79.8286 134.013 80.9336 133.202 81.7485C132.391 82.5635 131.292 83.0219 130.146 83.0231ZM130.146 76.2191C129.662 76.2191 129.19 76.3632 128.788 76.6332C128.386 76.9032 128.073 77.2869 127.888 77.7359C127.703 78.1848 127.654 78.6788 127.749 79.1554C127.843 79.6321 128.076 80.0698 128.418 80.4135C128.759 80.7571 129.195 80.9911 129.669 81.0859C130.143 81.1807 130.634 81.132 131.081 80.9461C131.528 80.7601 131.909 80.4452 132.178 80.0411C132.446 79.6371 132.59 79.1621 132.59 78.6761C132.589 78.0247 132.331 77.4002 131.873 76.9396C131.415 76.479 130.794 76.2199 130.146 76.2191Z" fill="#3B6B7D"/>
<path d="M132.871 77.6054C132.686 77.6054 132.504 77.5499 132.349 77.4461C132.195 77.3422 132.074 77.1947 132.003 77.022C131.932 76.8494 131.913 76.6594 131.95 76.4761C131.986 76.2928 132.075 76.1244 132.207 75.9923L134.541 73.6453C134.718 73.4718 134.956 73.3754 135.204 73.377C135.451 73.3786 135.688 73.478 135.862 73.6538C136.037 73.8296 136.136 74.0675 136.138 74.316C136.139 74.5646 136.043 74.8037 135.871 74.9817L133.536 77.3287C133.449 77.4166 133.345 77.4863 133.231 77.5338C133.117 77.5813 132.995 77.6056 132.871 77.6054Z" fill="#3B6B7D"/>
<path d="M136.59 75.9359C136.467 75.936 136.345 75.9117 136.231 75.8642C136.117 75.8167 136.013 75.747 135.926 75.6592L133.858 73.5802C133.682 73.4029 133.583 73.1626 133.583 72.9119C133.583 72.6613 133.682 72.4209 133.858 72.2436C134.034 72.0664 134.273 71.9668 134.523 71.9668C134.772 71.9668 135.011 72.0663 135.187 72.2435L137.255 74.3225C137.387 74.4547 137.476 74.6231 137.512 74.8064C137.549 74.9896 137.53 75.1796 137.459 75.3523C137.388 75.5249 137.267 75.6725 137.113 75.7763C136.958 75.8802 136.777 75.9356 136.591 75.9357L136.59 75.9359Z" fill="#3B6B7D"/>
<path d="M133.092 70.2659H127.201C127.041 70.2659 126.883 70.2269 126.741 70.1523C126.6 70.0776 126.478 69.9695 126.387 69.8373C126.296 69.705 126.238 69.5525 126.218 69.3929C126.199 69.2332 126.218 69.0712 126.274 68.9206L127.129 66.6352C127.563 65.4735 128.779 64.6904 130.147 64.6904C131.515 64.6904 132.73 65.4735 133.165 66.6352L134.019 68.9206C134.076 69.0713 134.095 69.2334 134.075 69.3931C134.056 69.5528 133.998 69.7054 133.907 69.8377C133.815 69.9699 133.694 70.078 133.552 70.1526C133.41 70.2272 133.252 70.2661 133.092 70.2659Z" fill="#87D1E8"/>
<path d="M133.092 71.2106H127.201C126.889 71.2106 126.582 71.1345 126.305 70.989C126.029 70.8434 125.792 70.6327 125.614 70.3749C125.437 70.1171 125.324 69.8198 125.286 69.5086C125.247 69.1974 125.285 68.8814 125.394 68.5879L126.249 66.3023C126.821 64.7729 128.387 63.7451 130.147 63.7451C131.906 63.7451 133.473 64.7729 134.045 66.3023L134.899 68.5879C135.009 68.8814 135.047 69.1973 135.008 69.5086C134.97 69.8198 134.857 70.1171 134.68 70.3749C134.502 70.6327 134.265 70.8435 133.989 70.989C133.712 71.1346 133.405 71.2106 133.093 71.2106H133.092ZM130.146 65.6351C129.165 65.6351 128.306 66.1706 128.008 66.9674L127.153 69.253C127.15 69.2605 127.15 69.2687 127.151 69.2767C127.152 69.2847 127.155 69.2924 127.159 69.2991C127.164 69.3057 127.17 69.3111 127.177 69.3149C127.184 69.3186 127.192 69.3206 127.2 69.3206H133.092C133.1 69.3206 133.108 69.3187 133.115 69.3149C133.123 69.3111 133.129 69.3057 133.133 69.2991C133.138 69.2924 133.141 69.2847 133.142 69.2767C133.143 69.2687 133.142 69.2605 133.139 69.253L132.284 66.9674C131.986 66.1706 131.127 65.6351 130.146 65.6351Z" fill="#3B6B7D"/>
<path d="M145.75 78.6758H114.542V82.4558H145.75V78.6758Z" fill="#DD8A8A"/>
<path d="M145.75 83.4014H114.542C114.293 83.4014 114.054 83.3019 113.877 83.1247C113.701 82.9474 113.602 82.7071 113.602 82.4564V78.6764C113.602 78.4258 113.701 78.1855 113.877 78.0082C114.054 77.831 114.293 77.7314 114.542 77.7314H145.75C145.999 77.7314 146.238 77.831 146.415 78.0082C146.591 78.1855 146.69 78.4258 146.69 78.6764V82.4564C146.69 82.7071 146.591 82.9474 146.415 83.1247C146.238 83.3019 145.999 83.4014 145.75 83.4014ZM115.482 81.5114H144.81V79.6214H115.482V81.5114Z" fill="#3B6B7D"/>
<path d="M145.186 25.9453H115.106V62.2333H145.186V25.9453Z" fill="#BBEAF2"/>
<g style="mix-blend-mode:multiply" opacity="0.52">
<path d="M145.186 59.585H115.106V62.2334H145.186V59.585Z" fill="#92D7E7"/>
</g>
<g style="mix-blend-mode:screen" opacity="0.48">
<path d="M145.186 25.9453H115.106V28.6115H145.186V25.9453Z" fill="#92D7E7"/>
</g>
<path d="M145.186 63.178H115.106C114.857 63.178 114.618 63.0784 114.441 62.9012C114.265 62.724 114.166 62.4836 114.166 62.233V25.945C114.166 25.6944 114.265 25.454 114.441 25.2768C114.618 25.0996 114.857 25 115.106 25H145.186C145.435 25 145.674 25.0996 145.851 25.2768C146.027 25.454 146.126 25.6944 146.126 25.945V62.233C146.126 62.4836 146.027 62.724 145.851 62.9012C145.674 63.0784 145.435 63.178 145.186 63.178ZM116.046 61.288H144.246V26.89H116.046V61.288Z" fill="#3B6B7D"/>
<path d="M149.635 63.1781H110.657C110.407 63.1781 110.168 63.0785 109.992 62.9013C109.816 62.7241 109.717 62.4837 109.717 62.2331C109.717 61.9825 109.816 61.7421 109.992 61.5649C110.168 61.3877 110.407 61.2881 110.657 61.2881H149.635C149.885 61.2881 150.124 61.3877 150.3 61.5649C150.476 61.7421 150.575 61.9825 150.575 62.2331C150.575 62.4837 150.476 62.7241 150.3 62.9013C150.124 63.0785 149.885 63.1781 149.635 63.1781Z" fill="#3B6B7D"/>
<path d="M141.849 51.208H137.18V62.2329H141.849V51.208Z" fill="#D3B379"/>
<path d="M141.849 63.1776H137.18C136.931 63.1776 136.692 63.0781 136.516 62.9008C136.339 62.7236 136.24 62.4833 136.24 62.2326V51.2077C136.24 50.9571 136.339 50.7167 136.516 50.5395C136.692 50.3623 136.931 50.2627 137.18 50.2627H141.849C142.098 50.2627 142.337 50.3623 142.514 50.5395C142.69 50.7167 142.789 50.9571 142.789 51.2077V62.2326C142.789 62.4833 142.69 62.7236 142.514 62.9008C142.337 63.0781 142.098 63.1776 141.849 63.1776ZM138.12 61.2876H140.909V52.1527H138.12V61.2876Z" fill="#3B6B7D"/>
<path d="M139.327 46.5459H139.703C139.861 46.5459 140.018 46.5773 140.164 46.6382C140.311 46.6992 140.444 46.7885 140.556 46.9011C140.668 47.0137 140.756 47.1474 140.817 47.2946C140.878 47.4417 140.909 47.5994 140.909 47.7587V51.208H138.12V47.7587C138.12 47.4371 138.247 47.1286 138.473 46.9011C138.7 46.6737 139.007 46.5459 139.327 46.5459Z" fill="#D0EDF5"/>
<path d="M140.909 52.1526H138.12C137.871 52.1526 137.632 52.0531 137.455 51.8759C137.279 51.6986 137.18 51.4583 137.18 51.2076V47.7584C137.181 47.1863 137.407 46.6378 137.81 46.2333C138.212 45.8288 138.758 45.6012 139.327 45.6006H139.703C140.272 45.6012 140.817 45.8288 141.22 46.2333C141.622 46.6378 141.848 47.1863 141.849 47.7584V51.2076C141.849 51.4583 141.75 51.6986 141.574 51.8759C141.397 52.0531 141.158 52.1526 140.909 52.1526ZM139.06 50.2626H139.969V47.7584C139.969 47.6874 139.941 47.6193 139.891 47.5691C139.841 47.5189 139.773 47.4906 139.703 47.4906H139.327C139.256 47.4906 139.188 47.5189 139.138 47.5691C139.088 47.6193 139.06 47.6874 139.06 47.7584V50.2626Z" fill="#3B6B7D"/>
<path d="M120.385 42.8195C120.273 42.8194 120.164 42.7862 120.071 42.7239C119.979 42.6616 119.906 42.573 119.864 42.4694C119.821 42.3658 119.81 42.2519 119.832 42.1419C119.853 42.0319 119.907 41.9309 119.986 41.8516L128.07 33.7246C128.176 33.6213 128.319 33.5642 128.467 33.5655C128.615 33.5667 128.756 33.6264 128.861 33.7315C128.965 33.8366 129.024 33.9788 129.026 34.1275C129.027 34.2762 128.97 34.4194 128.867 34.5263L120.783 42.6533C120.731 42.7061 120.669 42.7479 120.601 42.7764C120.532 42.8049 120.459 42.8196 120.385 42.8195Z" fill="#3B6B7D"/>
<path d="M130.456 40.4657C130.344 40.4657 130.235 40.4325 130.142 40.3702C130.049 40.3078 129.977 40.2193 129.935 40.1156C129.892 40.012 129.881 39.898 129.902 39.788C129.924 39.678 129.978 39.5769 130.057 39.4976L137.342 32.1739C137.448 32.0676 137.591 32.0078 137.741 32.0078C137.89 32.0078 138.034 32.0676 138.14 32.1739C138.245 32.2802 138.305 32.4245 138.305 32.5749C138.305 32.7252 138.245 32.8695 138.14 32.9758L130.855 40.2996C130.802 40.3523 130.74 40.3941 130.672 40.4227C130.603 40.4512 130.53 40.4658 130.456 40.4657Z" fill="#3B6B7D"/>
<path d="M122.685 48.2777C122.573 48.2777 122.464 48.2444 122.372 48.1821C122.279 48.1198 122.207 48.0312 122.164 47.9276C122.121 47.8241 122.11 47.7101 122.132 47.6001C122.154 47.4901 122.207 47.3891 122.286 47.3098L127.362 42.2068C127.468 42.1019 127.611 42.0434 127.76 42.0439C127.909 42.0445 128.051 42.1042 128.157 42.21C128.262 42.3157 128.321 42.459 128.322 42.6086C128.322 42.7581 128.264 42.9019 128.16 43.0085L123.084 48.1115C123.032 48.1643 122.969 48.2061 122.901 48.2346C122.832 48.2631 122.759 48.2778 122.685 48.2777Z" fill="#3B6B7D"/>
<path d="M97.6349 29.7455H69.502C69.2029 29.7455 68.916 29.6261 68.7044 29.4134C68.4929 29.2007 68.374 28.9123 68.374 28.6115C68.374 28.3108 68.4929 28.0223 68.7044 27.8097C68.916 27.597 69.2029 27.4775 69.502 27.4775H97.6349C97.9341 27.4775 98.221 27.597 98.4325 27.8097C98.6441 28.0223 98.7629 28.3108 98.7629 28.6115C98.7629 28.9123 98.6441 29.2007 98.4325 29.4134C98.221 29.6261 97.9341 29.7455 97.6349 29.7455Z" fill="#3B6B7D"/>
<path d="M69.5024 25.9453H64.4219V31.2776H69.5024V25.9453Z" fill="#87D1E8"/>
<path d="M69.5023 32.2223H64.4219C64.1726 32.2223 63.9335 32.1227 63.7572 31.9455C63.581 31.7683 63.4819 31.5279 63.4819 31.2773V25.945C63.4819 25.6944 63.581 25.454 63.7572 25.2768C63.9335 25.0996 64.1726 25 64.4219 25H69.5023C69.7516 25 69.9907 25.0996 70.1669 25.2768C70.3432 25.454 70.4423 25.6944 70.4423 25.945V31.2773C70.4423 31.5279 70.3432 31.7683 70.1669 31.9455C69.9907 32.1227 69.7516 32.2223 69.5023 32.2223ZM65.3619 30.3323H68.5623V26.89H65.3619V30.3323Z" fill="#3B6B7D"/>
<path d="M102.715 25.9453H97.6348V31.2776H102.715V25.9453Z" fill="#87D1E8"/>
<path d="M102.715 32.2223H97.6348C97.3855 32.2223 97.1464 32.1227 96.9701 31.9455C96.7939 31.7683 96.6948 31.5279 96.6948 31.2773V25.945C96.6948 25.6944 96.7939 25.454 96.9701 25.2768C97.1464 25.0996 97.3855 25 97.6348 25H102.715C102.965 25 103.204 25.0996 103.38 25.2768C103.556 25.454 103.655 25.6944 103.655 25.945V31.2773C103.655 31.5279 103.556 31.7683 103.38 31.9455C103.204 32.1227 102.965 32.2223 102.715 32.2223ZM98.5748 30.3323H101.775V26.89H98.5748V30.3323Z" fill="#3B6B7D"/>
<path d="M94.8647 25.9453H72.6807V58.2619H94.8647V25.9453Z" fill="white"/>
<path opacity="0.84" d="M94.8647 25.9453H72.6807V29.4439H94.8647V25.9453Z" fill="#D8D8D8"/>
<path d="M94.8647 59.2065H72.6807C72.4314 59.2065 72.1923 59.107 72.016 58.9298C71.8398 58.7525 71.7407 58.5122 71.7407 58.2615V25.945C71.7407 25.6944 71.8398 25.454 72.016 25.2768C72.1923 25.0996 72.4314 25 72.6807 25H94.8647C95.114 25 95.3531 25.0996 95.5294 25.2768C95.7057 25.454 95.8047 25.6944 95.8047 25.945V58.2615C95.8047 58.5122 95.7057 58.7525 95.5294 58.9298C95.3531 59.107 95.114 59.2065 94.8647 59.2065ZM73.6207 57.3165H93.9247V26.89H73.6207V57.3165Z" fill="#3B6B7D"/>
<path d="M93.2666 61.6639C93.0672 61.6639 92.8759 61.5842 92.7349 61.4424C92.5939 61.3007 92.5146 61.1084 92.5146 60.9079V58.2619C92.5146 58.0614 92.5939 57.8691 92.7349 57.7273C92.8759 57.5855 93.0672 57.5059 93.2666 57.5059C93.4661 57.5059 93.6574 57.5855 93.7984 57.7273C93.9394 57.8691 94.0186 58.0614 94.0186 58.2619V60.9079C94.0186 61.1084 93.9394 61.3007 93.7984 61.4424C93.6574 61.5842 93.4661 61.6639 93.2666 61.6639Z" fill="#3B6B7D"/>
<path d="M90.6348 61.6639C90.4354 61.6639 90.2441 61.5842 90.1031 61.4424C89.962 61.3007 89.8828 61.1084 89.8828 60.9079V58.2619C89.8828 58.0614 89.962 57.8691 90.1031 57.7273C90.2441 57.5855 90.4354 57.5059 90.6348 57.5059C90.8343 57.5059 91.0255 57.5855 91.1666 57.7273C91.3076 57.8691 91.3868 58.0614 91.3868 58.2619V60.9079C91.3868 61.1084 91.3076 61.3007 91.1666 61.4424C91.0255 61.5842 90.8343 61.6639 90.6348 61.6639Z" fill="#3B6B7D"/>
<path d="M88.0025 61.6639C87.803 61.6639 87.6118 61.5842 87.4707 61.4424C87.3297 61.3007 87.2505 61.1084 87.2505 60.9079V58.2619C87.2505 58.0614 87.3297 57.8691 87.4707 57.7273C87.6118 57.5855 87.803 57.5059 88.0025 57.5059C88.2019 57.5059 88.3932 57.5855 88.5342 57.7273C88.6753 57.8691 88.7545 58.0614 88.7545 58.2619V60.9079C88.7545 61.1084 88.6753 61.3007 88.5342 61.4424C88.3932 61.5842 88.2019 61.6639 88.0025 61.6639Z" fill="#3B6B7D"/>
<path d="M85.3707 61.6639C85.1712 61.6639 84.9799 61.5842 84.8389 61.4424C84.6979 61.3007 84.6187 61.1084 84.6187 60.9079V58.2619C84.6187 58.0614 84.6979 57.8691 84.8389 57.7273C84.9799 57.5855 85.1712 57.5059 85.3707 57.5059C85.5701 57.5059 85.7614 57.5855 85.9024 57.7273C86.0434 57.8691 86.1227 58.0614 86.1227 58.2619V60.9079C86.1227 61.1084 86.0434 61.3007 85.9024 61.4424C85.7614 61.5842 85.5701 61.6639 85.3707 61.6639Z" fill="#3B6B7D"/>
<path d="M82.7388 61.6639C82.5394 61.6639 82.3481 61.5842 82.2071 61.4424C82.066 61.3007 81.9868 61.1084 81.9868 60.9079V58.2619C81.9868 58.0614 82.066 57.8691 82.2071 57.7273C82.3481 57.5855 82.5394 57.5059 82.7388 57.5059C82.9383 57.5059 83.1295 57.5855 83.2706 57.7273C83.4116 57.8691 83.4908 58.0614 83.4908 58.2619V60.9079C83.4908 61.1084 83.4116 61.3007 83.2706 61.4424C83.1295 61.5842 82.9383 61.6639 82.7388 61.6639Z" fill="#3B6B7D"/>
<path d="M80.1065 61.6639C79.907 61.6639 79.7158 61.5842 79.5747 61.4424C79.4337 61.3007 79.3545 61.1084 79.3545 60.9079V58.2619C79.3545 58.0614 79.4337 57.8691 79.5747 57.7273C79.7158 57.5855 79.907 57.5059 80.1065 57.5059C80.3059 57.5059 80.4972 57.5855 80.6382 57.7273C80.7793 57.8691 80.8585 58.0614 80.8585 58.2619V60.9079C80.8585 61.1084 80.7793 61.3007 80.6382 61.4424C80.4972 61.5842 80.3059 61.6639 80.1065 61.6639Z" fill="#3B6B7D"/>
<path d="M77.4747 61.6639C77.2752 61.6639 77.0839 61.5842 76.9429 61.4424C76.8019 61.3007 76.7227 61.1084 76.7227 60.9079V58.2619C76.7227 58.0614 76.8019 57.8691 76.9429 57.7273C77.0839 57.5855 77.2752 57.5059 77.4747 57.5059C77.6741 57.5059 77.8654 57.5855 78.0064 57.7273C78.1474 57.8691 78.2267 58.0614 78.2267 58.2619V60.9079C78.2267 61.1084 78.1474 61.3007 78.0064 61.4424C77.8654 61.5842 77.6741 61.6639 77.4747 61.6639Z" fill="#3B6B7D"/>
<path d="M74.8428 61.6639C74.6434 61.6639 74.4521 61.5842 74.3111 61.4424C74.17 61.3007 74.0908 61.1084 74.0908 60.9079V58.2619C74.0908 58.0614 74.17 57.8691 74.3111 57.7273C74.4521 57.5855 74.6434 57.5059 74.8428 57.5059C75.0423 57.5059 75.2335 57.5855 75.3746 57.7273C75.5156 57.8691 75.5948 58.0614 75.5948 58.2619V60.9079C75.5948 61.1084 75.5156 61.3007 75.3746 61.4424C75.2335 61.5842 75.0423 61.6639 74.8428 61.6639Z" fill="#3B6B7D"/>
<path d="M94.8647 53.2875H72.6807C72.4314 53.2875 72.1923 53.1879 72.016 53.0107C71.8398 52.8335 71.7407 52.5931 71.7407 52.3425C71.7407 52.0918 71.8398 51.8515 72.016 51.6742C72.1923 51.497 72.4314 51.3975 72.6807 51.3975H94.8647C95.114 51.3975 95.3531 51.497 95.5294 51.6742C95.7057 51.8515 95.8047 52.0918 95.8047 52.3425C95.8047 52.5931 95.7057 52.8335 95.5294 53.0107C95.3531 53.1879 95.114 53.2875 94.8647 53.2875Z" fill="#3B6B7D"/>
<path d="M80.7647 46.1688C80.6151 46.1688 80.4716 46.1091 80.3659 46.0027C80.2601 45.8964 80.2007 45.7522 80.2007 45.6018V26.5572C80.2007 26.4069 80.2601 26.2626 80.3659 26.1563C80.4716 26.05 80.6151 25.9902 80.7647 25.9902C80.9143 25.9902 81.0577 26.05 81.1635 26.1563C81.2693 26.2626 81.3287 26.4069 81.3287 26.5572V45.6018C81.3287 45.7522 81.2693 45.8964 81.1635 46.0027C81.0577 46.1091 80.9143 46.1688 80.7647 46.1688Z" fill="#3B6B7D"/>
<path d="M88.2222 39.3639C88.0726 39.3639 87.9292 39.3041 87.8234 39.1978C87.7176 39.0915 87.6582 38.9473 87.6582 38.7969V26.5572C87.6582 26.4069 87.7176 26.2626 87.8234 26.1563C87.9292 26.05 88.0726 25.9902 88.2222 25.9902C88.3718 25.9902 88.5152 26.05 88.621 26.1563C88.7268 26.2626 88.7862 26.4069 88.7862 26.5572V38.7969C88.7862 38.9473 88.7268 39.0915 88.621 39.1978C88.5152 39.3041 88.3718 39.3639 88.2222 39.3639Z" fill="#3B6B7D"/>
</g>
<defs>
<clipPath id="clip0_226_9903">
<rect width="156" height="156" fill="white"/>
</clipPath>
</defs>
</svg>
