<svg width="156" height="156" viewBox="0 0 156 156" fill="none" xmlns="http://www.w3.org/2000/svg">
<g style="mix-blend-mode:multiply" opacity="0.23">
<g style="mix-blend-mode:multiply">
<path d="M93.9062 41.5618C93.7558 41.5618 93.6116 41.502 93.5053 41.3957C93.3989 41.2894 93.3392 41.1451 93.3392 40.9948V35.7151H82.2145C82.0641 35.7151 81.9199 35.6553 81.8135 35.549C81.7072 35.4427 81.6475 35.2984 81.6475 35.1481C81.6475 34.9977 81.7072 34.8535 81.8135 34.7471C81.9199 34.6408 82.0641 34.5811 82.2145 34.5811H93.9062C94.0566 34.5811 94.2008 34.6408 94.3071 34.7471C94.4135 34.8535 94.4732 34.9977 94.4732 35.1481V40.9948C94.4732 41.1451 94.4135 41.2894 94.3071 41.3957C94.2008 41.502 94.0566 41.5618 93.9062 41.5618Z" fill="#474747"/>
</g>
<g style="mix-blend-mode:multiply">
<path d="M93.9059 41.5618C93.7555 41.5618 93.6113 41.502 93.5049 41.3957C93.3986 41.2894 93.3389 41.1451 93.3389 40.9948V35.1481C93.3389 34.9977 93.3986 34.8535 93.5049 34.7471C93.6113 34.6408 93.7555 34.5811 93.9059 34.5811H105.597C105.747 34.5811 105.892 34.6408 105.998 34.7471C106.104 34.8535 106.164 34.9977 106.164 35.1481C106.164 35.2984 106.104 35.4427 105.998 35.549C105.892 35.6553 105.747 35.7151 105.597 35.7151H94.4729V40.9948C94.4729 41.1451 94.4131 41.2894 94.3068 41.3957C94.2005 41.502 94.0562 41.5618 93.9059 41.5618Z" fill="#474747"/>
</g>
<g style="mix-blend-mode:multiply">
<path d="M99.7521 35.7151H88.0602C87.9098 35.7151 87.7656 35.6554 87.6592 35.549C87.5529 35.4427 87.4932 35.2985 87.4932 35.1481V29.3024C87.4932 29.152 87.5529 29.0078 87.6592 28.9014C87.7656 28.7951 87.9098 28.7354 88.0602 28.7354H99.7521C99.9025 28.7354 100.047 28.7951 100.153 28.9014C100.259 29.0078 100.319 29.152 100.319 29.3024V35.1481C100.319 35.2985 100.259 35.4427 100.153 35.549C100.047 35.6554 99.9025 35.7151 99.7521 35.7151ZM88.6272 34.5811H99.1851V29.8694H88.6272V34.5811Z" fill="#474747"/>
</g>
<g style="mix-blend-mode:multiply">
<path d="M105.597 29.8694H93.9059C93.7555 29.8694 93.6113 29.8096 93.5049 29.7033C93.3986 29.597 93.3389 29.4528 93.3389 29.3024V23.4557C93.3389 23.3053 93.3986 23.1611 93.5049 23.0547C93.6113 22.9484 93.7555 22.8887 93.9059 22.8887H97.2279C97.3783 22.8887 97.5225 22.9484 97.6288 23.0547C97.7352 23.1611 97.7949 23.3053 97.7949 23.4557C97.7949 23.606 97.7352 23.7503 97.6288 23.8566C97.5225 23.9629 97.3783 24.0227 97.2279 24.0227H94.4729V28.7346H105.597C105.747 28.7346 105.892 28.7944 105.998 28.9007C106.104 29.007 106.164 29.1513 106.164 29.3016C106.164 29.452 106.104 29.5962 105.998 29.7026C105.892 29.8089 105.747 29.8686 105.597 29.8686V29.8694Z" fill="#474747"/>
</g>
<g style="mix-blend-mode:multiply">
<path d="M93.9062 29.8694H82.2145C82.0641 29.8694 81.9199 29.8096 81.8135 29.7033C81.7072 29.597 81.6475 29.4528 81.6475 29.3024C81.6475 29.152 81.7072 29.0078 81.8135 28.9015C81.9199 28.7951 82.0641 28.7354 82.2145 28.7354H93.3392V24.0227H84.4256C84.2752 24.0227 84.131 23.9629 84.0246 23.8566C83.9183 23.7503 83.8586 23.606 83.8586 23.4557C83.8586 23.3053 83.9183 23.1611 84.0246 23.0547C84.131 22.9484 84.2752 22.8887 84.4256 22.8887H93.9062C94.0566 22.8887 94.2008 22.9484 94.3071 23.0547C94.4135 23.1611 94.4732 23.3053 94.4732 23.4557V29.3016C94.4733 29.3762 94.4587 29.45 94.4302 29.5188C94.4018 29.5877 94.3601 29.6503 94.3074 29.703C94.2547 29.7558 94.1922 29.7976 94.1234 29.8262C94.0545 29.8547 93.9807 29.8694 93.9062 29.8694Z" fill="#474747"/>
</g>
<g style="mix-blend-mode:multiply">
<path d="M88.0602 35.7151H78.2286C78.0782 35.7151 77.934 35.6554 77.8277 35.549C77.7214 35.4427 77.6616 35.2985 77.6616 35.1481C77.6616 34.9977 77.7214 34.8535 77.8277 34.7472C77.934 34.6409 78.0782 34.5811 78.2286 34.5811H87.4932V29.8694H82.2142C82.0639 29.8694 81.9197 29.8096 81.8133 29.7033C81.707 29.5969 81.6472 29.4527 81.6472 29.3024C81.6472 29.152 81.707 29.0078 81.8133 28.9014C81.9197 28.7951 82.0639 28.7354 82.2142 28.7354H88.0602C88.2106 28.7354 88.3548 28.7951 88.4611 28.9014C88.5675 29.0078 88.6272 29.152 88.6272 29.3024V35.1481C88.6272 35.2985 88.5675 35.4427 88.4611 35.549C88.3548 35.6554 88.2106 35.7151 88.0602 35.7151Z" fill="#474747"/>
</g>
<g style="mix-blend-mode:multiply">
<path d="M103.805 35.7151H99.7521C99.6017 35.7151 99.4575 35.6554 99.3511 35.549C99.2448 35.4427 99.1851 35.2985 99.1851 35.1481V29.3024C99.1851 29.152 99.2448 29.0078 99.3511 28.9014C99.4575 28.7951 99.6017 28.7354 99.7521 28.7354H108.189C108.34 28.7354 108.484 28.7951 108.59 28.9014C108.696 29.0078 108.756 29.152 108.756 29.3024C108.756 29.4527 108.696 29.5969 108.59 29.7033C108.484 29.8096 108.34 29.8694 108.189 29.8694H100.319V34.5811H103.805C103.955 34.5811 104.099 34.6409 104.206 34.7472C104.312 34.8535 104.372 34.9977 104.372 35.1481C104.372 35.2985 104.312 35.4427 104.206 35.549C104.099 35.6554 103.955 35.7151 103.805 35.7151Z" fill="#474747"/>
</g>
</g>
<g style="mix-blend-mode:multiply" opacity="0.23">
<g style="mix-blend-mode:multiply">
<path d="M19.2443 75.5317H7.55235C7.40197 75.5317 7.25775 75.472 7.15142 75.3656C7.04509 75.2593 6.98535 75.1151 6.98535 74.9647C6.98535 74.8143 7.04509 74.6701 7.15142 74.5638C7.25775 74.4575 7.40197 74.3977 7.55235 74.3977H18.6773V69.1188C18.6773 68.9684 18.737 68.8242 18.8433 68.7178C18.9497 68.6115 19.0939 68.5518 19.2443 68.5518C19.3946 68.5518 19.5389 68.6115 19.6452 68.7178C19.7515 68.8242 19.8113 68.9684 19.8113 69.1188V74.9647C19.8113 75.1151 19.7515 75.2593 19.6452 75.3656C19.5389 75.472 19.3946 75.5317 19.2443 75.5317Z" fill="#474747"/>
</g>
<g style="mix-blend-mode:multiply">
<path d="M30.9362 75.5317H19.2442C19.0939 75.5317 18.9496 75.472 18.8433 75.3656C18.737 75.2593 18.6772 75.1151 18.6772 74.9647V69.1188C18.6772 68.9684 18.737 68.8242 18.8433 68.7178C18.9496 68.6115 19.0939 68.5518 19.2442 68.5518C19.3946 68.5518 19.5388 68.6115 19.6452 68.7178C19.7515 68.8242 19.8112 68.9684 19.8112 69.1188V74.3977H30.9362C31.0865 74.3977 31.2308 74.4575 31.3371 74.5638C31.4434 74.6701 31.5032 74.8143 31.5032 74.9647C31.5032 75.1151 31.4434 75.2593 31.3371 75.3656C31.2308 75.472 31.0865 75.5317 30.9362 75.5317Z" fill="#474747"/>
</g>
<g style="mix-blend-mode:multiply">
<path d="M25.0905 81.3774H13.3985C13.2482 81.3774 13.1039 81.3177 12.9976 81.2113C12.8913 81.105 12.8315 80.9608 12.8315 80.8104V74.9645C12.8315 74.8141 12.8913 74.6699 12.9976 74.5635C13.1039 74.4572 13.2482 74.3975 13.3985 74.3975H25.0905C25.2408 74.3975 25.3851 74.4572 25.4914 74.5635C25.5977 74.6699 25.6575 74.8141 25.6575 74.9645V80.8104C25.6575 80.9608 25.5977 81.105 25.4914 81.2113C25.3851 81.3177 25.2408 81.3774 25.0905 81.3774ZM13.9655 80.2434H24.5235V75.5315H13.9655V80.2434Z" fill="#474747"/>
</g>
<g style="mix-blend-mode:multiply">
<path d="M22.5663 87.2241H19.2442C19.0939 87.2241 18.9496 87.1644 18.8433 87.058C18.737 86.9517 18.6772 86.8075 18.6772 86.6571V80.8111C18.6772 80.6608 18.737 80.5165 18.8433 80.4102C18.9496 80.3039 19.0939 80.2441 19.2442 80.2441H30.9362C31.0865 80.2441 31.2308 80.3039 31.3371 80.4102C31.4434 80.5165 31.5032 80.6608 31.5032 80.8111C31.5032 80.9615 31.4434 81.1057 31.3371 81.2121C31.2308 81.3184 31.0865 81.3781 30.9362 81.3781H19.8112V86.0901H22.5663C22.7167 86.0901 22.8609 86.1498 22.9672 86.2562C23.0736 86.3625 23.1333 86.5067 23.1333 86.6571C23.1333 86.8075 23.0736 86.9517 22.9672 87.058C22.8609 87.1644 22.7167 87.2241 22.5663 87.2241Z" fill="#474747"/>
</g>
<g style="mix-blend-mode:multiply">
<path d="M19.2443 87.2241H9.76346C9.61309 87.2241 9.46887 87.1644 9.36253 87.058C9.2562 86.9517 9.19646 86.8075 9.19646 86.6571C9.19646 86.5067 9.2562 86.3625 9.36253 86.2562C9.46887 86.1498 9.61309 86.0901 9.76346 86.0901H18.6773V81.3781H7.55235C7.40197 81.3781 7.25775 81.3184 7.15142 81.2121C7.04509 81.1057 6.98535 80.9615 6.98535 80.8111C6.98535 80.6608 7.04509 80.5165 7.15142 80.4102C7.25775 80.3039 7.40197 80.2441 7.55235 80.2441H19.2443C19.3946 80.2441 19.5389 80.3039 19.6452 80.4102C19.7515 80.5165 19.8113 80.6608 19.8113 80.8111V86.6571C19.8113 86.8075 19.7515 86.9517 19.6452 87.058C19.5389 87.1644 19.3946 87.2241 19.2443 87.2241Z" fill="#474747"/>
</g>
<g style="mix-blend-mode:multiply">
<path d="M13.3984 81.3774H7.55244C7.40207 81.3774 7.25785 81.3177 7.15151 81.2113C7.04518 81.105 6.98544 80.9608 6.98544 80.8104C6.98544 80.66 7.04518 80.5158 7.15151 80.4095C7.25785 80.3032 7.40207 80.2434 7.55244 80.2434H12.8314V75.5315H3.567C3.41662 75.5315 3.2724 75.4717 3.16607 75.3654C3.05974 75.2591 3 75.1148 3 74.9645C3 74.8141 3.05974 74.6699 3.16607 74.5635C3.2724 74.4572 3.41662 74.3975 3.567 74.3975H13.3984C13.5488 74.3975 13.693 74.4572 13.7993 74.5635C13.9057 74.6699 13.9654 74.8141 13.9654 74.9645V80.8104C13.9654 80.9608 13.9057 81.105 13.7993 81.2113C13.693 81.3177 13.5488 81.3774 13.3984 81.3774Z" fill="#474747"/>
</g>
<g style="mix-blend-mode:multiply">
<path d="M33.5276 81.3774H25.0904C24.9401 81.3774 24.7958 81.3177 24.6895 81.2113C24.5832 81.105 24.5234 80.9608 24.5234 80.8104V74.9645C24.5234 74.8141 24.5832 74.6699 24.6895 74.5635C24.7958 74.4572 24.9401 74.3975 25.0904 74.3975H29.1432C29.2935 74.3975 29.4378 74.4572 29.5441 74.5635C29.6504 74.6699 29.7102 74.8141 29.7102 74.9645C29.7102 75.1148 29.6504 75.2591 29.5441 75.3654C29.4378 75.4717 29.2935 75.5315 29.1432 75.5315H25.6574V80.2434H33.5276C33.678 80.2434 33.8222 80.3032 33.9285 80.4095C34.0349 80.5158 34.0946 80.66 34.0946 80.8104C34.0946 80.9608 34.0349 81.105 33.9285 81.2113C33.8222 81.3177 33.678 81.3774 33.5276 81.3774Z" fill="#474747"/>
</g>
</g>
<g style="mix-blend-mode:multiply" opacity="0.23">
<g style="mix-blend-mode:multiply">
<path d="M149.209 103.281H137.517C137.367 103.281 137.223 103.221 137.116 103.114C137.01 103.008 136.95 102.864 136.95 102.714V96.8678C136.95 96.7174 137.01 96.5732 137.116 96.4668C137.223 96.3605 137.367 96.3008 137.517 96.3008C137.668 96.3008 137.812 96.3605 137.918 96.4668C138.024 96.5732 138.084 96.7174 138.084 96.8678V102.147H149.209C149.359 102.147 149.504 102.206 149.61 102.313C149.716 102.419 149.776 102.563 149.776 102.714C149.776 102.864 149.716 103.008 149.61 103.114C149.504 103.221 149.359 103.281 149.209 103.281Z" fill="#474747"/>
</g>
<g style="mix-blend-mode:multiply">
<path d="M137.517 103.281H125.825C125.675 103.281 125.531 103.221 125.424 103.114C125.318 103.008 125.258 102.864 125.258 102.714C125.258 102.563 125.318 102.419 125.424 102.313C125.531 102.206 125.675 102.147 125.825 102.147H136.95V96.8678C136.95 96.7174 137.01 96.5732 137.116 96.4668C137.223 96.3605 137.367 96.3008 137.517 96.3008C137.668 96.3008 137.812 96.3605 137.918 96.4668C138.024 96.5732 138.084 96.7174 138.084 96.8678V102.714C138.084 102.864 138.024 103.008 137.918 103.114C137.812 103.221 137.668 103.281 137.517 103.281Z" fill="#474747"/>
</g>
<g style="mix-blend-mode:multiply">
<path d="M143.363 109.127H131.671C131.521 109.127 131.377 109.067 131.271 108.961C131.164 108.854 131.104 108.71 131.104 108.56V102.713C131.104 102.563 131.164 102.419 131.271 102.313C131.377 102.206 131.521 102.146 131.671 102.146H143.363C143.514 102.146 143.658 102.206 143.764 102.313C143.871 102.419 143.93 102.563 143.93 102.713V108.56C143.93 108.71 143.871 108.854 143.764 108.961C143.658 109.067 143.514 109.127 143.363 109.127ZM132.238 107.993H142.796V103.28H132.238V107.993Z" fill="#474747"/>
</g>
<g style="mix-blend-mode:multiply">
<path d="M137.517 114.973H134.195C134.045 114.973 133.901 114.913 133.794 114.807C133.688 114.701 133.628 114.556 133.628 114.406C133.628 114.256 133.688 114.111 133.794 114.005C133.901 113.899 134.045 113.839 134.195 113.839H136.95V109.127H125.825C125.675 109.127 125.531 109.067 125.424 108.961C125.318 108.855 125.258 108.711 125.258 108.56C125.258 108.41 125.318 108.266 125.424 108.159C125.531 108.053 125.675 107.993 125.825 107.993H137.517C137.668 107.993 137.812 108.053 137.918 108.159C138.024 108.266 138.084 108.41 138.084 108.56V114.406C138.084 114.556 138.024 114.701 137.918 114.807C137.812 114.913 137.668 114.973 137.517 114.973Z" fill="#474747"/>
</g>
<g style="mix-blend-mode:multiply">
<path d="M141.9 114.973H137.517C137.367 114.973 137.223 114.913 137.116 114.807C137.01 114.701 136.95 114.556 136.95 114.406V108.56C136.95 108.41 137.01 108.266 137.116 108.159C137.223 108.053 137.367 107.993 137.517 107.993H149.209C149.359 107.993 149.504 108.053 149.61 108.159C149.716 108.266 149.776 108.41 149.776 108.56C149.776 108.711 149.716 108.855 149.61 108.961C149.504 109.067 149.359 109.127 149.209 109.127H138.084V113.839H141.9C142.05 113.839 142.195 113.899 142.301 114.005C142.407 114.111 142.467 114.256 142.467 114.406C142.467 114.556 142.407 114.701 142.301 114.807C142.195 114.913 142.05 114.973 141.9 114.973Z" fill="#474747"/>
</g>
<g style="mix-blend-mode:multiply">
<path d="M149.209 109.127H143.363C143.213 109.127 143.069 109.067 142.962 108.961C142.856 108.854 142.796 108.71 142.796 108.56V102.713C142.796 102.563 142.856 102.419 142.962 102.313C143.069 102.206 143.213 102.146 143.363 102.146H153.195C153.345 102.146 153.489 102.206 153.596 102.313C153.702 102.419 153.762 102.563 153.762 102.713C153.762 102.864 153.702 103.008 153.596 103.114C153.489 103.221 153.345 103.28 153.195 103.28H143.93V107.993H149.209C149.36 107.993 149.504 108.052 149.61 108.159C149.717 108.265 149.776 108.409 149.776 108.56C149.776 108.71 149.717 108.854 149.61 108.961C149.504 109.067 149.36 109.127 149.209 109.127Z" fill="#474747"/>
</g>
<g style="mix-blend-mode:multiply">
<path d="M131.671 109.127H123.234C123.084 109.127 122.939 109.067 122.833 108.961C122.727 108.854 122.667 108.71 122.667 108.56C122.667 108.409 122.727 108.265 122.833 108.159C122.939 108.052 123.084 107.993 123.234 107.993H131.104V103.28H127.618C127.468 103.28 127.324 103.221 127.217 103.114C127.111 103.008 127.051 102.864 127.051 102.713C127.051 102.563 127.111 102.419 127.217 102.313C127.324 102.206 127.468 102.146 127.618 102.146H131.671C131.822 102.146 131.966 102.206 132.072 102.313C132.179 102.419 132.238 102.563 132.238 102.713V108.56C132.238 108.71 132.179 108.854 132.072 108.961C131.966 109.067 131.822 109.127 131.671 109.127Z" fill="#474747"/>
</g>
</g>
<path d="M147.38 127.86H14.8581C14.6075 127.86 14.3671 127.76 14.1899 127.583C14.0126 127.406 13.9131 127.165 13.9131 126.915C13.9131 126.664 14.0126 126.424 14.1899 126.247C14.3671 126.069 14.6075 125.97 14.8581 125.97H147.38C147.63 125.97 147.871 126.069 148.048 126.247C148.225 126.424 148.325 126.664 148.325 126.915C148.325 127.165 148.225 127.406 148.048 127.583C147.871 127.76 147.63 127.86 147.38 127.86Z" fill="#333333"/>
<path d="M10.5741 127.86H5.31365C5.06302 127.86 4.82266 127.76 4.64544 127.583C4.46821 127.406 4.36865 127.165 4.36865 126.915C4.36865 126.664 4.46821 126.424 4.64544 126.247C4.82266 126.069 5.06302 125.97 5.31365 125.97H10.5741C10.8247 125.97 11.0651 126.069 11.2423 126.247C11.4195 126.424 11.5191 126.664 11.5191 126.915C11.5191 127.165 11.4195 127.406 11.2423 127.583C11.0651 127.76 10.8247 127.86 10.5741 127.86Z" fill="#333333"/>
<path d="M47.2386 126.915H30.6499V123.135H51.0608L47.2386 126.915Z" fill="#333333"/>
<path d="M72.0639 126.915H88.6526V123.135H68.2417L72.0639 126.915Z" fill="#333333"/>
<path d="M93.6713 105.916C71.2177 110.448 48.085 110.448 25.6313 105.916V87.0029C25.6313 85.1386 27.3023 83.262 29.3735 82.869C49.4006 79.2884 69.904 79.2884 89.931 82.869C92.0004 83.262 93.6713 85.1386 93.6713 87.0029V105.916Z" fill="#FFC859"/>
<path d="M29.7759 84.7093C49.5717 81.6035 69.7307 81.6035 89.5264 84.7093C90.1526 84.8109 90.7526 85.0354 91.2917 85.3698C91.8308 85.7042 92.2984 86.142 92.6676 86.6579V86.0987C92.6676 84.4816 91.046 82.8539 89.0365 82.513C69.5694 79.4071 49.733 79.4071 30.2658 82.513C28.2564 82.8532 26.635 84.4816 26.6348 86.0987V86.6579C27.0039 86.142 27.4715 85.7042 28.0107 85.3698C28.5498 85.0354 29.1497 84.8109 29.7759 84.7093Z" fill="#F9D895"/>
<path d="M53.8066 101.121C47.1506 101.778 40.4462 101.778 33.7903 101.121C33.0892 101.05 32.4351 100.735 31.9422 100.232C31.4493 99.728 31.1488 99.0673 31.0931 98.3648C30.995 97.1403 30.995 95.9099 31.0931 94.6853C31.1489 93.9828 31.4494 93.3221 31.9423 92.8184C32.4353 92.3147 33.0893 91.9999 33.7905 91.929C40.4464 91.2724 47.1508 91.2724 53.8067 91.929C54.5079 91.9999 55.162 92.3147 55.6549 92.8184C56.1478 93.3221 56.4484 93.9828 56.5042 94.6853C56.6022 95.9099 56.6022 97.1404 56.5042 98.365C56.4483 99.0675 56.1478 99.7282 55.6548 100.232C55.1618 100.736 54.5077 101.05 53.8066 101.121Z" fill="#CE5555"/>
<g style="mix-blend-mode:multiply" opacity="0.47">
<path d="M56.065 95.6459C56.0218 96.3373 55.7375 96.9918 55.2617 97.4953C54.7859 97.9989 54.1486 98.3197 53.4607 98.402C47.0359 99.0586 40.5609 99.0586 34.136 98.402C33.4482 98.3197 32.8109 97.9989 32.3351 97.4953C31.8593 96.9917 31.575 96.3373 31.5318 95.6459C31.5195 95.4854 31.5129 95.3255 31.504 95.1652C31.4418 96.2309 31.451 97.2996 31.5318 98.364C31.575 99.0555 31.8593 99.71 32.3351 100.214C32.8109 100.717 33.4481 101.038 34.136 101.12C40.5609 101.777 47.0359 101.777 53.4607 101.12C54.1486 101.038 54.7859 100.717 55.2617 100.214C55.7375 99.7101 56.0217 99.0557 56.065 98.3642C56.1458 97.2997 56.1551 96.2309 56.0927 95.165C56.0837 95.3253 56.0774 95.4854 56.065 95.6459Z" fill="#CE5555"/>
</g>
<g style="mix-blend-mode:screen" opacity="0.5">
<path d="M31.0931 96.1973C31.1489 95.4948 31.4494 94.8341 31.9423 94.3304C32.4353 93.8267 33.0893 93.5119 33.7905 93.441C40.4464 92.7844 47.1508 92.7844 53.8068 93.441C54.5079 93.5119 55.162 93.8267 55.6549 94.3304C56.1479 94.8341 56.4484 95.4948 56.5042 96.1973C56.5331 96.5593 56.5507 96.9203 56.5626 97.2811C56.5919 96.4154 56.5724 95.5488 56.5042 94.6853C56.4484 93.9828 56.1479 93.3221 55.6549 92.8184C55.162 92.3147 54.5079 91.9999 53.8068 91.929C47.1508 91.2724 40.4464 91.2724 33.7905 91.929C33.0893 91.9999 32.4353 92.3147 31.9423 92.8184C31.4494 93.3221 31.1489 93.9828 31.0931 94.6853C31.0249 95.5489 31.0054 96.4155 31.0347 97.2813C31.0462 96.9206 31.064 96.5593 31.0931 96.1973Z" fill="#CE5555"/>
</g>
<path d="M43.7988 102.557C40.424 102.557 37.0493 102.392 33.6979 102.061C32.7757 101.97 31.9149 101.557 31.2665 100.895C30.6181 100.233 30.2233 99.3634 30.1513 98.4394C30.0485 97.1648 30.0485 95.8841 30.1513 94.6095C30.2234 93.6856 30.6182 92.8164 31.2666 92.1543C31.915 91.4922 32.7757 91.0793 33.6979 90.9879C40.4156 90.327 47.182 90.327 53.8997 90.9879C54.822 91.0793 55.6826 91.4922 56.3311 92.1543C56.9795 92.8164 57.3743 93.6856 57.4463 94.6095C57.549 95.8841 57.549 97.1648 57.4463 98.4394C57.3742 99.3633 56.9794 100.232 56.331 100.894C55.6826 101.557 54.8219 101.969 53.8997 102.061C50.5484 102.392 47.1736 102.557 43.7988 102.557ZM43.7988 92.3819C40.4857 92.3819 37.1734 92.5441 33.8835 92.8686C33.4025 92.9169 32.9538 93.1328 32.6159 93.4785C32.2781 93.8242 32.0725 94.2778 32.0353 94.7598C31.9406 95.9343 31.9406 97.1146 32.0353 98.2891C32.0725 98.7711 32.2781 99.2247 32.6159 99.5704C32.9538 99.9161 33.4025 100.132 33.8835 100.18C40.4778 100.829 47.1198 100.829 53.7141 100.18C54.1951 100.132 54.6438 99.9161 54.9817 99.5704C55.3196 99.2247 55.5251 98.7711 55.5624 98.2891C55.6571 97.1146 55.6571 95.9343 55.5624 94.7598C55.5251 94.2778 55.3196 93.8242 54.9817 93.4785C54.6438 93.1328 54.1951 92.9169 53.7141 92.8686C50.425 92.5441 47.1112 92.3819 43.7988 92.3819Z" fill="#333333"/>
<path d="M85.5118 101.121C78.8559 101.778 72.1515 101.778 65.4956 101.121C64.7944 101.05 64.1403 100.735 63.6474 100.232C63.1545 99.7281 62.8539 99.0673 62.7982 98.3648C62.7001 97.1403 62.7001 95.9099 62.7982 94.6853C62.8539 93.9828 63.1545 93.3221 63.6474 92.8184C64.1403 92.3147 64.7944 91.9999 65.4956 91.929C72.1515 91.2724 78.8559 91.2724 85.5118 91.929C86.213 91.9999 86.867 92.3147 87.3599 92.8184C87.8528 93.3221 88.1533 93.9828 88.209 94.6853C88.3071 95.9099 88.3071 97.1404 88.209 98.365C88.1532 99.0675 87.8527 99.7281 87.3598 100.232C86.8669 100.735 86.2129 101.05 85.5118 101.121Z" fill="#CE5555"/>
<g style="mix-blend-mode:multiply" opacity="0.47">
<path d="M87.5348 95.6466C87.4255 97.0946 86.3493 98.2603 84.9806 98.4028C78.6796 99.0594 72.3275 99.0594 66.0266 98.4028C64.6578 98.2603 63.5817 97.0946 63.4724 95.6466C63.4603 95.4862 63.4535 95.3263 63.4452 95.166C63.3841 96.2317 63.3931 97.3003 63.4724 98.3648C63.5817 99.8128 64.6578 100.979 66.0266 101.121C72.3275 101.778 78.6796 101.778 84.9806 101.121C86.3493 100.979 87.4255 99.8128 87.5348 98.365C87.6141 97.3005 87.6232 96.2318 87.5622 95.166C87.5531 95.3261 87.5474 95.4862 87.5348 95.6466Z" fill="#CE5555"/>
</g>
<g style="mix-blend-mode:screen" opacity="0.5">
<path d="M62.7984 96.1973C62.8541 95.4948 63.1547 94.8341 63.6476 94.3304C64.1405 93.8267 64.7946 93.5119 65.4958 93.441C72.1517 92.7844 78.8561 92.7844 85.512 93.441C86.2132 93.5119 86.8672 93.8267 87.3601 94.3304C87.853 94.8341 88.1535 95.4948 88.2092 96.1973C88.2382 96.5593 88.2559 96.9203 88.2676 97.2811C88.297 96.4154 88.2775 95.5488 88.2092 94.6853C88.1535 93.9828 87.8529 93.3221 87.36 92.8184C86.8671 92.3147 86.213 91.9999 85.5118 91.929C78.8559 91.2724 72.1515 91.2724 65.4956 91.929C64.7944 91.9999 64.1404 92.3147 63.6474 92.8184C63.1545 93.3221 62.854 93.9828 62.7982 94.6853C62.7299 95.5489 62.7104 96.4155 62.7398 97.2813C62.7519 96.9206 62.7698 96.5593 62.7984 96.1973Z" fill="#CE5555"/>
</g>
<path d="M75.5038 102.557C72.129 102.557 68.7542 102.392 65.4029 102.061C64.4806 101.97 63.62 101.557 62.9715 100.895C62.3231 100.233 61.9283 99.3635 61.8563 98.4395C61.7536 97.165 61.7536 95.8842 61.8563 94.6096C61.9283 93.6857 62.3231 92.8166 62.9715 92.1544C63.62 91.4923 64.4806 91.0794 65.4029 90.988C72.1206 90.3269 78.887 90.3269 85.6047 90.988C86.5269 91.0794 87.3876 91.4923 88.0361 92.1544C88.6845 92.8166 89.0794 93.6857 89.1515 94.6096C89.2541 95.8842 89.2541 97.165 89.1515 98.4395C89.0793 99.3635 88.6845 100.233 88.036 100.895C87.3876 101.557 86.5269 101.97 85.6047 102.061C82.2535 102.392 78.8785 102.557 75.5038 102.557ZM75.5038 92.3821C72.1906 92.3821 68.8786 92.5443 65.5885 92.8688C65.1075 92.917 64.6588 93.1329 64.3209 93.4787C63.983 93.8244 63.7775 94.2779 63.7402 94.7599C63.6455 95.9345 63.6455 97.1147 63.7402 98.2893C63.7775 98.7713 63.983 99.2248 64.3209 99.5705C64.6588 99.9162 65.1075 100.132 65.5885 100.18C72.1828 100.829 78.8248 100.829 85.4191 100.18C85.9001 100.132 86.3488 99.9162 86.6867 99.5705C87.0245 99.2248 87.2301 98.7713 87.2673 98.2893C87.362 97.1147 87.362 95.9345 87.2673 94.7599C87.2301 94.2779 87.0245 93.8244 86.6867 93.4787C86.3488 93.1329 85.9001 92.917 85.4191 92.8688C82.1299 92.5443 78.8158 92.3821 75.5038 92.3821Z" fill="#333333"/>
<path d="M59.651 110.26C48.1634 110.26 36.7043 109.115 25.4437 106.842C25.2301 106.799 25.038 106.683 24.8999 106.515C24.7619 106.346 24.6863 106.135 24.686 105.917V87.003C24.686 84.6838 26.7095 82.4128 29.1961 81.9408C49.3348 78.3211 69.9576 78.3205 90.0965 81.9389C92.5928 82.413 94.616 84.6838 94.616 87.003V105.917C94.616 106.135 94.5405 106.347 94.4024 106.515C94.2643 106.684 94.0721 106.8 93.8583 106.843C82.5977 109.116 71.1386 110.26 59.651 110.26ZM26.576 105.141C37.4701 107.288 48.5474 108.37 59.651 108.37C70.7547 108.37 81.8319 107.288 92.726 105.141V87.003C92.726 85.5713 91.3652 84.1034 89.7534 83.7976C69.841 80.2202 49.4503 80.2209 29.538 83.7995C27.9368 84.1034 26.576 85.5713 26.576 87.003V105.141Z" fill="#333333"/>
<path d="M29.9863 101.273H89.316C90.9222 101.273 92.4626 101.911 93.5984 103.047C94.7341 104.183 95.3722 105.723 95.3722 107.33H23.9302C23.9302 105.723 24.5682 104.183 25.704 103.047C26.8397 101.911 28.3801 101.273 29.9863 101.273Z" fill="#B2C68B"/>
<g style="mix-blend-mode:multiply" opacity="0.38">
<path d="M95.3722 104.302H23.9302V107.33H95.3722V104.302Z" fill="#AABC80"/>
</g>
<path d="M95.3724 108.275H23.9304C23.6797 108.275 23.4394 108.176 23.2621 107.998C23.0849 107.821 22.9854 107.581 22.9854 107.33C22.9875 105.474 23.7257 103.695 25.0383 102.382C26.3508 101.069 28.1303 100.331 29.9865 100.329H89.3162C91.1724 100.331 92.952 101.069 94.2645 102.382C95.577 103.694 96.3153 105.474 96.3174 107.33C96.3174 107.581 96.2178 107.821 96.0406 107.998C95.8633 108.176 95.623 108.275 95.3724 108.275ZM24.9629 106.385H94.3398C94.118 105.215 93.4949 104.158 92.578 103.398C91.661 102.637 90.5075 102.221 89.3162 102.219H29.9865C28.7952 102.221 27.6418 102.637 26.7248 103.398C25.8078 104.158 25.1847 105.215 24.9629 106.385Z" fill="#333333"/>
<path d="M24.1194 107.33H95.1834C95.5844 107.33 95.969 107.489 96.2526 107.773C96.5361 108.056 96.6954 108.441 96.6954 108.842V123.135H22.6074V108.842C22.6074 108.441 22.7667 108.056 23.0503 107.773C23.3338 107.489 23.7184 107.33 24.1194 107.33Z" fill="#AA7D5E"/>
<path d="M24.1194 107.33H95.1834C95.5844 107.33 95.969 107.489 96.2526 107.773C96.5361 108.056 96.6954 108.441 96.6954 108.842V123.135H22.6074V108.842C22.6074 108.441 22.7667 108.056 23.0503 107.773C23.3338 107.489 23.7184 107.33 24.1194 107.33Z" fill="#FFC758"/>
<g style="mix-blend-mode:multiply" opacity="0.96">
<path d="M96.6954 120.93H22.6074V123.135H96.6954V120.93Z" fill="#FFC758"/>
</g>
<path d="M24.1194 107.33H95.1834C95.5844 107.33 95.969 107.489 96.2526 107.773C96.5361 108.056 96.6954 108.441 96.6954 108.842V109.315H22.6074V108.842C22.6074 108.441 22.7667 108.056 23.0503 107.773C23.3338 107.489 23.7184 107.33 24.1194 107.33Z" fill="#F9D895"/>
<path d="M96.6951 124.08H22.6071C22.3565 124.08 22.1161 123.98 21.9389 123.803C21.7617 123.626 21.6621 123.385 21.6621 123.135V108.842C21.6629 108.19 21.922 107.566 22.3826 107.105C22.8432 106.645 23.4677 106.386 24.1191 106.385H95.1831C95.8345 106.386 96.459 106.645 96.9196 107.105C97.3803 107.566 97.6394 108.19 97.6401 108.842V123.135C97.6401 123.385 97.5406 123.626 97.3633 123.803C97.1861 123.98 96.9457 124.08 96.6951 124.08ZM23.5521 122.19H95.7501V108.842C95.7501 108.691 95.6904 108.547 95.584 108.441C95.4777 108.334 95.3335 108.275 95.1831 108.275H24.1191C23.9687 108.275 23.8245 108.334 23.7182 108.441C23.6118 108.547 23.5521 108.691 23.5521 108.842V122.19Z" fill="#333333"/>
<path d="M47.2388 127.859H30.6501C30.3994 127.859 30.1591 127.76 29.9819 127.583C29.8046 127.405 29.7051 127.165 29.7051 126.914V123.134C29.7051 122.884 29.8046 122.643 29.9819 122.466C30.1591 122.289 30.3994 122.189 30.6501 122.189H51.0609C51.2483 122.189 51.4314 122.245 51.587 122.349C51.7427 122.454 51.8638 122.602 51.935 122.775C52.0062 122.949 52.0243 123.139 51.987 123.323C51.9497 123.506 51.8587 123.675 51.7255 123.806L47.9033 127.586C47.7264 127.761 47.4876 127.859 47.2388 127.859ZM31.5951 125.969H46.8504L48.7616 124.079H31.5951V125.969Z" fill="#333333"/>
<path d="M88.6523 127.859H72.0635C71.8147 127.859 71.5759 127.761 71.399 127.586L67.5769 123.806C67.4437 123.675 67.3526 123.506 67.3153 123.323C67.278 123.139 67.2961 122.949 67.3673 122.775C67.4385 122.602 67.5597 122.454 67.7153 122.349C67.8709 122.245 68.054 122.189 68.2414 122.189H88.6523C88.9029 122.189 89.1433 122.289 89.3205 122.466C89.4977 122.643 89.5973 122.884 89.5973 123.134V126.914C89.5973 127.165 89.4977 127.405 89.3205 127.583C89.1433 127.76 88.9029 127.859 88.6523 127.859ZM72.4519 125.969H87.7073V124.079H70.5408L72.4519 125.969Z" fill="#333333"/>
<path d="M61.413 38.8027H40.623V41.8267H61.413V38.8027Z" fill="#6A6A68"/>
<path d="M61.4132 42.7714H40.6232C40.3726 42.7714 40.1322 42.6719 39.955 42.4946C39.7778 42.3174 39.6782 42.077 39.6782 41.8264V38.8024C39.6782 38.5518 39.7778 38.3114 39.955 38.1342C40.1322 37.957 40.3726 37.8574 40.6232 37.8574H61.4132C61.6639 37.8574 61.9042 37.957 62.0814 38.1342C62.2587 38.3114 62.3582 38.5518 62.3582 38.8024V41.8264C62.3582 42.077 62.2587 42.3174 62.0814 42.4946C61.9042 42.6719 61.6639 42.7714 61.4132 42.7714ZM41.5682 40.8814H60.4682V39.7474H41.5682V40.8814Z" fill="#333333"/>
<path d="M46.8613 39.748H42.4523C42.2017 39.748 41.9613 39.6484 41.7841 39.4712C41.6069 39.2939 41.5073 39.0536 41.5073 38.803V22.9772C41.5073 22.7266 41.6069 22.4862 41.7841 22.309C41.9613 22.1318 42.2017 22.0322 42.4523 22.0322H46.8623C47.1129 22.0322 47.3533 22.1318 47.5305 22.309C47.7077 22.4862 47.8073 22.7266 47.8073 22.9772V38.803C47.8073 38.9271 47.7828 39.0501 47.7352 39.1648C47.6877 39.2795 47.618 39.3837 47.5301 39.4715C47.4423 39.5593 47.338 39.6289 47.2232 39.6763C47.1085 39.7237 46.9855 39.7481 46.8613 39.748ZM43.3973 37.858H45.9173V23.9222H43.3973V37.858Z" fill="#333333"/>
<g style="mix-blend-mode:multiply" opacity="0.38">
<path d="M46.8611 22.9775H42.4512V38.8033H46.8611V22.9775Z" fill="#629EC0"/>
</g>
<path d="M51.2713 18.9453H46.8613V38.803H51.2713V18.9453Z" fill="#FFC859"/>
<path d="M51.271 39.7479H46.861C46.6104 39.7479 46.37 39.6483 46.1928 39.4711C46.0156 39.2938 45.916 39.0535 45.916 38.8029V18.945C45.916 18.6944 46.0156 18.454 46.1928 18.2768C46.37 18.0996 46.6104 18 46.861 18H51.271C51.5216 18 51.7619 18.0996 51.9392 18.2768C52.1164 18.454 52.216 18.6944 52.216 18.945V38.8029C52.216 39.0535 52.1164 39.2938 51.9392 39.4711C51.7619 39.6483 51.5216 39.7479 51.271 39.7479ZM47.806 37.8579H50.326V19.89H47.806V37.8579Z" fill="#333333"/>
<path d="M55.1916 21.7739L51.2715 23.3408L57.1453 38.0361L61.0655 36.4692L55.1916 21.7739Z" fill="#FF7373"/>
<path d="M57.1451 38.9817C56.9563 38.9816 56.7718 38.925 56.6154 38.819C56.4591 38.7131 56.3381 38.5627 56.268 38.3873L50.3943 23.692C50.3482 23.5768 50.3252 23.4536 50.3267 23.3294C50.3283 23.2053 50.3542 23.0827 50.4031 22.9686C50.452 22.8546 50.523 22.7512 50.6118 22.6646C50.7007 22.5779 50.8057 22.5096 50.921 22.4635L54.8412 20.8967C54.9565 20.8506 55.0797 20.8276 55.2038 20.8292C55.3279 20.8307 55.4505 20.8567 55.5646 20.9056C55.6787 20.9545 55.782 21.0254 55.8687 21.1143C55.9554 21.2031 56.0237 21.3082 56.0697 21.4234L61.9425 36.1193C61.9886 36.2346 62.0116 36.3578 62.0101 36.4819C62.0085 36.606 61.9826 36.7286 61.9337 36.8427C61.8847 36.9568 61.8138 37.0601 61.725 37.1468C61.6361 37.2334 61.5311 37.3018 61.4158 37.3478L57.4956 38.9146C57.3841 38.959 57.2651 38.9818 57.1451 38.9817ZM52.4993 23.8678L57.6715 36.8082L59.8367 35.9428L54.6645 23.0027L52.4993 23.8678Z" fill="#333333"/>
<path d="M67.3235 46.1611H48.0283V65.3635H67.3235V46.1611Z" fill="#F9F9F9"/>
<path d="M67.3244 66.3082H48.0275C47.7769 66.3082 47.5365 66.2087 47.3593 66.0314C47.1821 65.8542 47.0825 65.6138 47.0825 65.3632V46.1608C47.0825 45.9102 47.1821 45.6698 47.3593 45.4926C47.5365 45.3154 47.7769 45.2158 48.0275 45.2158H67.3244C67.5751 45.2158 67.8154 45.3154 67.9926 45.4926C68.1699 45.6698 68.2694 45.9102 68.2694 46.1608V65.3632C68.2694 65.6138 68.1699 65.8542 67.9926 66.0314C67.8154 66.2087 67.5751 66.3082 67.3244 66.3082ZM48.9742 64.4182H66.3794V47.1058H48.9725L48.9742 64.4182Z" fill="#333333"/>
<path d="M65.2446 63.2846V48.2402H50.1074V63.2846H65.2446Z" fill="#B7F2A7"/>
<path d="M85.4564 32.2256H70.8936V51.428H85.4564V32.2256Z" fill="#F9F9F9"/>
<path d="M85.4567 52.3727H70.8937C70.6431 52.3727 70.4027 52.2731 70.2255 52.0959C70.0483 51.9187 69.9487 51.6783 69.9487 51.4277V32.2253C69.9487 31.9746 70.0483 31.7343 70.2255 31.5571C70.4027 31.3798 70.6431 31.2803 70.8937 31.2803H85.4567C85.7074 31.2803 85.9477 31.3798 86.125 31.5571C86.3022 31.7343 86.4017 31.9746 86.4017 32.2253V51.4277C86.4017 51.5518 86.3773 51.6747 86.3298 51.7893C86.2823 51.904 86.2127 52.0081 86.125 52.0959C86.0372 52.1836 85.933 52.2532 85.8184 52.3007C85.7037 52.3482 85.5808 52.3727 85.4567 52.3727ZM71.8387 50.4827H84.5117V33.1703H71.8387V50.4827Z" fill="#333333"/>
<path d="M83.3779 49.3491V34.3047H72.9729V49.3491H83.3779Z" fill="#9FD3ED"/>
<path d="M90.7484 55.7627H70.8936V70.6308H90.7484V55.7627Z" fill="#F9F9F9"/>
<path d="M90.7487 71.5753H70.8937C70.6431 71.5753 70.4027 71.4757 70.2255 71.2985C70.0483 71.1213 69.9487 70.8809 69.9487 70.6303V55.7624C69.9487 55.5118 70.0483 55.2714 70.2255 55.0942C70.4027 54.9169 70.6431 54.8174 70.8937 54.8174H90.7487C90.9994 54.8174 91.2397 54.9169 91.417 55.0942C91.5942 55.2714 91.6937 55.5118 91.6937 55.7624V70.6303C91.6937 70.8809 91.5942 71.1213 91.417 71.2985C91.2397 71.4757 90.9994 71.5753 90.7487 71.5753ZM71.8387 69.6853H89.8037V56.7074H71.8387V69.6853Z" fill="#333333"/>
<path d="M88.6694 68.5519V57.8418H72.9724V68.5519H88.6694Z" fill="#F97D7D"/>
<path d="M128.676 40.8396L121.549 33.7126C120.07 32.2339 117.673 32.2339 116.194 33.7126L109.067 40.8396C107.588 42.3183 107.588 44.7157 109.067 46.1944L116.194 53.3215C117.673 54.8002 120.07 54.8002 121.549 53.3215L128.676 46.1944C130.155 44.7157 130.155 42.3183 128.676 40.8396Z" fill="#F9F9F9"/>
<path d="M117.099 35.5138C117.592 35.0898 118.221 34.8566 118.872 34.8566C119.522 34.8566 120.151 35.0898 120.644 35.5138L130.098 44.0106C130.078 43.0264 129.669 42.0901 128.96 41.407L121.627 34.28C120.886 33.5683 119.899 33.1709 118.872 33.1709C117.845 33.1709 116.858 33.5683 116.117 34.28L108.784 41.407C108.075 42.0901 107.666 43.0264 107.646 44.0106L117.099 35.5138Z" fill="#BFBFBF"/>
<path d="M118.871 55.3739C118.25 55.3749 117.635 55.2533 117.061 55.0158C116.486 54.7783 115.965 54.4298 115.526 53.9902L108.399 46.8632C107.513 45.9752 107.016 44.7722 107.016 43.5179C107.016 42.2636 107.513 41.0605 108.399 40.1726L115.526 33.0454C116.414 32.1596 117.617 31.6621 118.871 31.6621C120.126 31.6621 121.329 32.1596 122.217 33.0454L129.344 40.1726C130.231 41.0598 130.729 42.2632 130.729 43.5179C130.729 44.7726 130.231 45.976 129.344 46.8632L122.217 53.9902C121.778 54.4298 121.256 54.7783 120.682 55.0157C120.108 55.2532 119.493 55.3749 118.871 55.3739ZM116.861 52.6538C117.395 53.1858 118.117 53.4846 118.871 53.4846C119.624 53.4846 120.347 53.1858 120.88 52.6538L128.007 45.5268C128.54 44.9939 128.839 44.2712 128.839 43.5176C128.839 42.764 128.54 42.0413 128.007 41.5084L120.881 34.3807C120.347 33.8486 119.625 33.5499 118.871 33.5499C118.118 33.5499 117.395 33.8486 116.862 34.3807L109.735 41.5079C109.203 42.0412 108.904 42.7637 108.904 43.517C108.904 44.2703 109.203 44.9929 109.735 45.5262L116.861 52.6538Z" fill="#333333"/>
<path d="M118.872 35.885C118.721 35.885 118.577 35.8253 118.471 35.719C118.364 35.6126 118.305 35.4684 118.305 35.318V33.8346C118.305 33.6842 118.364 33.54 118.471 33.4336C118.577 33.3273 118.721 33.2676 118.872 33.2676C119.022 33.2676 119.166 33.3273 119.273 33.4336C119.379 33.54 119.439 33.6842 119.439 33.8346V35.318C119.439 35.4684 119.379 35.6126 119.273 35.719C119.166 35.8253 119.022 35.885 118.872 35.885Z" fill="#333333"/>
<path d="M118.872 53.7669C118.721 53.7669 118.577 53.7071 118.471 53.6008C118.364 53.4945 118.305 53.3503 118.305 53.1999V51.7164C118.305 51.566 118.364 51.4218 118.471 51.3155C118.577 51.2091 118.721 51.1494 118.872 51.1494C119.022 51.1494 119.166 51.2091 119.273 51.3155C119.379 51.4218 119.439 51.566 119.439 51.7164V53.1999C119.439 53.3503 119.379 53.4945 119.273 53.6008C119.166 53.7071 119.022 53.7669 118.872 53.7669Z" fill="#333333"/>
<path d="M128.554 44.0842H127.071C126.921 44.0842 126.776 44.0245 126.67 43.9181C126.564 43.8118 126.504 43.6676 126.504 43.5172C126.504 43.3668 126.564 43.2226 126.67 43.1163C126.776 43.0099 126.921 42.9502 127.071 42.9502H128.554C128.705 42.9502 128.849 43.0099 128.955 43.1163C129.062 43.2226 129.121 43.3668 129.121 43.5172C129.121 43.6676 129.062 43.8118 128.955 43.9181C128.849 44.0245 128.705 44.0842 128.554 44.0842Z" fill="#333333"/>
<path d="M110.672 44.0842H109.188C109.038 44.0842 108.894 44.0245 108.787 43.9181C108.681 43.8118 108.621 43.6676 108.621 43.5172C108.621 43.3668 108.681 43.2226 108.787 43.1163C108.894 43.0099 109.038 42.9502 109.188 42.9502H110.672C110.822 42.9502 110.966 43.0099 111.072 43.1163C111.179 43.2226 111.239 43.3668 111.239 43.5172C111.239 43.6676 111.179 43.8118 111.072 43.9181C110.966 44.0245 110.822 44.0842 110.672 44.0842H110.672Z" fill="#333333"/>
<path d="M118.872 44.2732C118.68 44.2734 118.496 44.2011 118.357 44.0707L115.977 41.8575C115.905 41.7899 115.846 41.7086 115.805 41.6183C115.763 41.528 115.74 41.4305 115.737 41.3312C115.733 41.232 115.749 41.133 115.784 41.04C115.819 40.9469 115.871 40.8616 115.939 40.7889C116.006 40.7162 116.088 40.6576 116.178 40.6163C116.268 40.575 116.366 40.5519 116.465 40.5483C116.564 40.5448 116.663 40.5608 116.756 40.5954C116.849 40.6301 116.935 40.6828 117.007 40.7504L119.387 42.9636C119.498 43.067 119.575 43.2016 119.609 43.3497C119.643 43.4978 119.631 43.6526 119.575 43.7939C119.52 43.9353 119.423 44.0566 119.297 44.1421C119.172 44.2275 119.023 44.2732 118.872 44.2732Z" fill="#333333"/>
<path d="M118.871 44.2627C118.785 44.2626 118.7 44.2386 118.625 44.1933C118.551 44.1481 118.491 44.0833 118.452 44.0061C118.412 43.9289 118.394 43.8422 118.401 43.7557C118.407 43.6691 118.437 43.586 118.488 43.5154L122.042 38.5437C122.078 38.4925 122.124 38.4489 122.176 38.4154C122.229 38.3819 122.288 38.3592 122.35 38.3486C122.411 38.338 122.474 38.3398 122.535 38.3537C122.596 38.3677 122.654 38.3936 122.704 38.4299C122.755 38.4663 122.798 38.5124 122.831 38.5655C122.864 38.6186 122.886 38.6777 122.896 38.7394C122.906 38.8011 122.904 38.8642 122.889 38.9249C122.874 38.9857 122.848 39.0429 122.811 39.0933L119.256 44.065C119.212 44.1262 119.155 44.1762 119.088 44.2105C119.021 44.2449 118.947 44.2628 118.871 44.2627Z" fill="#333333"/>
<path d="M119.056 44.6818C119.699 44.6818 120.221 44.1604 120.221 43.5172C120.221 42.874 119.699 42.3525 119.056 42.3525C118.413 42.3525 117.892 42.874 117.892 43.5172C117.892 44.1604 118.413 44.6818 119.056 44.6818Z" fill="#333333"/>
<path d="M131.093 98.8945H104.255V123.465H131.093V98.8945Z" fill="#996447"/>
<path d="M128.825 110.243V101.029H106.523V110.243H128.825Z" fill="#AA7D5E"/>
<path d="M128.825 121.33V112.116H106.523V121.33H128.825Z" fill="#AA7D5E"/>
<path d="M128.825 113.526V112.116H106.523V113.526H128.825Z" fill="#BF9E86"/>
<path d="M131.093 124.41H104.255C104.004 124.41 103.764 124.311 103.587 124.133C103.41 123.956 103.31 123.716 103.31 123.465V98.8952C103.31 98.6446 103.41 98.4042 103.587 98.227C103.764 98.0498 104.004 97.9502 104.255 97.9502H131.093C131.344 97.9502 131.584 98.0498 131.761 98.227C131.938 98.4042 132.038 98.6446 132.038 98.8952V123.465C132.038 123.716 131.938 123.956 131.761 124.133C131.584 124.311 131.344 124.41 131.093 124.41ZM105.2 122.52H130.148V99.8402H105.2V122.52Z" fill="#333333"/>
<path d="M128.825 102.439V101.029H106.523V102.439H128.825Z" fill="#BF9E86"/>
<path d="M128.825 110.811H106.523C106.373 110.811 106.228 110.751 106.122 110.645C106.016 110.538 105.956 110.394 105.956 110.244V101.03C105.956 100.88 106.016 100.735 106.122 100.629C106.228 100.523 106.373 100.463 106.523 100.463H128.825C128.975 100.463 129.12 100.523 129.226 100.629C129.332 100.735 129.392 100.88 129.392 101.03V110.244C129.392 110.394 129.332 110.538 129.226 110.645C129.12 110.751 128.975 110.811 128.825 110.811ZM107.09 109.677H128.258V101.597H107.09V109.677Z" fill="#333333"/>
<path d="M128.825 121.897H106.523C106.373 121.897 106.228 121.837 106.122 121.731C106.016 121.625 105.956 121.481 105.956 121.33V112.116C105.956 111.965 106.016 111.821 106.122 111.715C106.228 111.609 106.373 111.549 106.523 111.549H128.825C128.975 111.549 129.12 111.609 129.226 111.715C129.332 111.821 129.392 111.965 129.392 112.116V121.33C129.392 121.404 129.378 121.478 129.349 121.547C129.321 121.616 129.279 121.678 129.226 121.731C129.174 121.784 129.111 121.825 129.042 121.854C128.973 121.882 128.9 121.897 128.825 121.897ZM107.09 120.763H128.258V112.683H107.09V120.763Z" fill="#333333"/>
<path d="M125.045 97.2806C124.745 97.2806 124.456 97.1611 124.243 96.9484C124.031 96.7358 123.911 96.4473 123.911 96.1466V82.5465C123.911 79.1377 121.34 76.3647 118.178 76.3647C115.017 76.3647 112.445 79.1377 112.445 82.5465V83.6096C112.445 83.9104 112.326 84.1988 112.113 84.4115C111.9 84.6241 111.612 84.7436 111.311 84.7436C111.01 84.7436 110.722 84.6241 110.509 84.4115C110.297 84.1988 110.177 83.9104 110.177 83.6096V82.5465C110.177 77.8873 113.767 74.0967 118.178 74.0967C122.59 74.0967 126.179 77.8878 126.179 82.5465V96.1466C126.179 96.4473 126.06 96.7358 125.847 96.9484C125.634 97.1611 125.346 97.2806 125.045 97.2806Z" fill="#333333"/>
<path d="M127.944 95.4932H118.525V98.8952H127.944V95.4932Z" fill="#B67DBC"/>
<g style="mix-blend-mode:screen" opacity="0.44">
<path d="M127.944 95.4932H118.525V97.0292H127.944V95.4932Z" fill="#B67DBC"/>
</g>
<path d="M127.943 99.8399H118.525C118.274 99.8399 118.034 99.7403 117.856 99.5631C117.679 99.3858 117.58 99.1455 117.58 98.8949V95.4929C117.58 95.2422 117.679 95.0019 117.856 94.8246C118.034 94.6474 118.274 94.5479 118.525 94.5479H127.943C128.194 94.5479 128.434 94.6474 128.612 94.8246C128.789 95.0019 128.888 95.2422 128.888 95.4929V98.8949C128.888 99.1455 128.789 99.3858 128.612 99.5631C128.434 99.7403 128.194 99.8399 127.943 99.8399ZM119.47 97.9499H126.998V96.4379H119.47V97.9499Z" fill="#333333"/>
<path d="M116.361 89.3699C116.533 88.6616 116.62 87.9351 116.619 87.2061C116.619 83.3278 114.243 80.1836 111.311 80.1836C108.38 80.1836 106.004 83.3278 106.004 87.2061C106.003 87.9351 106.09 88.6616 106.262 89.3699H116.361Z" fill="#9A5BA2"/>
<path d="M112.841 84.0061C112.849 82.6998 112.551 81.4098 111.971 80.2393C111.753 80.2025 111.532 80.1835 111.311 80.1826C108.38 80.1826 106.004 83.3268 106.004 87.2051C106.003 87.9341 106.09 88.6606 106.262 89.369H110.872C112.078 88.0639 112.841 86.1459 112.841 84.0061Z" fill="#B67DBC"/>
<path d="M116.361 90.3146H106.261C106.05 90.3146 105.844 90.2436 105.678 90.1129C105.511 89.9823 105.394 89.7995 105.343 89.594C105.153 88.8121 105.058 88.0104 105.059 87.2058C105.059 82.8125 107.864 79.2383 111.311 79.2383C114.759 79.2383 117.564 82.8125 117.564 87.2058C117.565 88.0104 117.469 88.8121 117.279 89.594C117.229 89.7995 117.111 89.9823 116.945 90.1129C116.778 90.2436 116.573 90.3146 116.361 90.3146ZM107.038 88.4246H115.584C115.644 88.0211 115.674 87.6137 115.674 87.2058C115.674 83.8546 113.717 81.1283 111.311 81.1283C108.906 81.1283 106.949 83.8546 106.949 87.2058C106.948 87.6137 106.978 88.0211 107.038 88.4246Z" fill="#333333"/>
<g style="mix-blend-mode:hard-light">
<path d="M120.95 104.313H114.398V106.959H120.95V104.313Z" fill="#474747"/>
</g>
<path d="M120.951 107.526H114.399C114.248 107.526 114.104 107.466 113.998 107.36C113.891 107.254 113.832 107.109 113.832 106.959V104.313C113.832 104.163 113.891 104.018 113.998 103.912C114.104 103.806 114.248 103.746 114.399 103.746H120.951C121.101 103.746 121.245 103.806 121.352 103.912C121.458 104.018 121.518 104.163 121.518 104.313V106.959C121.518 107.109 121.458 107.254 121.352 107.36C121.245 107.466 121.101 107.526 120.951 107.526ZM114.966 106.392H120.384V104.88H114.966V106.392Z" fill="#333333"/>
<g style="mix-blend-mode:hard-light">
<path d="M120.95 115.4H114.398V118.046H120.95V115.4Z" fill="#474747"/>
</g>
<path d="M120.951 118.613H114.399C114.248 118.613 114.104 118.553 113.998 118.447C113.891 118.341 113.832 118.196 113.832 118.046V115.4C113.832 115.25 113.891 115.105 113.998 114.999C114.104 114.893 114.248 114.833 114.399 114.833H120.951C121.101 114.833 121.245 114.893 121.352 114.999C121.458 115.105 121.518 115.25 121.518 115.4V118.046C121.518 118.196 121.458 118.341 121.352 118.447C121.245 118.553 121.101 118.613 120.951 118.613ZM114.966 117.479H120.384V115.967H114.966V117.479Z" fill="#333333"/>
<path d="M111.941 126.914H106.649V123.465H114.965L111.941 126.914Z" fill="#333333"/>
<path d="M111.942 127.859H106.65C106.399 127.859 106.159 127.76 105.981 127.582C105.804 127.405 105.705 127.165 105.705 126.914V123.465C105.705 123.214 105.804 122.974 105.981 122.796C106.159 122.619 106.399 122.52 106.65 122.52H114.966C115.147 122.519 115.325 122.572 115.478 122.67C115.631 122.769 115.752 122.909 115.827 123.075C115.902 123.24 115.928 123.424 115.901 123.604C115.874 123.783 115.796 123.952 115.676 124.088L112.652 127.538C112.563 127.639 112.454 127.72 112.332 127.775C112.209 127.831 112.076 127.859 111.942 127.859ZM107.595 125.969H111.513L112.88 124.41H107.595V125.969Z" fill="#333333"/>
<path d="M123.408 126.914H128.7V123.465H120.384L123.408 126.914Z" fill="#333333"/>
<path d="M128.7 127.859H123.408C123.273 127.859 123.14 127.831 123.018 127.775C122.895 127.72 122.786 127.639 122.697 127.538L119.673 124.088C119.553 123.952 119.475 123.783 119.448 123.604C119.422 123.424 119.447 123.24 119.522 123.075C119.597 122.909 119.718 122.769 119.871 122.67C120.024 122.572 120.202 122.519 120.384 122.52H128.7C128.95 122.52 129.191 122.619 129.368 122.796C129.545 122.974 129.645 123.214 129.645 123.465V126.914C129.645 127.165 129.545 127.405 129.368 127.582C129.191 127.76 128.95 127.859 128.7 127.859ZM123.836 125.969H127.754V124.41H122.469L123.836 125.969Z" fill="#333333"/>
<g style="mix-blend-mode:screen" opacity="0.44">
<path d="M117.543 83.4952C117.723 83.0955 117.613 82.6559 117.297 82.5133C116.98 82.3706 116.578 82.5789 116.398 82.9785C116.217 83.3782 116.328 83.8178 116.644 83.9605C116.96 84.1031 117.363 83.8948 117.543 83.4952Z" fill="#B67DBC"/>
</g>
<path d="M51.8076 56.6441C51.7329 56.6441 51.6598 56.6219 51.5976 56.5804C51.5355 56.5389 51.4871 56.4798 51.4585 56.4108C51.4299 56.3417 51.4224 56.2657 51.4369 56.1924C51.4515 56.1191 51.4875 56.0518 51.5404 55.9989L56.7095 50.8297C56.7808 50.7609 56.8763 50.7228 56.9754 50.7236C57.0745 50.7245 57.1693 50.7643 57.2394 50.8343C57.3095 50.9044 57.3492 50.9992 57.3501 51.0983C57.351 51.1975 57.3129 51.2929 57.244 51.3642L52.0749 56.5334C52.0398 56.5686 51.9982 56.5965 51.9523 56.6155C51.9064 56.6345 51.8573 56.6442 51.8076 56.6441Z" fill="#333333"/>
<path d="M56.457 56.1403C56.3823 56.1402 56.3092 56.1181 56.2471 56.0765C56.1849 56.035 56.1365 55.976 56.1079 55.9069C56.0793 55.8378 56.0718 55.7619 56.0864 55.6885C56.1009 55.6152 56.1369 55.5479 56.1898 55.495L60.8549 50.8297C60.9262 50.7609 61.0216 50.7228 61.1207 50.7236C61.2199 50.7245 61.3147 50.7643 61.3848 50.8343C61.4548 50.9044 61.4946 50.9992 61.4955 51.0983C61.4963 51.1975 61.4582 51.2929 61.3894 51.3642L56.7235 56.0295C56.6528 56.1002 56.557 56.14 56.457 56.1403Z" fill="#333333"/>
<path d="M52.8325 59.7648C52.7578 59.7648 52.6847 59.7426 52.6225 59.701C52.5604 59.6595 52.512 59.6005 52.4834 59.5314C52.4548 59.4624 52.4473 59.3864 52.4618 59.313C52.4764 59.2397 52.5124 59.1724 52.5653 59.1195L54.4666 57.2182C54.5375 57.1473 54.6336 57.1074 54.7339 57.1074C54.8341 57.1074 54.9303 57.1472 55.0012 57.2181C55.0721 57.289 55.1119 57.3851 55.112 57.4854C55.112 57.5856 55.0722 57.6818 55.0013 57.7527L53.0998 59.6542C53.0647 59.6893 53.023 59.7172 52.9772 59.7362C52.9313 59.7551 52.8821 59.7649 52.8325 59.7648Z" fill="#333333"/>
<path d="M75.2124 41.5496C75.1376 41.5496 75.0646 41.5274 75.0024 41.4859C74.9403 41.4443 74.8918 41.3853 74.8632 41.3162C74.8346 41.2472 74.8272 41.1712 74.8417 41.0979C74.8563 41.0246 74.8923 40.9572 74.9451 40.9044L78.4732 37.3763C78.5083 37.3412 78.55 37.3134 78.5959 37.2944C78.6417 37.2754 78.6909 37.2656 78.7405 37.2656C78.7902 37.2656 78.8393 37.2754 78.8852 37.2944C78.931 37.3134 78.9727 37.3413 79.0078 37.3764C79.0429 37.4115 79.0707 37.4532 79.0897 37.499C79.1087 37.5449 79.1185 37.5941 79.1185 37.6437C79.1185 37.6933 79.1087 37.7425 79.0897 37.7884C79.0707 37.8342 79.0428 37.8759 79.0077 37.911L75.4796 41.439C75.4087 41.5099 75.3126 41.5496 75.2124 41.5496Z" fill="#333333"/>
<path d="M80.4917 40.6932C80.4169 40.6932 80.3439 40.671 80.2817 40.6295C80.2196 40.5879 80.1711 40.5289 80.1425 40.4599C80.1139 40.3908 80.1064 40.3148 80.121 40.2415C80.1356 40.1682 80.1716 40.1008 80.2244 40.048L81.5852 38.6872C81.6565 38.6183 81.752 38.5802 81.8511 38.5811C81.9502 38.5819 82.0451 38.6217 82.1151 38.6918C82.1852 38.7618 82.225 38.8567 82.2258 38.9558C82.2267 39.0549 82.1886 39.1504 82.1197 39.2217L80.7589 40.5825C80.6881 40.6533 80.5919 40.6932 80.4917 40.6932Z" fill="#333333"/>
<path d="M74.645 46.539C74.5703 46.539 74.4972 46.5168 74.4351 46.4753C74.3729 46.4337 74.3245 46.3747 74.2959 46.3056C74.2673 46.2366 74.2598 46.1606 74.2743 46.0873C74.2889 46.014 74.3249 45.9466 74.3778 45.8938L78.7125 41.5592C78.7838 41.4904 78.8793 41.4523 78.9784 41.4531C79.0775 41.454 79.1723 41.4938 79.2424 41.5638C79.3125 41.6339 79.3522 41.7287 79.3531 41.8278C79.3539 41.927 79.3158 42.0224 79.247 42.0937L74.9123 46.4283C74.8772 46.4634 74.8356 46.4913 74.7897 46.5103C74.7438 46.5293 74.6947 46.5391 74.645 46.539Z" fill="#333333"/>
<path d="M77.7182 66.5461C77.6435 66.5461 77.5704 66.5239 77.5083 66.4824C77.4461 66.4409 77.3977 66.3818 77.3691 66.3128C77.3405 66.2437 77.333 66.1677 77.3476 66.0944C77.3622 66.0211 77.3982 65.9537 77.451 65.9009L83.8297 59.5221C83.901 59.4533 83.9965 59.4152 84.0956 59.416C84.1947 59.4169 84.2896 59.4566 84.3596 59.5267C84.4297 59.5968 84.4695 59.6916 84.4703 59.7907C84.4712 59.8898 84.4331 59.9853 84.3642 60.0566L77.9855 66.4354C77.9146 66.5063 77.8185 66.5461 77.7182 66.5461Z" fill="#333333"/>
<path d="M76.7368 63.5744C76.6621 63.5744 76.589 63.5523 76.5268 63.5107C76.4647 63.4692 76.4163 63.4102 76.3877 63.3411C76.3591 63.272 76.3516 63.196 76.3661 63.1227C76.3807 63.0494 76.4167 62.9821 76.4696 62.9292L79.345 60.0534C79.4163 59.9845 79.5118 59.9464 79.6109 59.9473C79.71 59.9481 79.8048 59.9879 79.8749 60.058C79.945 60.1281 79.9847 60.2229 79.9856 60.322C79.9865 60.4211 79.9484 60.5166 79.8795 60.5879L77.0035 63.4637C76.9327 63.5344 76.8369 63.5743 76.7368 63.5744Z" fill="#333333"/>
<path d="M52.7791 28.058C52.5609 28.0583 52.3494 27.983 52.1803 27.845C52.0113 27.707 51.8953 27.5148 51.8519 27.3009C51.8085 27.0871 51.8405 26.8648 51.9423 26.6718C52.0442 26.4789 52.2097 26.3271 52.4108 26.2423L56.3002 24.598C56.5311 24.5004 56.7912 24.4985 57.0235 24.5928C57.2557 24.687 57.441 24.8696 57.5386 25.1005C57.6362 25.3313 57.6381 25.5915 57.5439 25.8238C57.4497 26.056 57.267 26.2413 57.0362 26.3389L53.1467 27.9832C53.0304 28.0325 52.9054 28.0579 52.7791 28.058Z" fill="#333333"/>
<path d="M51.271 24.9017H46.861C46.6104 24.9017 46.37 24.8022 46.1928 24.6249C46.0156 24.4477 45.916 24.2073 45.916 23.9567C45.916 23.7061 46.0156 23.4657 46.1928 23.2885C46.37 23.1113 46.6104 23.0117 46.861 23.0117H51.271C51.5216 23.0117 51.7619 23.1113 51.9392 23.2885C52.1164 23.4657 52.216 23.7061 52.216 23.9567C52.216 24.2073 52.1164 24.4477 51.9392 24.6249C51.7619 24.8022 51.5216 24.9017 51.271 24.9017Z" fill="#333333"/>
<path d="M46.8613 27.4769H42.4523C42.2017 27.4769 41.9613 27.3774 41.7841 27.2001C41.6069 27.0229 41.5073 26.7825 41.5073 26.5319C41.5073 26.2813 41.6069 26.0409 41.7841 25.8637C41.9613 25.6865 42.2017 25.5869 42.4523 25.5869H46.8623C47.1129 25.5869 47.3533 25.6865 47.5305 25.8637C47.7077 26.0409 47.8073 26.2813 47.8073 26.5319C47.8073 26.7825 47.7077 27.0229 47.5305 27.2001C47.3533 27.3774 47.1129 27.4769 46.8623 27.4769H46.8613Z" fill="#333333"/>
<path d="M30.1772 67.6064H9.38721V70.6304H30.1772V67.6064Z" fill="#6A6A68"/>
<path d="M30.1774 71.5751H9.38738C9.13675 71.5751 8.89639 71.4756 8.71917 71.2983C8.54194 71.1211 8.44238 70.8808 8.44238 70.6301V67.6061C8.44238 67.3555 8.54194 67.1151 8.71917 66.9379C8.89639 66.7607 9.13675 66.6611 9.38738 66.6611H30.1774C30.428 66.6611 30.6684 66.7607 30.8456 66.9379C31.0228 67.1151 31.1224 67.3555 31.1224 67.6061V70.6301C31.1224 70.8808 31.0228 71.1211 30.8456 71.2983C30.6684 71.4756 30.428 71.5751 30.1774 71.5751ZM10.3324 69.6851H29.2324V68.5511H10.3324V69.6851Z" fill="#333333"/>
<path d="M19.778 46.8098C19.6527 46.8098 19.5325 46.76 19.4439 46.6714C19.3553 46.5828 19.3055 46.4626 19.3055 46.3373V34.0018L16.0866 31.5017C15.9897 31.4242 15.9271 31.3116 15.9125 31.1883C15.8978 31.065 15.9323 30.941 16.0085 30.8429C16.0846 30.7448 16.1963 30.6807 16.3193 30.6643C16.4424 30.6479 16.567 30.6806 16.6661 30.7554L20.0681 33.3968C20.125 33.441 20.171 33.4975 20.2027 33.5622C20.2344 33.6269 20.2509 33.6979 20.2509 33.7699V46.3373C20.2509 46.3994 20.2386 46.4608 20.2149 46.5182C20.1911 46.5755 20.1563 46.6276 20.1124 46.6715C20.0684 46.7154 20.0163 46.7502 19.9589 46.7739C19.9016 46.7976 19.8401 46.8098 19.778 46.8098Z" fill="#333333"/>
<path d="M21.4832 47.1886C21.3579 47.1886 21.2377 47.1389 21.1491 47.0502C21.0605 46.9616 21.0107 46.8415 21.0107 46.7161V40.4325C21.0107 40.3071 21.0605 40.187 21.1491 40.0983C21.2377 40.0097 21.3579 39.96 21.4832 39.96C21.6086 39.96 21.7287 40.0097 21.8174 40.0983C21.906 40.187 21.9557 40.3071 21.9557 40.4325V46.7161C21.9557 46.8415 21.906 46.9616 21.8174 47.0502C21.7287 47.1389 21.6086 47.1886 21.4832 47.1886Z" fill="#333333"/>
<path d="M17.8192 46.8727C17.6939 46.8727 17.5737 46.823 17.4851 46.7344C17.3965 46.6457 17.3467 46.5256 17.3467 46.4002V35.8162C17.3467 35.6909 17.3965 35.5708 17.4851 35.4821C17.5737 35.3935 17.6939 35.3438 17.8192 35.3438C17.9445 35.3438 18.0647 35.3935 18.1533 35.4821C18.2419 35.5708 18.2917 35.6909 18.2917 35.8162V46.4002C18.2917 46.5256 18.2419 46.6457 18.1533 46.7344C18.0647 46.823 17.9445 46.8727 17.8192 46.8727Z" fill="#333333"/>
<path d="M23.0895 56.6274V44.3594H16.4745V56.6272C16.4742 56.8352 16.4302 57.0408 16.3454 57.2307C16.2605 57.4207 16.1368 57.5907 15.9822 57.7298C15.1312 58.4981 14.5332 59.5063 14.2669 60.6214C14.0006 61.7365 14.0786 62.9062 14.4906 63.9761C14.9027 65.0459 15.6294 65.9658 16.5748 66.6142C17.5203 67.2627 18.6401 67.6093 19.7866 67.6083C20.9331 67.6074 22.0523 67.2589 22.9967 66.6088C23.9411 65.9587 24.6662 65.0377 25.0764 63.9671C25.4867 62.8965 25.5627 61.7268 25.2945 60.6121C25.0264 59.4974 24.4266 58.4902 23.5743 57.7234C23.4213 57.5848 23.299 57.4157 23.2155 57.2269C23.132 57.0381 23.0891 56.8338 23.0895 56.6274Z" fill="#7D80BA"/>
<g style="mix-blend-mode:screen" opacity="0.6">
<g style="mix-blend-mode:screen">
<path d="M25.4524 58.5893C25.3322 58.3686 25.1976 58.1561 25.0493 57.9531C25.1259 58.1967 25.2649 58.4161 25.4524 58.5893Z" fill="#7D80BA"/>
</g>
<g style="mix-blend-mode:screen">
<path d="M16.0068 63.0359C15.9737 62.2063 16.1238 61.3795 16.4464 60.6144C16.769 59.8493 17.2561 59.1646 17.8731 58.609C18.0276 58.4698 18.1512 58.2997 18.2358 58.1098C18.3205 57.9199 18.3643 57.7143 18.3645 57.5064V45.2386H23.7822V43.7266H17.1672V55.9944C17.167 56.2023 17.1232 56.4079 17.0385 56.5978C16.9539 56.7877 16.8303 56.9578 16.6758 57.097C16.0856 57.6282 15.614 58.2779 15.2916 59.0036C14.9693 59.7293 14.8036 60.5148 14.8052 61.3089C14.8068 62.103 14.9758 62.8878 15.3011 63.6122C15.6263 64.3366 16.1006 64.9844 16.693 65.5132C16.2752 64.7518 16.0402 63.9037 16.0068 63.0359Z" fill="#7D80BA"/>
</g>
</g>
<path d="M19.7885 68.5511C19.6469 68.5511 19.5047 68.5467 19.3621 68.5378C18.0635 68.4555 16.818 67.9919 15.7816 67.2051C14.7452 66.4183 13.964 65.3433 13.5356 64.1146C13.1073 62.8859 13.0509 61.5581 13.3735 60.2975C13.6962 59.037 14.3835 57.8996 15.3494 57.0277C15.406 56.9772 15.4512 56.9153 15.4824 56.8462C15.5136 56.777 15.5299 56.7021 15.5303 56.6263V44.3591C15.5303 44.1084 15.6299 43.8681 15.8071 43.6908C15.9843 43.5136 16.2247 43.4141 16.4753 43.4141H23.0903C23.3409 43.4141 23.5813 43.5136 23.7585 43.6908C23.9358 43.8681 24.0353 44.1084 24.0353 44.3591V56.627C24.0349 56.7011 24.05 56.7744 24.0797 56.8422C24.1094 56.91 24.153 56.9708 24.2077 57.0207C24.8882 57.6328 25.4342 58.3795 25.8111 59.2135C26.1881 60.0475 26.3878 60.9507 26.3976 61.8659C26.4075 62.7811 26.2272 63.6884 25.8683 64.5303C25.5094 65.3722 24.9795 66.1305 24.3124 66.7571C23.0907 67.9137 21.4709 68.5561 19.7885 68.5511ZM17.4203 45.3041V56.6269C17.4196 56.967 17.3478 57.3032 17.2093 57.6138C17.0709 57.9245 16.869 58.2028 16.6165 58.4307C15.9073 59.0709 15.4088 59.911 15.1868 60.8403C14.9649 61.7696 15.0298 62.7444 15.3731 63.636C15.7165 64.5276 16.322 65.2942 17.1099 65.8346C17.8978 66.375 18.8311 66.6639 19.7865 66.6631C20.7419 66.6623 21.6747 66.3718 22.4617 65.8301C23.2487 65.2884 23.8529 64.5208 24.1948 63.6286C24.5366 62.7364 24.5999 61.7616 24.3764 60.8326C24.1529 59.9037 23.653 59.0644 22.9427 58.4254C22.6913 58.1981 22.4904 57.9206 22.353 57.6109C22.2156 57.3011 22.1447 56.9659 22.1449 56.627V45.3041H17.4203Z" fill="#333333"/>
<path d="M19.7787 37.455C19.6774 37.4552 19.5788 37.4227 19.4974 37.3626C19.416 37.3024 19.356 37.2177 19.3264 37.1209C19.2967 37.0241 19.299 36.9203 19.3328 36.8248C19.3666 36.7294 19.4301 36.6473 19.5141 36.5907L22.0495 34.8801V31.1296C22.0495 31.0664 22.0622 31.0039 22.0867 30.9458C22.1113 30.8876 22.1473 30.8349 22.1926 30.7909L23.9935 29.04C24.0834 28.9526 24.2043 28.9045 24.3296 28.9063C24.4549 28.9081 24.5744 28.9595 24.6618 29.0494C24.7491 29.1392 24.7972 29.2601 24.7955 29.3854C24.7937 29.5107 24.7423 29.6302 24.6524 29.7176L22.9945 31.3292V35.132C22.9945 35.2093 22.9756 35.2855 22.9393 35.3537C22.9031 35.422 22.8506 35.4804 22.7866 35.5237L20.0431 37.3747C19.965 37.4273 19.8728 37.4553 19.7787 37.455Z" fill="#333333"/>
<path d="M22.5218 31.6023C22.3965 31.6023 22.2763 31.5525 22.1877 31.4639C22.0991 31.3753 22.0493 31.2551 22.0493 31.1298V22.5995C22.0493 22.4741 22.0991 22.354 22.1877 22.2653C22.2763 22.1767 22.3965 22.127 22.5218 22.127C22.6471 22.127 22.7673 22.1767 22.8559 22.2653C22.9445 22.354 22.9943 22.4741 22.9943 22.5995V31.1298C22.9943 31.2551 22.9445 31.3753 22.8559 31.4639C22.7673 31.5525 22.6471 31.6023 22.5218 31.6023Z" fill="#333333"/>
<path d="M22.5214 27.0039C22.4124 27.004 22.3067 26.9662 22.2224 26.897L19.4789 24.6505C19.4302 24.6114 19.3898 24.5631 19.3599 24.5082C19.33 24.4534 19.3113 24.3932 19.3048 24.3311C19.2983 24.269 19.3042 24.2063 19.3221 24.1465C19.34 24.0866 19.3696 24.031 19.4092 23.9827C19.4488 23.9344 19.4975 23.8944 19.5526 23.865C19.6077 23.8357 19.6681 23.8175 19.7302 23.8117C19.7924 23.8058 19.8551 23.8123 19.9147 23.8308C19.9744 23.8493 20.0298 23.8794 20.0777 23.9194L22.8212 26.1659C22.8966 26.2277 22.9511 26.3112 22.9771 26.4052C23.0031 26.4991 22.9995 26.5988 22.9667 26.6906C22.9338 26.7823 22.8734 26.8617 22.7937 26.9178C22.714 26.9739 22.6189 27.004 22.5214 27.0039Z" fill="#333333"/>
<path d="M17.8188 40.9044C17.7105 40.9044 17.6055 40.8672 17.5215 40.7989L15.5115 39.1697C15.4633 39.1307 15.4232 39.0825 15.3936 39.028C15.364 38.9734 15.3455 38.9136 15.339 38.8519C15.3325 38.7901 15.3383 38.7278 15.3559 38.6683C15.3736 38.6088 15.4028 38.5533 15.4418 38.5051C15.4809 38.4569 15.5291 38.4169 15.5836 38.3873C15.6382 38.3577 15.698 38.3391 15.7597 38.3327C15.8214 38.3262 15.8838 38.3319 15.9433 38.3496C16.0028 38.3672 16.0582 38.3964 16.1064 38.4355L18.1166 40.0648C18.1925 40.1264 18.2475 40.2099 18.2739 40.3039C18.3004 40.3979 18.2971 40.4978 18.2644 40.5899C18.2317 40.6819 18.1713 40.7616 18.0915 40.8179C18.0117 40.8742 17.9165 40.9044 17.8188 40.9044Z" fill="#333333"/>
<g style="mix-blend-mode:screen" opacity="0.6">
<path d="M19.1925 62.1649C19.4771 61.6663 19.4189 61.0972 19.0626 60.8938C18.7062 60.6904 18.1866 60.9297 17.902 61.4283C17.6174 61.9269 17.6756 62.496 18.032 62.6994C18.3883 62.9028 18.9079 62.6635 19.1925 62.1649Z" fill="#7D80BA"/>
</g>
<path d="M85.4171 137.04H70.4494C70.1988 137.04 69.9584 136.941 69.7812 136.764C69.604 136.586 69.5044 136.346 69.5044 136.095C69.5044 135.845 69.604 135.604 69.7812 135.427C69.9584 135.25 70.1988 135.15 70.4494 135.15H85.4171C85.6677 135.15 85.9081 135.25 86.0853 135.427C86.2625 135.604 86.3621 135.845 86.3621 136.095C86.3621 136.346 86.2625 136.586 86.0853 136.764C85.9081 136.941 85.6677 137.04 85.4171 137.04Z" fill="#1D2F3D"/>
<path d="M66.2663 137.04H63.8737C63.6231 137.04 63.3827 136.941 63.2055 136.764C63.0283 136.586 62.9287 136.346 62.9287 136.095C62.9287 135.845 63.0283 135.604 63.2055 135.427C63.3827 135.25 63.6231 135.15 63.8737 135.15H66.2663C66.5169 135.15 66.7573 135.25 66.9345 135.427C67.1117 135.604 67.2113 135.845 67.2113 136.095C67.2113 136.346 67.1117 136.586 66.9345 136.764C66.7573 136.941 66.5169 137.04 66.2663 137.04Z" fill="#1D2F3D"/>
</svg>
