<svg width="156" height="156" viewBox="0 0 156 156" fill="none" xmlns="http://www.w3.org/2000/svg">
<path d="M27.3771 49.8784H15.6852C15.5348 49.8784 15.3906 49.8187 15.2842 49.7123C15.1779 49.606 15.1182 49.4618 15.1182 49.3114C15.1182 49.161 15.1779 49.0168 15.2842 48.9105C15.3906 48.8041 15.5348 48.7444 15.6852 48.7444H26.8101V43.4654C26.8101 43.3151 26.8698 43.1708 26.9762 43.0645C27.0825 42.9582 27.2267 42.8984 27.3771 42.8984C27.5275 42.8984 27.6717 42.9582 27.778 43.0645C27.8843 43.1708 27.9441 43.3151 27.9441 43.4654V49.3114C27.9441 49.3859 27.9294 49.4596 27.9009 49.5284C27.8724 49.5972 27.8307 49.6597 27.778 49.7123C27.7254 49.765 27.6629 49.8067 27.5941 49.8352C27.5253 49.8637 27.4515 49.8784 27.3771 49.8784Z" fill="#78C199"/>
<path d="M39.069 49.8784H27.3771C27.2267 49.8784 27.0825 49.8187 26.9761 49.7123C26.8698 49.606 26.8101 49.4618 26.8101 49.3114V43.4654C26.8101 43.3151 26.8698 43.1708 26.9761 43.0645C27.0825 42.9582 27.2267 42.8984 27.3771 42.8984C27.5274 42.8984 27.6717 42.9582 27.778 43.0645C27.8843 43.1708 27.9441 43.3151 27.9441 43.4654V48.7444H39.069C39.2194 48.7444 39.3636 48.8041 39.4699 48.9105C39.5762 49.0168 39.636 49.161 39.636 49.3114C39.636 49.4618 39.5762 49.606 39.4699 49.7123C39.3636 49.8187 39.2194 49.8784 39.069 49.8784Z" fill="#78C199"/>
<path d="M33.2228 55.7249H21.5309C21.3805 55.7249 21.2363 55.6652 21.1299 55.5588C21.0236 55.4525 20.9639 55.3083 20.9639 55.1579V49.3121C20.9639 49.1617 21.0236 49.0175 21.1299 48.9112C21.2363 48.8049 21.3805 48.7451 21.5309 48.7451H33.2228C33.3732 48.7451 33.5174 48.8049 33.6237 48.9112C33.73 49.0175 33.7898 49.1617 33.7898 49.3121V55.1579C33.7898 55.3083 33.73 55.4525 33.6237 55.5588C33.5174 55.6652 33.3732 55.7249 33.2228 55.7249ZM22.0979 54.5909H32.6558V49.8791H22.0979V54.5909Z" fill="#78C199"/>
<path d="M30.6993 61.571H27.3771C27.2267 61.571 27.0825 61.5112 26.9761 61.4049C26.8698 61.2986 26.8101 61.1543 26.8101 61.004V55.1578C26.8101 55.0074 26.8698 54.8632 26.9761 54.7569C27.0825 54.6506 27.2267 54.5908 27.3771 54.5908H39.069C39.2194 54.5908 39.3636 54.6506 39.4699 54.7569C39.5762 54.8632 39.636 55.0074 39.636 55.1578C39.636 55.3082 39.5762 55.4524 39.4699 55.5588C39.3636 55.6651 39.2194 55.7248 39.069 55.7248H27.9441V60.437H30.6993C30.8497 60.437 30.9939 60.4967 31.1002 60.603C31.2066 60.7094 31.2663 60.8536 31.2663 61.004C31.2663 61.1543 31.2066 61.2986 31.1002 61.4049C30.9939 61.5112 30.8497 61.571 30.6993 61.571Z" fill="#78C199"/>
<path d="M27.3771 61.571H17.8965C17.7461 61.571 17.6019 61.5112 17.4955 61.4049C17.3892 61.2986 17.3295 61.1543 17.3295 61.004C17.3295 60.8536 17.3892 60.7094 17.4955 60.603C17.6019 60.4967 17.7461 60.437 17.8965 60.437H26.8101V55.7248H15.6852C15.5348 55.7248 15.3906 55.6651 15.2842 55.5588C15.1779 55.4524 15.1182 55.3082 15.1182 55.1578C15.1182 55.0074 15.1779 54.8632 15.2842 54.7569C15.3906 54.6506 15.5348 54.5908 15.6852 54.5908H27.3771C27.5275 54.5908 27.6717 54.6506 27.778 54.7569C27.8843 54.8632 27.9441 55.0074 27.9441 55.1578V61.004C27.9441 61.1543 27.8843 61.2986 27.778 61.4049C27.6717 61.5112 27.5275 61.571 27.3771 61.571Z" fill="#78C199"/>
<path d="M21.5307 55.7249H15.6848C15.5344 55.7249 15.3902 55.6652 15.2838 55.5588C15.1775 55.4525 15.1178 55.3083 15.1178 55.1579C15.1178 55.0075 15.1775 54.8633 15.2838 54.757C15.3902 54.6506 15.5344 54.5909 15.6848 54.5909H20.9637V49.8791H11.6993C11.5489 49.8791 11.4047 49.8194 11.2984 49.713C11.1921 49.6067 11.1323 49.4625 11.1323 49.3121C11.1323 49.1617 11.1921 49.0175 11.2984 48.9112C11.4047 48.8049 11.5489 48.7451 11.6993 48.7451H21.5307C21.6811 48.7451 21.8253 48.8049 21.9317 48.9112C22.038 49.0175 22.0977 49.1617 22.0977 49.3121V55.1579C22.0977 55.3083 22.038 55.4525 21.9317 55.5588C21.8253 55.6652 21.6811 55.7249 21.5307 55.7249Z" fill="#78C199"/>
<path d="M41.6601 55.7249H33.2228C33.0724 55.7249 32.9282 55.6652 32.8218 55.5588C32.7155 55.4525 32.6558 55.3083 32.6558 55.1579V49.3121C32.6558 49.1617 32.7155 49.0175 32.8218 48.9112C32.9282 48.8049 33.0724 48.7451 33.2228 48.7451H37.2755C37.4259 48.7451 37.5701 48.8049 37.6764 48.9112C37.7828 49.0175 37.8425 49.1617 37.8425 49.3121C37.8425 49.4625 37.7828 49.6067 37.6764 49.713C37.5701 49.8194 37.4259 49.8791 37.2755 49.8791H33.7898V54.5909H41.6601C41.8105 54.5909 41.9547 54.6506 42.061 54.757C42.1674 54.8633 42.2271 55.0075 42.2271 55.1579C42.2271 55.3083 42.1674 55.4525 42.061 55.5588C41.9547 55.6652 41.8105 55.7249 41.6601 55.7249Z" fill="#78C199"/>
<path d="M135.973 70.7925H124.281C124.13 70.7925 123.986 70.7327 123.88 70.6264C123.774 70.5201 123.714 70.3758 123.714 70.2255C123.714 70.0751 123.774 69.9309 123.88 69.8245C123.986 69.7182 124.13 69.6585 124.281 69.6585H135.406V64.3795C135.406 64.2291 135.466 64.0849 135.572 63.9786C135.678 63.8722 135.823 63.8125 135.973 63.8125C136.123 63.8125 136.268 63.8722 136.374 63.9786C136.48 64.0849 136.54 64.2291 136.54 64.3795V70.2255C136.54 70.3758 136.48 70.5201 136.374 70.6264C136.268 70.7327 136.123 70.7925 135.973 70.7925Z" fill="#78C199"/>
<path d="M147.664 70.7925H135.973C135.822 70.7925 135.678 70.7327 135.572 70.6264C135.465 70.5201 135.406 70.3758 135.406 70.2255V64.3795C135.406 64.2291 135.465 64.0849 135.572 63.9786C135.678 63.8722 135.822 63.8125 135.973 63.8125C136.123 63.8125 136.267 63.8722 136.374 63.9786C136.48 64.0849 136.54 64.2291 136.54 64.3795V69.6585H147.664C147.815 69.6585 147.959 69.7182 148.065 69.8245C148.172 69.9309 148.231 70.0751 148.231 70.2255C148.231 70.3758 148.172 70.5201 148.065 70.6264C147.959 70.7327 147.815 70.7925 147.664 70.7925Z" fill="#78C199"/>
<path d="M141.818 76.6382H130.127C129.976 76.6382 129.832 76.5784 129.726 76.4721C129.619 76.3658 129.56 76.2215 129.56 76.0712V70.2252C129.56 70.0748 129.619 69.9306 129.726 69.8243C129.832 69.7179 129.976 69.6582 130.127 69.6582H141.818C141.969 69.6582 142.113 69.7179 142.219 69.8243C142.326 69.9306 142.385 70.0748 142.385 70.2252V76.0712C142.385 76.1456 142.371 76.2193 142.342 76.2881C142.314 76.3569 142.272 76.4194 142.219 76.4721C142.167 76.5247 142.104 76.5665 142.035 76.595C141.967 76.6235 141.893 76.6382 141.818 76.6382ZM130.694 75.5042H141.251V70.7922H130.694V75.5042Z" fill="#78C199"/>
<path d="M139.295 82.4835H135.973C135.822 82.4835 135.678 82.4237 135.572 82.3174C135.465 82.2111 135.406 82.0669 135.406 81.9165V76.0709C135.406 75.9205 135.465 75.7763 135.572 75.67C135.678 75.5636 135.822 75.5039 135.973 75.5039H147.664C147.815 75.5039 147.959 75.5636 148.065 75.67C148.172 75.7763 148.231 75.9205 148.231 76.0709C148.231 76.2213 148.172 76.3655 148.065 76.4718C147.959 76.5782 147.815 76.6379 147.664 76.6379H136.54V81.3495H139.295C139.445 81.3495 139.589 81.4092 139.696 81.5156C139.802 81.6219 139.862 81.7661 139.862 81.9165C139.862 82.0669 139.802 82.2111 139.696 82.3174C139.589 82.4237 139.445 82.4835 139.295 82.4835Z" fill="#78C199"/>
<path d="M135.973 82.4835H126.492C126.342 82.4835 126.197 82.4237 126.091 82.3174C125.985 82.2111 125.925 82.0669 125.925 81.9165C125.925 81.7661 125.985 81.6219 126.091 81.5156C126.197 81.4092 126.342 81.3495 126.492 81.3495H135.406V76.6379H124.281C124.13 76.6379 123.986 76.5782 123.88 76.4718C123.774 76.3655 123.714 76.2213 123.714 76.0709C123.714 75.9205 123.774 75.7763 123.88 75.67C123.986 75.5636 124.13 75.5039 124.281 75.5039H135.973C136.123 75.5039 136.268 75.5636 136.374 75.67C136.48 75.7763 136.54 75.9205 136.54 76.0709V81.9165C136.54 82.0669 136.48 82.2111 136.374 82.3174C136.268 82.4237 136.123 82.4835 135.973 82.4835Z" fill="#78C199"/>
<path d="M130.127 76.6382H124.281C124.131 76.6382 123.986 76.5784 123.88 76.4721C123.774 76.3658 123.714 76.2215 123.714 76.0712C123.714 75.9208 123.774 75.7766 123.88 75.6702C123.986 75.5639 124.131 75.5042 124.281 75.5042H129.56V70.7922H120.296C120.145 70.7922 120.001 70.7325 119.895 70.6261C119.788 70.5198 119.729 70.3756 119.729 70.2252C119.729 70.0748 119.788 69.9306 119.895 69.8243C120.001 69.7179 120.145 69.6582 120.296 69.6582H130.127C130.277 69.6582 130.422 69.7179 130.528 69.8243C130.634 69.9306 130.694 70.0748 130.694 70.2252V76.0712C130.694 76.1456 130.679 76.2193 130.651 76.2881C130.622 76.3569 130.581 76.4194 130.528 76.4721C130.475 76.5247 130.413 76.5665 130.344 76.595C130.275 76.6235 130.201 76.6382 130.127 76.6382Z" fill="#8DC6BF"/>
<path d="M150.256 76.6382H141.818C141.668 76.6382 141.524 76.5784 141.418 76.4721C141.311 76.3658 141.251 76.2215 141.251 76.0712V70.2252C141.251 70.0748 141.311 69.9306 141.418 69.8243C141.524 69.7179 141.668 69.6582 141.818 69.6582H145.871C146.022 69.6582 146.166 69.7179 146.272 69.8243C146.379 69.9306 146.438 70.0748 146.438 70.2252C146.438 70.3756 146.379 70.5198 146.272 70.6261C146.166 70.7325 146.022 70.7922 145.871 70.7922H142.385V75.5042H150.256C150.406 75.5042 150.55 75.5639 150.657 75.6702C150.763 75.7766 150.823 75.9208 150.823 76.0712C150.823 76.2215 150.763 76.3658 150.657 76.4721C150.55 76.5784 150.406 76.6382 150.256 76.6382Z" fill="#78C199"/>
<path d="M149.152 127.938H144.427C144.176 127.938 143.936 127.838 143.759 127.661C143.581 127.484 143.482 127.243 143.482 126.993C143.482 126.742 143.581 126.502 143.759 126.325C143.936 126.147 144.176 126.048 144.427 126.048H149.152C149.403 126.048 149.643 126.147 149.82 126.325C149.997 126.502 150.097 126.742 150.097 126.993C150.097 127.243 149.997 127.484 149.82 127.661C149.643 127.838 149.403 127.938 149.152 127.938Z" fill="#1D2F3D"/>
<path d="M140.096 127.938H67.4411C67.1905 127.938 66.9501 127.838 66.7729 127.661C66.5957 127.484 66.4961 127.243 66.4961 126.993C66.4961 126.742 66.5957 126.502 66.7729 126.325C66.9501 126.147 67.1905 126.048 67.4411 126.048H140.096C140.346 126.048 140.587 126.147 140.764 126.325C140.941 126.502 141.041 126.742 141.041 126.993C141.041 127.243 140.941 127.484 140.764 127.661C140.587 127.838 140.346 127.938 140.096 127.938Z" fill="#1D2F3D"/>
<path d="M64.543 127.938H60.9206C60.67 127.938 60.4296 127.838 60.2524 127.661C60.0752 127.484 59.9756 127.243 59.9756 126.993C59.9756 126.742 60.0752 126.502 60.2524 126.325C60.4296 126.147 60.67 126.048 60.9206 126.048H64.543C64.7936 126.048 65.034 126.147 65.2112 126.325C65.3884 126.502 65.488 126.742 65.488 126.993C65.488 127.243 65.3884 127.484 65.2112 127.661C65.034 127.838 64.7936 127.938 64.543 127.938Z" fill="#1D2F3D"/>
<path d="M57.6758 127.938H6.945C6.69437 127.938 6.45401 127.838 6.27678 127.661C6.09956 127.484 6 127.243 6 126.993C6 126.742 6.09956 126.502 6.27678 126.325C6.45401 126.147 6.69437 126.048 6.945 126.048H57.6758C57.9264 126.048 58.1668 126.147 58.344 126.325C58.5212 126.502 58.6208 126.742 58.6208 126.993C58.6208 127.243 58.5212 127.484 58.344 127.661C58.1668 127.838 57.9264 127.938 57.6758 127.938Z" fill="#1D2F3D"/>
<path d="M132.142 127.931H125.338C125.087 127.931 124.847 127.831 124.669 127.654C124.492 127.477 124.393 127.237 124.393 126.986V122.45C124.393 122.199 124.492 121.959 124.669 121.782C124.847 121.604 125.087 121.505 125.338 121.505H132.142C132.392 121.505 132.633 121.604 132.81 121.782C132.987 121.959 133.087 122.199 133.087 122.45V126.986C133.087 127.237 132.987 127.477 132.81 127.654C132.633 127.831 132.392 127.931 132.142 127.931ZM126.283 126.041H131.197V123.395H126.283V126.041Z" fill="#1D2F3D"/>
<path d="M132.142 122.45H125.338V126.986H132.142V122.45Z" fill="#1D2F3D"/>
<path d="M36.1299 127.931H29.3259C29.0752 127.931 28.8349 127.831 28.6576 127.654C28.4804 127.477 28.3809 127.237 28.3809 126.986V122.45C28.3809 122.199 28.4804 121.959 28.6576 121.782C28.8349 121.604 29.0752 121.505 29.3259 121.505H36.1299C36.3805 121.505 36.6209 121.604 36.7981 121.782C36.9753 121.959 37.0749 122.199 37.0749 122.45V126.986C37.0749 127.237 36.9753 127.477 36.7981 127.654C36.6209 127.831 36.3805 127.931 36.1299 127.931ZM30.2709 126.041H35.1849V123.395H30.2709V126.041Z" fill="#1D2F3D"/>
<path d="M36.1297 122.45H29.3257V126.986H36.1297V122.45Z" fill="#1D2F3D"/>
<path d="M140.095 117.158H21.3721V122.45H140.095V117.158Z" fill="#E7E0D0"/>
<path d="M140.096 123.395H21.3722C21.1216 123.395 20.8813 123.295 20.704 123.118C20.5268 122.941 20.4272 122.701 20.4272 122.45V117.158C20.4272 116.907 20.5268 116.667 20.704 116.49C20.8813 116.312 21.1216 116.213 21.3722 116.213H140.096C140.346 116.213 140.587 116.312 140.764 116.49C140.941 116.667 141.041 116.907 141.041 117.158V122.45C141.041 122.701 140.941 122.941 140.764 123.118C140.587 123.295 140.346 123.395 140.096 123.395ZM22.3172 121.505H139.151V118.103H22.3172V121.505Z" fill="#1D2F3D"/>
<path d="M140.095 89.5645H21.3721V92.9665H140.095V89.5645Z" fill="#E7E0D0"/>
<path d="M140.096 93.9111H21.3722C21.1216 93.9111 20.8813 93.8116 20.704 93.6344C20.5268 93.4571 20.4272 93.2168 20.4272 92.9661V89.5641C20.4272 89.3135 20.5268 89.0731 20.704 88.8959C20.8813 88.7187 21.1216 88.6191 21.3722 88.6191H140.096C140.346 88.6191 140.587 88.7187 140.764 88.8959C140.941 89.0731 141.041 89.3135 141.041 89.5641V92.9661C141.041 93.2168 140.941 93.4571 140.764 93.6344C140.587 93.8116 140.346 93.9111 140.096 93.9111ZM22.3172 92.0211H139.151V90.5091H22.3172V92.0211Z" fill="#1D2F3D"/>
<path d="M137.434 92.9658H80.7339V117.158H137.434V92.9658Z" fill="#E7E0D0"/>
<path d="M137.434 118.103H80.7336C80.4829 118.103 80.2426 118.004 80.0654 117.827C79.8881 117.649 79.7886 117.409 79.7886 117.158V92.9665C79.7886 92.7159 79.8881 92.4755 80.0654 92.2983C80.2426 92.121 80.4829 92.0215 80.7336 92.0215H137.434C137.684 92.0215 137.925 92.121 138.102 92.2983C138.279 92.4755 138.379 92.7159 138.379 92.9665V117.158C138.379 117.409 138.279 117.649 138.102 117.827C137.925 118.004 137.684 118.103 137.434 118.103ZM81.6786 116.213H136.489V93.9115H81.6786V116.213Z" fill="#1D2F3D"/>
<path opacity="0.23" d="M137.434 92.9658H86.1726H80.7339V97.8588V117.158H86.1726V97.8588H137.434V92.9658Z" fill="#1D2F3D"/>
<path d="M80.7337 92.9658H24.0337V105.062H80.7337V92.9658Z" fill="#FE615A"/>
<path d="M80.7337 92.9658H24.0337V105.062H80.7337V92.9658Z" fill="#EF4D4D"/>
<path opacity="0.23" d="M80.7337 103.242H24.0337V105.062H80.7337V103.242Z" fill="#1D2F3D"/>
<path opacity="0.23" d="M80.7337 92.9658H24.0337V97.0681H80.7337V92.9658Z" fill="#1D2F3D"/>
<path d="M80.7339 106.007H24.0339C23.7832 106.007 23.5429 105.908 23.3657 105.731C23.1884 105.553 23.0889 105.313 23.0889 105.062V92.9665C23.0889 92.7159 23.1884 92.4755 23.3657 92.2983C23.5429 92.121 23.7832 92.0215 24.0339 92.0215H80.7339C80.9845 92.0215 81.2249 92.121 81.4021 92.2983C81.5793 92.4755 81.6789 92.7159 81.6789 92.9665V105.062C81.6789 105.313 81.5793 105.553 81.4021 105.731C81.2249 105.908 80.9845 106.007 80.7339 106.007ZM24.9789 104.117H79.7889V93.9115H24.9789V104.117Z" fill="#1D2F3D"/>
<path d="M80.7337 105.062H24.0337V117.159H80.7337V105.062Z" fill="#EF4D4D"/>
<path opacity="0.23" d="M80.7337 115.442H24.0337V117.262H80.7337V115.442Z" fill="#1D2F3D"/>
<g style="mix-blend-mode:screen">
<path d="M80.7337 105.084H24.0337V106.904H80.7337V105.084Z" fill="#1D2F3D"/>
</g>
<path d="M80.7339 118.103H24.0339C23.7832 118.103 23.5429 118.004 23.3657 117.826C23.1884 117.649 23.0889 117.409 23.0889 117.158V105.062C23.0889 104.812 23.1884 104.571 23.3657 104.394C23.5429 104.217 23.7832 104.117 24.0339 104.117H80.7339C80.9845 104.117 81.2249 104.217 81.4021 104.394C81.5793 104.571 81.6789 104.812 81.6789 105.062V117.158C81.6789 117.409 81.5793 117.649 81.4021 117.826C81.2249 118.004 80.9845 118.103 80.7339 118.103ZM24.9789 116.213H79.7889V106.007H24.9789V116.213Z" fill="#1D2F3D"/>
<path d="M26.6797 92.9658H24.0337V117.158H26.6797V92.9658Z" fill="#E7E0D0"/>
<path d="M26.6799 118.103H24.0339C23.7832 118.103 23.5429 118.004 23.3657 117.827C23.1884 117.649 23.0889 117.409 23.0889 117.158V92.9665C23.0889 92.7159 23.1884 92.4755 23.3657 92.2983C23.5429 92.121 23.7832 92.0215 24.0339 92.0215H26.6799C26.9305 92.0215 27.1709 92.121 27.3481 92.2983C27.5253 92.4755 27.6249 92.7159 27.6249 92.9665V117.158C27.6249 117.409 27.5253 117.649 27.3481 117.827C27.1709 118.004 26.9305 118.103 26.6799 118.103ZM24.9789 116.213H25.7349V93.9115H24.9789V116.213Z" fill="#1D2F3D"/>
<path d="M82.0566 92.9658H79.4106V117.158H82.0566V92.9658Z" fill="#E7E0D0"/>
<path d="M82.0568 118.103H79.4108C79.1602 118.103 78.9198 118.004 78.7426 117.827C78.5654 117.649 78.4658 117.409 78.4658 117.158V92.9665C78.4658 92.7159 78.5654 92.4755 78.7426 92.2983C78.9198 92.121 79.1602 92.0215 79.4108 92.0215H82.0568C82.3075 92.0215 82.5478 92.121 82.725 92.2983C82.9023 92.4755 83.0018 92.7159 83.0018 92.9665V117.158C83.0018 117.409 82.9023 117.649 82.725 117.827C82.5478 118.004 82.3075 118.103 82.0568 118.103ZM80.3558 116.213H81.1118V93.9115H80.3558V116.213Z" fill="#1D2F3D"/>
<path d="M137.922 118.103H135.276C135.025 118.103 134.785 118.004 134.607 117.827C134.43 117.649 134.331 117.409 134.331 117.158V92.9665C134.331 92.7159 134.43 92.4755 134.607 92.2983C134.785 92.121 135.025 92.0215 135.276 92.0215H137.922C138.172 92.0215 138.413 92.121 138.59 92.2983C138.767 92.4755 138.867 92.7159 138.867 92.9665V117.158C138.867 117.409 138.767 117.649 138.59 117.827C138.413 118.004 138.172 118.103 137.922 118.103ZM136.221 116.213H136.977V93.9115H136.221V116.213Z" fill="#1D2F3D"/>
<path d="M114.565 82.1934H83.9233V89.5644H114.565V82.1934Z" fill="#938F8F"/>
<g style="mix-blend-mode:multiply" opacity="0.57">
<path d="M114.565 87.9961H83.9233V89.5638H114.565V87.9961Z" fill="#938F8F"/>
</g>
<g style="mix-blend-mode:screen" opacity="0.55">
<path d="M114.565 82.1934H83.9233V83.7755H114.565V82.1934Z" fill="#AAAAAA"/>
</g>
<path d="M114.565 90.509H83.923C83.6724 90.509 83.432 90.4095 83.2548 90.2323C83.0776 90.055 82.978 89.8147 82.978 89.564V82.193C82.978 81.9424 83.0776 81.702 83.2548 81.5248C83.432 81.3476 83.6724 81.248 83.923 81.248H114.565C114.815 81.248 115.056 81.3476 115.233 81.5248C115.41 81.702 115.51 81.9424 115.51 82.193V89.564C115.51 89.8147 115.41 90.055 115.233 90.2323C115.056 90.4095 114.815 90.509 114.565 90.509ZM84.868 88.619H113.62V83.138H84.868V88.619Z" fill="#1D2F3D"/>
<path d="M108.741 85.5001H96.5982C96.498 85.5001 96.4018 85.4603 96.3309 85.3894C96.26 85.3185 96.2202 85.2224 96.2202 85.1221C96.2202 85.0219 96.26 84.9257 96.3309 84.8549C96.4018 84.784 96.498 84.7441 96.5982 84.7441H108.741C108.842 84.7441 108.938 84.784 109.009 84.8549C109.08 84.9257 109.119 85.0219 109.119 85.1221C109.119 85.2224 109.08 85.3185 109.009 85.3894C108.938 85.4603 108.842 85.5001 108.741 85.5001Z" fill="#1D2F3D"/>
<path d="M102.67 87.0128H96.5982C96.498 87.0128 96.4018 86.973 96.3309 86.9021C96.26 86.8312 96.2202 86.7351 96.2202 86.6348C96.2202 86.5346 96.26 86.4384 96.3309 86.3675C96.4018 86.2967 96.498 86.2568 96.5982 86.2568H102.67C102.77 86.2568 102.866 86.2967 102.937 86.3675C103.008 86.4384 103.048 86.5346 103.048 86.6348C103.048 86.7351 103.008 86.8312 102.937 86.9021C102.866 86.973 102.77 87.0128 102.67 87.0128Z" fill="#1D2F3D"/>
<path d="M89.8308 87.2017C90.5615 87.2017 91.1538 86.6093 91.1538 85.8787C91.1538 85.148 90.5615 84.5557 89.8308 84.5557C89.1001 84.5557 88.5078 85.148 88.5078 85.8787C88.5078 86.6093 89.1001 87.2017 89.8308 87.2017Z" fill="#E7E0D0"/>
<path d="M89.8309 87.5797C89.4945 87.5797 89.1656 87.48 88.8859 87.2931C88.6061 87.1062 88.3881 86.8405 88.2594 86.5297C88.1306 86.2189 88.0969 85.8768 88.1626 85.5469C88.2282 85.2169 88.3902 84.9138 88.6281 84.676C88.866 84.4381 89.1691 84.2761 89.499 84.2104C89.829 84.1448 90.171 84.1785 90.4818 84.3072C90.7926 84.436 91.0583 84.654 91.2452 84.9337C91.4321 85.2134 91.5319 85.5423 91.5319 85.8787C91.5314 86.3297 91.352 86.7621 91.0331 87.081C90.7142 87.3999 90.2819 87.5792 89.8309 87.5797ZM89.8309 84.9337C89.644 84.9337 89.4613 84.9892 89.3059 85.093C89.1505 85.1968 89.0293 85.3444 88.9578 85.5171C88.8863 85.6898 88.8676 85.8798 88.904 86.0631C88.9405 86.2464 89.0305 86.4148 89.1627 86.547C89.2948 86.6791 89.4632 86.7691 89.6465 86.8056C89.8298 86.842 90.0198 86.8233 90.1925 86.7518C90.3652 86.6803 90.5128 86.5592 90.6166 86.4037C90.7205 86.2483 90.7759 86.0656 90.7759 85.8787C90.7756 85.6282 90.6759 85.388 90.4988 85.2109C90.3216 85.0337 90.0814 84.934 89.8309 84.9337Z" fill="#1D2F3D"/>
<path d="M129.106 38.9297H70.1617C68.4916 38.9297 67.1377 40.2836 67.1377 41.9537V74.6454C67.1377 76.3155 68.4916 77.6694 70.1617 77.6694H129.106C130.776 77.6694 132.13 76.3155 132.13 74.6454V41.9537C132.13 40.2836 130.776 38.9297 129.106 38.9297Z" fill="#546672"/>
<g style="mix-blend-mode:overlay" opacity="0.68">
<path d="M129.106 75.4156H70.1617C69.3597 75.4156 68.5905 75.097 68.0234 74.5299C67.4563 73.9628 67.1377 73.1936 67.1377 72.3916V74.6454C67.1377 75.4474 67.4563 76.2166 68.0234 76.7837C68.5905 77.3508 69.3597 77.6694 70.1617 77.6694H129.106C129.908 77.6694 130.677 77.3508 131.244 76.7837C131.811 76.2166 132.13 75.4474 132.13 74.6454V72.3916C132.13 73.1936 131.811 73.9628 131.244 74.5299C130.677 75.097 129.908 75.4156 129.106 75.4156Z" fill="#546672"/>
</g>
<g style="mix-blend-mode:screen" opacity="0.81">
<path d="M129.106 38.7412H70.1617C69.3597 38.7412 68.5905 39.0598 68.0234 39.6269C67.4563 40.194 67.1377 40.9632 67.1377 41.7652V43.4662C67.1377 42.6642 67.4563 41.895 68.0234 41.3279C68.5905 40.7608 69.3597 40.4422 70.1617 40.4422H129.106C129.908 40.4422 130.677 40.7608 131.244 41.3279C131.811 41.895 132.13 42.6642 132.13 43.4662V41.7652C132.13 40.9632 131.811 40.194 131.244 39.6269C130.677 39.0598 129.908 38.7412 129.106 38.7412Z" fill="#546672"/>
</g>
<path d="M128.998 70.3227V43.6242C128.998 42.6005 128.168 41.7705 127.144 41.7705H72.123C71.0993 41.7705 70.2693 42.6005 70.2693 43.6242V70.3227C70.2693 71.3465 71.0993 72.1765 72.123 72.1765H127.144C128.168 72.1765 128.998 71.3465 128.998 70.3227Z" fill="#1D2F3D"/>
<path d="M129.106 78.6141H70.1614C69.1091 78.6129 68.1003 78.1943 67.3562 77.4503C66.6121 76.7062 66.1936 75.6974 66.1924 74.6451V41.9534C66.1936 40.9011 66.6121 39.8923 67.3562 39.1482C68.1003 38.4041 69.1091 37.9856 70.1614 37.9844H129.106C130.158 37.9856 131.167 38.4041 131.911 39.1482C132.655 39.8923 133.074 40.9011 133.075 41.9534V74.6451C133.074 75.6974 132.655 76.7062 131.911 77.4503C131.167 78.1943 130.158 78.6129 129.106 78.6141ZM70.1614 39.8744C69.6102 39.875 69.0817 40.0942 68.692 40.484C68.3022 40.8737 68.083 41.4022 68.0824 41.9534V74.6451C68.083 75.1963 68.3023 75.7247 68.692 76.1144C69.0818 76.5042 69.6102 76.7234 70.1614 76.7241H129.106C129.657 76.7234 130.186 76.5042 130.575 76.1144C130.965 75.7247 131.184 75.1963 131.185 74.6451V41.9534C131.184 41.4022 130.965 40.8737 130.575 40.484C130.186 40.0942 129.657 39.875 129.106 39.8744H70.1614Z" fill="#1D2F3D"/>
<path opacity="0.13" d="M99.6338 75.8328C100.417 75.8328 101.051 75.186 101.051 74.3881C101.051 73.5902 100.417 72.9434 99.6338 72.9434C98.8509 72.9434 98.2163 73.5902 98.2163 74.3881C98.2163 75.186 98.8509 75.8328 99.6338 75.8328Z" fill="#D1E3ED"/>
<path d="M99.6336 75.6285C100.305 75.6285 100.85 75.0733 100.85 74.3885C100.85 73.7036 100.305 73.1484 99.6336 73.1484C98.9617 73.1484 98.417 73.7036 98.417 74.3885C98.417 75.0733 98.9617 75.6285 99.6336 75.6285Z" fill="#1D2F3D"/>
<path d="M93.827 105.085C95.2073 105.085 96.3263 103.966 96.3263 102.585C96.3263 101.205 95.2073 100.086 93.827 100.086C92.4466 100.086 91.3276 101.205 91.3276 102.585C91.3276 103.966 92.4466 105.085 93.827 105.085Z" fill="#61BA4F"/>
<path d="M93.827 106.029C93.1458 106.029 92.4798 105.827 91.9134 105.449C91.3471 105.07 90.9056 104.532 90.6449 103.903C90.3843 103.274 90.3161 102.581 90.449 101.913C90.5819 101.245 90.91 100.631 91.3917 100.149C91.8734 99.6677 92.4871 99.3397 93.1553 99.2068C93.8234 99.0739 94.5159 99.1421 95.1453 99.4028C95.7746 99.6635 96.3126 100.105 96.691 100.671C97.0695 101.238 97.2715 101.904 97.2715 102.585C97.2705 103.498 96.9073 104.374 96.2615 105.019C95.6157 105.665 94.7402 106.028 93.827 106.029ZM93.827 101.031C93.5195 101.031 93.219 101.122 92.9634 101.293C92.7078 101.464 92.5086 101.706 92.3909 101.99C92.2733 102.274 92.2425 102.587 92.3025 102.888C92.3625 103.19 92.5105 103.467 92.7279 103.684C92.9453 103.902 93.2223 104.05 93.5238 104.11C93.8254 104.17 94.1379 104.139 94.4219 104.021C94.7059 103.903 94.9487 103.704 95.1194 103.449C95.2902 103.193 95.3813 102.892 95.3813 102.585C95.3808 102.173 95.2169 101.778 94.9255 101.487C94.6341 101.195 94.239 101.031 93.827 101.031Z" fill="#1D2F3D"/>
<path d="M91.712 98.6569C91.0731 97.5935 89.8371 97.5935 89.1983 98.6569C88.3616 100.049 87.8394 102.024 87.8394 104.213C87.8394 107.36 88.9166 110.06 90.4551 111.23C91.9936 110.06 93.0709 107.36 93.0709 104.213C93.0709 102.024 92.5487 100.049 91.712 98.6569Z" fill="#61BA4F"/>
<path d="M90.4553 112.175C90.2485 112.175 90.0475 112.108 89.883 111.982C88.0397 110.58 86.8945 107.603 86.8945 104.213C86.8945 101.919 87.4249 99.7717 88.3876 98.169C88.5935 97.7982 88.8924 97.4875 89.2548 97.2672C89.6173 97.047 90.0308 96.925 90.4547 96.9131C90.8786 96.925 91.292 97.0471 91.6544 97.2672C92.0168 97.4874 92.3156 97.7981 92.5214 98.1688C93.4853 99.7723 94.0145 101.919 94.0145 104.213C94.0145 107.603 92.8694 110.58 91.0259 111.982C90.8619 112.107 90.6615 112.175 90.4553 112.175ZM90.4553 98.8031C90.3583 98.8177 90.2666 98.8564 90.1885 98.9157C90.1105 98.975 90.0485 99.0529 90.0083 99.1423C89.2306 100.437 88.7845 102.285 88.7845 104.213C88.7845 106.531 89.4358 108.698 90.4553 109.923C91.4746 108.698 92.1259 106.531 92.1259 104.213C92.1259 102.285 91.6798 100.437 90.9021 99.1423C90.8619 99.053 90.7999 98.9752 90.7218 98.9161C90.6438 98.8569 90.5521 98.8183 90.4553 98.8037V98.8031Z" fill="#1D2F3D"/>
<path d="M93.7399 117.159H87.1703L86.1724 108.988H94.7378L93.7399 117.159Z" fill="#FFEA87"/>
<g style="mix-blend-mode:multiply" opacity="0.26">
<path d="M86.1724 108.988L87.1703 117.159H90.542L90.1837 108.988H86.1724Z" fill="#3D3D3D"/>
</g>
<path d="M93.7399 118.103H87.1706C86.9399 118.103 86.717 118.019 86.5443 117.866C86.3715 117.713 86.2606 117.502 86.2326 117.273L85.2345 109.103C85.2183 108.97 85.2304 108.835 85.2701 108.707C85.3099 108.58 85.3763 108.462 85.4649 108.362C85.5536 108.261 85.6625 108.181 85.7845 108.126C85.9065 108.071 86.0388 108.043 86.1725 108.043H94.7388C94.8726 108.043 95.0048 108.071 95.1268 108.126C95.2488 108.181 95.3577 108.261 95.4464 108.362C95.5351 108.462 95.6014 108.58 95.6412 108.707C95.6809 108.835 95.693 108.97 95.6768 109.103L94.6787 117.273C94.6507 117.502 94.5397 117.713 94.3668 117.866C94.1938 118.019 93.9708 118.104 93.7399 118.103ZM88.0072 116.213H92.9034L93.6705 109.933H87.24L88.0072 116.213Z" fill="#1D2F3D"/>
<path d="M135.276 97.6982H131.496V117.158H135.276V97.6982Z" fill="#FF6259"/>
<path d="M135.276 118.103H131.496C131.245 118.103 131.005 118.003 130.828 117.826C130.65 117.649 130.551 117.408 130.551 117.158V97.6979C130.551 97.4473 130.65 97.2069 130.828 97.0297C131.005 96.8525 131.245 96.7529 131.496 96.7529H135.276C135.526 96.7529 135.767 96.8525 135.944 97.0297C136.121 97.2069 136.221 97.4473 136.221 97.6979V117.158C136.221 117.408 136.121 117.649 135.944 117.826C135.767 118.003 135.526 118.103 135.276 118.103ZM132.441 116.213H134.331V98.6429H132.441V116.213Z" fill="#1D2F3D"/>
<path d="M131.495 99.0137H127.148V117.158H131.495V99.0137Z" fill="#F7B363"/>
<path d="M131.496 118.103H127.149C126.898 118.103 126.658 118.004 126.48 117.827C126.303 117.649 126.204 117.409 126.204 117.158V99.0143C126.204 98.7637 126.303 98.5233 126.48 98.3461C126.658 98.1689 126.898 98.0693 127.149 98.0693H131.496C131.746 98.0693 131.987 98.1689 132.164 98.3461C132.341 98.5233 132.441 98.7637 132.441 99.0143V117.158C132.441 117.409 132.341 117.649 132.164 117.827C131.987 118.004 131.746 118.103 131.496 118.103ZM128.094 116.213H130.551V99.9593H128.094V116.213Z" fill="#1D2F3D"/>
<path d="M127.039 101.031L124.082 99.6211L116.684 115.14L119.641 116.549L127.039 101.031Z" fill="#0AC4DD"/>
<path d="M119.64 117.495C119.5 117.495 119.361 117.464 119.234 117.404L116.277 115.994C116.165 115.94 116.064 115.865 115.981 115.773C115.898 115.681 115.834 115.573 115.793 115.456C115.751 115.339 115.733 115.215 115.74 115.091C115.746 114.967 115.777 114.846 115.83 114.734L123.228 99.2151C123.282 99.1031 123.357 99.0027 123.449 98.9196C123.541 98.8366 123.649 98.7725 123.766 98.731C123.883 98.6896 124.007 98.6716 124.131 98.678C124.254 98.6845 124.376 98.7153 124.488 98.7687L127.445 100.178C127.557 100.232 127.657 100.307 127.741 100.399C127.824 100.491 127.888 100.599 127.929 100.716C127.971 100.833 127.989 100.957 127.982 101.081C127.976 101.205 127.945 101.326 127.892 101.438L120.493 116.958C120.417 117.119 120.296 117.255 120.145 117.35C119.994 117.445 119.819 117.496 119.64 117.496V117.495ZM117.943 114.694L119.194 115.291L125.779 101.478L124.528 100.882L117.943 114.694Z" fill="#1D2F3D"/>
<path d="M114.164 113.727H97.2031V117.158H114.164V113.727Z" fill="#F7B363"/>
<path d="M114.165 118.103H97.2033C96.9527 118.103 96.7123 118.003 96.5351 117.826C96.3579 117.649 96.2583 117.408 96.2583 117.158V113.726C96.2583 113.476 96.3579 113.235 96.5351 113.058C96.7123 112.881 96.9527 112.781 97.2033 112.781H114.165C114.415 112.781 114.656 112.881 114.833 113.058C115.01 113.235 115.11 113.476 115.11 113.726V117.158C115.11 117.408 115.01 117.649 114.833 117.826C114.656 118.003 114.415 118.103 114.165 118.103ZM98.1483 116.213H113.22V114.671H98.1483V116.213Z" fill="#1D2F3D"/>
<path d="M115.356 110.361H99.2441V113.793H115.356V110.361Z" fill="#8BB572"/>
<path d="M115.356 114.549H99.2443C98.9937 114.549 98.7533 114.449 98.5761 114.272C98.3989 114.095 98.2993 113.855 98.2993 113.604V110.173C98.2993 109.922 98.3989 109.682 98.5761 109.504C98.7533 109.327 98.9937 109.228 99.2443 109.228H115.356C115.606 109.228 115.847 109.327 116.024 109.504C116.201 109.682 116.301 109.922 116.301 110.173V113.604C116.301 113.855 116.201 114.095 116.024 114.272C115.847 114.449 115.606 114.549 115.356 114.549ZM100.189 112.659H114.411V111.118H100.189V112.659Z" fill="#1D2F3D"/>
<path d="M49.9679 61.9502H34.6597V89.2535H49.9679V61.9502Z" fill="#976B50"/>
<path d="M49.9679 61.9502H34.6597V89.2535H49.9679V61.9502Z" fill="#976B50"/>
<g style="mix-blend-mode:screen" opacity="0.72">
<path d="M49.9679 61.9502H34.6597V63.8041H49.9679V61.9502Z" fill="#976B50"/>
</g>
<g style="mix-blend-mode:multiply" opacity="0.41">
<path d="M49.9679 87.085H34.6597V89.2539H49.9679V87.085Z" fill="#976B50"/>
</g>
<path d="M49.9679 90.1982H34.6589C34.4082 90.1982 34.1679 90.0986 33.9907 89.9214C33.8134 89.7442 33.7139 89.5038 33.7139 89.2532V61.9499C33.7139 61.6993 33.8134 61.4589 33.9907 61.2817C34.1679 61.1044 34.4082 61.0049 34.6589 61.0049H49.9679C50.2185 61.0049 50.4589 61.1044 50.6361 61.2817C50.8133 61.4589 50.9129 61.6993 50.9129 61.9499V89.2532C50.9129 89.5038 50.8133 89.7442 50.6361 89.9214C50.4589 90.0986 50.2185 90.1982 49.9679 90.1982ZM35.6039 88.3082H49.0229V62.8949H35.6039V88.3082Z" fill="#1D2F3D"/>
<path d="M42.1288 75.448C44.6237 75.448 46.6463 73.4255 46.6463 70.9306C46.6463 68.4356 44.6237 66.4131 42.1288 66.4131C39.6339 66.4131 37.6113 68.4356 37.6113 70.9306C37.6113 73.4255 39.6339 75.448 42.1288 75.448Z" fill="#E7E0D0"/>
<g style="mix-blend-mode:multiply">
<path d="M37.6113 70.9302C37.6113 69.7322 38.0872 68.5832 38.9344 67.7361C39.7815 66.889 40.9304 66.4131 42.1284 66.4131C43.3264 66.4131 44.4754 66.889 45.3225 67.7361C46.1696 68.5832 46.6455 69.7322 46.6455 70.9302H37.6113Z" fill="#E7E0D0"/>
</g>
<path d="M42.1286 76.2034C41.0856 76.2034 40.0661 75.8942 39.199 75.3148C38.3318 74.7353 37.656 73.9118 37.2569 72.9483C36.8578 71.9847 36.7533 70.9245 36.9568 69.9016C37.1603 68.8787 37.6625 67.9391 38.3999 67.2017C39.1374 66.4642 40.077 65.962 41.0998 65.7585C42.1227 65.5551 43.183 65.6595 44.1465 66.0586C45.11 66.4577 45.9336 67.1336 46.513 68.0008C47.0924 68.8679 47.4017 69.8874 47.4017 70.9303C47.4 72.3283 46.8439 73.6686 45.8554 74.6572C44.8668 75.6457 43.5266 76.2018 42.1286 76.2034ZM42.1286 67.1692C41.3847 67.1692 40.6575 67.3898 40.039 67.8031C39.4205 68.2164 38.9384 68.8038 38.6538 69.491C38.3691 70.1783 38.2946 70.9345 38.4397 71.6641C38.5849 72.3937 38.9431 73.0638 39.4691 73.5898C39.9951 74.1158 40.6652 74.474 41.3948 74.6192C42.1244 74.7643 42.8806 74.6898 43.5679 74.4051C44.2551 74.1205 44.8425 73.6384 45.2558 73.0199C45.6691 72.4014 45.8897 71.6742 45.8897 70.9303C45.8886 69.9331 45.492 68.977 44.7869 68.2718C44.0818 67.5666 43.1258 67.1699 42.1286 67.1687V67.1692Z" fill="#1D2F3D"/>
<path d="M42.1287 72.6333C43.0691 72.6333 43.8316 71.8709 43.8316 70.9304C43.8316 69.99 43.0691 69.2275 42.1287 69.2275C41.1882 69.2275 40.4258 69.99 40.4258 70.9304C40.4258 71.8709 41.1882 72.6333 42.1287 72.6333Z" fill="#1D2F3D"/>
<path d="M42.1286 84.7903C43.6733 84.7903 44.9256 83.538 44.9256 81.9933C44.9256 80.4486 43.6733 79.1963 42.1286 79.1963C40.5838 79.1963 39.3315 80.4486 39.3315 81.9933C39.3315 83.538 40.5838 84.7903 42.1286 84.7903Z" fill="#E7E0D0"/>
<g style="mix-blend-mode:multiply">
<path d="M39.3315 81.9935C39.3315 81.2516 39.6262 80.5402 40.1508 80.0156C40.6754 79.491 41.3869 79.1963 42.1287 79.1963C42.8706 79.1963 43.5821 79.491 44.1067 80.0156C44.6312 80.5402 44.9259 81.2516 44.9259 81.9935H39.3315Z" fill="#E7E0D0"/>
</g>
<path d="M42.1288 82.9168C42.6387 82.9168 43.0521 82.5035 43.0521 81.9936C43.0521 81.4837 42.6387 81.0703 42.1288 81.0703C41.6189 81.0703 41.2056 81.4837 41.2056 81.9936C41.2056 82.5035 41.6189 82.9168 42.1288 82.9168Z" fill="#1D2F3D"/>
<path d="M42.1289 85.5468C41.4261 85.5468 40.7392 85.3384 40.1548 84.948C39.5705 84.5576 39.1151 84.0026 38.8462 83.3534C38.5772 82.7041 38.5069 81.9897 38.644 81.3004C38.7811 80.6112 39.1195 79.9781 39.6164 79.4811C40.1133 78.9842 40.7464 78.6458 41.4357 78.5087C42.1249 78.3716 42.8394 78.442 43.4886 78.7109C44.1379 78.9798 44.6928 79.4353 45.0833 80.0196C45.4737 80.6039 45.6821 81.2909 45.6821 81.9936C45.6811 82.9357 45.3064 83.8389 44.6403 84.505C43.9741 85.1712 43.0709 85.5458 42.1289 85.5468ZM42.1289 79.9524C41.7252 79.9524 41.3305 80.0721 40.9949 80.2964C40.6592 80.5207 40.3976 80.8395 40.2431 81.2125C40.0886 81.5855 40.0481 81.9959 40.1269 82.3918C40.2057 82.7878 40.4001 83.1515 40.6855 83.437C40.971 83.7224 41.3347 83.9168 41.7307 83.9956C42.1266 84.0744 42.537 84.034 42.91 83.8795C43.283 83.725 43.6018 83.4633 43.8261 83.1277C44.0504 82.792 44.1701 82.3973 44.1701 81.9936C44.1694 81.4525 43.9542 80.9337 43.5715 80.5511C43.1888 80.1684 42.67 79.9532 42.1289 79.9526V79.9524Z" fill="#1D2F3D"/>
<path d="M50.2438 19.9453H34.3842C32.6195 19.9453 31.189 21.3759 31.189 23.1405V39.0001C31.189 40.7648 32.6195 42.1953 34.3842 42.1953H50.2438C52.0084 42.1953 53.439 40.7648 53.439 39.0001V23.1405C53.439 21.3759 52.0084 19.9453 50.2438 19.9453Z" fill="#E7E0D0"/>
<g style="mix-blend-mode:multiply" opacity="0.82">
<path d="M50.2438 19.9453H34.384C33.5368 19.9456 32.7244 20.2824 32.1254 20.8816C31.5264 21.4808 31.1899 22.2933 31.1899 23.1405V25.9755C31.1899 25.1282 31.5266 24.3155 32.1257 23.7162C32.7249 23.117 33.5376 22.7804 34.385 22.7803H50.2447C51.0921 22.7804 51.9048 23.117 52.504 23.7162C53.1033 24.3154 53.4399 25.1281 53.44 25.9755V23.1405C53.4399 22.7209 53.3572 22.3053 53.1966 21.9176C53.036 21.5299 52.8005 21.1776 52.5037 20.8809C52.2069 20.5842 51.8546 20.3488 51.4668 20.1883C51.0791 20.0278 50.6635 19.9452 50.2438 19.9453Z" fill="#E7E0D0"/>
</g>
<path d="M50.2436 43.1402H34.3841C33.2864 43.139 32.234 42.7024 31.4578 41.9262C30.6816 41.15 30.245 40.0977 30.2437 39V23.1402C30.245 22.0425 30.6816 20.9902 31.4578 20.214C32.234 19.4378 33.2864 19.0013 34.3841 19H50.2436C51.3413 19.0013 52.3937 19.4379 53.1698 20.214C53.946 20.9902 54.3826 22.0426 54.3839 23.1402V39C54.3826 40.0977 53.946 41.15 53.1698 41.9262C52.3937 42.7024 51.3413 43.139 50.2436 43.1402ZM34.3841 20.89C33.7875 20.8907 33.2155 21.1279 32.7936 21.5498C32.3717 21.9716 32.1344 22.5436 32.1337 23.1402V39C32.1344 39.5966 32.3717 40.1686 32.7936 40.5904C33.2155 41.0123 33.7875 41.2496 34.3841 41.2502H50.2436C50.8402 41.2496 51.4122 41.0123 51.8341 40.5904C52.2559 40.1686 52.4932 39.5966 52.4939 39V23.1402C52.4932 22.5436 52.2559 21.9717 51.8341 21.5498C51.4122 21.1279 50.8402 20.8907 50.2436 20.89H34.3841Z" fill="#1D2F3D"/>
<path d="M42.4554 31.6369H37.5699C37.4196 31.6369 37.2753 31.5772 37.169 31.4709C37.0627 31.3645 37.0029 31.2203 37.0029 31.0699C37.0029 30.9196 37.0627 30.7753 37.169 30.669C37.2753 30.5627 37.4196 30.5029 37.5699 30.5029H42.4554C42.6058 30.5029 42.75 30.5627 42.8563 30.669C42.9627 30.7753 43.0224 30.9196 43.0224 31.0699C43.0224 31.2203 42.9627 31.3645 42.8563 31.4709C42.75 31.5772 42.6058 31.6369 42.4554 31.6369Z" fill="#1D2F3D"/>
<path d="M42.4553 31.4481C42.3874 31.448 42.3208 31.4297 42.2625 31.395C42.2041 31.3603 42.1562 31.3106 42.1237 31.251C42.0913 31.1914 42.0754 31.1242 42.0779 31.0564C42.0803 30.9886 42.101 30.9226 42.1377 30.8656L46.287 24.4137C46.3413 24.3294 46.4268 24.2701 46.5248 24.2488C46.5733 24.2383 46.6234 24.2374 46.6723 24.2463C46.7211 24.2551 46.7678 24.2735 46.8095 24.3004C46.8513 24.3272 46.8873 24.3621 46.9156 24.4029C46.9439 24.4437 46.9639 24.4896 46.9744 24.5382C46.9849 24.5867 46.9858 24.6368 46.9769 24.6856C46.9681 24.7345 46.9497 24.7811 46.9228 24.8229L42.7735 31.2746C42.7393 31.3278 42.6922 31.3716 42.6365 31.402C42.5809 31.4323 42.5186 31.4481 42.4553 31.4481Z" fill="#1D2F3D"/>
<path d="M137.921 92.9658H135.275V117.158H137.921V92.9658Z" fill="#E7E0D0"/>
<path d="M137.922 118.103H135.276C135.025 118.103 134.785 118.004 134.607 117.827C134.43 117.649 134.331 117.409 134.331 117.158V92.9665C134.331 92.7159 134.43 92.4755 134.607 92.2983C134.785 92.121 135.025 92.0215 135.276 92.0215H137.922C138.172 92.0215 138.413 92.121 138.59 92.2983C138.767 92.4755 138.867 92.7159 138.867 92.9665V117.158C138.867 117.409 138.767 117.649 138.59 117.827C138.413 118.004 138.172 118.103 137.922 118.103ZM136.221 116.213H136.977V93.9115H136.221V116.213Z" fill="#1D2F3D"/>
<path d="M52.3837 101.668C53.8711 101.668 55.0769 100.462 55.0769 98.9745C55.0769 97.4871 53.8711 96.2812 52.3837 96.2812C50.8962 96.2812 49.6904 97.4871 49.6904 98.9745C49.6904 100.462 50.8962 101.668 52.3837 101.668Z" fill="#E7E0D0"/>
<path d="M52.3839 102.612C51.6643 102.612 50.9609 102.399 50.3626 101.999C49.7642 101.6 49.2979 101.031 49.0226 100.366C48.7472 99.7017 48.6751 98.9702 48.8155 98.2644C48.9559 97.5587 49.3024 96.9104 49.8112 96.4016C50.32 95.8927 50.9683 95.5462 51.6741 95.4058C52.3798 95.2655 53.1114 95.3375 53.7762 95.6129C54.441 95.8883 55.0092 96.3546 55.409 96.9529C55.8087 97.5512 56.0221 98.2546 56.0221 98.9742C56.021 99.9388 55.6373 100.864 54.9553 101.546C54.2732 102.228 53.3484 102.611 52.3839 102.612ZM52.3839 97.2259C52.0381 97.2259 51.7001 97.3285 51.4126 97.5206C51.1251 97.7127 50.901 97.9857 50.7687 98.3052C50.6364 98.6246 50.6017 98.9761 50.6692 99.3153C50.7367 99.6544 50.9032 99.9659 51.1477 100.21C51.3922 100.455 51.7037 100.621 52.0428 100.689C52.3819 100.756 52.7334 100.722 53.0529 100.589C53.3723 100.457 53.6454 100.233 53.8375 99.9455C54.0296 99.658 54.1321 99.32 54.1321 98.9742C54.1316 98.5107 53.9473 98.0663 53.6195 97.7385C53.2918 97.4108 52.8474 97.2264 52.3839 97.2259Z" fill="#1D2F3D"/>
<path d="M52.3837 113.803C53.8711 113.803 55.0769 112.598 55.0769 111.11C55.0769 109.623 53.8711 108.417 52.3837 108.417C50.8962 108.417 49.6904 109.623 49.6904 111.11C49.6904 112.598 50.8962 113.803 52.3837 113.803Z" fill="#E7E0D0"/>
<path d="M52.3839 114.748C51.6643 114.748 50.9609 114.535 50.3626 114.135C49.7642 113.735 49.2979 113.167 49.0226 112.502C48.7472 111.837 48.6751 111.106 48.8155 110.4C48.9559 109.694 49.3024 109.046 49.8112 108.537C50.32 108.028 50.9683 107.682 51.6741 107.542C52.3798 107.401 53.1114 107.473 53.7762 107.749C54.441 108.024 55.0092 108.49 55.409 109.089C55.8087 109.687 56.0221 110.39 56.0221 111.11C56.021 112.075 55.6373 112.999 54.9553 113.681C54.2732 114.363 53.3484 114.747 52.3839 114.748ZM52.3839 109.362C52.0381 109.362 51.7001 109.464 51.4126 109.656C51.1251 109.848 50.901 110.121 50.7687 110.441C50.6364 110.76 50.6017 111.112 50.6692 111.451C50.7367 111.79 50.9032 112.102 51.1477 112.346C51.3922 112.591 51.7037 112.757 52.0428 112.825C52.3819 112.892 52.7334 112.857 53.0529 112.725C53.3723 112.593 53.6454 112.369 53.8375 112.081C54.0296 111.794 54.1321 111.456 54.1321 111.11C54.1316 110.646 53.9473 110.202 53.6195 109.874C53.2918 109.547 52.8474 109.362 52.3839 109.362Z" fill="#1D2F3D"/>
<path d="M135.276 103.998H131.496C131.245 103.998 131.005 103.899 130.828 103.722C130.65 103.544 130.551 103.304 130.551 103.053C130.551 102.803 130.65 102.562 130.828 102.385C131.005 102.208 131.245 102.108 131.496 102.108H135.276C135.526 102.108 135.767 102.208 135.944 102.385C136.121 102.562 136.221 102.803 136.221 103.053C136.221 103.304 136.121 103.544 135.944 103.722C135.767 103.899 135.526 103.998 135.276 103.998Z" fill="#1D2F3D"/>
<path d="M131.496 106.007H127.149C126.898 106.007 126.658 105.908 126.48 105.73C126.303 105.553 126.204 105.313 126.204 105.062C126.204 104.812 126.303 104.571 126.48 104.394C126.658 104.217 126.898 104.117 127.149 104.117H131.496C131.746 104.117 131.987 104.217 132.164 104.394C132.341 104.571 132.441 104.812 132.441 105.062C132.441 105.313 132.341 105.553 132.164 105.73C131.987 105.908 131.746 106.007 131.496 106.007Z" fill="#1D2F3D"/>
<path d="M125.067 106.11C124.927 106.11 124.788 106.079 124.662 106.018L121.704 104.609C121.48 104.5 121.308 104.307 121.225 104.071C121.143 103.836 121.156 103.577 121.264 103.352C121.371 103.127 121.563 102.953 121.798 102.869C122.033 102.785 122.291 102.797 122.517 102.902L125.474 104.312C125.668 104.404 125.825 104.56 125.918 104.753C126.012 104.946 126.037 105.165 125.99 105.374C125.943 105.584 125.825 105.771 125.658 105.904C125.49 106.038 125.281 106.111 125.067 106.11H125.067Z" fill="#1D2F3D"/>
<path opacity="0.07" d="M109.981 41.7705H99.0741L70.2861 70.5582C70.3431 71.0052 70.5611 71.4162 70.8993 71.714C71.2374 72.0119 71.6726 72.1762 72.1232 72.1763H79.5751L109.981 41.7705Z" fill="#D1E3ED"/>
<path opacity="0.07" d="M82.9897 72.1764H88.4433L118.849 41.7705H113.396L82.9897 72.1764Z" fill="#D1E3ED"/>
<path opacity="0.07" d="M109.536 72.1764L128.998 52.7146V48.6152L105.437 72.1764H109.536Z" fill="#D1E3ED"/>
<path d="M102.67 114.549C102.419 114.549 102.179 114.449 102.001 114.272C101.824 114.095 101.725 113.855 101.725 113.604V110.173C101.725 109.922 101.824 109.682 102.001 109.504C102.179 109.327 102.419 109.228 102.67 109.228C102.92 109.228 103.161 109.327 103.338 109.504C103.515 109.682 103.615 109.922 103.615 110.173V113.604C103.615 113.855 103.515 114.095 103.338 114.272C103.161 114.449 102.92 114.549 102.67 114.549Z" fill="#1D2F3D"/>
<path d="M42.3136 22.8989C42.1632 22.8989 42.019 22.8391 41.9127 22.7328C41.8063 22.6265 41.7466 22.4822 41.7466 22.3319V21.2096C41.7466 21.0592 41.8063 20.915 41.9127 20.8086C42.019 20.7023 42.1632 20.6426 42.3136 20.6426C42.464 20.6426 42.6082 20.7023 42.7145 20.8086C42.8208 20.915 42.8806 21.0592 42.8806 21.2096V22.3311C42.8807 22.4056 42.8661 22.4794 42.8376 22.5483C42.8092 22.6172 42.7674 22.6798 42.7148 22.7325C42.6621 22.7853 42.5996 22.8271 42.5307 22.8556C42.4619 22.8842 42.3881 22.8989 42.3136 22.8989Z" fill="#1D2F3D"/>
<path d="M42.3136 41.4963C42.1632 41.4963 42.019 41.4366 41.9127 41.3303C41.8063 41.2239 41.7466 41.0797 41.7466 40.9293V39.8072C41.7466 39.6569 41.8063 39.5126 41.9127 39.4063C42.019 39.3 42.1632 39.2402 42.3136 39.2402C42.464 39.2402 42.6082 39.3 42.7145 39.4063C42.8208 39.5126 42.8806 39.6569 42.8806 39.8072V40.9289C42.8806 41.0034 42.866 41.0772 42.8375 41.146C42.8091 41.2149 42.7673 41.2774 42.7146 41.3301C42.662 41.3828 42.5995 41.4246 42.5307 41.4531C42.4618 41.4816 42.3881 41.4963 42.3136 41.4963Z" fill="#1D2F3D"/>
<path d="M52.1731 31.6369H51.0514C50.901 31.6369 50.7568 31.5772 50.6504 31.4709C50.5441 31.3645 50.4844 31.2203 50.4844 31.0699C50.4844 30.9196 50.5441 30.7753 50.6504 30.669C50.7568 30.5627 50.901 30.5029 51.0514 30.5029H52.1731C52.3235 30.5029 52.4677 30.5627 52.574 30.669C52.6804 30.7753 52.7401 30.9196 52.7401 31.0699C52.7401 31.2203 52.6804 31.3645 52.574 31.4709C52.4677 31.5772 52.3235 31.6369 52.1731 31.6369Z" fill="#1D2F3D"/>
<path d="M33.5757 31.6369H32.4542C32.3038 31.6369 32.1596 31.5772 32.0533 31.4709C31.9469 31.3645 31.8872 31.2203 31.8872 31.0699C31.8872 30.9196 31.9469 30.7753 32.0533 30.669C32.1596 30.5627 32.3038 30.5029 32.4542 30.5029H33.5757C33.7261 30.5029 33.8703 30.5627 33.9767 30.669C34.083 30.7753 34.1427 30.9196 34.1427 31.0699C34.1427 31.2203 34.083 31.3645 33.9767 31.4709C33.8703 31.5772 33.7261 31.6369 33.5757 31.6369Z" fill="#1D2F3D"/>
<path d="M42.4553 32.4564C43.2207 32.4564 43.8412 31.8359 43.8412 31.0705C43.8412 30.3051 43.2207 29.6846 42.4553 29.6846C41.6898 29.6846 41.0693 30.3051 41.0693 31.0705C41.0693 31.8359 41.6898 32.4564 42.4553 32.4564Z" fill="#1D2F3D"/>
<path d="M109.084 118.103C108.833 118.103 108.593 118.003 108.415 117.826C108.238 117.649 108.139 117.409 108.139 117.158V113.793C108.139 113.542 108.238 113.302 108.415 113.124C108.593 112.947 108.833 112.848 109.084 112.848C109.334 112.848 109.575 112.947 109.752 113.124C109.929 113.302 110.029 113.542 110.029 113.793V117.158C110.029 117.409 109.929 117.649 109.752 117.826C109.575 118.003 109.334 118.103 109.084 118.103Z" fill="#1D2F3D"/>
<path d="M107.975 137.119H93.007C92.7564 137.119 92.516 137.02 92.3388 136.843C92.1616 136.665 92.062 136.425 92.062 136.174C92.062 135.924 92.1616 135.683 92.3388 135.506C92.516 135.329 92.7564 135.229 93.007 135.229H107.975C108.225 135.229 108.466 135.329 108.643 135.506C108.82 135.683 108.92 135.924 108.92 136.174C108.92 136.425 108.82 136.665 108.643 136.843C108.466 137.02 108.225 137.119 107.975 137.119Z" fill="#1D2F3D"/>
<path d="M89.702 137.119H86.4323C86.1817 137.119 85.9413 137.02 85.7641 136.843C85.5869 136.665 85.4873 136.425 85.4873 136.174C85.4873 135.924 85.5869 135.683 85.7641 135.506C85.9413 135.329 86.1817 135.229 86.4323 135.229H89.702C89.9526 135.229 90.193 135.329 90.3702 135.506C90.5474 135.683 90.647 135.924 90.647 136.174C90.647 136.425 90.5474 136.665 90.3702 136.843C90.193 137.02 89.9526 137.119 89.702 137.119Z" fill="#1D2F3D"/>
<path d="M70.4646 86.4678H55.0768C54.5549 86.4678 54.1318 86.8909 54.1318 87.4128V88.8078C54.1318 89.3297 54.5549 89.7528 55.0768 89.7528H70.4646C70.9866 89.7528 71.4096 89.3297 71.4096 88.8078V87.4128C71.4096 86.8909 70.9866 86.4678 70.4646 86.4678Z" fill="#1D2F3D"/>
</svg>
