<svg width="156" height="156" viewBox="0 0 156 156" fill="none" xmlns="http://www.w3.org/2000/svg">
<g clip-path="url(#clip0_226_8794)">
<g style="mix-blend-mode:multiply" opacity="0.23">
<g style="mix-blend-mode:multiply">
<path d="M86.3398 43.5747H74.6481C74.4977 43.5747 74.3535 43.5149 74.2471 43.4086C74.1408 43.3023 74.0811 43.1581 74.0811 43.0077C74.0811 42.8573 74.1408 42.7131 74.2471 42.6068C74.3535 42.5004 74.4977 42.4407 74.6481 42.4407H85.7728V37.1617C85.7728 37.0113 85.8325 36.8671 85.9388 36.7608C86.0452 36.6545 86.1894 36.5947 86.3398 36.5947C86.4902 36.5947 86.6344 36.6545 86.7407 36.7608C86.847 36.8671 86.9068 37.0113 86.9068 37.1617V43.0077C86.9068 43.0821 86.8921 43.1559 86.8636 43.2247C86.8351 43.2935 86.7934 43.356 86.7407 43.4086C86.6881 43.4613 86.6256 43.503 86.5568 43.5315C86.488 43.56 86.4142 43.5747 86.3398 43.5747Z" fill="#474747"/>
</g>
<g style="mix-blend-mode:multiply">
<path d="M98.0321 43.5747H86.3399C86.1896 43.5747 86.0453 43.5149 85.939 43.4086C85.8327 43.3023 85.7729 43.1581 85.7729 43.0077V37.1617C85.7729 37.0113 85.8327 36.8671 85.939 36.7608C86.0453 36.6545 86.1896 36.5947 86.3399 36.5947C86.4903 36.5947 86.6345 36.6545 86.7409 36.7608C86.8472 36.8671 86.9069 37.0113 86.9069 37.1617V42.4407H98.0321C98.1824 42.4407 98.3267 42.5004 98.433 42.6068C98.5393 42.7131 98.5991 42.8573 98.5991 43.0077C98.5991 43.1581 98.5393 43.3023 98.433 43.4086C98.3267 43.5149 98.1824 43.5747 98.0321 43.5747Z" fill="#474747"/>
</g>
<g style="mix-blend-mode:multiply">
<path d="M92.1862 49.4204H80.4942C80.3439 49.4204 80.1996 49.3606 80.0933 49.2543C79.987 49.148 79.9272 49.0038 79.9272 48.8534V43.0074C79.9272 42.8571 79.987 42.7128 80.0933 42.6065C80.1996 42.5002 80.3439 42.4404 80.4942 42.4404H92.1862C92.3365 42.4404 92.4808 42.5002 92.5871 42.6065C92.6934 42.7128 92.7532 42.8571 92.7532 43.0074V48.8534C92.7532 49.0038 92.6934 49.148 92.5871 49.2543C92.4808 49.3606 92.3365 49.4204 92.1862 49.4204ZM81.0612 48.2864H91.6192V43.5744H81.0612V48.2864Z" fill="#474747"/>
</g>
<g style="mix-blend-mode:multiply">
<path d="M89.6622 55.2671H86.3399C86.1896 55.2671 86.0453 55.2073 85.939 55.101C85.8327 54.9947 85.7729 54.8504 85.7729 54.7001V48.8541C85.7729 48.7037 85.8327 48.5595 85.939 48.4532C86.0453 48.3468 86.1896 48.2871 86.3399 48.2871H98.0321C98.1824 48.2871 98.3267 48.3468 98.433 48.4532C98.5393 48.5595 98.5991 48.7037 98.5991 48.8541C98.5991 49.0045 98.5393 49.1487 98.433 49.255C98.3267 49.3614 98.1824 49.4211 98.0321 49.4211H86.9069V54.1331H89.6622C89.8126 54.1331 89.9568 54.1928 90.0631 54.2991C90.1695 54.4055 90.2292 54.5497 90.2292 54.7001C90.2292 54.8504 90.1695 54.9947 90.0631 55.101C89.9568 55.2073 89.8126 55.2671 89.6622 55.2671Z" fill="#474747"/>
</g>
<g style="mix-blend-mode:multiply">
<path d="M86.3398 55.2671H76.8592C76.7088 55.2671 76.5646 55.2073 76.4582 55.101C76.3519 54.9947 76.2922 54.8504 76.2922 54.7001C76.2922 54.5497 76.3519 54.4055 76.4582 54.2991C76.5646 54.1928 76.7088 54.1331 76.8592 54.1331H85.7728V49.4211H74.6481C74.4977 49.4211 74.3535 49.3614 74.2471 49.255C74.1408 49.1487 74.0811 49.0045 74.0811 48.8541C74.0811 48.7037 74.1408 48.5595 74.2471 48.4532C74.3535 48.3468 74.4977 48.2871 74.6481 48.2871H86.3398C86.4902 48.2871 86.6344 48.3468 86.7407 48.4532C86.847 48.5595 86.9068 48.7037 86.9068 48.8541V54.7001C86.9068 54.8504 86.847 54.9947 86.7407 55.101C86.6344 55.2073 86.4902 55.2671 86.3398 55.2671Z" fill="#474747"/>
</g>
<g style="mix-blend-mode:multiply">
<path d="M80.4941 49.4204H74.6481C74.4978 49.4204 74.3535 49.3606 74.2472 49.2543C74.1409 49.148 74.0811 49.0038 74.0811 48.8534C74.0811 48.703 74.1409 48.5588 74.2472 48.4525C74.3535 48.3461 74.4978 48.2864 74.6481 48.2864H79.9271V43.5744H70.6627C70.5123 43.5744 70.3681 43.5147 70.2618 43.4084C70.1554 43.302 70.0957 43.1578 70.0957 43.0074C70.0957 42.8571 70.1554 42.7128 70.2618 42.6065C70.3681 42.5002 70.5123 42.4404 70.6627 42.4404H80.4941C80.6445 42.4404 80.7887 42.5002 80.895 42.6065C81.0014 42.7128 81.0611 42.8571 81.0611 43.0074V48.8534C81.0611 49.0038 81.0014 49.148 80.895 49.2543C80.7887 49.3606 80.6445 49.4204 80.4941 49.4204Z" fill="#474747"/>
</g>
<g style="mix-blend-mode:multiply">
<path d="M100.623 49.4204H92.1861C92.0358 49.4204 91.8915 49.3606 91.7852 49.2543C91.6789 49.148 91.6191 49.0038 91.6191 48.8534V43.0074C91.6191 42.8571 91.6789 42.7128 91.7852 42.6065C91.8915 42.5002 92.0358 42.4404 92.1861 42.4404H96.2389C96.3892 42.4404 96.5335 42.5002 96.6398 42.6065C96.7461 42.7128 96.8059 42.8571 96.8059 43.0074C96.8059 43.1578 96.7461 43.302 96.6398 43.4084C96.5335 43.5147 96.3892 43.5744 96.2389 43.5744H92.7531V48.2864H100.623C100.774 48.2864 100.918 48.3461 101.024 48.4525C101.131 48.5588 101.19 48.703 101.19 48.8534C101.19 49.0038 101.131 49.148 101.024 49.2543C100.918 49.3606 100.774 49.4204 100.623 49.4204Z" fill="#474747"/>
</g>
</g>
<g style="mix-blend-mode:multiply" opacity="0.23">
<g style="mix-blend-mode:multiply">
<path d="M6.24457 91.4411H-5.44716C-5.59754 91.4411 -5.74176 91.3814 -5.84809 91.275C-5.95442 91.1687 -6.01416 91.0245 -6.01416 90.8741C-6.01416 90.7237 -5.95442 90.5795 -5.84809 90.4732C-5.74176 90.3668 -5.59754 90.3071 -5.44716 90.3071H5.67757V85.0279C5.67757 84.8776 5.73731 84.7333 5.84364 84.627C5.94997 84.5207 6.09419 84.4609 6.24457 84.4609C6.39495 84.4609 6.53917 84.5207 6.6455 84.627C6.75183 84.7333 6.81157 84.8776 6.81157 85.0279V90.8741C6.81157 91.0245 6.75183 91.1687 6.6455 91.275C6.53917 91.3814 6.39495 91.4411 6.24457 91.4411Z" fill="#474747"/>
</g>
<g style="mix-blend-mode:multiply">
<path d="M17.9362 91.4411H6.24425C6.09387 91.4411 5.94965 91.3814 5.84332 91.275C5.73698 91.1687 5.67725 91.0245 5.67725 90.8741V85.0279C5.67725 84.8776 5.73698 84.7333 5.84332 84.627C5.94965 84.5207 6.09387 84.4609 6.24425 84.4609C6.39462 84.4609 6.53884 84.5207 6.64518 84.627C6.75151 84.7333 6.81125 84.8776 6.81125 85.0279V90.3071H17.9362C18.0865 90.3071 18.2308 90.3668 18.3371 90.4732C18.4434 90.5795 18.5032 90.7237 18.5032 90.8741C18.5032 91.0245 18.4434 91.1687 18.3371 91.275C18.2308 91.3814 18.0865 91.4411 17.9362 91.4411Z" fill="#474747"/>
</g>
<g style="mix-blend-mode:multiply">
<path d="M12.0906 97.2866H0.398543C0.248165 97.2866 0.103946 97.2269 -0.00238702 97.1205C-0.10872 97.0142 -0.168457 96.87 -0.168457 96.7196V90.8736C-0.168457 90.7233 -0.10872 90.579 -0.00238702 90.4727C0.103946 90.3664 0.248165 90.3066 0.398543 90.3066H12.0906C12.241 90.3066 12.3852 90.3664 12.4916 90.4727C12.5979 90.579 12.6576 90.7233 12.6576 90.8736V96.7196C12.6576 96.87 12.5979 97.0142 12.4916 97.1205C12.3852 97.2269 12.241 97.2866 12.0906 97.2866ZM0.965732 96.1526H11.5236V91.4406H0.965543L0.965732 96.1526Z" fill="#474747"/>
</g>
<g style="mix-blend-mode:multiply">
<path d="M9.56649 103.133H6.24425C6.09387 103.133 5.94965 103.073 5.84332 102.967C5.73698 102.861 5.67725 102.716 5.67725 102.566V96.7203C5.67725 96.5699 5.73698 96.4257 5.84332 96.3194C5.94965 96.2131 6.09387 96.1533 6.24425 96.1533H17.9362C18.0865 96.1533 18.2308 96.2131 18.3371 96.3194C18.4434 96.4257 18.5032 96.5699 18.5032 96.7203C18.5032 96.8707 18.4434 97.0149 18.3371 97.1213C18.2308 97.2276 18.0865 97.2873 17.9362 97.2873H6.81125V101.999H9.56649C9.71687 101.999 9.86108 102.059 9.96742 102.165C10.0738 102.272 10.1335 102.416 10.1335 102.566C10.1335 102.716 10.0738 102.861 9.96742 102.967C9.86108 103.073 9.71687 103.133 9.56649 103.133Z" fill="#474747"/>
</g>
<g style="mix-blend-mode:multiply">
<path d="M6.24457 103.133H-3.23605C-3.38643 103.133 -3.53064 103.073 -3.63698 102.967C-3.74331 102.861 -3.80305 102.716 -3.80305 102.566C-3.80305 102.416 -3.74331 102.272 -3.63698 102.165C-3.53064 102.059 -3.38643 101.999 -3.23605 101.999H5.67757V97.2873H-5.44716C-5.59754 97.2873 -5.74176 97.2276 -5.84809 97.1213C-5.95442 97.0149 -6.01416 96.8707 -6.01416 96.7203C-6.01416 96.5699 -5.95442 96.4257 -5.84809 96.3194C-5.74176 96.2131 -5.59754 96.1533 -5.44716 96.1533H6.24457C6.39495 96.1533 6.53917 96.2131 6.6455 96.3194C6.75183 96.4257 6.81157 96.5699 6.81157 96.7203V102.566C6.81157 102.716 6.75183 102.861 6.6455 102.967C6.53917 103.073 6.39495 103.133 6.24457 103.133Z" fill="#474747"/>
</g>
<g style="mix-blend-mode:multiply">
<path d="M0.398403 97.2866H-5.44737C-5.59775 97.2866 -5.74196 97.2269 -5.8483 97.1205C-5.95463 97.0142 -6.01437 96.87 -6.01437 96.7196C-6.01437 96.5692 -5.95463 96.425 -5.8483 96.3187C-5.74196 96.2123 -5.59775 96.1526 -5.44737 96.1526H-0.168597V91.4406H-9.433C-9.58338 91.4406 -9.7276 91.3809 -9.83393 91.2746C-9.94026 91.1682 -10 91.024 -10 90.8736C-10 90.7233 -9.94026 90.579 -9.83393 90.4727C-9.7276 90.3664 -9.58338 90.3066 -9.433 90.3066H0.398403C0.54878 90.3066 0.693 90.3664 0.799333 90.4727C0.905666 90.579 0.965403 90.7233 0.965403 90.8736V96.7196C0.965403 96.87 0.905666 97.0142 0.799333 97.1205C0.693 97.2269 0.54878 97.2866 0.398403 97.2866Z" fill="#474747"/>
</g>
<g style="mix-blend-mode:multiply">
<path d="M20.5276 97.2866H12.0904C11.9401 97.2866 11.7958 97.2269 11.6895 97.1205C11.5832 97.0142 11.5234 96.87 11.5234 96.7196V90.8736C11.5234 90.7233 11.5832 90.579 11.6895 90.4727C11.7958 90.3664 11.9401 90.3066 12.0904 90.3066H16.1434C16.2937 90.3066 16.4379 90.3664 16.5443 90.4727C16.6506 90.579 16.7104 90.7233 16.7104 90.8736C16.7104 91.024 16.6506 91.1682 16.5443 91.2746C16.4379 91.3809 16.2937 91.4406 16.1434 91.4406H12.6574V96.1526H20.5278C20.6782 96.1526 20.8224 96.2123 20.9287 96.3187C21.035 96.425 21.0948 96.5692 21.0948 96.7196C21.0948 96.87 21.035 97.0142 20.9287 97.1205C20.8224 97.2269 20.6782 97.2866 20.5278 97.2866H20.5276Z" fill="#474747"/>
</g>
</g>
<g style="mix-blend-mode:multiply" opacity="0.23">
<g style="mix-blend-mode:multiply">
<path d="M160.527 70.7288H148.835C148.685 70.7288 148.54 70.669 148.434 70.5627C148.328 70.4564 148.268 70.3121 148.268 70.1618V64.315C148.268 64.1647 148.328 64.0204 148.434 63.9141C148.54 63.8078 148.685 63.748 148.835 63.748C148.985 63.748 149.13 63.8078 149.236 63.9141C149.342 64.0204 149.402 64.1647 149.402 64.315V69.594H160.527C160.677 69.594 160.822 69.6537 160.928 69.7601C161.034 69.8664 161.094 70.0106 161.094 70.161C161.094 70.3114 161.034 70.4556 160.928 70.5619C160.822 70.6683 160.677 70.728 160.527 70.728V70.7288Z" fill="#474747"/>
</g>
<g style="mix-blend-mode:multiply">
<path d="M148.835 70.7288H137.143C136.993 70.7288 136.849 70.669 136.742 70.5627C136.636 70.4564 136.576 70.3121 136.576 70.1618C136.576 70.0114 136.636 69.8672 136.742 69.7608C136.849 69.6545 136.993 69.5948 137.143 69.5948H148.268V64.315C148.268 64.1647 148.328 64.0204 148.434 63.9141C148.541 63.8078 148.685 63.748 148.835 63.748C148.986 63.748 149.13 63.8078 149.236 63.9141C149.343 64.0204 149.402 64.1647 149.402 64.315V70.161C149.402 70.2355 149.388 70.3093 149.359 70.3782C149.331 70.4471 149.289 70.5097 149.236 70.5624C149.184 70.6152 149.121 70.657 149.052 70.6855C148.984 70.7141 148.91 70.7288 148.835 70.7288Z" fill="#474747"/>
</g>
<g style="mix-blend-mode:multiply">
<path d="M154.681 76.5745H142.989C142.839 76.5745 142.695 76.5148 142.588 76.4084C142.482 76.3021 142.422 76.1579 142.422 76.0075V70.1617C142.422 70.0113 142.482 69.8671 142.588 69.7608C142.695 69.6545 142.839 69.5947 142.989 69.5947H154.681C154.831 69.5947 154.976 69.6545 155.082 69.7608C155.188 69.8671 155.248 70.0113 155.248 70.1617V76.0075C155.248 76.1579 155.188 76.3021 155.082 76.4084C154.976 76.5148 154.831 76.5745 154.681 76.5745ZM143.556 75.4405H154.114V70.7287H143.556V75.4405Z" fill="#474747"/>
</g>
<g style="mix-blend-mode:multiply">
<path d="M148.835 82.4211H145.513C145.363 82.4211 145.218 82.3614 145.112 82.2551C145.006 82.1487 144.946 82.0045 144.946 81.8541C144.946 81.7038 145.006 81.5596 145.112 81.4532C145.218 81.3469 145.363 81.2871 145.513 81.2871H148.268V76.5744H137.143C136.993 76.5744 136.849 76.5147 136.742 76.4084C136.636 76.302 136.576 76.1578 136.576 76.0074C136.576 75.8571 136.636 75.7128 136.742 75.6065C136.849 75.5002 136.993 75.4404 137.143 75.4404H148.835C148.986 75.4404 149.13 75.5002 149.236 75.6065C149.343 75.7128 149.402 75.8571 149.402 76.0074V81.8541C149.402 82.0045 149.343 82.1487 149.236 82.2551C149.13 82.3614 148.986 82.4211 148.835 82.4211Z" fill="#474747"/>
</g>
<g style="mix-blend-mode:multiply">
<path d="M153.218 82.4211H148.835C148.685 82.4211 148.54 82.3614 148.434 82.2551C148.328 82.1487 148.268 82.0045 148.268 81.8541V76.0074C148.268 75.8571 148.328 75.7128 148.434 75.6065C148.54 75.5002 148.685 75.4404 148.835 75.4404H160.527C160.677 75.4404 160.822 75.5002 160.928 75.6065C161.034 75.7128 161.094 75.8571 161.094 76.0074C161.094 76.1578 161.034 76.302 160.928 76.4084C160.822 76.5147 160.677 76.5744 160.527 76.5744H149.402V81.2871H153.218C153.368 81.2871 153.512 81.3469 153.619 81.4532C153.725 81.5596 153.785 81.7038 153.785 81.8541C153.785 82.0045 153.725 82.1487 153.619 82.2551C153.512 82.3614 153.368 82.4211 153.218 82.4211Z" fill="#474747"/>
</g>
<g style="mix-blend-mode:multiply">
<path d="M160.527 76.5745H154.681C154.53 76.5745 154.386 76.5148 154.28 76.4084C154.174 76.3021 154.114 76.1579 154.114 76.0075V70.1617C154.114 70.0113 154.174 69.8671 154.28 69.7608C154.386 69.6545 154.53 69.5947 154.681 69.5947H164.512C164.663 69.5947 164.807 69.6545 164.913 69.7608C165.02 69.8671 165.079 70.0113 165.079 70.1617C165.079 70.3121 165.02 70.4563 164.913 70.5627C164.807 70.669 164.663 70.7287 164.512 70.7287H155.248V75.4405H160.527C160.677 75.4405 160.822 75.5002 160.928 75.6066C161.034 75.7129 161.094 75.8571 161.094 76.0075C161.094 76.1579 161.034 76.3021 160.928 76.4084C160.822 76.5148 160.677 76.5745 160.527 76.5745Z" fill="#474747"/>
</g>
<g style="mix-blend-mode:multiply">
<path d="M142.989 76.5745H134.552C134.401 76.5745 134.257 76.5148 134.151 76.4084C134.045 76.3021 133.985 76.1579 133.985 76.0075C133.985 75.8571 134.045 75.7129 134.151 75.6066C134.257 75.5002 134.401 75.4405 134.552 75.4405H142.422V70.7287H138.936C138.786 70.7287 138.642 70.669 138.536 70.5627C138.429 70.4563 138.369 70.3121 138.369 70.1617C138.369 70.0113 138.429 69.8671 138.536 69.7608C138.642 69.6545 138.786 69.5947 138.936 69.5947H142.989C143.14 69.5947 143.284 69.6545 143.39 69.7608C143.496 69.8671 143.556 70.0113 143.556 70.1617V76.0075C143.556 76.1579 143.496 76.3021 143.39 76.4084C143.284 76.5148 143.14 76.5745 142.989 76.5745Z" fill="#474747"/>
</g>
</g>
<path d="M154.681 124.682H-1.65363C-1.90426 124.682 -2.14463 124.582 -2.32185 124.405C-2.49907 124.228 -2.59863 123.988 -2.59863 123.737C-2.59863 123.486 -2.49907 123.246 -2.32185 123.069C-2.14463 122.892 -1.90426 122.792 -1.65363 122.792H154.681C154.932 122.792 155.172 122.892 155.349 123.069C155.526 123.246 155.626 123.486 155.626 123.737C155.626 123.988 155.526 124.228 155.349 124.405C155.172 124.582 154.932 124.682 154.681 124.682Z" fill="#333333"/>
<path d="M104.526 28.4004H124.166V57.5064H104.526C103.924 57.5064 103.347 57.2674 102.922 56.8421C102.497 56.4168 102.258 55.8399 102.258 55.2384V30.6684C102.258 30.0669 102.497 29.49 102.922 29.0647C103.347 28.6393 103.924 28.4004 104.526 28.4004Z" fill="#CC6675"/>
<path d="M143.806 57.5068H124.167V28.4008L143.806 28.4008C144.407 28.4008 144.984 28.6398 145.409 29.0651C145.835 29.4905 146.074 30.0673 146.074 30.6688V55.2388C146.074 55.8403 145.835 56.4172 145.409 56.8426C144.984 57.2679 144.407 57.5068 143.806 57.5068Z" fill="#FEE2CA"/>
<path d="M143.806 57.5068H124.167V28.4008L143.806 28.4008C144.407 28.4008 144.984 28.6398 145.409 29.0651C145.835 29.4905 146.074 30.0673 146.074 30.6688V55.2388C146.074 55.8403 145.835 56.4172 145.409 56.8426C144.984 57.2679 144.407 57.5068 143.806 57.5068Z" fill="#CC6675"/>
<path d="M143.805 58.4521H104.526C103.674 58.4511 102.857 58.1123 102.255 57.5099C101.653 56.9076 101.314 56.0909 101.313 55.2391V30.6691C101.314 29.8172 101.653 29.0005 102.255 28.3982C102.857 27.7958 103.674 27.457 104.526 27.4561H143.805C144.657 27.457 145.474 27.7958 146.076 28.3982C146.679 29.0005 147.018 29.8172 147.018 30.6691V55.2391C147.018 56.0909 146.679 56.9076 146.076 57.5099C145.474 58.1123 144.657 58.4511 143.805 58.4521ZM104.526 29.3461C104.175 29.3465 103.839 29.486 103.591 29.734C103.343 29.982 103.203 30.3183 103.203 30.6691V55.2391C103.203 55.5898 103.343 55.9261 103.591 56.1741C103.839 56.4221 104.175 56.5617 104.526 56.5621H143.805C144.156 56.5617 144.493 56.4221 144.741 56.1741C144.989 55.9261 145.128 55.5898 145.128 55.2391V30.6691C145.128 30.3183 144.989 29.982 144.741 29.734C144.493 29.486 144.156 29.3465 143.805 29.3461H104.526Z" fill="#333333"/>
<path d="M124.166 58.4521H104.526C103.674 58.4511 102.857 58.1123 102.255 57.5099C101.653 56.9076 101.314 56.0909 101.313 55.2391V30.6691C101.314 29.8172 101.653 29.0005 102.255 28.3982C102.857 27.7958 103.674 27.457 104.526 27.4561H124.166C124.416 27.4561 124.657 27.5556 124.834 27.7328C125.011 27.9101 125.111 28.1504 125.111 28.4011V57.5071C125.111 57.7577 125.011 57.998 124.834 58.1753C124.657 58.3525 124.416 58.4521 124.166 58.4521ZM104.526 29.3461C104.175 29.3465 103.839 29.486 103.591 29.734C103.343 29.982 103.203 30.3183 103.203 30.6691V55.2391C103.203 55.5898 103.343 55.9261 103.591 56.1741C103.839 56.4221 104.175 56.5617 104.526 56.5621H123.221V29.3461H104.526Z" fill="#333333"/>
<path d="M124.166 58.4521H104.526C103.674 58.4511 102.857 58.1123 102.255 57.5099C101.653 56.9076 101.314 56.0909 101.313 55.2391V30.6691C101.314 29.8172 101.653 29.0005 102.255 28.3982C102.857 27.7958 103.674 27.457 104.526 27.4561H124.166C124.416 27.4561 124.657 27.5556 124.834 27.7328C125.011 27.9101 125.111 28.1504 125.111 28.4011V57.5071C125.111 57.7577 125.011 57.998 124.834 58.1753C124.657 58.3525 124.416 58.4521 124.166 58.4521ZM104.526 29.3461C104.175 29.3465 103.839 29.486 103.591 29.734C103.343 29.982 103.203 30.3183 103.203 30.6691V55.2391C103.203 55.5898 103.343 55.9261 103.591 56.1741C103.839 56.4221 104.175 56.5617 104.526 56.5621H123.221V29.3461H104.526Z" fill="#333333"/>
<path d="M121.036 54.377V31.5303H105.388V54.377H121.036Z" fill="#F26B79"/>
<g style="mix-blend-mode:multiply" opacity="0.5">
<path d="M121.036 54.3769V52.7598H105.388V54.3769H121.036Z" fill="#99675E"/>
</g>
<g style="mix-blend-mode:screen" opacity="0.53">
<path d="M121.036 33.408V31.5303H105.388V33.408H121.036Z" fill="#99675E"/>
</g>
<path d="M121.036 55.1331H105.387C105.186 55.1331 104.994 55.0535 104.852 54.9117C104.711 54.7699 104.631 54.5776 104.631 54.3771V31.5304C104.631 31.3299 104.711 31.1376 104.852 30.9958C104.994 30.8541 105.186 30.7744 105.387 30.7744H121.036C121.237 30.7744 121.429 30.8541 121.571 30.9958C121.712 31.1376 121.792 31.3299 121.792 31.5304V54.3771C121.792 54.5776 121.712 54.7699 121.571 54.9117C121.429 55.0535 121.237 55.1331 121.036 55.1331ZM106.143 53.6211H120.28V32.2864H106.143V53.6211Z" fill="#333333"/>
<path d="M143.805 58.4521H124.166C123.915 58.4521 123.675 58.3525 123.497 58.1753C123.32 57.998 123.221 57.7577 123.221 57.5071V28.4011C123.221 28.1504 123.32 27.9101 123.497 27.7328C123.675 27.5556 123.915 27.4561 124.166 27.4561H143.805C144.657 27.457 145.474 27.7958 146.076 28.3982C146.679 29.0005 147.017 29.8172 147.018 30.6691V55.2391C147.017 56.0909 146.679 56.9076 146.076 57.5099C145.474 58.1123 144.657 58.4511 143.805 58.4521ZM125.111 56.5621H143.805C144.156 56.5617 144.492 56.4221 144.741 56.1741C144.989 55.9261 145.128 55.5898 145.128 55.2391V30.6691C145.128 30.3183 144.989 29.982 144.741 29.734C144.492 29.486 144.156 29.3465 143.805 29.3461H125.111V56.5621Z" fill="#333333"/>
<path d="M142.944 54.377V31.5303H127.295V54.377H142.944Z" fill="#F26B79"/>
<g style="mix-blend-mode:multiply" opacity="0.5">
<path d="M142.944 54.3769V52.7598H127.295V54.3769H142.944Z" fill="#99675E"/>
</g>
<g style="mix-blend-mode:screen" opacity="0.53">
<path d="M142.944 33.408V31.5303H127.295V33.408H142.944Z" fill="#99675E"/>
</g>
<path d="M142.944 55.1331H127.296C127.095 55.1331 126.903 55.0535 126.761 54.9117C126.619 54.7699 126.54 54.5776 126.54 54.3771V31.5304C126.54 31.3299 126.619 31.1376 126.761 30.9958C126.903 30.8541 127.095 30.7744 127.296 30.7744H142.944C143.144 30.7744 143.337 30.8541 143.478 30.9958C143.62 31.1376 143.7 31.3299 143.7 31.5304V54.3771C143.7 54.5776 143.62 54.7699 143.478 54.9117C143.337 55.0535 143.144 55.1331 142.944 55.1331ZM128.052 53.6211H142.188V32.2864H128.052V53.6211Z" fill="#333333"/>
<path d="M117.066 46.7678C116.815 46.7678 116.575 46.6682 116.398 46.491C116.221 46.3138 116.121 46.0734 116.121 45.8228V39.1462C116.121 38.8955 116.221 38.6552 116.398 38.478C116.575 38.3007 116.815 38.2012 117.066 38.2012C117.317 38.2012 117.557 38.3007 117.734 38.478C117.912 38.6552 118.011 38.8955 118.011 39.1462V45.8228C118.011 46.0734 117.912 46.3138 117.734 46.491C117.557 46.6682 117.317 46.7678 117.066 46.7678Z" fill="#333333"/>
<path d="M130.941 46.7678C130.69 46.7678 130.45 46.6682 130.273 46.491C130.096 46.3138 129.996 46.0734 129.996 45.8228V39.1462C129.996 38.8955 130.096 38.6552 130.273 38.478C130.45 38.3007 130.69 38.2012 130.941 38.2012C131.192 38.2012 131.432 38.3007 131.609 38.478C131.787 38.6552 131.886 38.8955 131.886 39.1462V45.8228C131.886 46.0734 131.787 46.3138 131.609 46.491C131.432 46.6682 131.192 46.7678 130.941 46.7678Z" fill="#333333"/>
<path d="M74.9629 45.1133C80.8083 45.1133 85.5469 40.3747 85.5469 34.5293C85.5469 28.6839 80.8083 23.9453 74.9629 23.9453C69.1175 23.9453 64.3789 28.6839 64.3789 34.5293C64.3789 40.3747 69.1175 45.1133 74.9629 45.1133Z" fill="#FFE9BD"/>
<g style="mix-blend-mode:multiply">
<path d="M74.9633 28.103C77.4095 28.1033 79.7801 28.9507 81.6722 30.5012C83.5643 32.0517 84.861 34.2095 85.342 36.608C85.649 35.0725 85.6114 33.4881 85.232 31.9689C84.8527 30.4497 84.1409 29.0336 83.1481 27.8227C82.1554 26.6118 80.9063 25.6363 79.4909 24.9665C78.0756 24.2967 76.5292 23.9492 74.9634 23.9492C73.3975 23.9492 71.8512 24.2967 70.4359 24.9665C69.0205 25.6363 67.7714 26.6118 66.7786 27.8227C65.7859 29.0336 65.0741 30.4497 64.6947 31.9689C64.3154 33.4881 64.2778 35.0725 64.5847 36.608C65.0657 34.2096 66.3625 32.0517 68.2545 30.5012C70.1465 28.9507 72.5171 28.1033 74.9633 28.103Z" fill="#E2E2E2"/>
</g>
<path d="M74.9636 46.058C72.6834 46.058 70.4543 45.3818 68.5584 44.115C66.6625 42.8482 65.1848 41.0476 64.3122 38.941C63.4396 36.8343 63.2113 34.5162 63.6561 32.2798C64.101 30.0434 65.199 27.9891 66.8113 26.3768C68.4237 24.7644 70.478 23.6664 72.7144 23.2215C74.9508 22.7767 77.2689 23.005 79.3755 23.8776C81.4822 24.7502 83.2828 26.2279 84.5496 28.1238C85.8164 30.0198 86.4926 32.2488 86.4926 34.529C86.4892 37.5856 85.2734 40.5161 83.1121 42.6775C80.9507 44.8389 78.0202 46.0546 74.9636 46.058ZM74.9636 24.89C73.0572 24.89 71.1936 25.4553 69.6084 26.5145C68.0233 27.5736 66.7879 29.079 66.0583 30.8403C65.3287 32.6016 65.1379 34.5397 65.5098 36.4095C65.8817 38.2793 66.7997 39.9968 68.1478 41.3448C69.4958 42.6928 71.2133 43.6109 73.0831 43.9828C74.9529 44.3547 76.891 44.1638 78.6523 43.4343C80.4136 42.7047 81.919 41.4693 82.9781 39.8841C84.0373 38.299 84.6026 36.4354 84.6026 34.529C84.5997 31.9735 83.5833 29.5234 81.7762 27.7164C79.9692 25.9093 77.5191 24.8929 74.9636 24.89Z" fill="#333333"/>
<path d="M74.9632 43.7896C73.1315 43.7896 71.341 43.2464 69.818 42.2288C68.2951 41.2112 67.108 39.7648 66.4071 38.0726C65.7062 36.3804 65.5228 34.5183 65.8801 32.7218C66.2374 30.9254 67.1195 29.2752 68.4146 27.9801C69.7098 26.6849 71.36 25.8029 73.1564 25.4455C74.9529 25.0882 76.815 25.2716 78.5072 25.9725C80.1994 26.6735 81.6458 27.8605 82.6634 29.3834C83.681 30.9064 84.2241 32.6969 84.2241 34.5286C84.2214 36.9839 83.2448 39.3379 81.5086 41.0741C79.7725 42.8102 77.4185 43.7868 74.9632 43.7896ZM74.9632 26.4016C73.3558 26.4016 71.7845 26.8782 70.448 27.7712C69.1116 28.6642 68.0699 29.9335 67.4548 31.4185C66.8397 32.9035 66.6787 34.5376 66.9923 36.1141C67.3059 37.6906 68.0799 39.1387 69.2165 40.2752C70.3531 41.4118 71.8012 42.1858 73.3777 42.4994C74.9541 42.813 76.5882 42.6521 78.0732 42.0369C79.5582 41.4218 80.8275 40.3802 81.7205 39.0437C82.6135 37.7072 83.0901 36.1359 83.0901 34.5286C83.0877 32.3739 82.2307 30.3082 80.7072 28.7846C79.1836 27.261 77.1178 26.404 74.9632 26.4016Z" fill="#333333"/>
<path d="M79.6567 35.0955H74.9633C74.8584 35.0956 74.7555 35.0665 74.6662 35.0116C74.5768 34.9567 74.5045 34.878 74.4571 34.7845L71.6851 29.3035C71.6172 29.1692 71.6054 29.0136 71.6523 28.8707C71.6992 28.7278 71.801 28.6094 71.9352 28.5415C72.0694 28.4736 72.2251 28.4618 72.368 28.5088C72.5109 28.5557 72.6293 28.6574 72.6971 28.7916L75.3118 33.9615H79.6567C79.8071 33.9615 79.9513 34.0213 80.0576 34.1276C80.164 34.2339 80.2237 34.3782 80.2237 34.5285C80.2237 34.6789 80.164 34.8231 80.0576 34.9295C79.9513 35.0358 79.8071 35.0955 79.6567 35.0955Z" fill="#333333"/>
<path d="M74.9632 35.8678C75.7025 35.8678 76.3019 35.2685 76.3019 34.5291C76.3019 33.7898 75.7025 33.1904 74.9632 33.1904C74.2239 33.1904 73.6245 33.7898 73.6245 34.5291C73.6245 35.2685 74.2239 35.8678 74.9632 35.8678Z" fill="#333333"/>
<path d="M126.955 76.6009C127.816 76.6009 128.514 75.9028 128.514 75.0417C128.514 74.1805 127.816 73.4824 126.955 73.4824C126.094 73.4824 125.396 74.1805 125.396 75.0417C125.396 75.9028 126.094 76.6009 126.955 76.6009Z" fill="#FFF3E9"/>
<path d="M126.955 77.3561C126.497 77.3561 126.05 77.2203 125.669 76.9659C125.288 76.7115 124.992 76.3499 124.816 75.9268C124.641 75.5038 124.595 75.0383 124.685 74.5892C124.774 74.14 124.994 73.7275 125.318 73.4037C125.642 73.0799 126.055 72.8594 126.504 72.7701C126.953 72.6807 127.418 72.7266 127.841 72.9018C128.264 73.0771 128.626 73.3738 128.88 73.7545C129.135 74.1353 129.271 74.5829 129.271 75.0408C129.27 75.6547 129.026 76.2431 128.592 76.6772C128.158 77.1112 127.569 77.3554 126.955 77.3561ZM126.955 74.2376C126.797 74.2376 126.641 74.2847 126.509 74.373C126.377 74.4612 126.274 74.5867 126.213 74.7334C126.152 74.8802 126.137 75.0417 126.168 75.1975C126.199 75.3534 126.275 75.4965 126.387 75.6088C126.5 75.7212 126.643 75.7977 126.799 75.8287C126.954 75.8596 127.116 75.8437 127.263 75.7829C127.41 75.7221 127.535 75.6192 127.623 75.4871C127.712 75.355 127.759 75.1997 127.759 75.0408C127.758 74.8279 127.674 74.6237 127.523 74.4731C127.373 74.3225 127.168 74.2378 126.955 74.2376Z" fill="#333333"/>
<path d="M144.065 87.7637H131.388V123.737H144.065V87.7637Z" fill="#F29F4D"/>
<path d="M144.065 121.717H131.388V123.737H144.065V121.717Z" fill="#DB8945"/>
<path d="M144.065 87.7637H131.388V90.1891H144.065V87.7637Z" fill="#DB8945"/>
<path d="M144.065 80.0781H96.6123V87.7642H144.065V80.0781Z" fill="#F4B47A"/>
<path opacity="0.63" d="M144.065 86.252H96.6123V87.764H144.065V86.252Z" fill="#DB8945"/>
<path d="M144.065 80.0781H96.6123V81.6846H144.065V80.0781Z" fill="#F9C59B"/>
<path d="M114 105.75H96.6123V123.737H114V105.75Z" fill="#F29F4D"/>
<path d="M114 121.717H96.6123V123.737H114V121.717Z" fill="#DB8945"/>
<path d="M114 124.682H96.6125C96.3619 124.682 96.1215 124.582 95.9443 124.405C95.767 124.228 95.6675 123.987 95.6675 123.737V80.0778C95.6675 79.8272 95.767 79.5868 95.9443 79.4096C96.1215 79.2324 96.3619 79.1328 96.6125 79.1328H114C114.251 79.1328 114.491 79.2324 114.669 79.4096C114.846 79.5868 114.945 79.8272 114.945 80.0778V123.737C114.945 123.987 114.846 124.228 114.669 124.405C114.491 124.582 114.251 124.682 114 124.682ZM97.5575 122.792H113.055V81.0228H97.5575V122.792Z" fill="#333333"/>
<path d="M131.388 124.682H114C113.75 124.682 113.509 124.582 113.332 124.405C113.155 124.228 113.055 123.987 113.055 123.737V80.0778C113.055 79.8272 113.155 79.5868 113.332 79.4096C113.509 79.2324 113.75 79.1328 114 79.1328H131.388C131.639 79.1328 131.879 79.2324 132.056 79.4096C132.234 79.5868 132.333 79.8272 132.333 80.0778V123.737C132.333 123.987 132.234 124.228 132.056 124.405C131.879 124.582 131.639 124.682 131.388 124.682ZM114.945 122.792H130.443V81.0228H114.945V122.792Z" fill="#333333"/>
<path d="M144.065 124.682H131.388C131.138 124.682 130.897 124.582 130.72 124.405C130.543 124.228 130.443 123.987 130.443 123.737V80.0778C130.443 79.8272 130.543 79.5868 130.72 79.4096C130.897 79.2324 131.138 79.1328 131.388 79.1328H144.065C144.315 79.1328 144.556 79.2324 144.733 79.4096C144.91 79.5868 145.01 79.8272 145.01 80.0778V123.737C145.01 123.987 144.91 124.228 144.733 124.405C144.556 124.582 144.315 124.682 144.065 124.682ZM132.333 122.792H143.12V81.0228H132.333V122.792Z" fill="#333333"/>
<path d="M114 124.682H96.6125C96.3619 124.682 96.1215 124.583 95.9443 124.405C95.767 124.228 95.6675 123.988 95.6675 123.737V87.7643C95.6675 87.5137 95.767 87.2733 95.9443 87.0961C96.1215 86.9189 96.3619 86.8193 96.6125 86.8193H114C114.251 86.8193 114.491 86.9189 114.669 87.0961C114.846 87.2733 114.945 87.5137 114.945 87.7643V123.737C114.945 123.988 114.846 124.228 114.669 124.405C114.491 124.583 114.251 124.682 114 124.682ZM97.5575 122.792H113.055V88.7093H97.5575V122.792Z" fill="#333333"/>
<path d="M114 124.682H96.6125C96.3619 124.682 96.1215 124.583 95.9443 124.405C95.767 124.228 95.6675 123.988 95.6675 123.737V105.751C95.6675 105.5 95.767 105.26 95.9443 105.082C96.1215 104.905 96.3619 104.806 96.6125 104.806H114C114.251 104.806 114.491 104.905 114.669 105.082C114.846 105.26 114.945 105.5 114.945 105.751V123.737C114.945 123.988 114.846 124.228 114.669 124.405C114.491 124.583 114.251 124.682 114 124.682ZM97.5575 122.792H113.055V106.696H97.5575V122.792Z" fill="#333333"/>
<path d="M114 87.7637H96.6123V105.75H114V87.7637Z" fill="#F29F4D"/>
<path d="M114 87.7637H96.6123V90.1891H114V87.7637Z" fill="#DB8945"/>
<path d="M114 106.696H96.6125C96.3619 106.696 96.1215 106.596 95.9443 106.419C95.767 106.242 95.6675 106.001 95.6675 105.751V87.7643C95.6675 87.5137 95.767 87.2733 95.9443 87.0961C96.1215 86.9189 96.3619 86.8193 96.6125 86.8193H114C114.251 86.8193 114.491 86.9189 114.669 87.0961C114.846 87.2733 114.945 87.5137 114.945 87.7643V105.751C114.945 106.001 114.846 106.242 114.669 106.419C114.491 106.596 114.251 106.696 114 106.696ZM97.5575 104.806H113.055V88.7093H97.5575V104.806Z" fill="#333333"/>
<path d="M131.388 87.7637H114V123.737H131.388V87.7637Z" fill="#F29F4D"/>
<path d="M131.388 121.717H114V123.737H131.388V121.717Z" fill="#DB8945"/>
<path d="M131.388 87.7637H114V90.1891H131.388V87.7637Z" fill="#DB8945"/>
<path d="M131.388 124.682H114C113.75 124.682 113.509 124.583 113.332 124.405C113.155 124.228 113.055 123.988 113.055 123.737V87.7643C113.055 87.5137 113.155 87.2733 113.332 87.0961C113.509 86.9189 113.75 86.8193 114 86.8193H131.388C131.639 86.8193 131.879 86.9189 132.056 87.0961C132.234 87.2733 132.333 87.5137 132.333 87.7643V123.737C132.333 123.988 132.234 124.228 132.056 124.405C131.879 124.583 131.639 124.682 131.388 124.682ZM114.945 122.792H130.443V88.7093H114.945V122.792Z" fill="#333333"/>
<path d="M127.715 119.909V93.7969H117.674V119.909H127.715Z" fill="#F4B77F"/>
<g style="mix-blend-mode:screen" opacity="0.39">
<path d="M117.674 110.477L127.715 97.2391V93.7969H124.901L117.674 103.325V110.477Z" fill="#F9C59B"/>
</g>
<g style="mix-blend-mode:screen" opacity="0.39">
<path d="M117.674 115.707L127.715 102.47V99.832L117.674 113.069V115.707Z" fill="#F9C59B"/>
</g>
<g style="mix-blend-mode:screen" opacity="0.39">
<path d="M117.674 119.316L127.715 106.079V104.692L117.674 117.93V119.316Z" fill="#F9C59B"/>
</g>
<path d="M127.715 120.476H117.674C117.524 120.476 117.379 120.416 117.273 120.309C117.167 120.203 117.107 120.059 117.107 119.909V93.7965C117.107 93.6461 117.167 93.5019 117.273 93.3956C117.379 93.2892 117.524 93.2295 117.674 93.2295H127.715C127.865 93.2295 128.009 93.2892 128.115 93.3956C128.222 93.5019 128.282 93.6461 128.282 93.7965V119.909C128.282 120.059 128.222 120.203 128.115 120.309C128.009 120.416 127.865 120.476 127.715 120.476ZM118.241 119.342H127.148V94.3635H118.241V119.342Z" fill="#333333"/>
<path d="M110.327 102.506V93.7969H100.286V102.506H110.327Z" fill="#F4B77F"/>
<g style="mix-blend-mode:screen" opacity="0.43">
<path d="M104.912 93.7969L100.286 99.8959V102.506H101.364L107.97 93.7969H104.912Z" fill="#F9C59B"/>
</g>
<g style="mix-blend-mode:screen" opacity="0.43">
<path d="M104.666 102.506L110.327 95.0424V93.7969H109.268L102.662 102.506H104.666Z" fill="#F9C59B"/>
</g>
<path d="M110.327 103.073H100.286C100.135 103.073 99.9912 103.013 99.8848 102.907C99.7785 102.8 99.7188 102.656 99.7188 102.506V93.7965C99.7188 93.6461 99.7785 93.5019 99.8848 93.3956C99.9912 93.2892 100.135 93.2295 100.286 93.2295H110.327C110.477 93.2295 110.621 93.2892 110.727 93.3956C110.834 93.5019 110.894 93.6461 110.894 93.7965V102.506C110.894 102.656 110.834 102.8 110.727 102.907C110.621 103.013 110.477 103.073 110.327 103.073ZM100.853 101.939H109.76V94.3635H100.853V101.939Z" fill="#333333"/>
<path d="M144.065 124.682H131.388C131.138 124.682 130.897 124.583 130.72 124.405C130.543 124.228 130.443 123.988 130.443 123.737V87.7643C130.443 87.5137 130.543 87.2733 130.72 87.0961C130.897 86.9189 131.138 86.8193 131.388 86.8193H144.065C144.315 86.8193 144.556 86.9189 144.733 87.0961C144.91 87.2733 145.01 87.5137 145.01 87.7643V123.737C145.01 123.988 144.91 124.228 144.733 124.405C144.556 124.583 144.315 124.682 144.065 124.682ZM132.333 122.792H143.12V88.7093H132.333V122.792Z" fill="#333333"/>
<path d="M140.705 119.909V93.7969H134.748V119.909H140.705Z" fill="#F4B77F"/>
<g style="mix-blend-mode:screen" opacity="0.32">
<path d="M134.748 110.558L140.705 102.704V95.5527L134.748 103.407V110.558Z" fill="#F9C59B"/>
</g>
<g style="mix-blend-mode:screen" opacity="0.32">
<path d="M134.748 114.743L140.705 106.89V104.252L134.748 112.106V114.743Z" fill="#F9C59B"/>
</g>
<g style="mix-blend-mode:screen" opacity="0.32">
<path d="M134.748 117.684L140.705 109.83V108.443L134.748 116.297V117.684Z" fill="#F9C59B"/>
</g>
<path d="M140.705 120.476H134.748C134.597 120.476 134.453 120.416 134.347 120.309C134.24 120.203 134.181 120.059 134.181 119.909V93.7965C134.181 93.6461 134.24 93.5019 134.347 93.3956C134.453 93.2892 134.597 93.2295 134.748 93.2295H140.705C140.855 93.2295 141 93.2892 141.106 93.3956C141.212 93.5019 141.272 93.6461 141.272 93.7965V119.909C141.272 120.059 141.212 120.203 141.106 120.309C141 120.416 140.855 120.476 140.705 120.476ZM135.315 119.342H140.138V94.3635H135.315V119.342Z" fill="#333333"/>
<path d="M96.6123 124.682H55.7883C55.5376 124.682 55.2973 124.582 55.12 124.405C54.9428 124.228 54.8433 123.987 54.8433 123.737V80.0778C54.8433 79.8272 54.9428 79.5868 55.12 79.4096C55.2973 79.2324 55.5376 79.1328 55.7883 79.1328H96.6123C96.8629 79.1328 97.1033 79.2324 97.2805 79.4096C97.4577 79.5868 97.5573 79.8272 97.5573 80.0778V123.737C97.5573 123.987 97.4577 124.228 97.2805 124.405C97.1033 124.582 96.8629 124.682 96.6123 124.682ZM56.7333 122.792H95.6673V81.0228H56.7333V122.792Z" fill="#333333"/>
<path d="M96.6121 87.7637H55.7881V122.657H96.6121V87.7637Z" fill="#F29F4D"/>
<path d="M96.6121 120.776H55.7881V122.658H96.6121V120.776Z" fill="#DB8945"/>
<path d="M96.6121 87.7637H55.7881V90.1891H96.6121V87.7637Z" fill="#DB8945"/>
<path d="M96.6123 123.603H55.7883C55.5376 123.603 55.2973 123.504 55.12 123.326C54.9428 123.149 54.8433 122.909 54.8433 122.658V87.7643C54.8433 87.5137 54.9428 87.2733 55.12 87.0961C55.2973 86.9189 55.5376 86.8193 55.7883 86.8193H96.6123C96.8629 86.8193 97.1033 86.9189 97.2805 87.0961C97.4577 87.2733 97.5573 87.5137 97.5573 87.7643V122.658C97.5573 122.909 97.4577 123.149 97.2805 123.326C97.1033 123.504 96.8629 123.603 96.6123 123.603ZM56.7333 121.713H95.6673V88.7093H56.7333V121.713Z" fill="#333333"/>
<path d="M90.4438 112.769V101.631C90.4438 99.4351 88.664 97.6553 86.4684 97.6553H65.9323C63.7367 97.6553 61.9568 99.4351 61.9568 101.631V112.769C61.9568 114.964 63.7367 116.744 65.9323 116.744H86.4684C88.664 116.744 90.4438 114.964 90.4438 112.769Z" fill="#CFE5E8"/>
<path d="M87.7979 101.63V112.768C87.7979 113.121 87.6578 113.459 87.4085 113.708C87.1592 113.958 86.821 114.098 86.4684 114.098H65.9321C65.7575 114.098 65.5847 114.063 65.4234 113.997C65.2621 113.93 65.1156 113.832 64.9922 113.708C64.8687 113.585 64.7708 113.438 64.704 113.277C64.6372 113.116 64.6028 112.943 64.6028 112.769V101.63C64.6028 101.278 64.7429 100.939 64.9922 100.69C65.2415 100.441 65.5797 100.301 65.9323 100.301H86.4684C86.643 100.301 86.8159 100.335 86.9772 100.402C87.1385 100.469 87.285 100.567 87.4085 100.69C87.5319 100.814 87.6299 100.96 87.6967 101.121C87.7635 101.283 87.7979 101.456 87.7979 101.63Z" fill="#A7E3E8"/>
<path d="M86.4685 117.5H65.9321C64.6777 117.499 63.475 117 62.588 116.113C61.701 115.226 61.2021 114.023 61.2007 112.769V101.631C61.2021 100.376 61.701 99.1738 62.588 98.2868C63.475 97.3997 64.6777 96.9008 65.9321 96.8994H86.4685C87.7229 96.9008 88.9255 97.3998 89.8125 98.2868C90.6995 99.1738 91.1984 100.376 91.1997 101.631V112.769C91.1984 114.023 90.6995 115.226 89.8125 116.113C88.9255 117 87.7229 117.499 86.4685 117.5ZM65.9321 98.4114C65.0786 98.4124 64.2602 98.7519 63.6567 99.3554C63.0531 99.959 62.7136 100.777 62.7127 101.631V112.769C62.7136 113.623 63.0531 114.441 63.6567 115.044C64.2602 115.648 65.0786 115.987 65.9321 115.988H86.4685C87.322 115.987 88.1403 115.648 88.7438 115.044C89.3473 114.441 89.6868 113.623 89.6877 112.769V101.631C89.6868 100.777 89.3473 99.959 88.7438 99.3555C88.1403 98.7519 87.322 98.4124 86.4685 98.4114H65.9321Z" fill="#333333"/>
<path d="M83.6767 93.5912H68.7238C68.4732 93.5912 68.2328 93.4916 68.0556 93.3144C67.8784 93.1372 67.7788 92.8968 67.7788 92.6462C67.7788 92.3955 67.8784 92.1552 68.0556 91.978C68.2328 91.8007 68.4732 91.7012 68.7238 91.7012H83.6767C83.9274 91.7012 84.1677 91.8007 84.3449 91.978C84.5222 92.1552 84.6217 92.3955 84.6217 92.6462C84.6217 92.8968 84.5222 93.1372 84.3449 93.3144C84.1677 93.4916 83.9274 93.5912 83.6767 93.5912Z" fill="#333333"/>
<path d="M96.6123 87.7642V80.0781H55.7883V87.7642H96.6123Z" fill="#F4B47A"/>
<path opacity="0.63" d="M96.6123 87.764V86.252H55.7883V87.764H96.6123Z" fill="#DB8945"/>
<path d="M96.6123 81.6846V80.0781H55.7883V81.6846H96.6123Z" fill="#F9C59B"/>
<path d="M96.6123 88.7089H55.7883C55.5376 88.7089 55.2973 88.6093 55.12 88.4321C54.9428 88.2549 54.8433 88.0145 54.8433 87.7639V80.0778C54.8433 79.8272 54.9428 79.5868 55.12 79.4096C55.2973 79.2324 55.5376 79.1328 55.7883 79.1328H96.6123C96.8629 79.1328 97.1033 79.2324 97.2805 79.4096C97.4577 79.5868 97.5573 79.8272 97.5573 80.0778V87.7639C97.5573 88.0145 97.4577 88.2549 97.2805 88.4321C97.1033 88.6093 96.8629 88.7089 96.6123 88.7089ZM56.7333 86.8189H95.6673V81.0228H56.7333V86.8189Z" fill="#333333"/>
<path d="M68.6333 85.0551H59.8132C59.5124 85.0551 59.224 84.9356 59.0113 84.723C58.7987 84.5103 58.6792 84.2219 58.6792 83.9211C58.6792 83.6204 58.7987 83.3319 59.0113 83.1192C59.224 82.9066 59.5124 82.7871 59.8132 82.7871H68.6333C68.934 82.7871 69.2225 82.9066 69.4351 83.1192C69.6478 83.3319 69.7673 83.6204 69.7673 83.9211C69.7673 84.2219 69.6478 84.5103 69.4351 84.723C69.2225 84.9356 68.934 85.0551 68.6333 85.0551Z" fill="#333333"/>
<path d="M83.6768 85.2656C84.4194 85.2656 85.0215 84.6636 85.0215 83.9209C85.0215 83.1782 84.4194 82.5762 83.6768 82.5762C82.9341 82.5762 82.332 83.1782 82.332 83.9209C82.332 84.6636 82.9341 85.2656 83.6768 85.2656Z" fill="#EA5050"/>
<path d="M83.6768 85.6437C83.3361 85.6437 83.003 85.5427 82.7197 85.3534C82.4364 85.1641 82.2156 84.895 82.0852 84.5802C81.9549 84.2655 81.9207 83.9191 81.9872 83.5849C82.0537 83.2507 82.2178 82.9438 82.4587 82.7028C82.6996 82.4619 83.0066 82.2978 83.3407 82.2313C83.6749 82.1649 84.0213 82.199 84.3361 82.3294C84.6509 82.4598 84.9199 82.6806 85.1092 82.9639C85.2985 83.2472 85.3996 83.5803 85.3996 83.921C85.399 84.3777 85.2173 84.8156 84.8944 85.1385C84.5714 85.4615 84.1336 85.6432 83.6768 85.6437ZM83.6768 82.9542C83.4856 82.9542 83.2987 83.0109 83.1398 83.1172C82.9808 83.2234 82.8569 83.3744 82.7837 83.551C82.7105 83.7277 82.6914 83.922 82.7287 84.1096C82.766 84.2971 82.8581 84.4694 82.9933 84.6046C83.1285 84.7398 83.3007 84.8318 83.4882 84.8691C83.6758 84.9064 83.8701 84.8873 84.0468 84.8141C84.2234 84.741 84.3744 84.617 84.4807 84.4581C84.5869 84.2991 84.6436 84.1122 84.6436 83.921C84.6432 83.6647 84.5413 83.419 84.36 83.2378C84.1788 83.0566 83.9331 82.9546 83.6768 82.9542Z" fill="#333333"/>
<path d="M87.7324 85.2656C88.4751 85.2656 89.0772 84.6636 89.0772 83.9209C89.0772 83.1782 88.4751 82.5762 87.7324 82.5762C86.9898 82.5762 86.3877 83.1782 86.3877 83.9209C86.3877 84.6636 86.9898 85.2656 87.7324 85.2656Z" fill="#7DC163"/>
<path d="M87.7325 85.6437C87.3918 85.6437 87.0587 85.5427 86.7754 85.3534C86.4921 85.1641 86.2713 84.895 86.1409 84.5802C86.0105 84.2655 85.9764 83.9191 86.0429 83.5849C86.1093 83.2507 86.2734 82.9438 86.5143 82.7028C86.7553 82.4619 87.0622 82.2978 87.3964 82.2313C87.7306 82.1649 88.077 82.199 88.3918 82.3294C88.7066 82.4598 88.9756 82.6806 89.1649 82.9639C89.3542 83.2472 89.4552 83.5803 89.4552 83.921C89.4547 84.3777 89.273 84.8156 88.95 85.1385C88.6271 85.4615 88.1892 85.6432 87.7325 85.6437ZM87.7325 82.9542C87.5413 82.9542 87.3544 83.0109 87.1954 83.1172C87.0364 83.2234 86.9125 83.3744 86.8394 83.551C86.7662 83.7277 86.747 83.922 86.7843 84.1096C86.8216 84.2971 86.9137 84.4694 87.0489 84.6046C87.1841 84.7398 87.3564 84.8318 87.5439 84.8691C87.7314 84.9064 87.9258 84.8873 88.1025 84.8141C88.2791 84.741 88.4301 84.617 88.5363 84.4581C88.6425 84.2991 88.6992 84.1122 88.6992 83.921C88.6989 83.6647 88.5969 83.419 88.4157 83.2378C88.2345 83.0566 87.9888 82.9546 87.7325 82.9542Z" fill="#333333"/>
<path d="M91.7886 85.6437C91.4479 85.6437 91.1148 85.5427 90.8315 85.3534C90.5482 85.1641 90.3274 84.895 90.1971 84.5802C90.0667 84.2655 90.0325 83.9191 90.099 83.5849C90.1655 83.2507 90.3296 82.9438 90.5705 82.7028C90.8114 82.4619 91.1184 82.2978 91.4526 82.2313C91.7867 82.1649 92.1331 82.199 92.4479 82.3294C92.7627 82.4598 93.0318 82.6806 93.2211 82.9639C93.4103 83.2472 93.5114 83.5803 93.5114 83.921C93.5108 84.3777 93.3292 84.8156 93.0062 85.1385C92.6832 85.4615 92.2454 85.6432 91.7886 85.6437ZM91.7886 82.9542C91.5974 82.9542 91.4105 83.0109 91.2516 83.1172C91.0926 83.2234 90.9687 83.3744 90.8955 83.551C90.8223 83.7277 90.8032 83.922 90.8405 84.1096C90.8778 84.2971 90.9699 84.4694 91.1051 84.6046C91.2403 84.7398 91.4125 84.8318 91.6001 84.8691C91.7876 84.9064 91.982 84.8873 92.1586 84.8141C92.3353 84.741 92.4862 84.617 92.5925 84.4581C92.6987 84.2991 92.7554 84.1122 92.7554 83.921C92.755 83.6647 92.6531 83.419 92.4718 83.2378C92.2906 83.0566 92.0449 82.9546 91.7886 82.9542Z" fill="#333333"/>
<path d="M91.7886 85.2656C92.5313 85.2656 93.1333 84.6636 93.1333 83.9209C93.1333 83.1782 92.5313 82.5762 91.7886 82.5762C91.0459 82.5762 90.4438 83.1782 90.4438 83.9209C90.4438 84.6636 91.0459 85.2656 91.7886 85.2656Z" fill="#333333"/>
<path d="M121.94 78.464C124.268 78.464 126.155 75.9713 126.155 72.8965H117.725C117.725 75.9713 119.613 78.464 121.94 78.464Z" fill="#FFF3E9"/>
<path opacity="0.45" d="M123.93 72.8965C123.93 75.4623 122.615 77.6215 120.827 78.2663C121.184 78.3964 121.56 78.4633 121.94 78.464C124.268 78.464 126.155 75.9713 126.155 72.8965H123.93Z" fill="#C4CECD"/>
<path d="M121.94 79.2192C119.198 79.2192 116.968 76.3825 116.968 72.8956C116.968 72.6951 117.048 72.5029 117.19 72.3611C117.331 72.2193 117.524 72.1396 117.724 72.1396H126.155C126.356 72.1396 126.548 72.2193 126.69 72.3611C126.832 72.5029 126.911 72.6951 126.911 72.8956C126.911 76.3825 124.681 79.2192 121.94 79.2192ZM118.523 73.6516C118.785 75.9469 120.217 77.7072 121.94 77.7072C123.663 77.7072 125.095 75.9469 125.357 73.6516H118.523Z" fill="#333333"/>
<path d="M125.396 80.0785H118.484C118.233 80.0785 117.993 79.9789 117.816 79.8017C117.639 79.6245 117.539 79.3841 117.539 79.1335C117.539 78.8828 117.639 78.6425 117.816 78.4653C117.993 78.288 118.233 78.1885 118.484 78.1885H125.396C125.647 78.1885 125.887 78.288 126.064 78.4653C126.242 78.6425 126.341 78.8828 126.341 79.1335C126.341 79.3841 126.242 79.6245 126.064 79.8017C125.887 79.9789 125.647 80.0785 125.396 80.0785Z" fill="#333333"/>
<path d="M120.556 71.6519C120.451 71.6518 120.349 71.6228 120.26 71.5679C120.17 71.5131 120.098 71.4346 120.051 71.3411C120.003 71.2477 119.983 71.143 119.991 71.0386C120 70.9343 120.037 70.8343 120.099 70.7498C120.391 70.3505 120.797 69.6328 120.83 69.2297C120.652 69.1411 120.464 69.0724 120.271 69.0246C119.823 68.894 119.147 68.6969 119.147 68.045C119.147 67.4351 119.742 66.4763 119.997 66.0925C120.081 65.9673 120.211 65.8804 120.358 65.8509C120.506 65.8214 120.659 65.8516 120.784 65.935C120.909 66.0184 120.996 66.1482 121.025 66.2956C121.055 66.4431 121.025 66.5963 120.941 66.7215C120.7 67.0786 120.495 67.4591 120.33 67.8572C120.413 67.8849 120.511 67.9139 120.588 67.9358C121.103 68.087 121.966 68.3376 121.966 69.179C121.966 70.0753 121.172 71.2032 121.013 71.4202C120.961 71.492 120.892 71.5505 120.812 71.5907C120.733 71.631 120.645 71.652 120.556 71.6519Z" fill="#333333"/>
<path d="M123.323 70.5986C123.218 70.5985 123.115 70.5695 123.026 70.5146C122.937 70.4597 122.865 70.3812 122.817 70.2878C122.77 70.1943 122.749 70.0896 122.758 69.9852C122.766 69.8808 122.804 69.7808 122.866 69.6963C123.157 69.2971 123.564 68.5793 123.597 68.1762C123.418 68.0875 123.231 68.0187 123.037 67.9709C122.59 67.8405 121.914 67.6434 121.914 66.9915C121.914 66.3818 122.509 65.4228 122.764 65.0391C122.848 64.9149 122.977 64.8288 123.124 64.7998C123.271 64.7708 123.424 64.8011 123.549 64.8842C123.673 64.9673 123.76 65.0964 123.79 65.2433C123.82 65.3901 123.79 65.5428 123.708 65.668C123.467 66.0252 123.262 66.4056 123.096 66.8037C123.179 66.8314 123.277 66.8604 123.354 66.8823C123.87 67.0335 124.732 67.2841 124.732 68.1255C124.732 69.0216 123.938 70.1497 123.78 70.3667C123.727 70.4385 123.658 70.4969 123.579 70.5372C123.5 70.5775 123.412 70.5985 123.323 70.5986Z" fill="#333333"/>
<path d="M121.399 64.4543C121.307 64.4544 121.216 64.432 121.134 64.3891C121.053 64.3461 120.983 64.284 120.931 64.2079C120.879 64.1319 120.846 64.0443 120.835 63.9527C120.825 63.8612 120.837 63.7684 120.87 63.6824L121.334 62.4853C121.359 62.4143 121.399 62.3491 121.45 62.2936C121.501 62.2382 121.563 62.1935 121.632 62.1622C121.701 62.1309 121.775 62.1137 121.851 62.1116C121.926 62.1094 122.001 62.1224 122.072 62.1497C122.142 62.177 122.206 62.218 122.261 62.2705C122.315 62.323 122.358 62.3858 122.388 62.4552C122.418 62.5247 122.433 62.5994 122.434 62.6749C122.434 62.7504 122.42 62.8253 122.391 62.8951L121.927 64.092C121.886 64.1985 121.813 64.2901 121.719 64.3548C121.625 64.4194 121.513 64.4541 121.399 64.4543Z" fill="#333333"/>
<path d="M144.065 88.7089H96.6125C96.3619 88.7089 96.1215 88.6093 95.9443 88.4321C95.767 88.2549 95.6675 88.0145 95.6675 87.7639V80.0778C95.6675 79.8272 95.767 79.5868 95.9443 79.4096C96.1215 79.2324 96.3619 79.1328 96.6125 79.1328H144.065C144.315 79.1328 144.556 79.2324 144.733 79.4096C144.91 79.5868 145.01 79.8272 145.01 80.0778V87.7639C145.01 88.0145 144.91 88.2549 144.733 88.4321C144.556 88.6093 144.315 88.7089 144.065 88.7089ZM97.5575 86.8189H143.12V81.0228H97.5575V86.8189Z" fill="#333333"/>
<path d="M107.319 91.4183H103.294C103.094 91.4183 102.901 91.3386 102.76 91.1968C102.618 91.055 102.538 90.8628 102.538 90.6623C102.538 90.4617 102.618 90.2695 102.76 90.1277C102.901 89.9859 103.094 89.9062 103.294 89.9062H107.319C107.519 89.9062 107.712 89.9859 107.853 90.1277C107.995 90.2695 108.075 90.4617 108.075 90.6623C108.075 90.8628 107.995 91.055 107.853 91.1968C107.712 91.3386 107.519 91.4183 107.319 91.4183Z" fill="#333333"/>
<path d="M110.327 119.909V111.2H100.286V119.909H110.327Z" fill="#F4B77F"/>
<g style="mix-blend-mode:screen" opacity="0.43">
<path d="M104.912 111.2L100.286 117.299V119.909H101.364L107.97 111.2H104.912Z" fill="#F9C59B"/>
</g>
<g style="mix-blend-mode:screen" opacity="0.43">
<path d="M104.666 119.909L110.327 112.446V111.2H109.268L102.662 119.909H104.666Z" fill="#F9C59B"/>
</g>
<path d="M110.327 120.476H100.286C100.135 120.476 99.9912 120.416 99.8848 120.31C99.7785 120.203 99.7188 120.059 99.7188 119.909V111.2C99.7188 111.049 99.7785 110.905 99.8848 110.799C99.9912 110.693 100.135 110.633 100.286 110.633H110.327C110.477 110.633 110.621 110.693 110.727 110.799C110.834 110.905 110.894 111.049 110.894 111.2V119.909C110.894 120.059 110.834 120.203 110.727 120.31C110.621 120.416 110.477 120.476 110.327 120.476ZM100.853 119.342H109.76V111.767H100.853V119.342Z" fill="#333333"/>
<path d="M107.319 109.199H103.294C103.094 109.199 102.901 109.119 102.76 108.977C102.618 108.835 102.538 108.643 102.538 108.443C102.538 108.242 102.618 108.05 102.76 107.908C102.901 107.766 103.094 107.687 103.294 107.687H107.319C107.519 107.687 107.712 107.766 107.853 107.908C107.995 108.05 108.075 108.242 108.075 108.443C108.075 108.643 107.995 108.835 107.853 108.977C107.712 109.119 107.519 109.199 107.319 109.199Z" fill="#333333"/>
<path d="M120.954 91.4183H117.674C117.473 91.4183 117.281 91.3386 117.139 91.1968C116.998 91.055 116.918 90.8628 116.918 90.6623C116.918 90.4617 116.998 90.2695 117.139 90.1277C117.281 89.9859 117.473 89.9062 117.674 89.9062H120.954C121.155 89.9062 121.347 89.9859 121.489 90.1277C121.631 90.2695 121.71 90.4617 121.71 90.6623C121.71 90.8628 121.631 91.055 121.489 91.1968C121.347 91.3386 121.155 91.4183 120.954 91.4183Z" fill="#333333"/>
<path d="M137.208 91.4183H134.748C134.547 91.4183 134.355 91.3386 134.213 91.1968C134.071 91.055 133.992 90.8628 133.992 90.6623C133.992 90.4617 134.071 90.2695 134.213 90.1277C134.355 89.9859 134.547 89.9062 134.748 89.9062H137.208C137.409 89.9062 137.601 89.9859 137.743 90.1277C137.885 90.2695 137.964 90.4617 137.964 90.6623C137.964 90.8628 137.885 91.055 137.743 91.1968C137.601 91.3386 137.409 91.4183 137.208 91.4183Z" fill="#333333"/>
<path d="M82.6776 78.0801H69.2622C68.7105 78.0801 68.2632 78.5274 68.2632 79.0791V79.0793C68.2632 79.6311 68.7105 80.0784 69.2622 80.0784H82.6776C83.2294 80.0784 83.6767 79.6311 83.6767 79.0793V79.0791C83.6767 78.5274 83.2294 78.0801 82.6776 78.0801Z" fill="#333333"/>
<path d="M85.0215 72.8962L91.376 67.6926L90.4437 66.4072L83.249 70.0317L85.0215 72.8962Z" fill="#FFF3E9"/>
<path d="M85.0216 73.8414C84.9696 73.8414 84.9176 73.8371 84.8663 73.8285C84.7335 73.8064 84.6069 73.7562 84.4951 73.6812C84.3833 73.6062 84.2888 73.5082 84.218 73.3938L82.4455 70.5293C82.3764 70.4179 82.3313 70.2933 82.313 70.1634C82.2947 70.0336 82.3036 69.9014 82.3391 69.7751C82.3747 69.6489 82.4361 69.5315 82.5195 69.4303C82.6029 69.3291 82.7064 69.2464 82.8235 69.1874L90.0186 65.5632C90.2191 65.4621 90.449 65.4356 90.6672 65.4886C90.8853 65.5416 91.0775 65.6705 91.2093 65.8523L92.1416 67.1375C92.2829 67.3326 92.3444 67.5743 92.3135 67.8131C92.2825 68.052 92.1616 68.27 91.9753 68.4227L85.6207 73.6263C85.4519 73.765 85.2402 73.841 85.0216 73.8414ZM84.5954 70.4118L85.2569 71.4817L89.7113 67.834L84.5954 70.4118Z" fill="#333333"/>
<path d="M82.3109 66.4072H69.6748C67.7475 66.4072 66.1851 67.9696 66.1851 69.8969V74.5904C66.1851 76.5177 67.7475 78.0801 69.6748 78.0801H82.3109C84.2382 78.0801 85.8006 76.5177 85.8006 74.5904V69.8969C85.8006 67.9696 84.2382 66.4072 82.3109 66.4072Z" fill="#DBDDDD"/>
<path opacity="0.55" d="M68.7163 74.5904V69.8967C68.7163 69.4385 68.8066 68.9847 68.982 68.5613C69.1574 68.1379 69.4144 67.7532 69.7385 67.4292C70.0625 67.1052 70.4472 66.8481 70.8706 66.6728C71.294 66.4974 71.7478 66.4072 72.206 66.4072H69.6748C69.2165 66.4072 68.7627 66.4974 68.3393 66.6728C67.9159 66.8481 67.5312 67.1052 67.2072 67.4292C66.8831 67.7532 66.6261 68.1379 66.4507 68.5613C66.2753 68.9847 66.1851 69.4385 66.1851 69.8967V74.5904C66.1851 75.0486 66.2753 75.5024 66.4507 75.9258C66.6261 76.3492 66.8831 76.7338 67.2072 77.0579C67.5312 77.3819 67.9159 77.6389 68.3393 77.8143C68.7627 77.9897 69.2165 78.0799 69.6748 78.0799H72.206C71.7478 78.0799 71.294 77.9897 70.8706 77.8143C70.4472 77.6389 70.0625 77.3819 69.7385 77.0579C69.4144 76.7338 69.1574 76.3492 68.982 75.9258C68.8066 75.5024 68.7163 75.0486 68.7163 74.5904Z" fill="white"/>
<path d="M82.3108 66.4072H78.8423C79.7678 66.4072 80.6554 66.7749 81.3098 67.4293C81.9643 68.0837 82.3319 68.9712 82.332 69.8967V74.5904C82.3319 75.5159 81.9643 76.4034 81.3098 77.0578C80.6554 77.7122 79.7678 78.0799 78.8423 78.0799H82.3108C82.7691 78.0799 83.2229 77.9897 83.6463 77.8143C84.0696 77.6389 84.4543 77.3819 84.7784 77.0579C85.1024 76.7338 85.3595 76.3492 85.5349 75.9258C85.7102 75.5024 85.8005 75.0486 85.8005 74.5904V69.8967C85.8005 69.4385 85.7102 68.9847 85.5349 68.5613C85.3595 68.1379 85.1024 67.7532 84.7784 67.4292C84.4543 67.1052 84.0696 66.8481 83.6463 66.6728C83.2229 66.4974 82.7691 66.4072 82.3108 66.4072Z" fill="#C4CECD"/>
<path d="M82.3106 79.0246H69.6744C68.4987 79.0233 67.3715 78.5556 66.5401 77.7243C65.7088 76.8929 65.2411 75.7658 65.2397 74.59V69.8964C65.2411 68.7207 65.7088 67.5935 66.5401 66.7622C67.3715 65.9308 68.4987 65.4632 69.6744 65.4619H82.3106C83.4863 65.4632 84.6136 65.9308 85.445 66.7621C86.2763 67.5935 86.744 68.7207 86.7453 69.8964V74.59C86.744 75.7658 86.2763 76.893 85.445 77.7244C84.6136 78.5557 83.4863 79.0233 82.3106 79.0246ZM69.6744 67.3519C68.9998 67.3527 68.353 67.621 67.876 68.098C67.3989 68.575 67.1305 69.2218 67.1297 69.8964V74.59C67.1305 75.2647 67.3988 75.9115 67.8759 76.3885C68.353 76.8656 68.9998 77.1339 69.6744 77.1346H82.3106C82.9853 77.1339 83.6321 76.8656 84.1091 76.3885C84.5862 75.9115 84.8546 75.2647 84.8553 74.59V69.8964C84.8545 69.2218 84.5861 68.575 84.1091 68.098C83.632 67.621 82.9852 67.3527 82.3106 67.3519H69.6744Z" fill="#333333"/>
<path d="M66.1852 70.4287H63.7822V73.0849H66.1852V70.4287Z" fill="#333333"/>
<path d="M66.1849 74.0296H63.7819C63.5313 74.0296 63.2909 73.93 63.1137 73.7528C62.9365 73.5756 62.8369 73.3352 62.8369 73.0846V70.4284C62.8369 70.1778 62.9365 69.9374 63.1137 69.7602C63.2909 69.583 63.5313 69.4834 63.7819 69.4834H66.1849C66.4355 69.4834 66.6759 69.583 66.8531 69.7602C67.0303 69.9374 67.1299 70.1778 67.1299 70.4284V73.0846C67.1299 73.3352 67.0303 73.5756 66.8531 73.7528C66.6759 73.93 66.4355 74.0296 66.1849 74.0296ZM64.7269 72.1396H65.2399V71.3734H64.7269V72.1396Z" fill="#333333"/>
<path d="M76.0672 68.6438C74.0294 68.6632 71.9934 68.515 69.9799 68.2006C68.3796 67.9209 66.7437 67.4684 66.7437 66.235C66.7437 65.0016 68.3796 64.5482 69.9799 64.2694C74.0167 63.6784 78.1179 63.6784 82.1547 64.2694C83.755 64.5491 85.391 65.0016 85.391 66.235C85.391 67.4684 83.755 67.9218 82.1547 68.2006C80.1411 68.515 78.1051 68.6632 76.0672 68.6438ZM69.7603 66.234C71.0226 66.5018 73.1538 66.7538 76.0668 66.7538C78.9799 66.7538 81.1112 66.5018 82.3734 66.234C81.1112 65.9662 78.9799 65.7143 76.0672 65.7143C73.1545 65.7143 71.0226 65.9662 69.7603 66.234Z" fill="#333333"/>
<path d="M76.8863 61.7451H75.0593C74.5373 61.7451 74.1143 62.1682 74.1143 62.6901V65.4622C74.1143 65.9841 74.5373 66.4072 75.0593 66.4072H76.8863C77.4082 66.4072 77.8313 65.9841 77.8313 65.4622V62.6901C77.8313 62.1682 77.4082 61.7451 76.8863 61.7451Z" fill="#333333"/>
<path d="M92.5099 65.3365C92.4024 65.3364 92.2972 65.3057 92.2064 65.2481C92.1157 65.1905 92.0432 65.1082 91.9974 65.0109C91.9516 64.9137 91.9344 64.8054 91.9478 64.6987C91.9613 64.5921 92.0047 64.4914 92.0732 64.4085L92.9938 63.2934L92.0769 62.2061C92.0031 62.1185 91.9575 62.0106 91.9461 61.8966C91.9348 61.7826 91.9583 61.6679 92.0134 61.5674L92.6371 60.4334C92.7101 60.3026 92.8318 60.206 92.9758 60.1646C93.1197 60.1233 93.2742 60.1405 93.4055 60.2127C93.5367 60.2848 93.6341 60.406 93.6764 60.5497C93.7186 60.6934 93.7023 60.848 93.6309 60.9797L93.1951 61.7725L94.166 62.9239C94.2516 63.0254 94.2988 63.1537 94.2995 63.2865C94.3002 63.4192 94.2543 63.548 94.1697 63.6504L92.9479 65.131C92.8946 65.1955 92.8277 65.2474 92.752 65.2829C92.6762 65.3184 92.5936 65.3367 92.5099 65.3365Z" fill="#333333"/>
<path d="M71.7343 114.098L82.1995 100.301H78.1927L67.7275 114.098H71.7343Z" fill="#D7FFF7"/>
<path d="M76.0733 114.098L86.536 100.304C86.5135 100.303 86.4914 100.301 86.4687 100.301H84.5345L74.0693 114.098H76.0733Z" fill="#D7FFF7"/>
<path d="M84.4454 133.863H69.4777C69.2271 133.863 68.9867 133.763 68.8095 133.586C68.6323 133.409 68.5327 133.168 68.5327 132.918C68.5327 132.667 68.6323 132.427 68.8095 132.249C68.9867 132.072 69.2271 131.973 69.4777 131.973H84.4454C84.696 131.973 84.9364 132.072 85.1136 132.249C85.2908 132.427 85.3904 132.667 85.3904 132.918C85.3904 133.168 85.2908 133.409 85.1136 133.586C84.9364 133.763 84.696 133.863 84.4454 133.863Z" fill="#1D2F3D"/>
<path d="M65.2938 133.863H62.902C62.6514 133.863 62.411 133.763 62.2338 133.586C62.0566 133.409 61.957 133.168 61.957 132.918C61.957 132.667 62.0566 132.427 62.2338 132.249C62.411 132.072 62.6514 131.973 62.902 131.973H65.2938C65.5445 131.973 65.7848 132.072 65.962 132.249C66.1393 132.427 66.2388 132.667 66.2388 132.918C66.2388 133.168 66.1393 133.409 65.962 133.586C65.7848 133.763 65.5445 133.863 65.2938 133.863Z" fill="#1D2F3D"/>
<path d="M47.3392 29.9932H13.6972C12.4446 29.9932 11.4292 31.0086 11.4292 32.2612V121.469C11.4292 122.722 12.4446 123.737 13.6972 123.737H47.3392C48.5918 123.737 49.6072 122.722 49.6072 121.469V32.2612C49.6072 31.0086 48.5918 29.9932 47.3392 29.9932Z" fill="#AECBD9"/>
<path d="M14.1627 121.469V32.2612C14.1627 31.0087 15.2506 29.9932 16.5927 29.9932H13.8592C12.5173 29.9932 11.4292 31.0087 11.4292 32.2612V121.469C11.4292 122.722 12.5171 123.737 13.8592 123.737H16.5927C15.2506 123.737 14.1627 122.722 14.1627 121.469Z" fill="#C4E7F4"/>
<path opacity="0.89" d="M47.3389 29.9932H43.0864C43.6879 29.9932 44.2648 30.2321 44.6901 30.6574C45.1155 31.0828 45.3544 31.6597 45.3544 32.2612V121.469C45.3544 122.071 45.1155 122.648 44.6901 123.073C44.2648 123.498 43.6879 123.737 43.0864 123.737H47.3389C47.9404 123.737 48.5173 123.498 48.9426 123.073C49.368 122.648 49.6069 122.071 49.6069 121.469V32.2612C49.6069 31.6597 49.368 31.0828 48.9426 30.6574C48.5173 30.2321 47.9404 29.9932 47.3389 29.9932Z" fill="#8CA2AE"/>
<path d="M47.3389 124.682H13.6969C12.845 124.681 12.0284 124.342 11.426 123.74C10.8237 123.137 10.4848 122.321 10.4839 121.469V32.2609C10.4848 31.409 10.8237 30.5923 11.426 29.99C12.0284 29.3876 12.845 29.0488 13.6969 29.0479H47.3389C48.1907 29.0488 49.0074 29.3876 49.6098 29.99C50.2121 30.5923 50.5509 31.409 50.5519 32.2609V121.469C50.5509 122.321 50.2121 123.137 49.6098 123.74C49.0074 124.342 48.1907 124.681 47.3389 124.682ZM13.6969 30.9379C13.3461 30.9383 13.0099 31.0778 12.7618 31.3258C12.5138 31.5738 12.3743 31.9101 12.3739 32.2609V121.469C12.3743 121.82 12.5138 122.156 12.7618 122.404C13.0099 122.652 13.3461 122.791 13.6969 122.792H47.3389C47.6896 122.791 48.0259 122.652 48.274 122.404C48.522 122.156 48.6615 121.82 48.6619 121.469V32.2609C48.6615 31.9101 48.522 31.5738 48.274 31.3258C48.0259 31.0778 47.6896 30.9383 47.3389 30.9379H13.6969Z" fill="#333333"/>
<path d="M49.6069 59.6659H11.4289C11.1783 59.6659 10.9379 59.5663 10.7607 59.3891C10.5834 59.2118 10.4839 58.9715 10.4839 58.7208V32.2609C10.4848 31.409 10.8237 30.5923 11.426 29.99C12.0284 29.3876 12.845 29.0488 13.6969 29.0479H47.3389C48.1907 29.0488 49.0074 29.3876 49.6098 29.99C50.2121 30.5923 50.5509 31.409 50.5519 32.2609V58.7208C50.5519 58.9715 50.4523 59.2118 50.2751 59.3891C50.0979 59.5663 49.8575 59.6659 49.6069 59.6659ZM12.3739 57.7759H48.6619V32.2609C48.6615 31.9101 48.522 31.5738 48.274 31.3258C48.0259 31.0778 47.6896 30.9383 47.3389 30.9379H13.6969C13.3461 30.9383 13.0099 31.0778 12.7618 31.3258C12.5138 31.5738 12.3743 31.9101 12.3739 32.2609V57.7759Z" fill="#333333"/>
<path d="M16.5925 53.2397C16.3418 53.2397 16.1015 53.1401 15.9242 52.9629C15.747 52.7857 15.6475 52.5453 15.6475 52.2947V43.5378C15.6475 43.2871 15.747 43.0468 15.9242 42.8696C16.1015 42.6923 16.3418 42.5928 16.5925 42.5928C16.8431 42.5928 17.0835 42.6923 17.2607 42.8696C17.4379 43.0468 17.5375 43.2871 17.5375 43.5378V52.2947C17.5375 52.5453 17.4379 52.7857 17.2607 52.9629C17.0835 53.1401 16.8431 53.2397 16.5925 53.2397Z" fill="#333333"/>
<path d="M16.5925 90.2836C16.3418 90.2836 16.1015 90.184 15.9242 90.0068C15.747 89.8296 15.6475 89.5892 15.6475 89.3386V73.4401C15.6475 73.1895 15.747 72.9491 15.9242 72.7719C16.1015 72.5947 16.3418 72.4951 16.5925 72.4951C16.8431 72.4951 17.0835 72.5947 17.2607 72.7719C17.4379 72.9491 17.5375 73.1895 17.5375 73.4401V89.3386C17.5375 89.5892 17.4379 89.8296 17.2607 90.0068C17.0835 90.184 16.8431 90.2836 16.5925 90.2836Z" fill="#333333"/>
<path d="M49.6072 58.7207H11.4292V63.8866H49.6072V58.7207Z" fill="#64809B"/>
<g style="mix-blend-mode:multiply" opacity="0.71">
<path d="M49.6068 58.7207H45.2598V63.8866H49.6068V58.7207Z" fill="#8CA2AE"/>
</g>
<g style="mix-blend-mode:color-dodge" opacity="0.26">
<path d="M14.1627 58.7207H11.4292V63.8866H14.1627V58.7207Z" fill="#64809B"/>
</g>
<path d="M49.6069 64.8323H11.4289C11.1783 64.8323 10.9379 64.7327 10.7607 64.5555C10.5834 64.3783 10.4839 64.1379 10.4839 63.8873V58.7214C10.4839 58.4707 10.5834 58.2304 10.7607 58.0532C10.9379 57.8759 11.1783 57.7764 11.4289 57.7764H49.6069C49.8575 57.7764 50.0979 57.8759 50.2751 58.0532C50.4523 58.2304 50.5519 58.4707 50.5519 58.7214V63.8873C50.5519 64.1379 50.4523 64.3783 50.2751 64.5555C50.0979 64.7327 49.8575 64.8323 49.6069 64.8323ZM12.3739 62.9423H48.6619V59.6664H12.3739V62.9423Z" fill="#333333"/>
<path d="M37.7001 61.8713H23.1471C22.9967 61.8713 22.8525 61.8116 22.7461 61.7052C22.6398 61.5989 22.5801 61.4547 22.5801 61.3043C22.5801 61.1539 22.6398 61.0097 22.7461 60.9034C22.8525 60.797 22.9967 60.7373 23.1471 60.7373H37.7001C37.8505 60.7373 37.9947 60.797 38.101 60.9034C38.2073 61.0097 38.2671 61.1539 38.2671 61.3043C38.2671 61.4547 38.2073 61.5989 38.101 61.7052C37.9947 61.8116 37.8505 61.8713 37.7001 61.8713Z" fill="#333333"/>
</g>
<defs>
<clipPath id="clip0_226_8794">
<rect width="156" height="156" fill="white"/>
</clipPath>
</defs>
</svg>
