<svg width="16" height="16" viewBox="0 0 16 16" fill="none" xmlns="http://www.w3.org/2000/svg">
<path fill-rule="evenodd" clip-rule="evenodd" d="M13.9977 7.31616H13.9997C14.367 7.31616 14.6657 7.6135 14.6664 7.98083C14.6717 9.7615 13.983 11.4382 12.727 12.7008C11.4717 13.9635 9.7997 14.6615 8.01904 14.6668H7.9997C6.2257 14.6668 4.55704 13.9788 3.29904 12.7275C2.03637 11.4722 1.33837 9.80016 1.33304 8.0195C1.32771 6.23816 2.01637 4.56216 3.27237 3.2995C4.52771 2.03683 6.19971 1.33883 7.98037 1.3335C8.51037 1.3415 9.05037 1.39483 9.5677 1.51883C9.92504 1.6055 10.1457 1.9655 10.059 2.3235C9.97304 2.68083 9.61104 2.90083 9.25504 2.8155C8.84104 2.7155 8.4017 2.6735 7.98437 2.66683C6.5597 2.67083 5.2217 3.2295 4.21771 4.2395C3.21304 5.2495 2.66237 6.59083 2.66637 8.0155C2.67037 9.44016 3.22904 10.7775 4.23904 11.7822C5.2457 12.7828 6.58037 13.3335 7.9997 13.3335H8.01504C9.4397 13.3295 10.7777 12.7708 11.7817 11.7608C12.7864 10.7502 13.337 9.4095 13.333 7.98483C13.3324 7.61683 13.6297 7.31683 13.9977 7.31616ZM5.52837 7.52876C5.78904 7.2681 6.21037 7.2681 6.47104 7.52876L7.96704 9.02476L12.165 4.22743C12.4077 3.9521 12.8284 3.92276 13.1057 4.16543C13.3824 4.40743 13.4104 4.82876 13.1677 5.1061L8.50104 10.4394C8.37971 10.5781 8.20637 10.6601 8.02171 10.6668H7.9997C7.82304 10.6668 7.65371 10.5968 7.52837 10.4714L5.52837 8.47143C5.2677 8.21076 5.2677 7.78943 5.52837 7.52876Z" fill="#9B51E0"/>
<mask id="mask0_54_2706" style="mask-type:alpha" maskUnits="userSpaceOnUse" x="1" y="1" width="14" height="14">
<path fill-rule="evenodd" clip-rule="evenodd" d="M13.9977 7.31616H13.9997C14.367 7.31616 14.6657 7.6135 14.6664 7.98083C14.6717 9.7615 13.983 11.4382 12.727 12.7008C11.4717 13.9635 9.7997 14.6615 8.01904 14.6668H7.9997C6.2257 14.6668 4.55704 13.9788 3.29904 12.7275C2.03637 11.4722 1.33837 9.80016 1.33304 8.0195C1.32771 6.23816 2.01637 4.56216 3.27237 3.2995C4.52771 2.03683 6.19971 1.33883 7.98037 1.3335C8.51037 1.3415 9.05037 1.39483 9.5677 1.51883C9.92504 1.6055 10.1457 1.9655 10.059 2.3235C9.97304 2.68083 9.61104 2.90083 9.25504 2.8155C8.84104 2.7155 8.4017 2.6735 7.98437 2.66683C6.5597 2.67083 5.2217 3.2295 4.21771 4.2395C3.21304 5.2495 2.66237 6.59083 2.66637 8.0155C2.67037 9.44016 3.22904 10.7775 4.23904 11.7822C5.2457 12.7828 6.58037 13.3335 7.9997 13.3335H8.01504C9.4397 13.3295 10.7777 12.7708 11.7817 11.7608C12.7864 10.7502 13.337 9.4095 13.333 7.98483C13.3324 7.61683 13.6297 7.31683 13.9977 7.31616ZM5.52837 7.52876C5.78904 7.2681 6.21037 7.2681 6.47104 7.52876L7.96704 9.02476L12.165 4.22743C12.4077 3.9521 12.8284 3.92276 13.1057 4.16543C13.3824 4.40743 13.4104 4.82876 13.1677 5.1061L8.50104 10.4394C8.37971 10.5781 8.20637 10.6601 8.02171 10.6668H7.9997C7.82304 10.6668 7.65371 10.5968 7.52837 10.4714L5.52837 8.47143C5.2677 8.21076 5.2677 7.78943 5.52837 7.52876Z" fill="white"/>
</mask>
<g mask="url(#mask0_54_2706)">
<rect width="16" height="16" fill="#9B51E0"/>
</g>
</svg>
